%TF.GenerationSoftware,KiCad,Pcbnew,9.0.7*%
%TF.CreationDate,2026-07-17T22:57:56+03:00*%
%TF.ProjectId,right_part,72696768-745f-4706-9172-742e6b696361,rev?*%
%TF.SameCoordinates,Original*%
%TF.FileFunction,Plated,1,2,PTH,Drill*%
%TF.FilePolarity,Positive*%
%FSLAX46Y46*%
G04 Gerber Fmt 4.6, Leading zero omitted, Abs format (unit mm)*
G04 Created by KiCad (PCBNEW 9.0.7) date 2026-07-17 22:57:56*
%MOMM*%
%LPD*%
G01*
G04 APERTURE LIST*
%TA.AperFunction,ViaDrill*%
%ADD10C,0.300000*%
%TD*%
%TA.AperFunction,ComponentDrill*%
%ADD11C,0.750000*%
%TD*%
%TA.AperFunction,ComponentDrill*%
%ADD12C,0.800000*%
%TD*%
%TA.AperFunction,ComponentDrill*%
%ADD13C,0.900000*%
%TD*%
%TA.AperFunction,ComponentDrill*%
%ADD14C,1.092200*%
%TD*%
%TA.AperFunction,ComponentDrill*%
%ADD15C,1.500000*%
%TD*%
G04 APERTURE END LIST*
D10*
X93000000Y-71000000D03*
X94000000Y-62000000D03*
X105049265Y-72049265D03*
X106000000Y-71000000D03*
D11*
%TO.C,J1*%
X94000000Y-102450000D03*
X96000000Y-102450000D03*
D12*
%TO.C,D19*%
X108635000Y-124725443D03*
X112445000Y-131324557D03*
%TO.C,D1*%
X126240000Y-66215000D03*
X126240000Y-73835000D03*
%TO.C,D7*%
X126340000Y-85690000D03*
X126340000Y-93310000D03*
%TO.C,D13*%
X126440000Y-104715000D03*
X126440000Y-112335000D03*
%TO.C,D20*%
X132640000Y-123125000D03*
X134612201Y-130485355D03*
%TO.C,D2*%
X145240000Y-64125000D03*
X145240000Y-71745000D03*
%TO.C,D8*%
X145440000Y-84915000D03*
X145440000Y-92535000D03*
%TO.C,D14*%
X145440000Y-103115000D03*
X145440000Y-110735000D03*
%TO.C,D21*%
X155240000Y-121885000D03*
X155240000Y-129505000D03*
%TO.C,D3*%
X164440000Y-64325000D03*
X164440000Y-71945000D03*
%TO.C,D9*%
X164540000Y-84515000D03*
X164540000Y-92135000D03*
%TO.C,D15*%
X164640000Y-102715000D03*
X164640000Y-110335000D03*
%TO.C,D4*%
X183440000Y-66015000D03*
X183440000Y-73635000D03*
%TO.C,D16*%
X183440000Y-104525000D03*
X183440000Y-112145000D03*
%TO.C,D10*%
X183640000Y-85525000D03*
X183640000Y-93145000D03*
%TO.C,D5*%
X202640000Y-69025000D03*
X202640000Y-76645000D03*
%TO.C,D17*%
X202640000Y-106925000D03*
X202640000Y-114545000D03*
%TO.C,D11*%
X202740000Y-87725000D03*
X202740000Y-95345000D03*
%TO.C,D6*%
X221640000Y-69215000D03*
X221640000Y-76835000D03*
%TO.C,D12*%
X221740000Y-87595000D03*
X221740000Y-95215000D03*
%TO.C,D18*%
X221840000Y-107125000D03*
X221840000Y-114745000D03*
D13*
%TO.C,SW22*%
X86000000Y-99000000D03*
X86000000Y-101000000D03*
X86000000Y-103000000D03*
D14*
%TO.C,U1*%
X85380000Y-55310000D03*
X85380000Y-57850000D03*
X85380000Y-60390000D03*
X85380000Y-62930000D03*
X85380000Y-65470000D03*
X85380000Y-68010000D03*
X85380000Y-70550000D03*
X85380000Y-73090000D03*
X85380000Y-75630000D03*
X85380000Y-78170000D03*
X85380000Y-80710000D03*
X85380000Y-83250000D03*
X87920000Y-78170000D03*
X90460000Y-78170000D03*
X93000000Y-78170000D03*
X100620000Y-55310000D03*
X100620000Y-57850000D03*
X100620000Y-60390000D03*
X100620000Y-62930000D03*
X100620000Y-65470000D03*
X100620000Y-68010000D03*
X100620000Y-70550000D03*
X100620000Y-73090000D03*
X100620000Y-75630000D03*
X100620000Y-78170000D03*
X100620000Y-80710000D03*
X100620000Y-83250000D03*
D15*
%TO.C,SW22*%
X86000000Y-96900000D03*
X86000000Y-105100000D03*
%TO.C,SW20*%
X96365296Y-132695738D03*
X101740000Y-136925000D03*
%TO.C,SW4*%
X113090000Y-67720000D03*
%TO.C,SW10*%
X113090000Y-86770000D03*
%TO.C,SW16*%
X113090000Y-105820000D03*
%TO.C,SW4*%
X119440000Y-65180000D03*
%TO.C,SW10*%
X119440000Y-84230000D03*
%TO.C,SW16*%
X119440000Y-103280000D03*
%TO.C,SW21*%
X119946727Y-126827457D03*
X125422956Y-122730504D03*
%TO.C,SW2*%
X132140000Y-65815000D03*
%TO.C,SW8*%
X132140000Y-84865000D03*
%TO.C,SW14*%
X132140000Y-103915000D03*
%TO.C,SW2*%
X138490000Y-63275000D03*
%TO.C,SW8*%
X138490000Y-82325000D03*
%TO.C,SW14*%
X138490000Y-101375000D03*
%TO.C,SW19*%
X141665000Y-122965000D03*
X148015000Y-120425000D03*
%TO.C,SW1*%
X151190000Y-63910000D03*
%TO.C,SW7*%
X151190000Y-82960000D03*
%TO.C,SW13*%
X151190000Y-102010000D03*
%TO.C,SW1*%
X157540000Y-61370000D03*
%TO.C,SW7*%
X157540000Y-80420000D03*
%TO.C,SW13*%
X157540000Y-99470000D03*
%TO.C,SW3*%
X170240000Y-65815000D03*
%TO.C,SW9*%
X170240000Y-84865000D03*
%TO.C,SW15*%
X170240000Y-103915000D03*
%TO.C,SW3*%
X176590000Y-63275000D03*
%TO.C,SW9*%
X176590000Y-82325000D03*
%TO.C,SW15*%
X176590000Y-101375000D03*
%TO.C,SW5*%
X189290000Y-69625000D03*
%TO.C,SW11*%
X189290000Y-88675000D03*
%TO.C,SW17*%
X189290000Y-107725000D03*
%TO.C,SW5*%
X195640000Y-67085000D03*
%TO.C,SW11*%
X195640000Y-86135000D03*
%TO.C,SW17*%
X195640000Y-105185000D03*
%TO.C,SW6*%
X208340000Y-69625000D03*
%TO.C,SW12*%
X208340000Y-88675000D03*
%TO.C,SW18*%
X208340000Y-107725000D03*
%TO.C,SW6*%
X214690000Y-67085000D03*
%TO.C,SW12*%
X214690000Y-86135000D03*
%TO.C,SW18*%
X214690000Y-105185000D03*
M02*
