%TF.GenerationSoftware,KiCad,Pcbnew,9.0.7*%
%TF.CreationDate,2026-07-17T22:57:51+03:00*%
%TF.ProjectId,right_part,72696768-745f-4706-9172-742e6b696361,rev?*%
%TF.SameCoordinates,Original*%
%TF.FileFunction,Legend,Top*%
%TF.FilePolarity,Positive*%
%FSLAX46Y46*%
G04 Gerber Fmt 4.6, Leading zero omitted, Abs format (unit mm)*
G04 Created by KiCad (PCBNEW 9.0.7) date 2026-07-17 22:57:51*
%MOMM*%
%LPD*%
G01*
G04 APERTURE LIST*
%ADD10C,0.300000*%
%ADD11C,0.150000*%
%ADD12C,0.200000*%
%ADD13C,0.120000*%
G04 APERTURE END LIST*
D10*
X88482143Y-92015114D02*
X88687500Y-92086542D01*
X88687500Y-92086542D02*
X88750000Y-92157971D01*
X88750000Y-92157971D02*
X88803572Y-92300828D01*
X88803572Y-92300828D02*
X88776786Y-92515114D01*
X88776786Y-92515114D02*
X88687500Y-92657971D01*
X88687500Y-92657971D02*
X88607143Y-92729400D01*
X88607143Y-92729400D02*
X88455357Y-92800828D01*
X88455357Y-92800828D02*
X87883929Y-92800828D01*
X87883929Y-92800828D02*
X88071429Y-91300828D01*
X88071429Y-91300828D02*
X88571429Y-91300828D01*
X88571429Y-91300828D02*
X88705357Y-91372257D01*
X88705357Y-91372257D02*
X88767857Y-91443685D01*
X88767857Y-91443685D02*
X88821429Y-91586542D01*
X88821429Y-91586542D02*
X88803572Y-91729400D01*
X88803572Y-91729400D02*
X88714286Y-91872257D01*
X88714286Y-91872257D02*
X88633929Y-91943685D01*
X88633929Y-91943685D02*
X88482143Y-92015114D01*
X88482143Y-92015114D02*
X87982143Y-92015114D01*
X90026786Y-92800828D02*
X90125000Y-92015114D01*
X90125000Y-92015114D02*
X90071429Y-91872257D01*
X90071429Y-91872257D02*
X89937500Y-91800828D01*
X89937500Y-91800828D02*
X89651786Y-91800828D01*
X89651786Y-91800828D02*
X89500000Y-91872257D01*
X90035715Y-92729400D02*
X89883929Y-92800828D01*
X89883929Y-92800828D02*
X89526786Y-92800828D01*
X89526786Y-92800828D02*
X89392857Y-92729400D01*
X89392857Y-92729400D02*
X89339286Y-92586542D01*
X89339286Y-92586542D02*
X89357143Y-92443685D01*
X89357143Y-92443685D02*
X89446429Y-92300828D01*
X89446429Y-92300828D02*
X89598215Y-92229400D01*
X89598215Y-92229400D02*
X89955357Y-92229400D01*
X89955357Y-92229400D02*
X90107143Y-92157971D01*
X90651786Y-91800828D02*
X91223215Y-91800828D01*
X90928572Y-91300828D02*
X90767858Y-92586542D01*
X90767858Y-92586542D02*
X90821429Y-92729400D01*
X90821429Y-92729400D02*
X90955358Y-92800828D01*
X90955358Y-92800828D02*
X91098215Y-92800828D01*
X91508929Y-91800828D02*
X92080358Y-91800828D01*
X91785715Y-91300828D02*
X91625001Y-92586542D01*
X91625001Y-92586542D02*
X91678572Y-92729400D01*
X91678572Y-92729400D02*
X91812501Y-92800828D01*
X91812501Y-92800828D02*
X91955358Y-92800828D01*
X93035715Y-92729400D02*
X92883929Y-92800828D01*
X92883929Y-92800828D02*
X92598215Y-92800828D01*
X92598215Y-92800828D02*
X92464286Y-92729400D01*
X92464286Y-92729400D02*
X92410715Y-92586542D01*
X92410715Y-92586542D02*
X92482144Y-92015114D01*
X92482144Y-92015114D02*
X92571429Y-91872257D01*
X92571429Y-91872257D02*
X92723215Y-91800828D01*
X92723215Y-91800828D02*
X93008929Y-91800828D01*
X93008929Y-91800828D02*
X93142858Y-91872257D01*
X93142858Y-91872257D02*
X93196429Y-92015114D01*
X93196429Y-92015114D02*
X93178572Y-92157971D01*
X93178572Y-92157971D02*
X92446429Y-92300828D01*
X93741072Y-92800828D02*
X93866072Y-91800828D01*
X93830358Y-92086542D02*
X93919643Y-91943685D01*
X93919643Y-91943685D02*
X94000000Y-91872257D01*
X94000000Y-91872257D02*
X94151786Y-91800828D01*
X94151786Y-91800828D02*
X94294643Y-91800828D01*
X94651786Y-91800828D02*
X94883929Y-92800828D01*
X95366071Y-91800828D02*
X94883929Y-92800828D01*
X94883929Y-92800828D02*
X94696429Y-93157971D01*
X94696429Y-93157971D02*
X94616071Y-93229400D01*
X94616071Y-93229400D02*
X94464286Y-93300828D01*
X97669643Y-92800828D02*
X96955357Y-92800828D01*
X96955357Y-92800828D02*
X97142857Y-91300828D01*
X98383929Y-92800828D02*
X98250000Y-92729400D01*
X98250000Y-92729400D02*
X98187500Y-92657971D01*
X98187500Y-92657971D02*
X98133929Y-92515114D01*
X98133929Y-92515114D02*
X98187500Y-92086542D01*
X98187500Y-92086542D02*
X98276786Y-91943685D01*
X98276786Y-91943685D02*
X98357143Y-91872257D01*
X98357143Y-91872257D02*
X98508929Y-91800828D01*
X98508929Y-91800828D02*
X98723214Y-91800828D01*
X98723214Y-91800828D02*
X98857143Y-91872257D01*
X98857143Y-91872257D02*
X98919643Y-91943685D01*
X98919643Y-91943685D02*
X98973214Y-92086542D01*
X98973214Y-92086542D02*
X98919643Y-92515114D01*
X98919643Y-92515114D02*
X98830357Y-92657971D01*
X98830357Y-92657971D02*
X98750000Y-92729400D01*
X98750000Y-92729400D02*
X98598214Y-92800828D01*
X98598214Y-92800828D02*
X98383929Y-92800828D01*
X100178572Y-92729400D02*
X100026786Y-92800828D01*
X100026786Y-92800828D02*
X99741072Y-92800828D01*
X99741072Y-92800828D02*
X99607143Y-92729400D01*
X99607143Y-92729400D02*
X99544643Y-92657971D01*
X99544643Y-92657971D02*
X99491072Y-92515114D01*
X99491072Y-92515114D02*
X99544643Y-92086542D01*
X99544643Y-92086542D02*
X99633929Y-91943685D01*
X99633929Y-91943685D02*
X99714286Y-91872257D01*
X99714286Y-91872257D02*
X99866072Y-91800828D01*
X99866072Y-91800828D02*
X100151786Y-91800828D01*
X100151786Y-91800828D02*
X100285714Y-91872257D01*
X198892856Y-56739638D02*
X198345237Y-55787257D01*
X197749999Y-56739638D02*
X197999999Y-54739638D01*
X197999999Y-54739638D02*
X198761904Y-54739638D01*
X198761904Y-54739638D02*
X198940475Y-54834876D01*
X198940475Y-54834876D02*
X199023809Y-54930114D01*
X199023809Y-54930114D02*
X199095237Y-55120590D01*
X199095237Y-55120590D02*
X199059523Y-55406304D01*
X199059523Y-55406304D02*
X198940475Y-55596780D01*
X198940475Y-55596780D02*
X198833333Y-55692019D01*
X198833333Y-55692019D02*
X198630952Y-55787257D01*
X198630952Y-55787257D02*
X197869047Y-55787257D01*
X199749999Y-56739638D02*
X199916666Y-55406304D01*
X199999999Y-54739638D02*
X199892856Y-54834876D01*
X199892856Y-54834876D02*
X199976190Y-54930114D01*
X199976190Y-54930114D02*
X200083333Y-54834876D01*
X200083333Y-54834876D02*
X199999999Y-54739638D01*
X199999999Y-54739638D02*
X199976190Y-54930114D01*
X201726190Y-55406304D02*
X201523809Y-57025352D01*
X201523809Y-57025352D02*
X201404761Y-57215828D01*
X201404761Y-57215828D02*
X201297618Y-57311066D01*
X201297618Y-57311066D02*
X201095237Y-57406304D01*
X201095237Y-57406304D02*
X200809523Y-57406304D01*
X200809523Y-57406304D02*
X200630952Y-57311066D01*
X201571428Y-56644400D02*
X201369047Y-56739638D01*
X201369047Y-56739638D02*
X200988095Y-56739638D01*
X200988095Y-56739638D02*
X200809523Y-56644400D01*
X200809523Y-56644400D02*
X200726190Y-56549161D01*
X200726190Y-56549161D02*
X200654761Y-56358685D01*
X200654761Y-56358685D02*
X200726190Y-55787257D01*
X200726190Y-55787257D02*
X200845237Y-55596780D01*
X200845237Y-55596780D02*
X200952380Y-55501542D01*
X200952380Y-55501542D02*
X201154761Y-55406304D01*
X201154761Y-55406304D02*
X201535714Y-55406304D01*
X201535714Y-55406304D02*
X201714285Y-55501542D01*
X202511904Y-56739638D02*
X202761904Y-54739638D01*
X203369047Y-56739638D02*
X203499999Y-55692019D01*
X203499999Y-55692019D02*
X203428571Y-55501542D01*
X203428571Y-55501542D02*
X203249999Y-55406304D01*
X203249999Y-55406304D02*
X202964285Y-55406304D01*
X202964285Y-55406304D02*
X202761904Y-55501542D01*
X202761904Y-55501542D02*
X202654761Y-55596780D01*
X204202381Y-55406304D02*
X204964285Y-55406304D01*
X204571428Y-54739638D02*
X204357143Y-56453923D01*
X204357143Y-56453923D02*
X204428571Y-56644400D01*
X204428571Y-56644400D02*
X204607143Y-56739638D01*
X204607143Y-56739638D02*
X204797619Y-56739638D01*
X206988095Y-56739638D02*
X207238095Y-54739638D01*
X207238095Y-54739638D02*
X208000000Y-54739638D01*
X208000000Y-54739638D02*
X208178571Y-54834876D01*
X208178571Y-54834876D02*
X208261905Y-54930114D01*
X208261905Y-54930114D02*
X208333333Y-55120590D01*
X208333333Y-55120590D02*
X208297619Y-55406304D01*
X208297619Y-55406304D02*
X208178571Y-55596780D01*
X208178571Y-55596780D02*
X208071429Y-55692019D01*
X208071429Y-55692019D02*
X207869048Y-55787257D01*
X207869048Y-55787257D02*
X207107143Y-55787257D01*
X209845238Y-56739638D02*
X209976190Y-55692019D01*
X209976190Y-55692019D02*
X209904762Y-55501542D01*
X209904762Y-55501542D02*
X209726190Y-55406304D01*
X209726190Y-55406304D02*
X209345238Y-55406304D01*
X209345238Y-55406304D02*
X209142857Y-55501542D01*
X209857143Y-56644400D02*
X209654762Y-56739638D01*
X209654762Y-56739638D02*
X209178571Y-56739638D01*
X209178571Y-56739638D02*
X209000000Y-56644400D01*
X209000000Y-56644400D02*
X208928571Y-56453923D01*
X208928571Y-56453923D02*
X208952381Y-56263447D01*
X208952381Y-56263447D02*
X209071429Y-56072971D01*
X209071429Y-56072971D02*
X209273810Y-55977733D01*
X209273810Y-55977733D02*
X209750000Y-55977733D01*
X209750000Y-55977733D02*
X209952381Y-55882495D01*
X210797619Y-56739638D02*
X210964286Y-55406304D01*
X210916667Y-55787257D02*
X211035714Y-55596780D01*
X211035714Y-55596780D02*
X211142857Y-55501542D01*
X211142857Y-55501542D02*
X211345238Y-55406304D01*
X211345238Y-55406304D02*
X211535714Y-55406304D01*
X211916667Y-55406304D02*
X212678571Y-55406304D01*
X212285714Y-54739638D02*
X212071429Y-56453923D01*
X212071429Y-56453923D02*
X212142857Y-56644400D01*
X212142857Y-56644400D02*
X212321429Y-56739638D01*
X212321429Y-56739638D02*
X212511905Y-56739638D01*
D11*
X191290476Y-83622200D02*
X191433333Y-83669819D01*
X191433333Y-83669819D02*
X191671428Y-83669819D01*
X191671428Y-83669819D02*
X191766666Y-83622200D01*
X191766666Y-83622200D02*
X191814285Y-83574580D01*
X191814285Y-83574580D02*
X191861904Y-83479342D01*
X191861904Y-83479342D02*
X191861904Y-83384104D01*
X191861904Y-83384104D02*
X191814285Y-83288866D01*
X191814285Y-83288866D02*
X191766666Y-83241247D01*
X191766666Y-83241247D02*
X191671428Y-83193628D01*
X191671428Y-83193628D02*
X191480952Y-83146009D01*
X191480952Y-83146009D02*
X191385714Y-83098390D01*
X191385714Y-83098390D02*
X191338095Y-83050771D01*
X191338095Y-83050771D02*
X191290476Y-82955533D01*
X191290476Y-82955533D02*
X191290476Y-82860295D01*
X191290476Y-82860295D02*
X191338095Y-82765057D01*
X191338095Y-82765057D02*
X191385714Y-82717438D01*
X191385714Y-82717438D02*
X191480952Y-82669819D01*
X191480952Y-82669819D02*
X191719047Y-82669819D01*
X191719047Y-82669819D02*
X191861904Y-82717438D01*
X192195238Y-82669819D02*
X192433333Y-83669819D01*
X192433333Y-83669819D02*
X192623809Y-82955533D01*
X192623809Y-82955533D02*
X192814285Y-83669819D01*
X192814285Y-83669819D02*
X193052381Y-82669819D01*
X193957142Y-83669819D02*
X193385714Y-83669819D01*
X193671428Y-83669819D02*
X193671428Y-82669819D01*
X193671428Y-82669819D02*
X193576190Y-82812676D01*
X193576190Y-82812676D02*
X193480952Y-82907914D01*
X193480952Y-82907914D02*
X193385714Y-82955533D01*
X194909523Y-83669819D02*
X194338095Y-83669819D01*
X194623809Y-83669819D02*
X194623809Y-82669819D01*
X194623809Y-82669819D02*
X194528571Y-82812676D01*
X194528571Y-82812676D02*
X194433333Y-82907914D01*
X194433333Y-82907914D02*
X194338095Y-82955533D01*
X217238095Y-53304819D02*
X217238095Y-52304819D01*
X217238095Y-52781009D02*
X217809523Y-52781009D01*
X217809523Y-53304819D02*
X217809523Y-52304819D01*
X218809523Y-53304819D02*
X218238095Y-53304819D01*
X218523809Y-53304819D02*
X218523809Y-52304819D01*
X218523809Y-52304819D02*
X218428571Y-52447676D01*
X218428571Y-52447676D02*
X218333333Y-52542914D01*
X218333333Y-52542914D02*
X218238095Y-52590533D01*
X191290476Y-102672200D02*
X191433333Y-102719819D01*
X191433333Y-102719819D02*
X191671428Y-102719819D01*
X191671428Y-102719819D02*
X191766666Y-102672200D01*
X191766666Y-102672200D02*
X191814285Y-102624580D01*
X191814285Y-102624580D02*
X191861904Y-102529342D01*
X191861904Y-102529342D02*
X191861904Y-102434104D01*
X191861904Y-102434104D02*
X191814285Y-102338866D01*
X191814285Y-102338866D02*
X191766666Y-102291247D01*
X191766666Y-102291247D02*
X191671428Y-102243628D01*
X191671428Y-102243628D02*
X191480952Y-102196009D01*
X191480952Y-102196009D02*
X191385714Y-102148390D01*
X191385714Y-102148390D02*
X191338095Y-102100771D01*
X191338095Y-102100771D02*
X191290476Y-102005533D01*
X191290476Y-102005533D02*
X191290476Y-101910295D01*
X191290476Y-101910295D02*
X191338095Y-101815057D01*
X191338095Y-101815057D02*
X191385714Y-101767438D01*
X191385714Y-101767438D02*
X191480952Y-101719819D01*
X191480952Y-101719819D02*
X191719047Y-101719819D01*
X191719047Y-101719819D02*
X191861904Y-101767438D01*
X192195238Y-101719819D02*
X192433333Y-102719819D01*
X192433333Y-102719819D02*
X192623809Y-102005533D01*
X192623809Y-102005533D02*
X192814285Y-102719819D01*
X192814285Y-102719819D02*
X193052381Y-101719819D01*
X193957142Y-102719819D02*
X193385714Y-102719819D01*
X193671428Y-102719819D02*
X193671428Y-101719819D01*
X193671428Y-101719819D02*
X193576190Y-101862676D01*
X193576190Y-101862676D02*
X193480952Y-101957914D01*
X193480952Y-101957914D02*
X193385714Y-102005533D01*
X194290476Y-101719819D02*
X194957142Y-101719819D01*
X194957142Y-101719819D02*
X194528571Y-102719819D01*
X191766667Y-64572200D02*
X191909524Y-64619819D01*
X191909524Y-64619819D02*
X192147619Y-64619819D01*
X192147619Y-64619819D02*
X192242857Y-64572200D01*
X192242857Y-64572200D02*
X192290476Y-64524580D01*
X192290476Y-64524580D02*
X192338095Y-64429342D01*
X192338095Y-64429342D02*
X192338095Y-64334104D01*
X192338095Y-64334104D02*
X192290476Y-64238866D01*
X192290476Y-64238866D02*
X192242857Y-64191247D01*
X192242857Y-64191247D02*
X192147619Y-64143628D01*
X192147619Y-64143628D02*
X191957143Y-64096009D01*
X191957143Y-64096009D02*
X191861905Y-64048390D01*
X191861905Y-64048390D02*
X191814286Y-64000771D01*
X191814286Y-64000771D02*
X191766667Y-63905533D01*
X191766667Y-63905533D02*
X191766667Y-63810295D01*
X191766667Y-63810295D02*
X191814286Y-63715057D01*
X191814286Y-63715057D02*
X191861905Y-63667438D01*
X191861905Y-63667438D02*
X191957143Y-63619819D01*
X191957143Y-63619819D02*
X192195238Y-63619819D01*
X192195238Y-63619819D02*
X192338095Y-63667438D01*
X192671429Y-63619819D02*
X192909524Y-64619819D01*
X192909524Y-64619819D02*
X193100000Y-63905533D01*
X193100000Y-63905533D02*
X193290476Y-64619819D01*
X193290476Y-64619819D02*
X193528572Y-63619819D01*
X194385714Y-63619819D02*
X193909524Y-63619819D01*
X193909524Y-63619819D02*
X193861905Y-64096009D01*
X193861905Y-64096009D02*
X193909524Y-64048390D01*
X193909524Y-64048390D02*
X194004762Y-64000771D01*
X194004762Y-64000771D02*
X194242857Y-64000771D01*
X194242857Y-64000771D02*
X194338095Y-64048390D01*
X194338095Y-64048390D02*
X194385714Y-64096009D01*
X194385714Y-64096009D02*
X194433333Y-64191247D01*
X194433333Y-64191247D02*
X194433333Y-64429342D01*
X194433333Y-64429342D02*
X194385714Y-64524580D01*
X194385714Y-64524580D02*
X194338095Y-64572200D01*
X194338095Y-64572200D02*
X194242857Y-64619819D01*
X194242857Y-64619819D02*
X194004762Y-64619819D01*
X194004762Y-64619819D02*
X193909524Y-64572200D01*
X193909524Y-64572200D02*
X193861905Y-64524580D01*
X172716667Y-60762200D02*
X172859524Y-60809819D01*
X172859524Y-60809819D02*
X173097619Y-60809819D01*
X173097619Y-60809819D02*
X173192857Y-60762200D01*
X173192857Y-60762200D02*
X173240476Y-60714580D01*
X173240476Y-60714580D02*
X173288095Y-60619342D01*
X173288095Y-60619342D02*
X173288095Y-60524104D01*
X173288095Y-60524104D02*
X173240476Y-60428866D01*
X173240476Y-60428866D02*
X173192857Y-60381247D01*
X173192857Y-60381247D02*
X173097619Y-60333628D01*
X173097619Y-60333628D02*
X172907143Y-60286009D01*
X172907143Y-60286009D02*
X172811905Y-60238390D01*
X172811905Y-60238390D02*
X172764286Y-60190771D01*
X172764286Y-60190771D02*
X172716667Y-60095533D01*
X172716667Y-60095533D02*
X172716667Y-60000295D01*
X172716667Y-60000295D02*
X172764286Y-59905057D01*
X172764286Y-59905057D02*
X172811905Y-59857438D01*
X172811905Y-59857438D02*
X172907143Y-59809819D01*
X172907143Y-59809819D02*
X173145238Y-59809819D01*
X173145238Y-59809819D02*
X173288095Y-59857438D01*
X173621429Y-59809819D02*
X173859524Y-60809819D01*
X173859524Y-60809819D02*
X174050000Y-60095533D01*
X174050000Y-60095533D02*
X174240476Y-60809819D01*
X174240476Y-60809819D02*
X174478572Y-59809819D01*
X174764286Y-59809819D02*
X175383333Y-59809819D01*
X175383333Y-59809819D02*
X175050000Y-60190771D01*
X175050000Y-60190771D02*
X175192857Y-60190771D01*
X175192857Y-60190771D02*
X175288095Y-60238390D01*
X175288095Y-60238390D02*
X175335714Y-60286009D01*
X175335714Y-60286009D02*
X175383333Y-60381247D01*
X175383333Y-60381247D02*
X175383333Y-60619342D01*
X175383333Y-60619342D02*
X175335714Y-60714580D01*
X175335714Y-60714580D02*
X175288095Y-60762200D01*
X175288095Y-60762200D02*
X175192857Y-60809819D01*
X175192857Y-60809819D02*
X174907143Y-60809819D01*
X174907143Y-60809819D02*
X174811905Y-60762200D01*
X174811905Y-60762200D02*
X174764286Y-60714580D01*
X172716667Y-79812200D02*
X172859524Y-79859819D01*
X172859524Y-79859819D02*
X173097619Y-79859819D01*
X173097619Y-79859819D02*
X173192857Y-79812200D01*
X173192857Y-79812200D02*
X173240476Y-79764580D01*
X173240476Y-79764580D02*
X173288095Y-79669342D01*
X173288095Y-79669342D02*
X173288095Y-79574104D01*
X173288095Y-79574104D02*
X173240476Y-79478866D01*
X173240476Y-79478866D02*
X173192857Y-79431247D01*
X173192857Y-79431247D02*
X173097619Y-79383628D01*
X173097619Y-79383628D02*
X172907143Y-79336009D01*
X172907143Y-79336009D02*
X172811905Y-79288390D01*
X172811905Y-79288390D02*
X172764286Y-79240771D01*
X172764286Y-79240771D02*
X172716667Y-79145533D01*
X172716667Y-79145533D02*
X172716667Y-79050295D01*
X172716667Y-79050295D02*
X172764286Y-78955057D01*
X172764286Y-78955057D02*
X172811905Y-78907438D01*
X172811905Y-78907438D02*
X172907143Y-78859819D01*
X172907143Y-78859819D02*
X173145238Y-78859819D01*
X173145238Y-78859819D02*
X173288095Y-78907438D01*
X173621429Y-78859819D02*
X173859524Y-79859819D01*
X173859524Y-79859819D02*
X174050000Y-79145533D01*
X174050000Y-79145533D02*
X174240476Y-79859819D01*
X174240476Y-79859819D02*
X174478572Y-78859819D01*
X174907143Y-79859819D02*
X175097619Y-79859819D01*
X175097619Y-79859819D02*
X175192857Y-79812200D01*
X175192857Y-79812200D02*
X175240476Y-79764580D01*
X175240476Y-79764580D02*
X175335714Y-79621723D01*
X175335714Y-79621723D02*
X175383333Y-79431247D01*
X175383333Y-79431247D02*
X175383333Y-79050295D01*
X175383333Y-79050295D02*
X175335714Y-78955057D01*
X175335714Y-78955057D02*
X175288095Y-78907438D01*
X175288095Y-78907438D02*
X175192857Y-78859819D01*
X175192857Y-78859819D02*
X175002381Y-78859819D01*
X175002381Y-78859819D02*
X174907143Y-78907438D01*
X174907143Y-78907438D02*
X174859524Y-78955057D01*
X174859524Y-78955057D02*
X174811905Y-79050295D01*
X174811905Y-79050295D02*
X174811905Y-79288390D01*
X174811905Y-79288390D02*
X174859524Y-79383628D01*
X174859524Y-79383628D02*
X174907143Y-79431247D01*
X174907143Y-79431247D02*
X175002381Y-79478866D01*
X175002381Y-79478866D02*
X175192857Y-79478866D01*
X175192857Y-79478866D02*
X175288095Y-79431247D01*
X175288095Y-79431247D02*
X175335714Y-79383628D01*
X175335714Y-79383628D02*
X175383333Y-79288390D01*
X134616667Y-60762200D02*
X134759524Y-60809819D01*
X134759524Y-60809819D02*
X134997619Y-60809819D01*
X134997619Y-60809819D02*
X135092857Y-60762200D01*
X135092857Y-60762200D02*
X135140476Y-60714580D01*
X135140476Y-60714580D02*
X135188095Y-60619342D01*
X135188095Y-60619342D02*
X135188095Y-60524104D01*
X135188095Y-60524104D02*
X135140476Y-60428866D01*
X135140476Y-60428866D02*
X135092857Y-60381247D01*
X135092857Y-60381247D02*
X134997619Y-60333628D01*
X134997619Y-60333628D02*
X134807143Y-60286009D01*
X134807143Y-60286009D02*
X134711905Y-60238390D01*
X134711905Y-60238390D02*
X134664286Y-60190771D01*
X134664286Y-60190771D02*
X134616667Y-60095533D01*
X134616667Y-60095533D02*
X134616667Y-60000295D01*
X134616667Y-60000295D02*
X134664286Y-59905057D01*
X134664286Y-59905057D02*
X134711905Y-59857438D01*
X134711905Y-59857438D02*
X134807143Y-59809819D01*
X134807143Y-59809819D02*
X135045238Y-59809819D01*
X135045238Y-59809819D02*
X135188095Y-59857438D01*
X135521429Y-59809819D02*
X135759524Y-60809819D01*
X135759524Y-60809819D02*
X135950000Y-60095533D01*
X135950000Y-60095533D02*
X136140476Y-60809819D01*
X136140476Y-60809819D02*
X136378572Y-59809819D01*
X136711905Y-59905057D02*
X136759524Y-59857438D01*
X136759524Y-59857438D02*
X136854762Y-59809819D01*
X136854762Y-59809819D02*
X137092857Y-59809819D01*
X137092857Y-59809819D02*
X137188095Y-59857438D01*
X137188095Y-59857438D02*
X137235714Y-59905057D01*
X137235714Y-59905057D02*
X137283333Y-60000295D01*
X137283333Y-60000295D02*
X137283333Y-60095533D01*
X137283333Y-60095533D02*
X137235714Y-60238390D01*
X137235714Y-60238390D02*
X136664286Y-60809819D01*
X136664286Y-60809819D02*
X137283333Y-60809819D01*
X134616667Y-79812200D02*
X134759524Y-79859819D01*
X134759524Y-79859819D02*
X134997619Y-79859819D01*
X134997619Y-79859819D02*
X135092857Y-79812200D01*
X135092857Y-79812200D02*
X135140476Y-79764580D01*
X135140476Y-79764580D02*
X135188095Y-79669342D01*
X135188095Y-79669342D02*
X135188095Y-79574104D01*
X135188095Y-79574104D02*
X135140476Y-79478866D01*
X135140476Y-79478866D02*
X135092857Y-79431247D01*
X135092857Y-79431247D02*
X134997619Y-79383628D01*
X134997619Y-79383628D02*
X134807143Y-79336009D01*
X134807143Y-79336009D02*
X134711905Y-79288390D01*
X134711905Y-79288390D02*
X134664286Y-79240771D01*
X134664286Y-79240771D02*
X134616667Y-79145533D01*
X134616667Y-79145533D02*
X134616667Y-79050295D01*
X134616667Y-79050295D02*
X134664286Y-78955057D01*
X134664286Y-78955057D02*
X134711905Y-78907438D01*
X134711905Y-78907438D02*
X134807143Y-78859819D01*
X134807143Y-78859819D02*
X135045238Y-78859819D01*
X135045238Y-78859819D02*
X135188095Y-78907438D01*
X135521429Y-78859819D02*
X135759524Y-79859819D01*
X135759524Y-79859819D02*
X135950000Y-79145533D01*
X135950000Y-79145533D02*
X136140476Y-79859819D01*
X136140476Y-79859819D02*
X136378572Y-78859819D01*
X136902381Y-79288390D02*
X136807143Y-79240771D01*
X136807143Y-79240771D02*
X136759524Y-79193152D01*
X136759524Y-79193152D02*
X136711905Y-79097914D01*
X136711905Y-79097914D02*
X136711905Y-79050295D01*
X136711905Y-79050295D02*
X136759524Y-78955057D01*
X136759524Y-78955057D02*
X136807143Y-78907438D01*
X136807143Y-78907438D02*
X136902381Y-78859819D01*
X136902381Y-78859819D02*
X137092857Y-78859819D01*
X137092857Y-78859819D02*
X137188095Y-78907438D01*
X137188095Y-78907438D02*
X137235714Y-78955057D01*
X137235714Y-78955057D02*
X137283333Y-79050295D01*
X137283333Y-79050295D02*
X137283333Y-79097914D01*
X137283333Y-79097914D02*
X137235714Y-79193152D01*
X137235714Y-79193152D02*
X137188095Y-79240771D01*
X137188095Y-79240771D02*
X137092857Y-79288390D01*
X137092857Y-79288390D02*
X136902381Y-79288390D01*
X136902381Y-79288390D02*
X136807143Y-79336009D01*
X136807143Y-79336009D02*
X136759524Y-79383628D01*
X136759524Y-79383628D02*
X136711905Y-79478866D01*
X136711905Y-79478866D02*
X136711905Y-79669342D01*
X136711905Y-79669342D02*
X136759524Y-79764580D01*
X136759524Y-79764580D02*
X136807143Y-79812200D01*
X136807143Y-79812200D02*
X136902381Y-79859819D01*
X136902381Y-79859819D02*
X137092857Y-79859819D01*
X137092857Y-79859819D02*
X137188095Y-79812200D01*
X137188095Y-79812200D02*
X137235714Y-79764580D01*
X137235714Y-79764580D02*
X137283333Y-79669342D01*
X137283333Y-79669342D02*
X137283333Y-79478866D01*
X137283333Y-79478866D02*
X137235714Y-79383628D01*
X137235714Y-79383628D02*
X137188095Y-79336009D01*
X137188095Y-79336009D02*
X137092857Y-79288390D01*
X210816667Y-64572200D02*
X210959524Y-64619819D01*
X210959524Y-64619819D02*
X211197619Y-64619819D01*
X211197619Y-64619819D02*
X211292857Y-64572200D01*
X211292857Y-64572200D02*
X211340476Y-64524580D01*
X211340476Y-64524580D02*
X211388095Y-64429342D01*
X211388095Y-64429342D02*
X211388095Y-64334104D01*
X211388095Y-64334104D02*
X211340476Y-64238866D01*
X211340476Y-64238866D02*
X211292857Y-64191247D01*
X211292857Y-64191247D02*
X211197619Y-64143628D01*
X211197619Y-64143628D02*
X211007143Y-64096009D01*
X211007143Y-64096009D02*
X210911905Y-64048390D01*
X210911905Y-64048390D02*
X210864286Y-64000771D01*
X210864286Y-64000771D02*
X210816667Y-63905533D01*
X210816667Y-63905533D02*
X210816667Y-63810295D01*
X210816667Y-63810295D02*
X210864286Y-63715057D01*
X210864286Y-63715057D02*
X210911905Y-63667438D01*
X210911905Y-63667438D02*
X211007143Y-63619819D01*
X211007143Y-63619819D02*
X211245238Y-63619819D01*
X211245238Y-63619819D02*
X211388095Y-63667438D01*
X211721429Y-63619819D02*
X211959524Y-64619819D01*
X211959524Y-64619819D02*
X212150000Y-63905533D01*
X212150000Y-63905533D02*
X212340476Y-64619819D01*
X212340476Y-64619819D02*
X212578572Y-63619819D01*
X213388095Y-63619819D02*
X213197619Y-63619819D01*
X213197619Y-63619819D02*
X213102381Y-63667438D01*
X213102381Y-63667438D02*
X213054762Y-63715057D01*
X213054762Y-63715057D02*
X212959524Y-63857914D01*
X212959524Y-63857914D02*
X212911905Y-64048390D01*
X212911905Y-64048390D02*
X212911905Y-64429342D01*
X212911905Y-64429342D02*
X212959524Y-64524580D01*
X212959524Y-64524580D02*
X213007143Y-64572200D01*
X213007143Y-64572200D02*
X213102381Y-64619819D01*
X213102381Y-64619819D02*
X213292857Y-64619819D01*
X213292857Y-64619819D02*
X213388095Y-64572200D01*
X213388095Y-64572200D02*
X213435714Y-64524580D01*
X213435714Y-64524580D02*
X213483333Y-64429342D01*
X213483333Y-64429342D02*
X213483333Y-64191247D01*
X213483333Y-64191247D02*
X213435714Y-64096009D01*
X213435714Y-64096009D02*
X213388095Y-64048390D01*
X213388095Y-64048390D02*
X213292857Y-64000771D01*
X213292857Y-64000771D02*
X213102381Y-64000771D01*
X213102381Y-64000771D02*
X213007143Y-64048390D01*
X213007143Y-64048390D02*
X212959524Y-64096009D01*
X212959524Y-64096009D02*
X212911905Y-64191247D01*
X153666667Y-58857200D02*
X153809524Y-58904819D01*
X153809524Y-58904819D02*
X154047619Y-58904819D01*
X154047619Y-58904819D02*
X154142857Y-58857200D01*
X154142857Y-58857200D02*
X154190476Y-58809580D01*
X154190476Y-58809580D02*
X154238095Y-58714342D01*
X154238095Y-58714342D02*
X154238095Y-58619104D01*
X154238095Y-58619104D02*
X154190476Y-58523866D01*
X154190476Y-58523866D02*
X154142857Y-58476247D01*
X154142857Y-58476247D02*
X154047619Y-58428628D01*
X154047619Y-58428628D02*
X153857143Y-58381009D01*
X153857143Y-58381009D02*
X153761905Y-58333390D01*
X153761905Y-58333390D02*
X153714286Y-58285771D01*
X153714286Y-58285771D02*
X153666667Y-58190533D01*
X153666667Y-58190533D02*
X153666667Y-58095295D01*
X153666667Y-58095295D02*
X153714286Y-58000057D01*
X153714286Y-58000057D02*
X153761905Y-57952438D01*
X153761905Y-57952438D02*
X153857143Y-57904819D01*
X153857143Y-57904819D02*
X154095238Y-57904819D01*
X154095238Y-57904819D02*
X154238095Y-57952438D01*
X154571429Y-57904819D02*
X154809524Y-58904819D01*
X154809524Y-58904819D02*
X155000000Y-58190533D01*
X155000000Y-58190533D02*
X155190476Y-58904819D01*
X155190476Y-58904819D02*
X155428572Y-57904819D01*
X156333333Y-58904819D02*
X155761905Y-58904819D01*
X156047619Y-58904819D02*
X156047619Y-57904819D01*
X156047619Y-57904819D02*
X155952381Y-58047676D01*
X155952381Y-58047676D02*
X155857143Y-58142914D01*
X155857143Y-58142914D02*
X155761905Y-58190533D01*
X115090476Y-100767200D02*
X115233333Y-100814819D01*
X115233333Y-100814819D02*
X115471428Y-100814819D01*
X115471428Y-100814819D02*
X115566666Y-100767200D01*
X115566666Y-100767200D02*
X115614285Y-100719580D01*
X115614285Y-100719580D02*
X115661904Y-100624342D01*
X115661904Y-100624342D02*
X115661904Y-100529104D01*
X115661904Y-100529104D02*
X115614285Y-100433866D01*
X115614285Y-100433866D02*
X115566666Y-100386247D01*
X115566666Y-100386247D02*
X115471428Y-100338628D01*
X115471428Y-100338628D02*
X115280952Y-100291009D01*
X115280952Y-100291009D02*
X115185714Y-100243390D01*
X115185714Y-100243390D02*
X115138095Y-100195771D01*
X115138095Y-100195771D02*
X115090476Y-100100533D01*
X115090476Y-100100533D02*
X115090476Y-100005295D01*
X115090476Y-100005295D02*
X115138095Y-99910057D01*
X115138095Y-99910057D02*
X115185714Y-99862438D01*
X115185714Y-99862438D02*
X115280952Y-99814819D01*
X115280952Y-99814819D02*
X115519047Y-99814819D01*
X115519047Y-99814819D02*
X115661904Y-99862438D01*
X115995238Y-99814819D02*
X116233333Y-100814819D01*
X116233333Y-100814819D02*
X116423809Y-100100533D01*
X116423809Y-100100533D02*
X116614285Y-100814819D01*
X116614285Y-100814819D02*
X116852381Y-99814819D01*
X117757142Y-100814819D02*
X117185714Y-100814819D01*
X117471428Y-100814819D02*
X117471428Y-99814819D01*
X117471428Y-99814819D02*
X117376190Y-99957676D01*
X117376190Y-99957676D02*
X117280952Y-100052914D01*
X117280952Y-100052914D02*
X117185714Y-100100533D01*
X118614285Y-99814819D02*
X118423809Y-99814819D01*
X118423809Y-99814819D02*
X118328571Y-99862438D01*
X118328571Y-99862438D02*
X118280952Y-99910057D01*
X118280952Y-99910057D02*
X118185714Y-100052914D01*
X118185714Y-100052914D02*
X118138095Y-100243390D01*
X118138095Y-100243390D02*
X118138095Y-100624342D01*
X118138095Y-100624342D02*
X118185714Y-100719580D01*
X118185714Y-100719580D02*
X118233333Y-100767200D01*
X118233333Y-100767200D02*
X118328571Y-100814819D01*
X118328571Y-100814819D02*
X118519047Y-100814819D01*
X118519047Y-100814819D02*
X118614285Y-100767200D01*
X118614285Y-100767200D02*
X118661904Y-100719580D01*
X118661904Y-100719580D02*
X118709523Y-100624342D01*
X118709523Y-100624342D02*
X118709523Y-100386247D01*
X118709523Y-100386247D02*
X118661904Y-100291009D01*
X118661904Y-100291009D02*
X118614285Y-100243390D01*
X118614285Y-100243390D02*
X118519047Y-100195771D01*
X118519047Y-100195771D02*
X118328571Y-100195771D01*
X118328571Y-100195771D02*
X118233333Y-100243390D01*
X118233333Y-100243390D02*
X118185714Y-100291009D01*
X118185714Y-100291009D02*
X118138095Y-100386247D01*
X210340476Y-83622200D02*
X210483333Y-83669819D01*
X210483333Y-83669819D02*
X210721428Y-83669819D01*
X210721428Y-83669819D02*
X210816666Y-83622200D01*
X210816666Y-83622200D02*
X210864285Y-83574580D01*
X210864285Y-83574580D02*
X210911904Y-83479342D01*
X210911904Y-83479342D02*
X210911904Y-83384104D01*
X210911904Y-83384104D02*
X210864285Y-83288866D01*
X210864285Y-83288866D02*
X210816666Y-83241247D01*
X210816666Y-83241247D02*
X210721428Y-83193628D01*
X210721428Y-83193628D02*
X210530952Y-83146009D01*
X210530952Y-83146009D02*
X210435714Y-83098390D01*
X210435714Y-83098390D02*
X210388095Y-83050771D01*
X210388095Y-83050771D02*
X210340476Y-82955533D01*
X210340476Y-82955533D02*
X210340476Y-82860295D01*
X210340476Y-82860295D02*
X210388095Y-82765057D01*
X210388095Y-82765057D02*
X210435714Y-82717438D01*
X210435714Y-82717438D02*
X210530952Y-82669819D01*
X210530952Y-82669819D02*
X210769047Y-82669819D01*
X210769047Y-82669819D02*
X210911904Y-82717438D01*
X211245238Y-82669819D02*
X211483333Y-83669819D01*
X211483333Y-83669819D02*
X211673809Y-82955533D01*
X211673809Y-82955533D02*
X211864285Y-83669819D01*
X211864285Y-83669819D02*
X212102381Y-82669819D01*
X213007142Y-83669819D02*
X212435714Y-83669819D01*
X212721428Y-83669819D02*
X212721428Y-82669819D01*
X212721428Y-82669819D02*
X212626190Y-82812676D01*
X212626190Y-82812676D02*
X212530952Y-82907914D01*
X212530952Y-82907914D02*
X212435714Y-82955533D01*
X213388095Y-82765057D02*
X213435714Y-82717438D01*
X213435714Y-82717438D02*
X213530952Y-82669819D01*
X213530952Y-82669819D02*
X213769047Y-82669819D01*
X213769047Y-82669819D02*
X213864285Y-82717438D01*
X213864285Y-82717438D02*
X213911904Y-82765057D01*
X213911904Y-82765057D02*
X213959523Y-82860295D01*
X213959523Y-82860295D02*
X213959523Y-82955533D01*
X213959523Y-82955533D02*
X213911904Y-83098390D01*
X213911904Y-83098390D02*
X213340476Y-83669819D01*
X213340476Y-83669819D02*
X213959523Y-83669819D01*
X120571278Y-121429065D02*
X120721592Y-121438087D01*
X120721592Y-121438087D02*
X120951574Y-121376463D01*
X120951574Y-121376463D02*
X121031243Y-121305818D01*
X121031243Y-121305818D02*
X121064914Y-121247496D01*
X121064914Y-121247496D02*
X121086261Y-121143179D01*
X121086261Y-121143179D02*
X121061612Y-121051186D01*
X121061612Y-121051186D02*
X120990966Y-120971518D01*
X120990966Y-120971518D02*
X120932645Y-120937846D01*
X120932645Y-120937846D02*
X120828327Y-120916499D01*
X120828327Y-120916499D02*
X120632017Y-120919801D01*
X120632017Y-120919801D02*
X120527699Y-120898454D01*
X120527699Y-120898454D02*
X120469378Y-120864782D01*
X120469378Y-120864782D02*
X120398732Y-120785114D01*
X120398732Y-120785114D02*
X120374082Y-120693121D01*
X120374082Y-120693121D02*
X120395429Y-120588804D01*
X120395429Y-120588804D02*
X120429101Y-120530482D01*
X120429101Y-120530482D02*
X120508769Y-120459836D01*
X120508769Y-120459836D02*
X120738752Y-120398213D01*
X120738752Y-120398213D02*
X120889066Y-120407235D01*
X121198716Y-120274966D02*
X121687518Y-121179268D01*
X121687518Y-121179268D02*
X121686633Y-120440022D01*
X121686633Y-120440022D02*
X122055490Y-121080670D01*
X122055490Y-121080670D02*
X122026653Y-120053121D01*
X122373277Y-120058841D02*
X122406949Y-120000520D01*
X122406949Y-120000520D02*
X122486617Y-119929874D01*
X122486617Y-119929874D02*
X122716600Y-119868250D01*
X122716600Y-119868250D02*
X122820917Y-119889597D01*
X122820917Y-119889597D02*
X122879239Y-119923269D01*
X122879239Y-119923269D02*
X122949884Y-120002937D01*
X122949884Y-120002937D02*
X122974534Y-120094930D01*
X122974534Y-120094930D02*
X122965512Y-120245244D01*
X122965512Y-120245244D02*
X122561451Y-120945098D01*
X122561451Y-120945098D02*
X123159405Y-120784877D01*
X124079334Y-120538383D02*
X123527376Y-120686279D01*
X123803355Y-120612331D02*
X123544536Y-119646405D01*
X123544536Y-119646405D02*
X123489517Y-119809044D01*
X123489517Y-119809044D02*
X123422174Y-119925686D01*
X123422174Y-119925686D02*
X123342506Y-119996332D01*
X94666666Y-104454819D02*
X94666666Y-105169104D01*
X94666666Y-105169104D02*
X94619047Y-105311961D01*
X94619047Y-105311961D02*
X94523809Y-105407200D01*
X94523809Y-105407200D02*
X94380952Y-105454819D01*
X94380952Y-105454819D02*
X94285714Y-105454819D01*
X95666666Y-105454819D02*
X95095238Y-105454819D01*
X95380952Y-105454819D02*
X95380952Y-104454819D01*
X95380952Y-104454819D02*
X95285714Y-104597676D01*
X95285714Y-104597676D02*
X95190476Y-104692914D01*
X95190476Y-104692914D02*
X95095238Y-104740533D01*
X210340476Y-102672200D02*
X210483333Y-102719819D01*
X210483333Y-102719819D02*
X210721428Y-102719819D01*
X210721428Y-102719819D02*
X210816666Y-102672200D01*
X210816666Y-102672200D02*
X210864285Y-102624580D01*
X210864285Y-102624580D02*
X210911904Y-102529342D01*
X210911904Y-102529342D02*
X210911904Y-102434104D01*
X210911904Y-102434104D02*
X210864285Y-102338866D01*
X210864285Y-102338866D02*
X210816666Y-102291247D01*
X210816666Y-102291247D02*
X210721428Y-102243628D01*
X210721428Y-102243628D02*
X210530952Y-102196009D01*
X210530952Y-102196009D02*
X210435714Y-102148390D01*
X210435714Y-102148390D02*
X210388095Y-102100771D01*
X210388095Y-102100771D02*
X210340476Y-102005533D01*
X210340476Y-102005533D02*
X210340476Y-101910295D01*
X210340476Y-101910295D02*
X210388095Y-101815057D01*
X210388095Y-101815057D02*
X210435714Y-101767438D01*
X210435714Y-101767438D02*
X210530952Y-101719819D01*
X210530952Y-101719819D02*
X210769047Y-101719819D01*
X210769047Y-101719819D02*
X210911904Y-101767438D01*
X211245238Y-101719819D02*
X211483333Y-102719819D01*
X211483333Y-102719819D02*
X211673809Y-102005533D01*
X211673809Y-102005533D02*
X211864285Y-102719819D01*
X211864285Y-102719819D02*
X212102381Y-101719819D01*
X213007142Y-102719819D02*
X212435714Y-102719819D01*
X212721428Y-102719819D02*
X212721428Y-101719819D01*
X212721428Y-101719819D02*
X212626190Y-101862676D01*
X212626190Y-101862676D02*
X212530952Y-101957914D01*
X212530952Y-101957914D02*
X212435714Y-102005533D01*
X213578571Y-102148390D02*
X213483333Y-102100771D01*
X213483333Y-102100771D02*
X213435714Y-102053152D01*
X213435714Y-102053152D02*
X213388095Y-101957914D01*
X213388095Y-101957914D02*
X213388095Y-101910295D01*
X213388095Y-101910295D02*
X213435714Y-101815057D01*
X213435714Y-101815057D02*
X213483333Y-101767438D01*
X213483333Y-101767438D02*
X213578571Y-101719819D01*
X213578571Y-101719819D02*
X213769047Y-101719819D01*
X213769047Y-101719819D02*
X213864285Y-101767438D01*
X213864285Y-101767438D02*
X213911904Y-101815057D01*
X213911904Y-101815057D02*
X213959523Y-101910295D01*
X213959523Y-101910295D02*
X213959523Y-101957914D01*
X213959523Y-101957914D02*
X213911904Y-102053152D01*
X213911904Y-102053152D02*
X213864285Y-102100771D01*
X213864285Y-102100771D02*
X213769047Y-102148390D01*
X213769047Y-102148390D02*
X213578571Y-102148390D01*
X213578571Y-102148390D02*
X213483333Y-102196009D01*
X213483333Y-102196009D02*
X213435714Y-102243628D01*
X213435714Y-102243628D02*
X213388095Y-102338866D01*
X213388095Y-102338866D02*
X213388095Y-102529342D01*
X213388095Y-102529342D02*
X213435714Y-102624580D01*
X213435714Y-102624580D02*
X213483333Y-102672200D01*
X213483333Y-102672200D02*
X213578571Y-102719819D01*
X213578571Y-102719819D02*
X213769047Y-102719819D01*
X213769047Y-102719819D02*
X213864285Y-102672200D01*
X213864285Y-102672200D02*
X213911904Y-102624580D01*
X213911904Y-102624580D02*
X213959523Y-102529342D01*
X213959523Y-102529342D02*
X213959523Y-102338866D01*
X213959523Y-102338866D02*
X213911904Y-102243628D01*
X213911904Y-102243628D02*
X213864285Y-102196009D01*
X213864285Y-102196009D02*
X213769047Y-102148390D01*
X134140476Y-98862200D02*
X134283333Y-98909819D01*
X134283333Y-98909819D02*
X134521428Y-98909819D01*
X134521428Y-98909819D02*
X134616666Y-98862200D01*
X134616666Y-98862200D02*
X134664285Y-98814580D01*
X134664285Y-98814580D02*
X134711904Y-98719342D01*
X134711904Y-98719342D02*
X134711904Y-98624104D01*
X134711904Y-98624104D02*
X134664285Y-98528866D01*
X134664285Y-98528866D02*
X134616666Y-98481247D01*
X134616666Y-98481247D02*
X134521428Y-98433628D01*
X134521428Y-98433628D02*
X134330952Y-98386009D01*
X134330952Y-98386009D02*
X134235714Y-98338390D01*
X134235714Y-98338390D02*
X134188095Y-98290771D01*
X134188095Y-98290771D02*
X134140476Y-98195533D01*
X134140476Y-98195533D02*
X134140476Y-98100295D01*
X134140476Y-98100295D02*
X134188095Y-98005057D01*
X134188095Y-98005057D02*
X134235714Y-97957438D01*
X134235714Y-97957438D02*
X134330952Y-97909819D01*
X134330952Y-97909819D02*
X134569047Y-97909819D01*
X134569047Y-97909819D02*
X134711904Y-97957438D01*
X135045238Y-97909819D02*
X135283333Y-98909819D01*
X135283333Y-98909819D02*
X135473809Y-98195533D01*
X135473809Y-98195533D02*
X135664285Y-98909819D01*
X135664285Y-98909819D02*
X135902381Y-97909819D01*
X136807142Y-98909819D02*
X136235714Y-98909819D01*
X136521428Y-98909819D02*
X136521428Y-97909819D01*
X136521428Y-97909819D02*
X136426190Y-98052676D01*
X136426190Y-98052676D02*
X136330952Y-98147914D01*
X136330952Y-98147914D02*
X136235714Y-98195533D01*
X137664285Y-98243152D02*
X137664285Y-98909819D01*
X137426190Y-97862200D02*
X137188095Y-98576485D01*
X137188095Y-98576485D02*
X137807142Y-98576485D01*
X115090476Y-81717200D02*
X115233333Y-81764819D01*
X115233333Y-81764819D02*
X115471428Y-81764819D01*
X115471428Y-81764819D02*
X115566666Y-81717200D01*
X115566666Y-81717200D02*
X115614285Y-81669580D01*
X115614285Y-81669580D02*
X115661904Y-81574342D01*
X115661904Y-81574342D02*
X115661904Y-81479104D01*
X115661904Y-81479104D02*
X115614285Y-81383866D01*
X115614285Y-81383866D02*
X115566666Y-81336247D01*
X115566666Y-81336247D02*
X115471428Y-81288628D01*
X115471428Y-81288628D02*
X115280952Y-81241009D01*
X115280952Y-81241009D02*
X115185714Y-81193390D01*
X115185714Y-81193390D02*
X115138095Y-81145771D01*
X115138095Y-81145771D02*
X115090476Y-81050533D01*
X115090476Y-81050533D02*
X115090476Y-80955295D01*
X115090476Y-80955295D02*
X115138095Y-80860057D01*
X115138095Y-80860057D02*
X115185714Y-80812438D01*
X115185714Y-80812438D02*
X115280952Y-80764819D01*
X115280952Y-80764819D02*
X115519047Y-80764819D01*
X115519047Y-80764819D02*
X115661904Y-80812438D01*
X115995238Y-80764819D02*
X116233333Y-81764819D01*
X116233333Y-81764819D02*
X116423809Y-81050533D01*
X116423809Y-81050533D02*
X116614285Y-81764819D01*
X116614285Y-81764819D02*
X116852381Y-80764819D01*
X117757142Y-81764819D02*
X117185714Y-81764819D01*
X117471428Y-81764819D02*
X117471428Y-80764819D01*
X117471428Y-80764819D02*
X117376190Y-80907676D01*
X117376190Y-80907676D02*
X117280952Y-81002914D01*
X117280952Y-81002914D02*
X117185714Y-81050533D01*
X118376190Y-80764819D02*
X118471428Y-80764819D01*
X118471428Y-80764819D02*
X118566666Y-80812438D01*
X118566666Y-80812438D02*
X118614285Y-80860057D01*
X118614285Y-80860057D02*
X118661904Y-80955295D01*
X118661904Y-80955295D02*
X118709523Y-81145771D01*
X118709523Y-81145771D02*
X118709523Y-81383866D01*
X118709523Y-81383866D02*
X118661904Y-81574342D01*
X118661904Y-81574342D02*
X118614285Y-81669580D01*
X118614285Y-81669580D02*
X118566666Y-81717200D01*
X118566666Y-81717200D02*
X118471428Y-81764819D01*
X118471428Y-81764819D02*
X118376190Y-81764819D01*
X118376190Y-81764819D02*
X118280952Y-81717200D01*
X118280952Y-81717200D02*
X118233333Y-81669580D01*
X118233333Y-81669580D02*
X118185714Y-81574342D01*
X118185714Y-81574342D02*
X118138095Y-81383866D01*
X118138095Y-81383866D02*
X118138095Y-81145771D01*
X118138095Y-81145771D02*
X118185714Y-80955295D01*
X118185714Y-80955295D02*
X118233333Y-80860057D01*
X118233333Y-80860057D02*
X118280952Y-80812438D01*
X118280952Y-80812438D02*
X118376190Y-80764819D01*
D12*
X90174286Y-80257457D02*
X90221905Y-80209838D01*
X90221905Y-80209838D02*
X90317143Y-80162219D01*
X90317143Y-80162219D02*
X90555238Y-80162219D01*
X90555238Y-80162219D02*
X90650476Y-80209838D01*
X90650476Y-80209838D02*
X90698095Y-80257457D01*
X90698095Y-80257457D02*
X90745714Y-80352695D01*
X90745714Y-80352695D02*
X90745714Y-80447933D01*
X90745714Y-80447933D02*
X90698095Y-80590790D01*
X90698095Y-80590790D02*
X90126667Y-81162219D01*
X90126667Y-81162219D02*
X90745714Y-81162219D01*
X82136993Y-80590790D02*
X82041755Y-80543171D01*
X82041755Y-80543171D02*
X81994136Y-80495552D01*
X81994136Y-80495552D02*
X81946517Y-80400314D01*
X81946517Y-80400314D02*
X81946517Y-80352695D01*
X81946517Y-80352695D02*
X81994136Y-80257457D01*
X81994136Y-80257457D02*
X82041755Y-80209838D01*
X82041755Y-80209838D02*
X82136993Y-80162219D01*
X82136993Y-80162219D02*
X82327469Y-80162219D01*
X82327469Y-80162219D02*
X82422707Y-80209838D01*
X82422707Y-80209838D02*
X82470326Y-80257457D01*
X82470326Y-80257457D02*
X82517945Y-80352695D01*
X82517945Y-80352695D02*
X82517945Y-80400314D01*
X82517945Y-80400314D02*
X82470326Y-80495552D01*
X82470326Y-80495552D02*
X82422707Y-80543171D01*
X82422707Y-80543171D02*
X82327469Y-80590790D01*
X82327469Y-80590790D02*
X82136993Y-80590790D01*
X82136993Y-80590790D02*
X82041755Y-80638409D01*
X82041755Y-80638409D02*
X81994136Y-80686028D01*
X81994136Y-80686028D02*
X81946517Y-80781266D01*
X81946517Y-80781266D02*
X81946517Y-80971742D01*
X81946517Y-80971742D02*
X81994136Y-81066980D01*
X81994136Y-81066980D02*
X82041755Y-81114600D01*
X82041755Y-81114600D02*
X82136993Y-81162219D01*
X82136993Y-81162219D02*
X82327469Y-81162219D01*
X82327469Y-81162219D02*
X82422707Y-81114600D01*
X82422707Y-81114600D02*
X82470326Y-81066980D01*
X82470326Y-81066980D02*
X82517945Y-80971742D01*
X82517945Y-80971742D02*
X82517945Y-80781266D01*
X82517945Y-80781266D02*
X82470326Y-80686028D01*
X82470326Y-80686028D02*
X82422707Y-80638409D01*
X82422707Y-80638409D02*
X82327469Y-80590790D01*
X104053482Y-76082219D02*
X103482054Y-76082219D01*
X103767768Y-76082219D02*
X103767768Y-75082219D01*
X103767768Y-75082219D02*
X103672530Y-75225076D01*
X103672530Y-75225076D02*
X103577292Y-75320314D01*
X103577292Y-75320314D02*
X103482054Y-75367933D01*
X104958244Y-75082219D02*
X104482054Y-75082219D01*
X104482054Y-75082219D02*
X104434435Y-75558409D01*
X104434435Y-75558409D02*
X104482054Y-75510790D01*
X104482054Y-75510790D02*
X104577292Y-75463171D01*
X104577292Y-75463171D02*
X104815387Y-75463171D01*
X104815387Y-75463171D02*
X104910625Y-75510790D01*
X104910625Y-75510790D02*
X104958244Y-75558409D01*
X104958244Y-75558409D02*
X105005863Y-75653647D01*
X105005863Y-75653647D02*
X105005863Y-75891742D01*
X105005863Y-75891742D02*
X104958244Y-75986980D01*
X104958244Y-75986980D02*
X104910625Y-76034600D01*
X104910625Y-76034600D02*
X104815387Y-76082219D01*
X104815387Y-76082219D02*
X104577292Y-76082219D01*
X104577292Y-76082219D02*
X104482054Y-76034600D01*
X104482054Y-76034600D02*
X104434435Y-75986980D01*
X103482054Y-65017457D02*
X103529673Y-64969838D01*
X103529673Y-64969838D02*
X103624911Y-64922219D01*
X103624911Y-64922219D02*
X103863006Y-64922219D01*
X103863006Y-64922219D02*
X103958244Y-64969838D01*
X103958244Y-64969838D02*
X104005863Y-65017457D01*
X104005863Y-65017457D02*
X104053482Y-65112695D01*
X104053482Y-65112695D02*
X104053482Y-65207933D01*
X104053482Y-65207933D02*
X104005863Y-65350790D01*
X104005863Y-65350790D02*
X103434435Y-65922219D01*
X103434435Y-65922219D02*
X104053482Y-65922219D01*
X105005863Y-65922219D02*
X104434435Y-65922219D01*
X104720149Y-65922219D02*
X104720149Y-64922219D01*
X104720149Y-64922219D02*
X104624911Y-65065076D01*
X104624911Y-65065076D02*
X104529673Y-65160314D01*
X104529673Y-65160314D02*
X104434435Y-65207933D01*
X80422707Y-59889838D02*
X80327469Y-59842219D01*
X80327469Y-59842219D02*
X80184612Y-59842219D01*
X80184612Y-59842219D02*
X80041755Y-59889838D01*
X80041755Y-59889838D02*
X79946517Y-59985076D01*
X79946517Y-59985076D02*
X79898898Y-60080314D01*
X79898898Y-60080314D02*
X79851279Y-60270790D01*
X79851279Y-60270790D02*
X79851279Y-60413647D01*
X79851279Y-60413647D02*
X79898898Y-60604123D01*
X79898898Y-60604123D02*
X79946517Y-60699361D01*
X79946517Y-60699361D02*
X80041755Y-60794600D01*
X80041755Y-60794600D02*
X80184612Y-60842219D01*
X80184612Y-60842219D02*
X80279850Y-60842219D01*
X80279850Y-60842219D02*
X80422707Y-60794600D01*
X80422707Y-60794600D02*
X80470326Y-60746980D01*
X80470326Y-60746980D02*
X80470326Y-60413647D01*
X80470326Y-60413647D02*
X80279850Y-60413647D01*
X80898898Y-60842219D02*
X80898898Y-59842219D01*
X80898898Y-59842219D02*
X81470326Y-60842219D01*
X81470326Y-60842219D02*
X81470326Y-59842219D01*
X81946517Y-60842219D02*
X81946517Y-59842219D01*
X81946517Y-59842219D02*
X82184612Y-59842219D01*
X82184612Y-59842219D02*
X82327469Y-59889838D01*
X82327469Y-59889838D02*
X82422707Y-59985076D01*
X82422707Y-59985076D02*
X82470326Y-60080314D01*
X82470326Y-60080314D02*
X82517945Y-60270790D01*
X82517945Y-60270790D02*
X82517945Y-60413647D01*
X82517945Y-60413647D02*
X82470326Y-60604123D01*
X82470326Y-60604123D02*
X82422707Y-60699361D01*
X82422707Y-60699361D02*
X82327469Y-60794600D01*
X82327469Y-60794600D02*
X82184612Y-60842219D01*
X82184612Y-60842219D02*
X81946517Y-60842219D01*
X104053482Y-57349838D02*
X103958244Y-57302219D01*
X103958244Y-57302219D02*
X103815387Y-57302219D01*
X103815387Y-57302219D02*
X103672530Y-57349838D01*
X103672530Y-57349838D02*
X103577292Y-57445076D01*
X103577292Y-57445076D02*
X103529673Y-57540314D01*
X103529673Y-57540314D02*
X103482054Y-57730790D01*
X103482054Y-57730790D02*
X103482054Y-57873647D01*
X103482054Y-57873647D02*
X103529673Y-58064123D01*
X103529673Y-58064123D02*
X103577292Y-58159361D01*
X103577292Y-58159361D02*
X103672530Y-58254600D01*
X103672530Y-58254600D02*
X103815387Y-58302219D01*
X103815387Y-58302219D02*
X103910625Y-58302219D01*
X103910625Y-58302219D02*
X104053482Y-58254600D01*
X104053482Y-58254600D02*
X104101101Y-58206980D01*
X104101101Y-58206980D02*
X104101101Y-57873647D01*
X104101101Y-57873647D02*
X103910625Y-57873647D01*
X104529673Y-58302219D02*
X104529673Y-57302219D01*
X104529673Y-57302219D02*
X105101101Y-58302219D01*
X105101101Y-58302219D02*
X105101101Y-57302219D01*
X105577292Y-58302219D02*
X105577292Y-57302219D01*
X105577292Y-57302219D02*
X105815387Y-57302219D01*
X105815387Y-57302219D02*
X105958244Y-57349838D01*
X105958244Y-57349838D02*
X106053482Y-57445076D01*
X106053482Y-57445076D02*
X106101101Y-57540314D01*
X106101101Y-57540314D02*
X106148720Y-57730790D01*
X106148720Y-57730790D02*
X106148720Y-57873647D01*
X106148720Y-57873647D02*
X106101101Y-58064123D01*
X106101101Y-58064123D02*
X106053482Y-58159361D01*
X106053482Y-58159361D02*
X105958244Y-58254600D01*
X105958244Y-58254600D02*
X105815387Y-58302219D01*
X105815387Y-58302219D02*
X105577292Y-58302219D01*
X82470326Y-72542219D02*
X81994136Y-72542219D01*
X81994136Y-72542219D02*
X81946517Y-73018409D01*
X81946517Y-73018409D02*
X81994136Y-72970790D01*
X81994136Y-72970790D02*
X82089374Y-72923171D01*
X82089374Y-72923171D02*
X82327469Y-72923171D01*
X82327469Y-72923171D02*
X82422707Y-72970790D01*
X82422707Y-72970790D02*
X82470326Y-73018409D01*
X82470326Y-73018409D02*
X82517945Y-73113647D01*
X82517945Y-73113647D02*
X82517945Y-73351742D01*
X82517945Y-73351742D02*
X82470326Y-73446980D01*
X82470326Y-73446980D02*
X82422707Y-73494600D01*
X82422707Y-73494600D02*
X82327469Y-73542219D01*
X82327469Y-73542219D02*
X82089374Y-73542219D01*
X82089374Y-73542219D02*
X81994136Y-73494600D01*
X81994136Y-73494600D02*
X81946517Y-73446980D01*
X92666667Y-80162217D02*
X93333333Y-80162217D01*
X93333333Y-80162217D02*
X92904762Y-81162217D01*
X104053482Y-78622219D02*
X103482054Y-78622219D01*
X103767768Y-78622219D02*
X103767768Y-77622219D01*
X103767768Y-77622219D02*
X103672530Y-77765076D01*
X103672530Y-77765076D02*
X103577292Y-77860314D01*
X103577292Y-77860314D02*
X103482054Y-77907933D01*
X104910625Y-77955552D02*
X104910625Y-78622219D01*
X104672530Y-77574600D02*
X104434435Y-78288885D01*
X104434435Y-78288885D02*
X105053482Y-78288885D01*
X103482054Y-67557457D02*
X103529673Y-67509838D01*
X103529673Y-67509838D02*
X103624911Y-67462219D01*
X103624911Y-67462219D02*
X103863006Y-67462219D01*
X103863006Y-67462219D02*
X103958244Y-67509838D01*
X103958244Y-67509838D02*
X104005863Y-67557457D01*
X104005863Y-67557457D02*
X104053482Y-67652695D01*
X104053482Y-67652695D02*
X104053482Y-67747933D01*
X104053482Y-67747933D02*
X104005863Y-67890790D01*
X104005863Y-67890790D02*
X103434435Y-68462219D01*
X103434435Y-68462219D02*
X104053482Y-68462219D01*
X104672530Y-67462219D02*
X104767768Y-67462219D01*
X104767768Y-67462219D02*
X104863006Y-67509838D01*
X104863006Y-67509838D02*
X104910625Y-67557457D01*
X104910625Y-67557457D02*
X104958244Y-67652695D01*
X104958244Y-67652695D02*
X105005863Y-67843171D01*
X105005863Y-67843171D02*
X105005863Y-68081266D01*
X105005863Y-68081266D02*
X104958244Y-68271742D01*
X104958244Y-68271742D02*
X104910625Y-68366980D01*
X104910625Y-68366980D02*
X104863006Y-68414600D01*
X104863006Y-68414600D02*
X104767768Y-68462219D01*
X104767768Y-68462219D02*
X104672530Y-68462219D01*
X104672530Y-68462219D02*
X104577292Y-68414600D01*
X104577292Y-68414600D02*
X104529673Y-68366980D01*
X104529673Y-68366980D02*
X104482054Y-68271742D01*
X104482054Y-68271742D02*
X104434435Y-68081266D01*
X104434435Y-68081266D02*
X104434435Y-67843171D01*
X104434435Y-67843171D02*
X104482054Y-67652695D01*
X104482054Y-67652695D02*
X104529673Y-67557457D01*
X104529673Y-67557457D02*
X104577292Y-67509838D01*
X104577292Y-67509838D02*
X104672530Y-67462219D01*
X104053482Y-73542219D02*
X103482054Y-73542219D01*
X103767768Y-73542219D02*
X103767768Y-72542219D01*
X103767768Y-72542219D02*
X103672530Y-72685076D01*
X103672530Y-72685076D02*
X103577292Y-72780314D01*
X103577292Y-72780314D02*
X103482054Y-72827933D01*
X104624911Y-72970790D02*
X104529673Y-72923171D01*
X104529673Y-72923171D02*
X104482054Y-72875552D01*
X104482054Y-72875552D02*
X104434435Y-72780314D01*
X104434435Y-72780314D02*
X104434435Y-72732695D01*
X104434435Y-72732695D02*
X104482054Y-72637457D01*
X104482054Y-72637457D02*
X104529673Y-72589838D01*
X104529673Y-72589838D02*
X104624911Y-72542219D01*
X104624911Y-72542219D02*
X104815387Y-72542219D01*
X104815387Y-72542219D02*
X104910625Y-72589838D01*
X104910625Y-72589838D02*
X104958244Y-72637457D01*
X104958244Y-72637457D02*
X105005863Y-72732695D01*
X105005863Y-72732695D02*
X105005863Y-72780314D01*
X105005863Y-72780314D02*
X104958244Y-72875552D01*
X104958244Y-72875552D02*
X104910625Y-72923171D01*
X104910625Y-72923171D02*
X104815387Y-72970790D01*
X104815387Y-72970790D02*
X104624911Y-72970790D01*
X104624911Y-72970790D02*
X104529673Y-73018409D01*
X104529673Y-73018409D02*
X104482054Y-73066028D01*
X104482054Y-73066028D02*
X104434435Y-73161266D01*
X104434435Y-73161266D02*
X104434435Y-73351742D01*
X104434435Y-73351742D02*
X104482054Y-73446980D01*
X104482054Y-73446980D02*
X104529673Y-73494600D01*
X104529673Y-73494600D02*
X104624911Y-73542219D01*
X104624911Y-73542219D02*
X104815387Y-73542219D01*
X104815387Y-73542219D02*
X104910625Y-73494600D01*
X104910625Y-73494600D02*
X104958244Y-73446980D01*
X104958244Y-73446980D02*
X105005863Y-73351742D01*
X105005863Y-73351742D02*
X105005863Y-73161266D01*
X105005863Y-73161266D02*
X104958244Y-73066028D01*
X104958244Y-73066028D02*
X104910625Y-73018409D01*
X104910625Y-73018409D02*
X104815387Y-72970790D01*
X80422707Y-62429838D02*
X80327469Y-62382219D01*
X80327469Y-62382219D02*
X80184612Y-62382219D01*
X80184612Y-62382219D02*
X80041755Y-62429838D01*
X80041755Y-62429838D02*
X79946517Y-62525076D01*
X79946517Y-62525076D02*
X79898898Y-62620314D01*
X79898898Y-62620314D02*
X79851279Y-62810790D01*
X79851279Y-62810790D02*
X79851279Y-62953647D01*
X79851279Y-62953647D02*
X79898898Y-63144123D01*
X79898898Y-63144123D02*
X79946517Y-63239361D01*
X79946517Y-63239361D02*
X80041755Y-63334600D01*
X80041755Y-63334600D02*
X80184612Y-63382219D01*
X80184612Y-63382219D02*
X80279850Y-63382219D01*
X80279850Y-63382219D02*
X80422707Y-63334600D01*
X80422707Y-63334600D02*
X80470326Y-63286980D01*
X80470326Y-63286980D02*
X80470326Y-62953647D01*
X80470326Y-62953647D02*
X80279850Y-62953647D01*
X80898898Y-63382219D02*
X80898898Y-62382219D01*
X80898898Y-62382219D02*
X81470326Y-63382219D01*
X81470326Y-63382219D02*
X81470326Y-62382219D01*
X81946517Y-63382219D02*
X81946517Y-62382219D01*
X81946517Y-62382219D02*
X82184612Y-62382219D01*
X82184612Y-62382219D02*
X82327469Y-62429838D01*
X82327469Y-62429838D02*
X82422707Y-62525076D01*
X82422707Y-62525076D02*
X82470326Y-62620314D01*
X82470326Y-62620314D02*
X82517945Y-62810790D01*
X82517945Y-62810790D02*
X82517945Y-62953647D01*
X82517945Y-62953647D02*
X82470326Y-63144123D01*
X82470326Y-63144123D02*
X82422707Y-63239361D01*
X82422707Y-63239361D02*
X82327469Y-63334600D01*
X82327469Y-63334600D02*
X82184612Y-63382219D01*
X82184612Y-63382219D02*
X81946517Y-63382219D01*
X104101101Y-60842219D02*
X103767768Y-60366028D01*
X103529673Y-60842219D02*
X103529673Y-59842219D01*
X103529673Y-59842219D02*
X103910625Y-59842219D01*
X103910625Y-59842219D02*
X104005863Y-59889838D01*
X104005863Y-59889838D02*
X104053482Y-59937457D01*
X104053482Y-59937457D02*
X104101101Y-60032695D01*
X104101101Y-60032695D02*
X104101101Y-60175552D01*
X104101101Y-60175552D02*
X104053482Y-60270790D01*
X104053482Y-60270790D02*
X104005863Y-60318409D01*
X104005863Y-60318409D02*
X103910625Y-60366028D01*
X103910625Y-60366028D02*
X103529673Y-60366028D01*
X104482054Y-60794600D02*
X104624911Y-60842219D01*
X104624911Y-60842219D02*
X104863006Y-60842219D01*
X104863006Y-60842219D02*
X104958244Y-60794600D01*
X104958244Y-60794600D02*
X105005863Y-60746980D01*
X105005863Y-60746980D02*
X105053482Y-60651742D01*
X105053482Y-60651742D02*
X105053482Y-60556504D01*
X105053482Y-60556504D02*
X105005863Y-60461266D01*
X105005863Y-60461266D02*
X104958244Y-60413647D01*
X104958244Y-60413647D02*
X104863006Y-60366028D01*
X104863006Y-60366028D02*
X104672530Y-60318409D01*
X104672530Y-60318409D02*
X104577292Y-60270790D01*
X104577292Y-60270790D02*
X104529673Y-60223171D01*
X104529673Y-60223171D02*
X104482054Y-60127933D01*
X104482054Y-60127933D02*
X104482054Y-60032695D01*
X104482054Y-60032695D02*
X104529673Y-59937457D01*
X104529673Y-59937457D02*
X104577292Y-59889838D01*
X104577292Y-59889838D02*
X104672530Y-59842219D01*
X104672530Y-59842219D02*
X104910625Y-59842219D01*
X104910625Y-59842219D02*
X105053482Y-59889838D01*
X105339197Y-59842219D02*
X105910625Y-59842219D01*
X105624911Y-60842219D02*
X105624911Y-59842219D01*
X82517945Y-55762219D02*
X81946517Y-55762219D01*
X82232231Y-55762219D02*
X82232231Y-54762219D01*
X82232231Y-54762219D02*
X82136993Y-54905076D01*
X82136993Y-54905076D02*
X82041755Y-55000314D01*
X82041755Y-55000314D02*
X81946517Y-55047933D01*
X104053482Y-83702219D02*
X103482054Y-83702219D01*
X103767768Y-83702219D02*
X103767768Y-82702219D01*
X103767768Y-82702219D02*
X103672530Y-82845076D01*
X103672530Y-82845076D02*
X103577292Y-82940314D01*
X103577292Y-82940314D02*
X103482054Y-82987933D01*
X104672530Y-82702219D02*
X104767768Y-82702219D01*
X104767768Y-82702219D02*
X104863006Y-82749838D01*
X104863006Y-82749838D02*
X104910625Y-82797457D01*
X104910625Y-82797457D02*
X104958244Y-82892695D01*
X104958244Y-82892695D02*
X105005863Y-83083171D01*
X105005863Y-83083171D02*
X105005863Y-83321266D01*
X105005863Y-83321266D02*
X104958244Y-83511742D01*
X104958244Y-83511742D02*
X104910625Y-83606980D01*
X104910625Y-83606980D02*
X104863006Y-83654600D01*
X104863006Y-83654600D02*
X104767768Y-83702219D01*
X104767768Y-83702219D02*
X104672530Y-83702219D01*
X104672530Y-83702219D02*
X104577292Y-83654600D01*
X104577292Y-83654600D02*
X104529673Y-83606980D01*
X104529673Y-83606980D02*
X104482054Y-83511742D01*
X104482054Y-83511742D02*
X104434435Y-83321266D01*
X104434435Y-83321266D02*
X104434435Y-83083171D01*
X104434435Y-83083171D02*
X104482054Y-82892695D01*
X104482054Y-82892695D02*
X104529673Y-82797457D01*
X104529673Y-82797457D02*
X104577292Y-82749838D01*
X104577292Y-82749838D02*
X104672530Y-82702219D01*
X103434435Y-62382219D02*
X104053482Y-62382219D01*
X104053482Y-62382219D02*
X103720149Y-62763171D01*
X103720149Y-62763171D02*
X103863006Y-62763171D01*
X103863006Y-62763171D02*
X103958244Y-62810790D01*
X103958244Y-62810790D02*
X104005863Y-62858409D01*
X104005863Y-62858409D02*
X104053482Y-62953647D01*
X104053482Y-62953647D02*
X104053482Y-63191742D01*
X104053482Y-63191742D02*
X104005863Y-63286980D01*
X104005863Y-63286980D02*
X103958244Y-63334600D01*
X103958244Y-63334600D02*
X103863006Y-63382219D01*
X103863006Y-63382219D02*
X103577292Y-63382219D01*
X103577292Y-63382219D02*
X103482054Y-63334600D01*
X103482054Y-63334600D02*
X103434435Y-63286980D01*
X104482054Y-63286980D02*
X104529673Y-63334600D01*
X104529673Y-63334600D02*
X104482054Y-63382219D01*
X104482054Y-63382219D02*
X104434435Y-63334600D01*
X104434435Y-63334600D02*
X104482054Y-63286980D01*
X104482054Y-63286980D02*
X104482054Y-63382219D01*
X104863006Y-62382219D02*
X105482053Y-62382219D01*
X105482053Y-62382219D02*
X105148720Y-62763171D01*
X105148720Y-62763171D02*
X105291577Y-62763171D01*
X105291577Y-62763171D02*
X105386815Y-62810790D01*
X105386815Y-62810790D02*
X105434434Y-62858409D01*
X105434434Y-62858409D02*
X105482053Y-62953647D01*
X105482053Y-62953647D02*
X105482053Y-63191742D01*
X105482053Y-63191742D02*
X105434434Y-63286980D01*
X105434434Y-63286980D02*
X105386815Y-63334600D01*
X105386815Y-63334600D02*
X105291577Y-63382219D01*
X105291577Y-63382219D02*
X105005863Y-63382219D01*
X105005863Y-63382219D02*
X104910625Y-63334600D01*
X104910625Y-63334600D02*
X104863006Y-63286980D01*
X105815387Y-62715552D02*
X106053482Y-63382219D01*
X106053482Y-63382219D02*
X106291577Y-62715552D01*
X88205714Y-81162219D02*
X87634286Y-81162219D01*
X87920000Y-81162219D02*
X87920000Y-80162219D01*
X87920000Y-80162219D02*
X87824762Y-80305076D01*
X87824762Y-80305076D02*
X87729524Y-80400314D01*
X87729524Y-80400314D02*
X87634286Y-80447933D01*
X81898898Y-77622219D02*
X82565564Y-77622219D01*
X82565564Y-77622219D02*
X82136993Y-78622219D01*
X104053482Y-81162219D02*
X103482054Y-81162219D01*
X103767768Y-81162219D02*
X103767768Y-80162219D01*
X103767768Y-80162219D02*
X103672530Y-80305076D01*
X103672530Y-80305076D02*
X103577292Y-80400314D01*
X103577292Y-80400314D02*
X103482054Y-80447933D01*
X104910625Y-80162219D02*
X104720149Y-80162219D01*
X104720149Y-80162219D02*
X104624911Y-80209838D01*
X104624911Y-80209838D02*
X104577292Y-80257457D01*
X104577292Y-80257457D02*
X104482054Y-80400314D01*
X104482054Y-80400314D02*
X104434435Y-80590790D01*
X104434435Y-80590790D02*
X104434435Y-80971742D01*
X104434435Y-80971742D02*
X104482054Y-81066980D01*
X104482054Y-81066980D02*
X104529673Y-81114600D01*
X104529673Y-81114600D02*
X104624911Y-81162219D01*
X104624911Y-81162219D02*
X104815387Y-81162219D01*
X104815387Y-81162219D02*
X104910625Y-81114600D01*
X104910625Y-81114600D02*
X104958244Y-81066980D01*
X104958244Y-81066980D02*
X105005863Y-80971742D01*
X105005863Y-80971742D02*
X105005863Y-80733647D01*
X105005863Y-80733647D02*
X104958244Y-80638409D01*
X104958244Y-80638409D02*
X104910625Y-80590790D01*
X104910625Y-80590790D02*
X104815387Y-80543171D01*
X104815387Y-80543171D02*
X104624911Y-80543171D01*
X104624911Y-80543171D02*
X104529673Y-80590790D01*
X104529673Y-80590790D02*
X104482054Y-80638409D01*
X104482054Y-80638409D02*
X104434435Y-80733647D01*
X82041755Y-83702219D02*
X82232231Y-83702219D01*
X82232231Y-83702219D02*
X82327469Y-83654600D01*
X82327469Y-83654600D02*
X82375088Y-83606980D01*
X82375088Y-83606980D02*
X82470326Y-83464123D01*
X82470326Y-83464123D02*
X82517945Y-83273647D01*
X82517945Y-83273647D02*
X82517945Y-82892695D01*
X82517945Y-82892695D02*
X82470326Y-82797457D01*
X82470326Y-82797457D02*
X82422707Y-82749838D01*
X82422707Y-82749838D02*
X82327469Y-82702219D01*
X82327469Y-82702219D02*
X82136993Y-82702219D01*
X82136993Y-82702219D02*
X82041755Y-82749838D01*
X82041755Y-82749838D02*
X81994136Y-82797457D01*
X81994136Y-82797457D02*
X81946517Y-82892695D01*
X81946517Y-82892695D02*
X81946517Y-83130790D01*
X81946517Y-83130790D02*
X81994136Y-83226028D01*
X81994136Y-83226028D02*
X82041755Y-83273647D01*
X82041755Y-83273647D02*
X82136993Y-83321266D01*
X82136993Y-83321266D02*
X82327469Y-83321266D01*
X82327469Y-83321266D02*
X82422707Y-83273647D01*
X82422707Y-83273647D02*
X82470326Y-83226028D01*
X82470326Y-83226028D02*
X82517945Y-83130790D01*
X82184612Y-57302219D02*
X82279850Y-57302219D01*
X82279850Y-57302219D02*
X82375088Y-57349838D01*
X82375088Y-57349838D02*
X82422707Y-57397457D01*
X82422707Y-57397457D02*
X82470326Y-57492695D01*
X82470326Y-57492695D02*
X82517945Y-57683171D01*
X82517945Y-57683171D02*
X82517945Y-57921266D01*
X82517945Y-57921266D02*
X82470326Y-58111742D01*
X82470326Y-58111742D02*
X82422707Y-58206980D01*
X82422707Y-58206980D02*
X82375088Y-58254600D01*
X82375088Y-58254600D02*
X82279850Y-58302219D01*
X82279850Y-58302219D02*
X82184612Y-58302219D01*
X82184612Y-58302219D02*
X82089374Y-58254600D01*
X82089374Y-58254600D02*
X82041755Y-58206980D01*
X82041755Y-58206980D02*
X81994136Y-58111742D01*
X81994136Y-58111742D02*
X81946517Y-57921266D01*
X81946517Y-57921266D02*
X81946517Y-57683171D01*
X81946517Y-57683171D02*
X81994136Y-57492695D01*
X81994136Y-57492695D02*
X82041755Y-57397457D01*
X82041755Y-57397457D02*
X82089374Y-57349838D01*
X82089374Y-57349838D02*
X82184612Y-57302219D01*
X82422707Y-70335552D02*
X82422707Y-71002219D01*
X82184612Y-69954600D02*
X81946517Y-70668885D01*
X81946517Y-70668885D02*
X82565564Y-70668885D01*
X103863006Y-55238409D02*
X104005863Y-55286028D01*
X104005863Y-55286028D02*
X104053482Y-55333647D01*
X104053482Y-55333647D02*
X104101101Y-55428885D01*
X104101101Y-55428885D02*
X104101101Y-55571742D01*
X104101101Y-55571742D02*
X104053482Y-55666980D01*
X104053482Y-55666980D02*
X104005863Y-55714600D01*
X104005863Y-55714600D02*
X103910625Y-55762219D01*
X103910625Y-55762219D02*
X103529673Y-55762219D01*
X103529673Y-55762219D02*
X103529673Y-54762219D01*
X103529673Y-54762219D02*
X103863006Y-54762219D01*
X103863006Y-54762219D02*
X103958244Y-54809838D01*
X103958244Y-54809838D02*
X104005863Y-54857457D01*
X104005863Y-54857457D02*
X104053482Y-54952695D01*
X104053482Y-54952695D02*
X104053482Y-55047933D01*
X104053482Y-55047933D02*
X104005863Y-55143171D01*
X104005863Y-55143171D02*
X103958244Y-55190790D01*
X103958244Y-55190790D02*
X103863006Y-55238409D01*
X103863006Y-55238409D02*
X103529673Y-55238409D01*
X104529673Y-55381266D02*
X105291578Y-55381266D01*
X104910625Y-55762219D02*
X104910625Y-55000314D01*
X82422707Y-75082219D02*
X82232231Y-75082219D01*
X82232231Y-75082219D02*
X82136993Y-75129838D01*
X82136993Y-75129838D02*
X82089374Y-75177457D01*
X82089374Y-75177457D02*
X81994136Y-75320314D01*
X81994136Y-75320314D02*
X81946517Y-75510790D01*
X81946517Y-75510790D02*
X81946517Y-75891742D01*
X81946517Y-75891742D02*
X81994136Y-75986980D01*
X81994136Y-75986980D02*
X82041755Y-76034600D01*
X82041755Y-76034600D02*
X82136993Y-76082219D01*
X82136993Y-76082219D02*
X82327469Y-76082219D01*
X82327469Y-76082219D02*
X82422707Y-76034600D01*
X82422707Y-76034600D02*
X82470326Y-75986980D01*
X82470326Y-75986980D02*
X82517945Y-75891742D01*
X82517945Y-75891742D02*
X82517945Y-75653647D01*
X82517945Y-75653647D02*
X82470326Y-75558409D01*
X82470326Y-75558409D02*
X82422707Y-75510790D01*
X82422707Y-75510790D02*
X82327469Y-75463171D01*
X82327469Y-75463171D02*
X82136993Y-75463171D01*
X82136993Y-75463171D02*
X82041755Y-75510790D01*
X82041755Y-75510790D02*
X81994136Y-75558409D01*
X81994136Y-75558409D02*
X81946517Y-75653647D01*
X81946517Y-65017457D02*
X81994136Y-64969838D01*
X81994136Y-64969838D02*
X82089374Y-64922219D01*
X82089374Y-64922219D02*
X82327469Y-64922219D01*
X82327469Y-64922219D02*
X82422707Y-64969838D01*
X82422707Y-64969838D02*
X82470326Y-65017457D01*
X82470326Y-65017457D02*
X82517945Y-65112695D01*
X82517945Y-65112695D02*
X82517945Y-65207933D01*
X82517945Y-65207933D02*
X82470326Y-65350790D01*
X82470326Y-65350790D02*
X81898898Y-65922219D01*
X81898898Y-65922219D02*
X82517945Y-65922219D01*
X104053482Y-71002219D02*
X103482054Y-71002219D01*
X103767768Y-71002219D02*
X103767768Y-70002219D01*
X103767768Y-70002219D02*
X103672530Y-70145076D01*
X103672530Y-70145076D02*
X103577292Y-70240314D01*
X103577292Y-70240314D02*
X103482054Y-70287933D01*
X104529673Y-71002219D02*
X104720149Y-71002219D01*
X104720149Y-71002219D02*
X104815387Y-70954600D01*
X104815387Y-70954600D02*
X104863006Y-70906980D01*
X104863006Y-70906980D02*
X104958244Y-70764123D01*
X104958244Y-70764123D02*
X105005863Y-70573647D01*
X105005863Y-70573647D02*
X105005863Y-70192695D01*
X105005863Y-70192695D02*
X104958244Y-70097457D01*
X104958244Y-70097457D02*
X104910625Y-70049838D01*
X104910625Y-70049838D02*
X104815387Y-70002219D01*
X104815387Y-70002219D02*
X104624911Y-70002219D01*
X104624911Y-70002219D02*
X104529673Y-70049838D01*
X104529673Y-70049838D02*
X104482054Y-70097457D01*
X104482054Y-70097457D02*
X104434435Y-70192695D01*
X104434435Y-70192695D02*
X104434435Y-70430790D01*
X104434435Y-70430790D02*
X104482054Y-70526028D01*
X104482054Y-70526028D02*
X104529673Y-70573647D01*
X104529673Y-70573647D02*
X104624911Y-70621266D01*
X104624911Y-70621266D02*
X104815387Y-70621266D01*
X104815387Y-70621266D02*
X104910625Y-70573647D01*
X104910625Y-70573647D02*
X104958244Y-70526028D01*
X104958244Y-70526028D02*
X105005863Y-70430790D01*
X81898898Y-67462219D02*
X82517945Y-67462219D01*
X82517945Y-67462219D02*
X82184612Y-67843171D01*
X82184612Y-67843171D02*
X82327469Y-67843171D01*
X82327469Y-67843171D02*
X82422707Y-67890790D01*
X82422707Y-67890790D02*
X82470326Y-67938409D01*
X82470326Y-67938409D02*
X82517945Y-68033647D01*
X82517945Y-68033647D02*
X82517945Y-68271742D01*
X82517945Y-68271742D02*
X82470326Y-68366980D01*
X82470326Y-68366980D02*
X82422707Y-68414600D01*
X82422707Y-68414600D02*
X82327469Y-68462219D01*
X82327469Y-68462219D02*
X82041755Y-68462219D01*
X82041755Y-68462219D02*
X81946517Y-68414600D01*
X81946517Y-68414600D02*
X81898898Y-68366980D01*
D11*
X172240476Y-98862200D02*
X172383333Y-98909819D01*
X172383333Y-98909819D02*
X172621428Y-98909819D01*
X172621428Y-98909819D02*
X172716666Y-98862200D01*
X172716666Y-98862200D02*
X172764285Y-98814580D01*
X172764285Y-98814580D02*
X172811904Y-98719342D01*
X172811904Y-98719342D02*
X172811904Y-98624104D01*
X172811904Y-98624104D02*
X172764285Y-98528866D01*
X172764285Y-98528866D02*
X172716666Y-98481247D01*
X172716666Y-98481247D02*
X172621428Y-98433628D01*
X172621428Y-98433628D02*
X172430952Y-98386009D01*
X172430952Y-98386009D02*
X172335714Y-98338390D01*
X172335714Y-98338390D02*
X172288095Y-98290771D01*
X172288095Y-98290771D02*
X172240476Y-98195533D01*
X172240476Y-98195533D02*
X172240476Y-98100295D01*
X172240476Y-98100295D02*
X172288095Y-98005057D01*
X172288095Y-98005057D02*
X172335714Y-97957438D01*
X172335714Y-97957438D02*
X172430952Y-97909819D01*
X172430952Y-97909819D02*
X172669047Y-97909819D01*
X172669047Y-97909819D02*
X172811904Y-97957438D01*
X173145238Y-97909819D02*
X173383333Y-98909819D01*
X173383333Y-98909819D02*
X173573809Y-98195533D01*
X173573809Y-98195533D02*
X173764285Y-98909819D01*
X173764285Y-98909819D02*
X174002381Y-97909819D01*
X174907142Y-98909819D02*
X174335714Y-98909819D01*
X174621428Y-98909819D02*
X174621428Y-97909819D01*
X174621428Y-97909819D02*
X174526190Y-98052676D01*
X174526190Y-98052676D02*
X174430952Y-98147914D01*
X174430952Y-98147914D02*
X174335714Y-98195533D01*
X175811904Y-97909819D02*
X175335714Y-97909819D01*
X175335714Y-97909819D02*
X175288095Y-98386009D01*
X175288095Y-98386009D02*
X175335714Y-98338390D01*
X175335714Y-98338390D02*
X175430952Y-98290771D01*
X175430952Y-98290771D02*
X175669047Y-98290771D01*
X175669047Y-98290771D02*
X175764285Y-98338390D01*
X175764285Y-98338390D02*
X175811904Y-98386009D01*
X175811904Y-98386009D02*
X175859523Y-98481247D01*
X175859523Y-98481247D02*
X175859523Y-98719342D01*
X175859523Y-98719342D02*
X175811904Y-98814580D01*
X175811904Y-98814580D02*
X175764285Y-98862200D01*
X175764285Y-98862200D02*
X175669047Y-98909819D01*
X175669047Y-98909819D02*
X175430952Y-98909819D01*
X175430952Y-98909819D02*
X175335714Y-98862200D01*
X175335714Y-98862200D02*
X175288095Y-98814580D01*
X153190476Y-96957200D02*
X153333333Y-97004819D01*
X153333333Y-97004819D02*
X153571428Y-97004819D01*
X153571428Y-97004819D02*
X153666666Y-96957200D01*
X153666666Y-96957200D02*
X153714285Y-96909580D01*
X153714285Y-96909580D02*
X153761904Y-96814342D01*
X153761904Y-96814342D02*
X153761904Y-96719104D01*
X153761904Y-96719104D02*
X153714285Y-96623866D01*
X153714285Y-96623866D02*
X153666666Y-96576247D01*
X153666666Y-96576247D02*
X153571428Y-96528628D01*
X153571428Y-96528628D02*
X153380952Y-96481009D01*
X153380952Y-96481009D02*
X153285714Y-96433390D01*
X153285714Y-96433390D02*
X153238095Y-96385771D01*
X153238095Y-96385771D02*
X153190476Y-96290533D01*
X153190476Y-96290533D02*
X153190476Y-96195295D01*
X153190476Y-96195295D02*
X153238095Y-96100057D01*
X153238095Y-96100057D02*
X153285714Y-96052438D01*
X153285714Y-96052438D02*
X153380952Y-96004819D01*
X153380952Y-96004819D02*
X153619047Y-96004819D01*
X153619047Y-96004819D02*
X153761904Y-96052438D01*
X154095238Y-96004819D02*
X154333333Y-97004819D01*
X154333333Y-97004819D02*
X154523809Y-96290533D01*
X154523809Y-96290533D02*
X154714285Y-97004819D01*
X154714285Y-97004819D02*
X154952381Y-96004819D01*
X155857142Y-97004819D02*
X155285714Y-97004819D01*
X155571428Y-97004819D02*
X155571428Y-96004819D01*
X155571428Y-96004819D02*
X155476190Y-96147676D01*
X155476190Y-96147676D02*
X155380952Y-96242914D01*
X155380952Y-96242914D02*
X155285714Y-96290533D01*
X156190476Y-96004819D02*
X156809523Y-96004819D01*
X156809523Y-96004819D02*
X156476190Y-96385771D01*
X156476190Y-96385771D02*
X156619047Y-96385771D01*
X156619047Y-96385771D02*
X156714285Y-96433390D01*
X156714285Y-96433390D02*
X156761904Y-96481009D01*
X156761904Y-96481009D02*
X156809523Y-96576247D01*
X156809523Y-96576247D02*
X156809523Y-96814342D01*
X156809523Y-96814342D02*
X156761904Y-96909580D01*
X156761904Y-96909580D02*
X156714285Y-96957200D01*
X156714285Y-96957200D02*
X156619047Y-97004819D01*
X156619047Y-97004819D02*
X156333333Y-97004819D01*
X156333333Y-97004819D02*
X156238095Y-96957200D01*
X156238095Y-96957200D02*
X156190476Y-96909580D01*
X90007200Y-102209523D02*
X90054819Y-102066666D01*
X90054819Y-102066666D02*
X90054819Y-101828571D01*
X90054819Y-101828571D02*
X90007200Y-101733333D01*
X90007200Y-101733333D02*
X89959580Y-101685714D01*
X89959580Y-101685714D02*
X89864342Y-101638095D01*
X89864342Y-101638095D02*
X89769104Y-101638095D01*
X89769104Y-101638095D02*
X89673866Y-101685714D01*
X89673866Y-101685714D02*
X89626247Y-101733333D01*
X89626247Y-101733333D02*
X89578628Y-101828571D01*
X89578628Y-101828571D02*
X89531009Y-102019047D01*
X89531009Y-102019047D02*
X89483390Y-102114285D01*
X89483390Y-102114285D02*
X89435771Y-102161904D01*
X89435771Y-102161904D02*
X89340533Y-102209523D01*
X89340533Y-102209523D02*
X89245295Y-102209523D01*
X89245295Y-102209523D02*
X89150057Y-102161904D01*
X89150057Y-102161904D02*
X89102438Y-102114285D01*
X89102438Y-102114285D02*
X89054819Y-102019047D01*
X89054819Y-102019047D02*
X89054819Y-101780952D01*
X89054819Y-101780952D02*
X89102438Y-101638095D01*
X89054819Y-101304761D02*
X90054819Y-101066666D01*
X90054819Y-101066666D02*
X89340533Y-100876190D01*
X89340533Y-100876190D02*
X90054819Y-100685714D01*
X90054819Y-100685714D02*
X89054819Y-100447619D01*
X89150057Y-100114285D02*
X89102438Y-100066666D01*
X89102438Y-100066666D02*
X89054819Y-99971428D01*
X89054819Y-99971428D02*
X89054819Y-99733333D01*
X89054819Y-99733333D02*
X89102438Y-99638095D01*
X89102438Y-99638095D02*
X89150057Y-99590476D01*
X89150057Y-99590476D02*
X89245295Y-99542857D01*
X89245295Y-99542857D02*
X89340533Y-99542857D01*
X89340533Y-99542857D02*
X89483390Y-99590476D01*
X89483390Y-99590476D02*
X90054819Y-100161904D01*
X90054819Y-100161904D02*
X90054819Y-99542857D01*
X89150057Y-99161904D02*
X89102438Y-99114285D01*
X89102438Y-99114285D02*
X89054819Y-99019047D01*
X89054819Y-99019047D02*
X89054819Y-98780952D01*
X89054819Y-98780952D02*
X89102438Y-98685714D01*
X89102438Y-98685714D02*
X89150057Y-98638095D01*
X89150057Y-98638095D02*
X89245295Y-98590476D01*
X89245295Y-98590476D02*
X89340533Y-98590476D01*
X89340533Y-98590476D02*
X89483390Y-98638095D01*
X89483390Y-98638095D02*
X90054819Y-99209523D01*
X90054819Y-99209523D02*
X90054819Y-98590476D01*
X93849094Y-134991949D02*
X93879283Y-135139476D01*
X93879283Y-135139476D02*
X93998331Y-135345673D01*
X93998331Y-135345673D02*
X94087189Y-135404342D01*
X94087189Y-135404342D02*
X94152238Y-135421772D01*
X94152238Y-135421772D02*
X94258526Y-135415392D01*
X94258526Y-135415392D02*
X94341005Y-135367773D01*
X94341005Y-135367773D02*
X94399674Y-135278915D01*
X94399674Y-135278915D02*
X94417104Y-135213866D01*
X94417104Y-135213866D02*
X94410724Y-135107578D01*
X94410724Y-135107578D02*
X94356725Y-134918811D01*
X94356725Y-134918811D02*
X94350345Y-134812523D01*
X94350345Y-134812523D02*
X94367775Y-134747474D01*
X94367775Y-134747474D02*
X94426444Y-134658616D01*
X94426444Y-134658616D02*
X94508923Y-134610997D01*
X94508923Y-134610997D02*
X94615211Y-134604617D01*
X94615211Y-134604617D02*
X94680260Y-134622047D01*
X94680260Y-134622047D02*
X94769118Y-134680716D01*
X94769118Y-134680716D02*
X94888166Y-134886912D01*
X94888166Y-134886912D02*
X94918355Y-135034440D01*
X95126261Y-135299305D02*
X94379283Y-136005502D01*
X94379283Y-136005502D02*
X95093111Y-135813316D01*
X95093111Y-135813316D02*
X94569760Y-136335416D01*
X94569760Y-136335416D02*
X95554833Y-136041613D01*
X95639021Y-136377907D02*
X95704069Y-136395337D01*
X95704069Y-136395337D02*
X95792928Y-136454006D01*
X95792928Y-136454006D02*
X95911975Y-136660202D01*
X95911975Y-136660202D02*
X95918355Y-136766490D01*
X95918355Y-136766490D02*
X95900925Y-136831539D01*
X95900925Y-136831539D02*
X95842256Y-136920398D01*
X95842256Y-136920398D02*
X95759778Y-136968017D01*
X95759778Y-136968017D02*
X95612250Y-136998206D01*
X95612250Y-136998206D02*
X94831664Y-136789048D01*
X94831664Y-136789048D02*
X95141188Y-137325159D01*
X96316737Y-137361270D02*
X96364356Y-137443749D01*
X96364356Y-137443749D02*
X96370736Y-137550037D01*
X96370736Y-137550037D02*
X96353306Y-137615086D01*
X96353306Y-137615086D02*
X96294637Y-137703944D01*
X96294637Y-137703944D02*
X96153489Y-137840422D01*
X96153489Y-137840422D02*
X95947293Y-137959469D01*
X95947293Y-137959469D02*
X95758526Y-138013468D01*
X95758526Y-138013468D02*
X95652238Y-138019848D01*
X95652238Y-138019848D02*
X95587189Y-138002418D01*
X95587189Y-138002418D02*
X95498331Y-137943749D01*
X95498331Y-137943749D02*
X95450712Y-137861270D01*
X95450712Y-137861270D02*
X95444332Y-137754982D01*
X95444332Y-137754982D02*
X95461762Y-137689933D01*
X95461762Y-137689933D02*
X95520431Y-137601075D01*
X95520431Y-137601075D02*
X95661579Y-137464598D01*
X95661579Y-137464598D02*
X95867775Y-137345550D01*
X95867775Y-137345550D02*
X96056542Y-137291551D01*
X96056542Y-137291551D02*
X96162830Y-137285172D01*
X96162830Y-137285172D02*
X96227879Y-137302601D01*
X96227879Y-137302601D02*
X96316737Y-137361270D01*
X115566667Y-62667200D02*
X115709524Y-62714819D01*
X115709524Y-62714819D02*
X115947619Y-62714819D01*
X115947619Y-62714819D02*
X116042857Y-62667200D01*
X116042857Y-62667200D02*
X116090476Y-62619580D01*
X116090476Y-62619580D02*
X116138095Y-62524342D01*
X116138095Y-62524342D02*
X116138095Y-62429104D01*
X116138095Y-62429104D02*
X116090476Y-62333866D01*
X116090476Y-62333866D02*
X116042857Y-62286247D01*
X116042857Y-62286247D02*
X115947619Y-62238628D01*
X115947619Y-62238628D02*
X115757143Y-62191009D01*
X115757143Y-62191009D02*
X115661905Y-62143390D01*
X115661905Y-62143390D02*
X115614286Y-62095771D01*
X115614286Y-62095771D02*
X115566667Y-62000533D01*
X115566667Y-62000533D02*
X115566667Y-61905295D01*
X115566667Y-61905295D02*
X115614286Y-61810057D01*
X115614286Y-61810057D02*
X115661905Y-61762438D01*
X115661905Y-61762438D02*
X115757143Y-61714819D01*
X115757143Y-61714819D02*
X115995238Y-61714819D01*
X115995238Y-61714819D02*
X116138095Y-61762438D01*
X116471429Y-61714819D02*
X116709524Y-62714819D01*
X116709524Y-62714819D02*
X116900000Y-62000533D01*
X116900000Y-62000533D02*
X117090476Y-62714819D01*
X117090476Y-62714819D02*
X117328572Y-61714819D01*
X118138095Y-62048152D02*
X118138095Y-62714819D01*
X117900000Y-61667200D02*
X117661905Y-62381485D01*
X117661905Y-62381485D02*
X118280952Y-62381485D01*
X91238095Y-107304819D02*
X91238095Y-106304819D01*
X91238095Y-106781009D02*
X91809523Y-106781009D01*
X91809523Y-107304819D02*
X91809523Y-106304819D01*
X92238095Y-106400057D02*
X92285714Y-106352438D01*
X92285714Y-106352438D02*
X92380952Y-106304819D01*
X92380952Y-106304819D02*
X92619047Y-106304819D01*
X92619047Y-106304819D02*
X92714285Y-106352438D01*
X92714285Y-106352438D02*
X92761904Y-106400057D01*
X92761904Y-106400057D02*
X92809523Y-106495295D01*
X92809523Y-106495295D02*
X92809523Y-106590533D01*
X92809523Y-106590533D02*
X92761904Y-106733390D01*
X92761904Y-106733390D02*
X92190476Y-107304819D01*
X92190476Y-107304819D02*
X92809523Y-107304819D01*
X143665476Y-117912200D02*
X143808333Y-117959819D01*
X143808333Y-117959819D02*
X144046428Y-117959819D01*
X144046428Y-117959819D02*
X144141666Y-117912200D01*
X144141666Y-117912200D02*
X144189285Y-117864580D01*
X144189285Y-117864580D02*
X144236904Y-117769342D01*
X144236904Y-117769342D02*
X144236904Y-117674104D01*
X144236904Y-117674104D02*
X144189285Y-117578866D01*
X144189285Y-117578866D02*
X144141666Y-117531247D01*
X144141666Y-117531247D02*
X144046428Y-117483628D01*
X144046428Y-117483628D02*
X143855952Y-117436009D01*
X143855952Y-117436009D02*
X143760714Y-117388390D01*
X143760714Y-117388390D02*
X143713095Y-117340771D01*
X143713095Y-117340771D02*
X143665476Y-117245533D01*
X143665476Y-117245533D02*
X143665476Y-117150295D01*
X143665476Y-117150295D02*
X143713095Y-117055057D01*
X143713095Y-117055057D02*
X143760714Y-117007438D01*
X143760714Y-117007438D02*
X143855952Y-116959819D01*
X143855952Y-116959819D02*
X144094047Y-116959819D01*
X144094047Y-116959819D02*
X144236904Y-117007438D01*
X144570238Y-116959819D02*
X144808333Y-117959819D01*
X144808333Y-117959819D02*
X144998809Y-117245533D01*
X144998809Y-117245533D02*
X145189285Y-117959819D01*
X145189285Y-117959819D02*
X145427381Y-116959819D01*
X146332142Y-117959819D02*
X145760714Y-117959819D01*
X146046428Y-117959819D02*
X146046428Y-116959819D01*
X146046428Y-116959819D02*
X145951190Y-117102676D01*
X145951190Y-117102676D02*
X145855952Y-117197914D01*
X145855952Y-117197914D02*
X145760714Y-117245533D01*
X146808333Y-117959819D02*
X146998809Y-117959819D01*
X146998809Y-117959819D02*
X147094047Y-117912200D01*
X147094047Y-117912200D02*
X147141666Y-117864580D01*
X147141666Y-117864580D02*
X147236904Y-117721723D01*
X147236904Y-117721723D02*
X147284523Y-117531247D01*
X147284523Y-117531247D02*
X147284523Y-117150295D01*
X147284523Y-117150295D02*
X147236904Y-117055057D01*
X147236904Y-117055057D02*
X147189285Y-117007438D01*
X147189285Y-117007438D02*
X147094047Y-116959819D01*
X147094047Y-116959819D02*
X146903571Y-116959819D01*
X146903571Y-116959819D02*
X146808333Y-117007438D01*
X146808333Y-117007438D02*
X146760714Y-117055057D01*
X146760714Y-117055057D02*
X146713095Y-117150295D01*
X146713095Y-117150295D02*
X146713095Y-117388390D01*
X146713095Y-117388390D02*
X146760714Y-117483628D01*
X146760714Y-117483628D02*
X146808333Y-117531247D01*
X146808333Y-117531247D02*
X146903571Y-117578866D01*
X146903571Y-117578866D02*
X147094047Y-117578866D01*
X147094047Y-117578866D02*
X147189285Y-117531247D01*
X147189285Y-117531247D02*
X147236904Y-117483628D01*
X147236904Y-117483628D02*
X147284523Y-117388390D01*
X153666667Y-77907200D02*
X153809524Y-77954819D01*
X153809524Y-77954819D02*
X154047619Y-77954819D01*
X154047619Y-77954819D02*
X154142857Y-77907200D01*
X154142857Y-77907200D02*
X154190476Y-77859580D01*
X154190476Y-77859580D02*
X154238095Y-77764342D01*
X154238095Y-77764342D02*
X154238095Y-77669104D01*
X154238095Y-77669104D02*
X154190476Y-77573866D01*
X154190476Y-77573866D02*
X154142857Y-77526247D01*
X154142857Y-77526247D02*
X154047619Y-77478628D01*
X154047619Y-77478628D02*
X153857143Y-77431009D01*
X153857143Y-77431009D02*
X153761905Y-77383390D01*
X153761905Y-77383390D02*
X153714286Y-77335771D01*
X153714286Y-77335771D02*
X153666667Y-77240533D01*
X153666667Y-77240533D02*
X153666667Y-77145295D01*
X153666667Y-77145295D02*
X153714286Y-77050057D01*
X153714286Y-77050057D02*
X153761905Y-77002438D01*
X153761905Y-77002438D02*
X153857143Y-76954819D01*
X153857143Y-76954819D02*
X154095238Y-76954819D01*
X154095238Y-76954819D02*
X154238095Y-77002438D01*
X154571429Y-76954819D02*
X154809524Y-77954819D01*
X154809524Y-77954819D02*
X155000000Y-77240533D01*
X155000000Y-77240533D02*
X155190476Y-77954819D01*
X155190476Y-77954819D02*
X155428572Y-76954819D01*
X155714286Y-76954819D02*
X156380952Y-76954819D01*
X156380952Y-76954819D02*
X155952381Y-77954819D01*
D13*
%TO.C,SW11*%
X186000000Y-84115000D02*
X186000000Y-98315000D01*
X186000000Y-98315000D02*
X200200000Y-98315000D01*
X200200000Y-84115000D02*
X186000000Y-84115000D01*
X200200000Y-98315000D02*
X200200000Y-84115000D01*
%TO.C,SW17*%
X186000000Y-103165000D02*
X186000000Y-117365000D01*
X186000000Y-117365000D02*
X200200000Y-117365000D01*
X200200000Y-103165000D02*
X186000000Y-103165000D01*
X200200000Y-117365000D02*
X200200000Y-103165000D01*
%TO.C,SW5*%
X186000000Y-65065000D02*
X186000000Y-79265000D01*
X186000000Y-79265000D02*
X200200000Y-79265000D01*
X200200000Y-65065000D02*
X186000000Y-65065000D01*
X200200000Y-79265000D02*
X200200000Y-65065000D01*
%TO.C,SW3*%
X166950000Y-61255000D02*
X166950000Y-75455000D01*
X166950000Y-75455000D02*
X181150000Y-75455000D01*
X181150000Y-61255000D02*
X166950000Y-61255000D01*
X181150000Y-75455000D02*
X181150000Y-61255000D01*
%TO.C,SW9*%
X166950000Y-80305000D02*
X166950000Y-94505000D01*
X166950000Y-94505000D02*
X181150000Y-94505000D01*
X181150000Y-80305000D02*
X166950000Y-80305000D01*
X181150000Y-94505000D02*
X181150000Y-80305000D01*
%TO.C,SW2*%
X128850000Y-61255000D02*
X128850000Y-75455000D01*
X128850000Y-75455000D02*
X143050000Y-75455000D01*
X143050000Y-61255000D02*
X128850000Y-61255000D01*
X143050000Y-75455000D02*
X143050000Y-61255000D01*
%TO.C,SW8*%
X128850000Y-80305000D02*
X128850000Y-94505000D01*
X128850000Y-94505000D02*
X143050000Y-94505000D01*
X143050000Y-80305000D02*
X128850000Y-80305000D01*
X143050000Y-94505000D02*
X143050000Y-80305000D01*
%TO.C,SW6*%
X205050000Y-65065000D02*
X205050000Y-79265000D01*
X205050000Y-79265000D02*
X219250000Y-79265000D01*
X219250000Y-65065000D02*
X205050000Y-65065000D01*
X219250000Y-79265000D02*
X219250000Y-65065000D01*
%TO.C,SW1*%
X147900000Y-59350000D02*
X147900000Y-73550000D01*
X147900000Y-73550000D02*
X162100000Y-73550000D01*
X162100000Y-59350000D02*
X147900000Y-59350000D01*
X162100000Y-73550000D02*
X162100000Y-59350000D01*
%TO.C,SW16*%
X109800000Y-101260000D02*
X109800000Y-115460000D01*
X109800000Y-115460000D02*
X124000000Y-115460000D01*
X124000000Y-101260000D02*
X109800000Y-101260000D01*
X124000000Y-115460000D02*
X124000000Y-101260000D01*
%TO.C,SW12*%
X205050000Y-84115000D02*
X205050000Y-98315000D01*
X205050000Y-98315000D02*
X219250000Y-98315000D01*
X219250000Y-84115000D02*
X205050000Y-84115000D01*
X219250000Y-98315000D02*
X219250000Y-84115000D01*
%TO.C,SW21*%
X115588616Y-123274350D02*
X119263847Y-136990497D01*
X119263847Y-136990497D02*
X132979994Y-133315266D01*
X129304763Y-119599119D02*
X115588616Y-123274350D01*
X132979994Y-133315266D02*
X129304763Y-119599119D01*
%TO.C,J1*%
X98060000Y-103910000D02*
X98060000Y-96090000D01*
X98060000Y-102310000D02*
X97140000Y-102310000D01*
X98060000Y-96090000D02*
X91940000Y-96090000D01*
X97140000Y-103910000D02*
X98060000Y-103910000D01*
X97140000Y-102310000D02*
X97140000Y-103910000D01*
X96860000Y-102310000D02*
X97140000Y-102310000D01*
X96860000Y-102310000D02*
X96860000Y-103525000D01*
X96800000Y-98350000D02*
X96800000Y-96090000D01*
X96300000Y-98350000D02*
X96300000Y-96090000D01*
X95500000Y-100450000D02*
X94500000Y-100450000D01*
X95500000Y-96090000D02*
X95500000Y-100450000D01*
X94500000Y-100450000D02*
X94500000Y-96090000D01*
X92860000Y-103910000D02*
X92860000Y-102310000D01*
X92860000Y-102310000D02*
X93140000Y-102310000D01*
X91940000Y-103910000D02*
X92860000Y-103910000D01*
X91940000Y-102310000D02*
X92860000Y-102310000D01*
X91940000Y-96090000D02*
X91940000Y-103910000D01*
X97300000Y-99950000D02*
X96300000Y-99950000D01*
X96300000Y-98350000D01*
X97300000Y-98350000D01*
X97300000Y-99950000D01*
X93700000Y-99950000D02*
X92700000Y-99950000D01*
X92700000Y-98350000D01*
X93700000Y-98350000D01*
X93700000Y-99950000D01*
%TO.C,SW18*%
X205050000Y-103165000D02*
X205050000Y-117365000D01*
X205050000Y-117365000D02*
X219250000Y-117365000D01*
X219250000Y-103165000D02*
X205050000Y-103165000D01*
X219250000Y-117365000D02*
X219250000Y-103165000D01*
%TO.C,SW14*%
X128850000Y-99355000D02*
X128850000Y-113555000D01*
X128850000Y-113555000D02*
X143050000Y-113555000D01*
X143050000Y-99355000D02*
X128850000Y-99355000D01*
X143050000Y-113555000D02*
X143050000Y-99355000D01*
%TO.C,SW10*%
X109800000Y-82210000D02*
X109800000Y-96410000D01*
X109800000Y-96410000D02*
X124000000Y-96410000D01*
X124000000Y-82210000D02*
X109800000Y-82210000D01*
X124000000Y-96410000D02*
X124000000Y-82210000D01*
D12*
%TO.C,U1*%
X83850000Y-51220000D02*
X83850000Y-84520000D01*
X102150000Y-51220000D02*
X83850000Y-51220000D01*
X102150000Y-51220000D02*
X102150000Y-84520000D01*
X102150000Y-84520000D02*
X83850000Y-84520000D01*
D13*
%TO.C,SW15*%
X166950000Y-99355000D02*
X166950000Y-113555000D01*
X166950000Y-113555000D02*
X181150000Y-113555000D01*
X181150000Y-99355000D02*
X166950000Y-99355000D01*
X181150000Y-113555000D02*
X181150000Y-99355000D01*
%TO.C,SW13*%
X147900000Y-97450000D02*
X147900000Y-111650000D01*
X147900000Y-111650000D02*
X162100000Y-111650000D01*
X162100000Y-97450000D02*
X147900000Y-97450000D01*
X162100000Y-111650000D02*
X162100000Y-97450000D01*
%TO.C,SW22*%
X83700000Y-96700000D02*
X83700000Y-98900000D01*
X83700000Y-103000000D02*
X83700000Y-105300000D01*
X88300000Y-96700000D02*
X88300000Y-105300000D01*
%TO.C,SW20*%
X92335925Y-129756663D02*
X99435925Y-142054223D01*
X99435925Y-142054223D02*
X111733485Y-134954223D01*
X104633485Y-122656663D02*
X92335925Y-129756663D01*
X111733485Y-134954223D02*
X104633485Y-122656663D01*
%TO.C,SW4*%
X109800000Y-63160000D02*
X109800000Y-77360000D01*
X109800000Y-77360000D02*
X124000000Y-77360000D01*
X124000000Y-63160000D02*
X109800000Y-63160000D01*
X124000000Y-77360000D02*
X124000000Y-63160000D01*
%TO.C,SW19*%
X138375000Y-118405000D02*
X138375000Y-132605000D01*
X138375000Y-132605000D02*
X152575000Y-132605000D01*
X152575000Y-118405000D02*
X138375000Y-118405000D01*
X152575000Y-132605000D02*
X152575000Y-118405000D01*
%TO.C,SW7*%
X147900000Y-78400000D02*
X147900000Y-92600000D01*
X147900000Y-92600000D02*
X162100000Y-92600000D01*
X162100000Y-78400000D02*
X147900000Y-78400000D01*
X162100000Y-92600000D02*
X162100000Y-78400000D01*
%TD*%
M02*
