ISO-10303-21;
HEADER;
/* Generated by software containing ST-Developer
 * from STEP Tools, Inc. (www.steptools.com) 
 */

FILE_DESCRIPTION(
/* description */ (''),
/* implementation_level */ '2;1');

FILE_NAME(
/* name */ 'Enclosure_pad.step',
/* time_stamp */ '2026-07-29T11:02:24+03:00',
/* author */ (''),
/* organization */ (''),
/* preprocessor_version */ 'ST-DEVELOPER v20.1',
/* originating_system */ 'Autodesk Translation Framework v15.8.0.0',
/* authorisation */ '');

FILE_SCHEMA (('AUTOMOTIVE_DESIGN { 1 0 10303 214 3 1 1 }'));
ENDSEC;

DATA;
#10=MECHANICAL_DESIGN_GEOMETRIC_PRESENTATION_REPRESENTATION('',(#13),#1261);
#11=SHAPE_REPRESENTATION_RELATIONSHIP('SRR','None',#1268,#12);
#12=ADVANCED_BREP_SHAPE_REPRESENTATION('',(#14),#1260);
#13=STYLED_ITEM('',(#1277),#14);
#14=MANIFOLD_SOLID_BREP('Body4',#725);
#15=FACE_BOUND('',#148,.T.);
#16=FACE_BOUND('',#150,.T.);
#17=FACE_BOUND('',#154,.T.);
#18=FACE_BOUND('',#155,.T.);
#19=FACE_BOUND('',#156,.T.);
#20=FACE_BOUND('',#161,.T.);
#21=FACE_BOUND('',#162,.T.);
#22=FACE_BOUND('',#163,.T.);
#23=FACE_BOUND('',#164,.T.);
#24=FACE_BOUND('',#165,.T.);
#25=FACE_BOUND('',#168,.T.);
#26=FACE_BOUND('',#171,.T.);
#27=FACE_BOUND('',#174,.T.);
#28=FACE_BOUND('',#177,.T.);
#29=FACE_BOUND('',#200,.T.);
#30=FACE_BOUND('',#201,.T.);
#31=FACE_BOUND('',#202,.T.);
#32=FACE_BOUND('',#203,.T.);
#33=FACE_BOUND('',#204,.T.);
#34=CIRCLE('',#741,9.41434229906536);
#35=CIRCLE('',#742,9.41434229906536);
#36=CIRCLE('',#745,9.41434229906536);
#37=CIRCLE('',#746,9.41434229906536);
#38=CIRCLE('',#748,3.45);
#39=CIRCLE('',#749,2.45);
#40=CIRCLE('',#751,3.45);
#41=CIRCLE('',#752,2.45);
#42=CIRCLE('',#754,2.45);
#43=CIRCLE('',#756,3.45);
#44=CIRCLE('',#758,1.50000000000002);
#45=CIRCLE('',#759,1.5);
#46=CIRCLE('',#760,1.5);
#47=CIRCLE('',#761,1.50000000000002);
#48=CIRCLE('',#762,3.45);
#49=CIRCLE('',#764,2.45);
#50=CIRCLE('',#768,7.);
#51=CIRCLE('',#769,6.99999999999999);
#52=CIRCLE('',#770,6.99999999999995);
#53=CIRCLE('',#771,7.);
#54=CIRCLE('',#772,1.6);
#55=CIRCLE('',#773,1.6);
#56=CIRCLE('',#774,1.6);
#57=CIRCLE('',#775,1.50000000000002);
#58=CIRCLE('',#776,1.5);
#59=CIRCLE('',#777,1.5);
#60=CIRCLE('',#778,1.50000000000002);
#61=CIRCLE('',#779,1.60000000000001);
#62=CIRCLE('',#781,2.75);
#63=CIRCLE('',#782,2.75);
#64=CIRCLE('',#784,1.6);
#65=CIRCLE('',#786,2.75);
#66=CIRCLE('',#787,2.75);
#67=CIRCLE('',#789,1.6);
#68=CIRCLE('',#791,2.75);
#69=CIRCLE('',#792,2.75);
#70=CIRCLE('',#794,1.6);
#71=CIRCLE('',#796,2.75);
#72=CIRCLE('',#797,2.75);
#73=CIRCLE('',#799,1.60000000000001);
#74=CIRCLE('',#814,7.);
#75=CIRCLE('',#817,6.99999999999995);
#76=CIRCLE('',#820,6.99999999999999);
#77=CIRCLE('',#823,7.);
#78=CYLINDRICAL_SURFACE('',#740,9.41434229906536);
#79=CYLINDRICAL_SURFACE('',#744,9.41434229906536);
#80=CYLINDRICAL_SURFACE('',#753,2.45);
#81=CYLINDRICAL_SURFACE('',#755,3.45);
#82=CYLINDRICAL_SURFACE('',#763,2.45);
#83=CYLINDRICAL_SURFACE('',#765,3.45);
#84=CYLINDRICAL_SURFACE('',#780,2.75);
#85=CYLINDRICAL_SURFACE('',#785,2.75);
#86=CYLINDRICAL_SURFACE('',#790,2.75);
#87=CYLINDRICAL_SURFACE('',#795,2.75);
#88=CYLINDRICAL_SURFACE('',#802,1.5);
#89=CYLINDRICAL_SURFACE('',#804,1.50000000000002);
#90=CYLINDRICAL_SURFACE('',#805,1.60000000000001);
#91=CYLINDRICAL_SURFACE('',#806,1.5);
#92=CYLINDRICAL_SURFACE('',#808,1.50000000000002);
#93=CYLINDRICAL_SURFACE('',#810,1.6);
#94=CYLINDRICAL_SURFACE('',#811,1.6);
#95=CYLINDRICAL_SURFACE('',#812,1.6);
#96=CYLINDRICAL_SURFACE('',#813,7.);
#97=CYLINDRICAL_SURFACE('',#816,6.99999999999995);
#98=CYLINDRICAL_SURFACE('',#819,6.99999999999999);
#99=CYLINDRICAL_SURFACE('',#822,7.);
#100=FACE_OUTER_BOUND('',#143,.T.);
#101=FACE_OUTER_BOUND('',#144,.T.);
#102=FACE_OUTER_BOUND('',#145,.T.);
#103=FACE_OUTER_BOUND('',#146,.T.);
#104=FACE_OUTER_BOUND('',#147,.T.);
#105=FACE_OUTER_BOUND('',#149,.T.);
#106=FACE_OUTER_BOUND('',#151,.T.);
#107=FACE_OUTER_BOUND('',#152,.T.);
#108=FACE_OUTER_BOUND('',#153,.T.);
#109=FACE_OUTER_BOUND('',#157,.T.);
#110=FACE_OUTER_BOUND('',#158,.T.);
#111=FACE_OUTER_BOUND('',#159,.T.);
#112=FACE_OUTER_BOUND('',#160,.T.);
#113=FACE_OUTER_BOUND('',#166,.T.);
#114=FACE_OUTER_BOUND('',#167,.T.);
#115=FACE_OUTER_BOUND('',#169,.T.);
#116=FACE_OUTER_BOUND('',#170,.T.);
#117=FACE_OUTER_BOUND('',#172,.T.);
#118=FACE_OUTER_BOUND('',#173,.T.);
#119=FACE_OUTER_BOUND('',#175,.T.);
#120=FACE_OUTER_BOUND('',#176,.T.);
#121=FACE_OUTER_BOUND('',#178,.T.);
#122=FACE_OUTER_BOUND('',#179,.T.);
#123=FACE_OUTER_BOUND('',#180,.T.);
#124=FACE_OUTER_BOUND('',#181,.T.);
#125=FACE_OUTER_BOUND('',#182,.T.);
#126=FACE_OUTER_BOUND('',#183,.T.);
#127=FACE_OUTER_BOUND('',#184,.T.);
#128=FACE_OUTER_BOUND('',#185,.T.);
#129=FACE_OUTER_BOUND('',#186,.T.);
#130=FACE_OUTER_BOUND('',#187,.T.);
#131=FACE_OUTER_BOUND('',#188,.T.);
#132=FACE_OUTER_BOUND('',#189,.T.);
#133=FACE_OUTER_BOUND('',#190,.T.);
#134=FACE_OUTER_BOUND('',#191,.T.);
#135=FACE_OUTER_BOUND('',#192,.T.);
#136=FACE_OUTER_BOUND('',#193,.T.);
#137=FACE_OUTER_BOUND('',#194,.T.);
#138=FACE_OUTER_BOUND('',#195,.T.);
#139=FACE_OUTER_BOUND('',#196,.T.);
#140=FACE_OUTER_BOUND('',#197,.T.);
#141=FACE_OUTER_BOUND('',#198,.T.);
#142=FACE_OUTER_BOUND('',#199,.T.);
#143=EDGE_LOOP('',(#469,#470,#471,#472));
#144=EDGE_LOOP('',(#473,#474,#475,#476));
#145=EDGE_LOOP('',(#477,#478,#479,#480));
#146=EDGE_LOOP('',(#481,#482,#483,#484));
#147=EDGE_LOOP('',(#485));
#148=EDGE_LOOP('',(#486));
#149=EDGE_LOOP('',(#487));
#150=EDGE_LOOP('',(#488));
#151=EDGE_LOOP('',(#489,#490,#491,#492));
#152=EDGE_LOOP('',(#493,#494,#495,#496));
#153=EDGE_LOOP('',(#497,#498,#499,#500,#501,#502,#503,#504));
#154=EDGE_LOOP('',(#505,#506,#507,#508));
#155=EDGE_LOOP('',(#509));
#156=EDGE_LOOP('',(#510));
#157=EDGE_LOOP('',(#511,#512,#513,#514));
#158=EDGE_LOOP('',(#515,#516,#517,#518));
#159=EDGE_LOOP('',(#519));
#160=EDGE_LOOP('',(#520,#521,#522,#523,#524,#525,#526,#527));
#161=EDGE_LOOP('',(#528));
#162=EDGE_LOOP('',(#529));
#163=EDGE_LOOP('',(#530));
#164=EDGE_LOOP('',(#531,#532,#533,#534,#535,#536,#537,#538));
#165=EDGE_LOOP('',(#539));
#166=EDGE_LOOP('',(#540,#541,#542,#543));
#167=EDGE_LOOP('',(#544));
#168=EDGE_LOOP('',(#545));
#169=EDGE_LOOP('',(#546,#547,#548,#549));
#170=EDGE_LOOP('',(#550));
#171=EDGE_LOOP('',(#551));
#172=EDGE_LOOP('',(#552,#553,#554,#555));
#173=EDGE_LOOP('',(#556));
#174=EDGE_LOOP('',(#557));
#175=EDGE_LOOP('',(#558,#559,#560,#561));
#176=EDGE_LOOP('',(#562));
#177=EDGE_LOOP('',(#563));
#178=EDGE_LOOP('',(#564));
#179=EDGE_LOOP('',(#565,#566,#567,#568));
#180=EDGE_LOOP('',(#569,#570,#571,#572));
#181=EDGE_LOOP('',(#573,#574,#575,#576));
#182=EDGE_LOOP('',(#577,#578,#579,#580));
#183=EDGE_LOOP('',(#581,#582,#583,#584));
#184=EDGE_LOOP('',(#585,#586,#587,#588));
#185=EDGE_LOOP('',(#589,#590,#591,#592));
#186=EDGE_LOOP('',(#593,#594,#595,#596));
#187=EDGE_LOOP('',(#597,#598,#599,#600));
#188=EDGE_LOOP('',(#601,#602,#603,#604));
#189=EDGE_LOOP('',(#605,#606,#607,#608));
#190=EDGE_LOOP('',(#609,#610,#611,#612));
#191=EDGE_LOOP('',(#613,#614,#615,#616));
#192=EDGE_LOOP('',(#617,#618,#619,#620));
#193=EDGE_LOOP('',(#621,#622,#623,#624));
#194=EDGE_LOOP('',(#625,#626,#627,#628));
#195=EDGE_LOOP('',(#629,#630,#631,#632));
#196=EDGE_LOOP('',(#633,#634,#635,#636));
#197=EDGE_LOOP('',(#637,#638,#639,#640));
#198=EDGE_LOOP('',(#641,#642,#643,#644));
#199=EDGE_LOOP('',(#645,#646,#647,#648,#649,#650,#651,#652));
#200=EDGE_LOOP('',(#653,#654,#655,#656));
#201=EDGE_LOOP('',(#657));
#202=EDGE_LOOP('',(#658));
#203=EDGE_LOOP('',(#659));
#204=EDGE_LOOP('',(#660));
#205=LINE('',#1058,#257);
#206=LINE('',#1060,#258);
#207=LINE('',#1062,#259);
#208=LINE('',#1063,#260);
#209=LINE('',#1069,#261);
#210=LINE('',#1072,#262);
#211=LINE('',#1074,#263);
#212=LINE('',#1075,#264);
#213=LINE('',#1091,#265);
#214=LINE('',#1095,#266);
#215=LINE('',#1100,#267);
#216=LINE('',#1104,#268);
#217=LINE('',#1108,#269);
#218=LINE('',#1112,#270);
#219=LINE('',#1118,#271);
#220=LINE('',#1121,#272);
#221=LINE('',#1126,#273);
#222=LINE('',#1130,#274);
#223=LINE('',#1134,#275);
#224=LINE('',#1138,#276);
#225=LINE('',#1148,#277);
#226=LINE('',#1152,#278);
#227=LINE('',#1156,#279);
#228=LINE('',#1160,#280);
#229=LINE('',#1168,#281);
#230=LINE('',#1177,#282);
#231=LINE('',#1186,#283);
#232=LINE('',#1195,#284);
#233=LINE('',#1202,#285);
#234=LINE('',#1203,#286);
#235=LINE('',#1205,#287);
#236=LINE('',#1207,#288);
#237=LINE('',#1209,#289);
#238=LINE('',#1211,#290);
#239=LINE('',#1213,#291);
#240=LINE('',#1215,#292);
#241=LINE('',#1217,#293);
#242=LINE('',#1220,#294);
#243=LINE('',#1222,#295);
#244=LINE('',#1224,#296);
#245=LINE('',#1229,#297);
#246=LINE('',#1230,#298);
#247=LINE('',#1233,#299);
#248=LINE('',#1234,#300);
#249=LINE('',#1238,#301);
#250=LINE('',#1241,#302);
#251=LINE('',#1242,#303);
#252=LINE('',#1246,#304);
#253=LINE('',#1249,#305);
#254=LINE('',#1250,#306);
#255=LINE('',#1254,#307);
#256=LINE('',#1256,#308);
#257=VECTOR('',#830,10.);
#258=VECTOR('',#831,10.);
#259=VECTOR('',#832,10.);
#260=VECTOR('',#833,10.);
#261=VECTOR('',#840,10.);
#262=VECTOR('',#843,10.);
#263=VECTOR('',#844,10.);
#264=VECTOR('',#845,10.);
#265=VECTOR('',#866,2.45);
#266=VECTOR('',#871,3.45);
#267=VECTOR('',#876,10.);
#268=VECTOR('',#879,10.);
#269=VECTOR('',#882,10.);
#270=VECTOR('',#885,10.);
#271=VECTOR('',#892,2.45);
#272=VECTOR('',#897,3.45);
#273=VECTOR('',#902,10.);
#274=VECTOR('',#905,10.);
#275=VECTOR('',#908,10.);
#276=VECTOR('',#911,10.);
#277=VECTOR('',#920,10.);
#278=VECTOR('',#923,10.);
#279=VECTOR('',#926,10.);
#280=VECTOR('',#929,10.);
#281=VECTOR('',#938,2.75);
#282=VECTOR('',#949,2.75);
#283=VECTOR('',#960,2.75);
#284=VECTOR('',#971,2.75);
#285=VECTOR('',#982,10.);
#286=VECTOR('',#983,10.);
#287=VECTOR('',#986,10.);
#288=VECTOR('',#989,10.);
#289=VECTOR('',#992,10.);
#290=VECTOR('',#995,1.60000000000001);
#291=VECTOR('',#998,10.);
#292=VECTOR('',#1001,10.);
#293=VECTOR('',#1004,10.);
#294=VECTOR('',#1009,1.6);
#295=VECTOR('',#1012,1.6);
#296=VECTOR('',#1015,1.6);
#297=VECTOR('',#1020,10.);
#298=VECTOR('',#1021,10.);
#299=VECTOR('',#1024,10.);
#300=VECTOR('',#1025,10.);
#301=VECTOR('',#1030,10.);
#302=VECTOR('',#1033,10.);
#303=VECTOR('',#1034,10.);
#304=VECTOR('',#1039,10.);
#305=VECTOR('',#1042,10.);
#306=VECTOR('',#1043,10.);
#307=VECTOR('',#1048,10.);
#308=VECTOR('',#1051,10.);
#309=VERTEX_POINT('',#1056);
#310=VERTEX_POINT('',#1057);
#311=VERTEX_POINT('',#1059);
#312=VERTEX_POINT('',#1061);
#313=VERTEX_POINT('',#1065);
#314=VERTEX_POINT('',#1067);
#315=VERTEX_POINT('',#1071);
#316=VERTEX_POINT('',#1073);
#317=VERTEX_POINT('',#1080);
#318=VERTEX_POINT('',#1082);
#319=VERTEX_POINT('',#1085);
#320=VERTEX_POINT('',#1087);
#321=VERTEX_POINT('',#1090);
#322=VERTEX_POINT('',#1094);
#323=VERTEX_POINT('',#1098);
#324=VERTEX_POINT('',#1099);
#325=VERTEX_POINT('',#1101);
#326=VERTEX_POINT('',#1103);
#327=VERTEX_POINT('',#1105);
#328=VERTEX_POINT('',#1107);
#329=VERTEX_POINT('',#1109);
#330=VERTEX_POINT('',#1111);
#331=VERTEX_POINT('',#1114);
#332=VERTEX_POINT('',#1117);
#333=VERTEX_POINT('',#1124);
#334=VERTEX_POINT('',#1125);
#335=VERTEX_POINT('',#1127);
#336=VERTEX_POINT('',#1129);
#337=VERTEX_POINT('',#1131);
#338=VERTEX_POINT('',#1133);
#339=VERTEX_POINT('',#1135);
#340=VERTEX_POINT('',#1137);
#341=VERTEX_POINT('',#1140);
#342=VERTEX_POINT('',#1142);
#343=VERTEX_POINT('',#1144);
#344=VERTEX_POINT('',#1146);
#345=VERTEX_POINT('',#1147);
#346=VERTEX_POINT('',#1149);
#347=VERTEX_POINT('',#1151);
#348=VERTEX_POINT('',#1153);
#349=VERTEX_POINT('',#1155);
#350=VERTEX_POINT('',#1157);
#351=VERTEX_POINT('',#1159);
#352=VERTEX_POINT('',#1162);
#353=VERTEX_POINT('',#1165);
#354=VERTEX_POINT('',#1167);
#355=VERTEX_POINT('',#1171);
#356=VERTEX_POINT('',#1174);
#357=VERTEX_POINT('',#1176);
#358=VERTEX_POINT('',#1180);
#359=VERTEX_POINT('',#1183);
#360=VERTEX_POINT('',#1185);
#361=VERTEX_POINT('',#1189);
#362=VERTEX_POINT('',#1192);
#363=VERTEX_POINT('',#1194);
#364=VERTEX_POINT('',#1198);
#365=VERTEX_POINT('',#1226);
#366=VERTEX_POINT('',#1227);
#367=VERTEX_POINT('',#1232);
#368=VERTEX_POINT('',#1236);
#369=VERTEX_POINT('',#1240);
#370=VERTEX_POINT('',#1244);
#371=VERTEX_POINT('',#1248);
#372=VERTEX_POINT('',#1252);
#373=EDGE_CURVE('',#309,#310,#205,.T.);
#374=EDGE_CURVE('',#311,#309,#206,.T.);
#375=EDGE_CURVE('',#312,#311,#207,.T.);
#376=EDGE_CURVE('',#312,#310,#208,.T.);
#377=EDGE_CURVE('',#310,#313,#34,.T.);
#378=EDGE_CURVE('',#314,#312,#35,.T.);
#379=EDGE_CURVE('',#314,#313,#209,.T.);
#380=EDGE_CURVE('',#313,#315,#210,.T.);
#381=EDGE_CURVE('',#316,#314,#211,.T.);
#382=EDGE_CURVE('',#316,#315,#212,.T.);
#383=EDGE_CURVE('',#315,#309,#36,.T.);
#384=EDGE_CURVE('',#311,#316,#37,.T.);
#385=EDGE_CURVE('',#317,#317,#38,.T.);
#386=EDGE_CURVE('',#318,#318,#39,.T.);
#387=EDGE_CURVE('',#319,#319,#40,.T.);
#388=EDGE_CURVE('',#320,#320,#41,.T.);
#389=EDGE_CURVE('',#320,#321,#213,.T.);
#390=EDGE_CURVE('',#321,#321,#42,.T.);
#391=EDGE_CURVE('',#319,#322,#214,.T.);
#392=EDGE_CURVE('',#322,#322,#43,.T.);
#393=EDGE_CURVE('',#323,#324,#215,.T.);
#394=EDGE_CURVE('',#325,#323,#44,.T.);
#395=EDGE_CURVE('',#326,#325,#216,.T.);
#396=EDGE_CURVE('',#327,#326,#45,.T.);
#397=EDGE_CURVE('',#328,#327,#217,.T.);
#398=EDGE_CURVE('',#329,#328,#46,.T.);
#399=EDGE_CURVE('',#330,#329,#218,.T.);
#400=EDGE_CURVE('',#324,#330,#47,.T.);
#401=EDGE_CURVE('',#331,#331,#48,.T.);
#402=EDGE_CURVE('',#318,#332,#219,.T.);
#403=EDGE_CURVE('',#332,#332,#49,.T.);
#404=EDGE_CURVE('',#317,#331,#220,.T.);
#405=EDGE_CURVE('',#333,#334,#221,.T.);
#406=EDGE_CURVE('',#334,#335,#50,.T.);
#407=EDGE_CURVE('',#335,#336,#222,.T.);
#408=EDGE_CURVE('',#336,#337,#51,.T.);
#409=EDGE_CURVE('',#337,#338,#223,.T.);
#410=EDGE_CURVE('',#338,#339,#52,.T.);
#411=EDGE_CURVE('',#339,#340,#224,.T.);
#412=EDGE_CURVE('',#340,#333,#53,.T.);
#413=EDGE_CURVE('',#341,#341,#54,.T.);
#414=EDGE_CURVE('',#342,#342,#55,.T.);
#415=EDGE_CURVE('',#343,#343,#56,.T.);
#416=EDGE_CURVE('',#344,#345,#225,.T.);
#417=EDGE_CURVE('',#345,#346,#57,.T.);
#418=EDGE_CURVE('',#346,#347,#226,.T.);
#419=EDGE_CURVE('',#347,#348,#58,.T.);
#420=EDGE_CURVE('',#348,#349,#227,.T.);
#421=EDGE_CURVE('',#349,#350,#59,.T.);
#422=EDGE_CURVE('',#350,#351,#228,.T.);
#423=EDGE_CURVE('',#351,#344,#60,.T.);
#424=EDGE_CURVE('',#352,#352,#61,.T.);
#425=EDGE_CURVE('',#353,#353,#62,.T.);
#426=EDGE_CURVE('',#353,#354,#229,.T.);
#427=EDGE_CURVE('',#354,#354,#63,.T.);
#428=EDGE_CURVE('',#355,#355,#64,.T.);
#429=EDGE_CURVE('',#356,#356,#65,.T.);
#430=EDGE_CURVE('',#356,#357,#230,.T.);
#431=EDGE_CURVE('',#357,#357,#66,.T.);
#432=EDGE_CURVE('',#358,#358,#67,.T.);
#433=EDGE_CURVE('',#359,#359,#68,.T.);
#434=EDGE_CURVE('',#359,#360,#231,.T.);
#435=EDGE_CURVE('',#360,#360,#69,.T.);
#436=EDGE_CURVE('',#361,#361,#70,.T.);
#437=EDGE_CURVE('',#362,#362,#71,.T.);
#438=EDGE_CURVE('',#362,#363,#232,.T.);
#439=EDGE_CURVE('',#363,#363,#72,.T.);
#440=EDGE_CURVE('',#364,#364,#73,.T.);
#441=EDGE_CURVE('',#327,#349,#233,.T.);
#442=EDGE_CURVE('',#328,#348,#234,.T.);
#443=EDGE_CURVE('',#326,#350,#235,.T.);
#444=EDGE_CURVE('',#325,#351,#236,.T.);
#445=EDGE_CURVE('',#323,#344,#237,.T.);
#446=EDGE_CURVE('',#352,#364,#238,.T.);
#447=EDGE_CURVE('',#329,#347,#239,.T.);
#448=EDGE_CURVE('',#330,#346,#240,.T.);
#449=EDGE_CURVE('',#324,#345,#241,.T.);
#450=EDGE_CURVE('',#343,#355,#242,.T.);
#451=EDGE_CURVE('',#342,#361,#243,.T.);
#452=EDGE_CURVE('',#341,#358,#244,.T.);
#453=EDGE_CURVE('',#365,#366,#74,.T.);
#454=EDGE_CURVE('',#366,#333,#245,.T.);
#455=EDGE_CURVE('',#365,#340,#246,.T.);
#456=EDGE_CURVE('',#367,#365,#247,.T.);
#457=EDGE_CURVE('',#367,#339,#248,.T.);
#458=EDGE_CURVE('',#368,#367,#75,.T.);
#459=EDGE_CURVE('',#368,#338,#249,.T.);
#460=EDGE_CURVE('',#369,#368,#250,.T.);
#461=EDGE_CURVE('',#369,#337,#251,.T.);
#462=EDGE_CURVE('',#370,#369,#76,.T.);
#463=EDGE_CURVE('',#370,#336,#252,.T.);
#464=EDGE_CURVE('',#371,#370,#253,.T.);
#465=EDGE_CURVE('',#371,#335,#254,.T.);
#466=EDGE_CURVE('',#372,#371,#77,.T.);
#467=EDGE_CURVE('',#372,#334,#255,.T.);
#468=EDGE_CURVE('',#366,#372,#256,.T.);
#469=ORIENTED_EDGE('',*,*,#373,.F.);
#470=ORIENTED_EDGE('',*,*,#374,.F.);
#471=ORIENTED_EDGE('',*,*,#375,.F.);
#472=ORIENTED_EDGE('',*,*,#376,.T.);
#473=ORIENTED_EDGE('',*,*,#377,.F.);
#474=ORIENTED_EDGE('',*,*,#376,.F.);
#475=ORIENTED_EDGE('',*,*,#378,.F.);
#476=ORIENTED_EDGE('',*,*,#379,.T.);
#477=ORIENTED_EDGE('',*,*,#380,.F.);
#478=ORIENTED_EDGE('',*,*,#379,.F.);
#479=ORIENTED_EDGE('',*,*,#381,.F.);
#480=ORIENTED_EDGE('',*,*,#382,.T.);
#481=ORIENTED_EDGE('',*,*,#383,.F.);
#482=ORIENTED_EDGE('',*,*,#382,.F.);
#483=ORIENTED_EDGE('',*,*,#384,.F.);
#484=ORIENTED_EDGE('',*,*,#374,.T.);
#485=ORIENTED_EDGE('',*,*,#385,.F.);
#486=ORIENTED_EDGE('',*,*,#386,.F.);
#487=ORIENTED_EDGE('',*,*,#387,.F.);
#488=ORIENTED_EDGE('',*,*,#388,.F.);
#489=ORIENTED_EDGE('',*,*,#388,.T.);
#490=ORIENTED_EDGE('',*,*,#389,.T.);
#491=ORIENTED_EDGE('',*,*,#390,.F.);
#492=ORIENTED_EDGE('',*,*,#389,.F.);
#493=ORIENTED_EDGE('',*,*,#387,.T.);
#494=ORIENTED_EDGE('',*,*,#391,.T.);
#495=ORIENTED_EDGE('',*,*,#392,.F.);
#496=ORIENTED_EDGE('',*,*,#391,.F.);
#497=ORIENTED_EDGE('',*,*,#393,.F.);
#498=ORIENTED_EDGE('',*,*,#394,.F.);
#499=ORIENTED_EDGE('',*,*,#395,.F.);
#500=ORIENTED_EDGE('',*,*,#396,.F.);
#501=ORIENTED_EDGE('',*,*,#397,.F.);
#502=ORIENTED_EDGE('',*,*,#398,.F.);
#503=ORIENTED_EDGE('',*,*,#399,.F.);
#504=ORIENTED_EDGE('',*,*,#400,.F.);
#505=ORIENTED_EDGE('',*,*,#380,.T.);
#506=ORIENTED_EDGE('',*,*,#383,.T.);
#507=ORIENTED_EDGE('',*,*,#373,.T.);
#508=ORIENTED_EDGE('',*,*,#377,.T.);
#509=ORIENTED_EDGE('',*,*,#401,.T.);
#510=ORIENTED_EDGE('',*,*,#392,.T.);
#511=ORIENTED_EDGE('',*,*,#386,.T.);
#512=ORIENTED_EDGE('',*,*,#402,.T.);
#513=ORIENTED_EDGE('',*,*,#403,.F.);
#514=ORIENTED_EDGE('',*,*,#402,.F.);
#515=ORIENTED_EDGE('',*,*,#385,.T.);
#516=ORIENTED_EDGE('',*,*,#404,.T.);
#517=ORIENTED_EDGE('',*,*,#401,.F.);
#518=ORIENTED_EDGE('',*,*,#404,.F.);
#519=ORIENTED_EDGE('',*,*,#390,.T.);
#520=ORIENTED_EDGE('',*,*,#405,.T.);
#521=ORIENTED_EDGE('',*,*,#406,.T.);
#522=ORIENTED_EDGE('',*,*,#407,.T.);
#523=ORIENTED_EDGE('',*,*,#408,.T.);
#524=ORIENTED_EDGE('',*,*,#409,.T.);
#525=ORIENTED_EDGE('',*,*,#410,.T.);
#526=ORIENTED_EDGE('',*,*,#411,.T.);
#527=ORIENTED_EDGE('',*,*,#412,.T.);
#528=ORIENTED_EDGE('',*,*,#413,.T.);
#529=ORIENTED_EDGE('',*,*,#414,.T.);
#530=ORIENTED_EDGE('',*,*,#415,.T.);
#531=ORIENTED_EDGE('',*,*,#416,.T.);
#532=ORIENTED_EDGE('',*,*,#417,.T.);
#533=ORIENTED_EDGE('',*,*,#418,.T.);
#534=ORIENTED_EDGE('',*,*,#419,.T.);
#535=ORIENTED_EDGE('',*,*,#420,.T.);
#536=ORIENTED_EDGE('',*,*,#421,.T.);
#537=ORIENTED_EDGE('',*,*,#422,.T.);
#538=ORIENTED_EDGE('',*,*,#423,.T.);
#539=ORIENTED_EDGE('',*,*,#424,.T.);
#540=ORIENTED_EDGE('',*,*,#425,.F.);
#541=ORIENTED_EDGE('',*,*,#426,.T.);
#542=ORIENTED_EDGE('',*,*,#427,.T.);
#543=ORIENTED_EDGE('',*,*,#426,.F.);
#544=ORIENTED_EDGE('',*,*,#427,.F.);
#545=ORIENTED_EDGE('',*,*,#428,.F.);
#546=ORIENTED_EDGE('',*,*,#429,.F.);
#547=ORIENTED_EDGE('',*,*,#430,.T.);
#548=ORIENTED_EDGE('',*,*,#431,.T.);
#549=ORIENTED_EDGE('',*,*,#430,.F.);
#550=ORIENTED_EDGE('',*,*,#431,.F.);
#551=ORIENTED_EDGE('',*,*,#432,.F.);
#552=ORIENTED_EDGE('',*,*,#433,.F.);
#553=ORIENTED_EDGE('',*,*,#434,.T.);
#554=ORIENTED_EDGE('',*,*,#435,.T.);
#555=ORIENTED_EDGE('',*,*,#434,.F.);
#556=ORIENTED_EDGE('',*,*,#435,.F.);
#557=ORIENTED_EDGE('',*,*,#436,.F.);
#558=ORIENTED_EDGE('',*,*,#437,.F.);
#559=ORIENTED_EDGE('',*,*,#438,.T.);
#560=ORIENTED_EDGE('',*,*,#439,.T.);
#561=ORIENTED_EDGE('',*,*,#438,.F.);
#562=ORIENTED_EDGE('',*,*,#439,.F.);
#563=ORIENTED_EDGE('',*,*,#440,.F.);
#564=ORIENTED_EDGE('',*,*,#403,.T.);
#565=ORIENTED_EDGE('',*,*,#397,.T.);
#566=ORIENTED_EDGE('',*,*,#441,.T.);
#567=ORIENTED_EDGE('',*,*,#420,.F.);
#568=ORIENTED_EDGE('',*,*,#442,.F.);
#569=ORIENTED_EDGE('',*,*,#396,.T.);
#570=ORIENTED_EDGE('',*,*,#443,.T.);
#571=ORIENTED_EDGE('',*,*,#421,.F.);
#572=ORIENTED_EDGE('',*,*,#441,.F.);
#573=ORIENTED_EDGE('',*,*,#395,.T.);
#574=ORIENTED_EDGE('',*,*,#444,.T.);
#575=ORIENTED_EDGE('',*,*,#422,.F.);
#576=ORIENTED_EDGE('',*,*,#443,.F.);
#577=ORIENTED_EDGE('',*,*,#394,.T.);
#578=ORIENTED_EDGE('',*,*,#445,.T.);
#579=ORIENTED_EDGE('',*,*,#423,.F.);
#580=ORIENTED_EDGE('',*,*,#444,.F.);
#581=ORIENTED_EDGE('',*,*,#424,.F.);
#582=ORIENTED_EDGE('',*,*,#446,.T.);
#583=ORIENTED_EDGE('',*,*,#440,.T.);
#584=ORIENTED_EDGE('',*,*,#446,.F.);
#585=ORIENTED_EDGE('',*,*,#398,.T.);
#586=ORIENTED_EDGE('',*,*,#442,.T.);
#587=ORIENTED_EDGE('',*,*,#419,.F.);
#588=ORIENTED_EDGE('',*,*,#447,.F.);
#589=ORIENTED_EDGE('',*,*,#399,.T.);
#590=ORIENTED_EDGE('',*,*,#447,.T.);
#591=ORIENTED_EDGE('',*,*,#418,.F.);
#592=ORIENTED_EDGE('',*,*,#448,.F.);
#593=ORIENTED_EDGE('',*,*,#400,.T.);
#594=ORIENTED_EDGE('',*,*,#448,.T.);
#595=ORIENTED_EDGE('',*,*,#417,.F.);
#596=ORIENTED_EDGE('',*,*,#449,.F.);
#597=ORIENTED_EDGE('',*,*,#393,.T.);
#598=ORIENTED_EDGE('',*,*,#449,.T.);
#599=ORIENTED_EDGE('',*,*,#416,.F.);
#600=ORIENTED_EDGE('',*,*,#445,.F.);
#601=ORIENTED_EDGE('',*,*,#415,.F.);
#602=ORIENTED_EDGE('',*,*,#450,.T.);
#603=ORIENTED_EDGE('',*,*,#428,.T.);
#604=ORIENTED_EDGE('',*,*,#450,.F.);
#605=ORIENTED_EDGE('',*,*,#414,.F.);
#606=ORIENTED_EDGE('',*,*,#451,.T.);
#607=ORIENTED_EDGE('',*,*,#436,.T.);
#608=ORIENTED_EDGE('',*,*,#451,.F.);
#609=ORIENTED_EDGE('',*,*,#413,.F.);
#610=ORIENTED_EDGE('',*,*,#452,.T.);
#611=ORIENTED_EDGE('',*,*,#432,.T.);
#612=ORIENTED_EDGE('',*,*,#452,.F.);
#613=ORIENTED_EDGE('',*,*,#453,.T.);
#614=ORIENTED_EDGE('',*,*,#454,.T.);
#615=ORIENTED_EDGE('',*,*,#412,.F.);
#616=ORIENTED_EDGE('',*,*,#455,.F.);
#617=ORIENTED_EDGE('',*,*,#456,.T.);
#618=ORIENTED_EDGE('',*,*,#455,.T.);
#619=ORIENTED_EDGE('',*,*,#411,.F.);
#620=ORIENTED_EDGE('',*,*,#457,.F.);
#621=ORIENTED_EDGE('',*,*,#458,.T.);
#622=ORIENTED_EDGE('',*,*,#457,.T.);
#623=ORIENTED_EDGE('',*,*,#410,.F.);
#624=ORIENTED_EDGE('',*,*,#459,.F.);
#625=ORIENTED_EDGE('',*,*,#460,.T.);
#626=ORIENTED_EDGE('',*,*,#459,.T.);
#627=ORIENTED_EDGE('',*,*,#409,.F.);
#628=ORIENTED_EDGE('',*,*,#461,.F.);
#629=ORIENTED_EDGE('',*,*,#462,.T.);
#630=ORIENTED_EDGE('',*,*,#461,.T.);
#631=ORIENTED_EDGE('',*,*,#408,.F.);
#632=ORIENTED_EDGE('',*,*,#463,.F.);
#633=ORIENTED_EDGE('',*,*,#464,.T.);
#634=ORIENTED_EDGE('',*,*,#463,.T.);
#635=ORIENTED_EDGE('',*,*,#407,.F.);
#636=ORIENTED_EDGE('',*,*,#465,.F.);
#637=ORIENTED_EDGE('',*,*,#466,.T.);
#638=ORIENTED_EDGE('',*,*,#465,.T.);
#639=ORIENTED_EDGE('',*,*,#406,.F.);
#640=ORIENTED_EDGE('',*,*,#467,.F.);
#641=ORIENTED_EDGE('',*,*,#468,.T.);
#642=ORIENTED_EDGE('',*,*,#467,.T.);
#643=ORIENTED_EDGE('',*,*,#405,.F.);
#644=ORIENTED_EDGE('',*,*,#454,.F.);
#645=ORIENTED_EDGE('',*,*,#468,.F.);
#646=ORIENTED_EDGE('',*,*,#453,.F.);
#647=ORIENTED_EDGE('',*,*,#456,.F.);
#648=ORIENTED_EDGE('',*,*,#458,.F.);
#649=ORIENTED_EDGE('',*,*,#460,.F.);
#650=ORIENTED_EDGE('',*,*,#462,.F.);
#651=ORIENTED_EDGE('',*,*,#464,.F.);
#652=ORIENTED_EDGE('',*,*,#466,.F.);
#653=ORIENTED_EDGE('',*,*,#381,.T.);
#654=ORIENTED_EDGE('',*,*,#378,.T.);
#655=ORIENTED_EDGE('',*,*,#375,.T.);
#656=ORIENTED_EDGE('',*,*,#384,.T.);
#657=ORIENTED_EDGE('',*,*,#437,.T.);
#658=ORIENTED_EDGE('',*,*,#433,.T.);
#659=ORIENTED_EDGE('',*,*,#429,.T.);
#660=ORIENTED_EDGE('',*,*,#425,.T.);
#661=PLANE('',#739);
#662=PLANE('',#743);
#663=PLANE('',#747);
#664=PLANE('',#750);
#665=PLANE('',#757);
#666=PLANE('',#766);
#667=PLANE('',#767);
#668=PLANE('',#783);
#669=PLANE('',#788);
#670=PLANE('',#793);
#671=PLANE('',#798);
#672=PLANE('',#800);
#673=PLANE('',#801);
#674=PLANE('',#803);
#675=PLANE('',#807);
#676=PLANE('',#809);
#677=PLANE('',#815);
#678=PLANE('',#818);
#679=PLANE('',#821);
#680=PLANE('',#824);
#681=PLANE('',#825);
#682=ADVANCED_FACE('',(#100),#661,.F.);
#683=ADVANCED_FACE('',(#101),#78,.F.);
#684=ADVANCED_FACE('',(#102),#662,.F.);
#685=ADVANCED_FACE('',(#103),#79,.F.);
#686=ADVANCED_FACE('',(#104,#15),#663,.T.);
#687=ADVANCED_FACE('',(#105,#16),#664,.T.);
#688=ADVANCED_FACE('',(#106),#80,.F.);
#689=ADVANCED_FACE('',(#107),#81,.T.);
#690=ADVANCED_FACE('',(#108,#17,#18,#19),#665,.T.);
#691=ADVANCED_FACE('',(#109),#82,.F.);
#692=ADVANCED_FACE('',(#110),#83,.T.);
#693=ADVANCED_FACE('',(#111),#666,.T.);
#694=ADVANCED_FACE('',(#112,#20,#21,#22,#23,#24),#667,.T.);
#695=ADVANCED_FACE('',(#113),#84,.F.);
#696=ADVANCED_FACE('',(#114,#25),#668,.T.);
#697=ADVANCED_FACE('',(#115),#85,.F.);
#698=ADVANCED_FACE('',(#116,#26),#669,.T.);
#699=ADVANCED_FACE('',(#117),#86,.F.);
#700=ADVANCED_FACE('',(#118,#27),#670,.T.);
#701=ADVANCED_FACE('',(#119),#87,.F.);
#702=ADVANCED_FACE('',(#120,#28),#671,.T.);
#703=ADVANCED_FACE('',(#121),#672,.T.);
#704=ADVANCED_FACE('',(#122),#673,.T.);
#705=ADVANCED_FACE('',(#123),#88,.F.);
#706=ADVANCED_FACE('',(#124),#674,.T.);
#707=ADVANCED_FACE('',(#125),#89,.F.);
#708=ADVANCED_FACE('',(#126),#90,.F.);
#709=ADVANCED_FACE('',(#127),#91,.F.);
#710=ADVANCED_FACE('',(#128),#675,.T.);
#711=ADVANCED_FACE('',(#129),#92,.F.);
#712=ADVANCED_FACE('',(#130),#676,.T.);
#713=ADVANCED_FACE('',(#131),#93,.F.);
#714=ADVANCED_FACE('',(#132),#94,.F.);
#715=ADVANCED_FACE('',(#133),#95,.F.);
#716=ADVANCED_FACE('',(#134),#96,.T.);
#717=ADVANCED_FACE('',(#135),#677,.T.);
#718=ADVANCED_FACE('',(#136),#97,.T.);
#719=ADVANCED_FACE('',(#137),#678,.T.);
#720=ADVANCED_FACE('',(#138),#98,.T.);
#721=ADVANCED_FACE('',(#139),#679,.T.);
#722=ADVANCED_FACE('',(#140),#99,.T.);
#723=ADVANCED_FACE('',(#141),#680,.T.);
#724=ADVANCED_FACE('',(#142,#29,#30,#31,#32,#33),#681,.F.);
#725=CLOSED_SHELL('',(#682,#683,#684,#685,#686,#687,#688,#689,#690,#691,
#692,#693,#694,#695,#696,#697,#698,#699,#700,#701,#702,#703,#704,#705,#706,
#707,#708,#709,#710,#711,#712,#713,#714,#715,#716,#717,#718,#719,#720,#721,
#722,#723,#724));
#726=DERIVED_UNIT_ELEMENT(#728,1.);
#727=DERIVED_UNIT_ELEMENT(#1263,-3.);
#728=(
MASS_UNIT()
NAMED_UNIT(*)
SI_UNIT(.KILO.,.GRAM.)
);
#729=DERIVED_UNIT((#726,#727));
#730=MEASURE_REPRESENTATION_ITEM('density measure',
POSITIVE_RATIO_MEASURE(7850.),#729);
#731=PROPERTY_DEFINITION_REPRESENTATION(#736,#733);
#732=PROPERTY_DEFINITION_REPRESENTATION(#737,#734);
#733=REPRESENTATION('material name',(#735),#1260);
#734=REPRESENTATION('density',(#730),#1260);
#735=DESCRIPTIVE_REPRESENTATION_ITEM('Steel','Steel');
#736=PROPERTY_DEFINITION('material property','material name',#1270);
#737=PROPERTY_DEFINITION('material property','density of part',#1270);
#738=AXIS2_PLACEMENT_3D('',#1054,#826,#827);
#739=AXIS2_PLACEMENT_3D('',#1055,#828,#829);
#740=AXIS2_PLACEMENT_3D('',#1064,#834,#835);
#741=AXIS2_PLACEMENT_3D('',#1066,#836,#837);
#742=AXIS2_PLACEMENT_3D('',#1068,#838,#839);
#743=AXIS2_PLACEMENT_3D('',#1070,#841,#842);
#744=AXIS2_PLACEMENT_3D('',#1076,#846,#847);
#745=AXIS2_PLACEMENT_3D('',#1077,#848,#849);
#746=AXIS2_PLACEMENT_3D('',#1078,#850,#851);
#747=AXIS2_PLACEMENT_3D('',#1079,#852,#853);
#748=AXIS2_PLACEMENT_3D('',#1081,#854,#855);
#749=AXIS2_PLACEMENT_3D('',#1083,#856,#857);
#750=AXIS2_PLACEMENT_3D('',#1084,#858,#859);
#751=AXIS2_PLACEMENT_3D('',#1086,#860,#861);
#752=AXIS2_PLACEMENT_3D('',#1088,#862,#863);
#753=AXIS2_PLACEMENT_3D('',#1089,#864,#865);
#754=AXIS2_PLACEMENT_3D('',#1092,#867,#868);
#755=AXIS2_PLACEMENT_3D('',#1093,#869,#870);
#756=AXIS2_PLACEMENT_3D('',#1096,#872,#873);
#757=AXIS2_PLACEMENT_3D('',#1097,#874,#875);
#758=AXIS2_PLACEMENT_3D('',#1102,#877,#878);
#759=AXIS2_PLACEMENT_3D('',#1106,#880,#881);
#760=AXIS2_PLACEMENT_3D('',#1110,#883,#884);
#761=AXIS2_PLACEMENT_3D('',#1113,#886,#887);
#762=AXIS2_PLACEMENT_3D('',#1115,#888,#889);
#763=AXIS2_PLACEMENT_3D('',#1116,#890,#891);
#764=AXIS2_PLACEMENT_3D('',#1119,#893,#894);
#765=AXIS2_PLACEMENT_3D('',#1120,#895,#896);
#766=AXIS2_PLACEMENT_3D('',#1122,#898,#899);
#767=AXIS2_PLACEMENT_3D('',#1123,#900,#901);
#768=AXIS2_PLACEMENT_3D('',#1128,#903,#904);
#769=AXIS2_PLACEMENT_3D('',#1132,#906,#907);
#770=AXIS2_PLACEMENT_3D('',#1136,#909,#910);
#771=AXIS2_PLACEMENT_3D('',#1139,#912,#913);
#772=AXIS2_PLACEMENT_3D('',#1141,#914,#915);
#773=AXIS2_PLACEMENT_3D('',#1143,#916,#917);
#774=AXIS2_PLACEMENT_3D('',#1145,#918,#919);
#775=AXIS2_PLACEMENT_3D('',#1150,#921,#922);
#776=AXIS2_PLACEMENT_3D('',#1154,#924,#925);
#777=AXIS2_PLACEMENT_3D('',#1158,#927,#928);
#778=AXIS2_PLACEMENT_3D('',#1161,#930,#931);
#779=AXIS2_PLACEMENT_3D('',#1163,#932,#933);
#780=AXIS2_PLACEMENT_3D('',#1164,#934,#935);
#781=AXIS2_PLACEMENT_3D('',#1166,#936,#937);
#782=AXIS2_PLACEMENT_3D('',#1169,#939,#940);
#783=AXIS2_PLACEMENT_3D('',#1170,#941,#942);
#784=AXIS2_PLACEMENT_3D('',#1172,#943,#944);
#785=AXIS2_PLACEMENT_3D('',#1173,#945,#946);
#786=AXIS2_PLACEMENT_3D('',#1175,#947,#948);
#787=AXIS2_PLACEMENT_3D('',#1178,#950,#951);
#788=AXIS2_PLACEMENT_3D('',#1179,#952,#953);
#789=AXIS2_PLACEMENT_3D('',#1181,#954,#955);
#790=AXIS2_PLACEMENT_3D('',#1182,#956,#957);
#791=AXIS2_PLACEMENT_3D('',#1184,#958,#959);
#792=AXIS2_PLACEMENT_3D('',#1187,#961,#962);
#793=AXIS2_PLACEMENT_3D('',#1188,#963,#964);
#794=AXIS2_PLACEMENT_3D('',#1190,#965,#966);
#795=AXIS2_PLACEMENT_3D('',#1191,#967,#968);
#796=AXIS2_PLACEMENT_3D('',#1193,#969,#970);
#797=AXIS2_PLACEMENT_3D('',#1196,#972,#973);
#798=AXIS2_PLACEMENT_3D('',#1197,#974,#975);
#799=AXIS2_PLACEMENT_3D('',#1199,#976,#977);
#800=AXIS2_PLACEMENT_3D('',#1200,#978,#979);
#801=AXIS2_PLACEMENT_3D('',#1201,#980,#981);
#802=AXIS2_PLACEMENT_3D('',#1204,#984,#985);
#803=AXIS2_PLACEMENT_3D('',#1206,#987,#988);
#804=AXIS2_PLACEMENT_3D('',#1208,#990,#991);
#805=AXIS2_PLACEMENT_3D('',#1210,#993,#994);
#806=AXIS2_PLACEMENT_3D('',#1212,#996,#997);
#807=AXIS2_PLACEMENT_3D('',#1214,#999,#1000);
#808=AXIS2_PLACEMENT_3D('',#1216,#1002,#1003);
#809=AXIS2_PLACEMENT_3D('',#1218,#1005,#1006);
#810=AXIS2_PLACEMENT_3D('',#1219,#1007,#1008);
#811=AXIS2_PLACEMENT_3D('',#1221,#1010,#1011);
#812=AXIS2_PLACEMENT_3D('',#1223,#1013,#1014);
#813=AXIS2_PLACEMENT_3D('',#1225,#1016,#1017);
#814=AXIS2_PLACEMENT_3D('',#1228,#1018,#1019);
#815=AXIS2_PLACEMENT_3D('',#1231,#1022,#1023);
#816=AXIS2_PLACEMENT_3D('',#1235,#1026,#1027);
#817=AXIS2_PLACEMENT_3D('',#1237,#1028,#1029);
#818=AXIS2_PLACEMENT_3D('',#1239,#1031,#1032);
#819=AXIS2_PLACEMENT_3D('',#1243,#1035,#1036);
#820=AXIS2_PLACEMENT_3D('',#1245,#1037,#1038);
#821=AXIS2_PLACEMENT_3D('',#1247,#1040,#1041);
#822=AXIS2_PLACEMENT_3D('',#1251,#1044,#1045);
#823=AXIS2_PLACEMENT_3D('',#1253,#1046,#1047);
#824=AXIS2_PLACEMENT_3D('',#1255,#1049,#1050);
#825=AXIS2_PLACEMENT_3D('',#1257,#1052,#1053);
#826=DIRECTION('axis',(0.,0.,1.));
#827=DIRECTION('refdir',(1.,0.,0.));
#828=DIRECTION('center_axis',(-1.,0.,0.));
#829=DIRECTION('ref_axis',(0.,-1.,0.));
#830=DIRECTION('',(0.,1.,0.));
#831=DIRECTION('',(0.,0.,1.));
#832=DIRECTION('',(0.,-1.,0.));
#833=DIRECTION('',(0.,0.,1.));
#834=DIRECTION('center_axis',(0.,0.,1.));
#835=DIRECTION('ref_axis',(1.,0.,0.));
#836=DIRECTION('center_axis',(0.,0.,-1.));
#837=DIRECTION('ref_axis',(1.,0.,0.));
#838=DIRECTION('center_axis',(0.,0.,1.));
#839=DIRECTION('ref_axis',(1.,0.,0.));
#840=DIRECTION('',(0.,0.,1.));
#841=DIRECTION('center_axis',(1.,0.,0.));
#842=DIRECTION('ref_axis',(0.,1.,0.));
#843=DIRECTION('',(0.,-1.,0.));
#844=DIRECTION('',(0.,1.,0.));
#845=DIRECTION('',(0.,0.,1.));
#846=DIRECTION('center_axis',(0.,0.,1.));
#847=DIRECTION('ref_axis',(-1.,0.,0.));
#848=DIRECTION('center_axis',(0.,0.,-1.));
#849=DIRECTION('ref_axis',(-1.,0.,0.));
#850=DIRECTION('center_axis',(0.,0.,1.));
#851=DIRECTION('ref_axis',(-1.,0.,0.));
#852=DIRECTION('center_axis',(0.,0.,1.));
#853=DIRECTION('ref_axis',(-1.,0.,0.));
#854=DIRECTION('center_axis',(0.,0.,-1.));
#855=DIRECTION('ref_axis',(-1.,0.,0.));
#856=DIRECTION('center_axis',(0.,0.,1.));
#857=DIRECTION('ref_axis',(-1.,0.,0.));
#858=DIRECTION('center_axis',(0.,0.,1.));
#859=DIRECTION('ref_axis',(-1.,0.,0.));
#860=DIRECTION('center_axis',(0.,0.,-1.));
#861=DIRECTION('ref_axis',(-1.,0.,0.));
#862=DIRECTION('center_axis',(0.,0.,1.));
#863=DIRECTION('ref_axis',(-1.,0.,0.));
#864=DIRECTION('center_axis',(0.,0.,1.));
#865=DIRECTION('ref_axis',(-1.,0.,0.));
#866=DIRECTION('',(0.,0.,-1.));
#867=DIRECTION('center_axis',(0.,0.,1.));
#868=DIRECTION('ref_axis',(-1.,0.,0.));
#869=DIRECTION('center_axis',(0.,0.,1.));
#870=DIRECTION('ref_axis',(-1.,0.,0.));
#871=DIRECTION('',(0.,0.,-1.));
#872=DIRECTION('center_axis',(0.,0.,-1.));
#873=DIRECTION('ref_axis',(-1.,0.,0.));
#874=DIRECTION('center_axis',(0.,0.,1.));
#875=DIRECTION('ref_axis',(1.,0.,0.));
#876=DIRECTION('',(-4.98372498488132E-16,-1.,0.));
#877=DIRECTION('center_axis',(0.,0.,-1.));
#878=DIRECTION('ref_axis',(1.,1.18423789293348E-14,0.));
#879=DIRECTION('',(1.,0.,0.));
#880=DIRECTION('center_axis',(0.,0.,-1.));
#881=DIRECTION('ref_axis',(0.,1.,0.));
#882=DIRECTION('',(0.,1.,0.));
#883=DIRECTION('center_axis',(0.,0.,-1.));
#884=DIRECTION('ref_axis',(-1.,0.,0.));
#885=DIRECTION('',(-1.,0.,0.));
#886=DIRECTION('center_axis',(0.,0.,-1.));
#887=DIRECTION('ref_axis',(1.18423789293348E-14,-1.,0.));
#888=DIRECTION('center_axis',(0.,0.,-1.));
#889=DIRECTION('ref_axis',(-1.,0.,0.));
#890=DIRECTION('center_axis',(0.,0.,1.));
#891=DIRECTION('ref_axis',(-1.,0.,0.));
#892=DIRECTION('',(0.,0.,-1.));
#893=DIRECTION('center_axis',(0.,0.,1.));
#894=DIRECTION('ref_axis',(-1.,0.,0.));
#895=DIRECTION('center_axis',(0.,0.,1.));
#896=DIRECTION('ref_axis',(-1.,0.,0.));
#897=DIRECTION('',(0.,0.,-1.));
#898=DIRECTION('center_axis',(0.,0.,1.));
#899=DIRECTION('ref_axis',(1.,0.,0.));
#900=DIRECTION('center_axis',(0.,0.,1.));
#901=DIRECTION('ref_axis',(1.,0.,0.));
#902=DIRECTION('',(-3.339016615414E-17,-1.,0.));
#903=DIRECTION('center_axis',(0.,0.,1.));
#904=DIRECTION('ref_axis',(-1.,-3.80647894157197E-15,0.));
#905=DIRECTION('',(1.,0.,0.));
#906=DIRECTION('center_axis',(0.,0.,1.));
#907=DIRECTION('ref_axis',(-1.26882631385732E-15,-1.,0.));
#908=DIRECTION('',(1.3356066461656E-16,1.,0.));
#909=DIRECTION('center_axis',(0.,0.,1.));
#910=DIRECTION('ref_axis',(1.,-6.34413156928666E-15,0.));
#911=DIRECTION('',(-1.,0.,0.));
#912=DIRECTION('center_axis',(0.,0.,1.));
#913=DIRECTION('ref_axis',(-6.34413156928661E-16,1.,0.));
#914=DIRECTION('center_axis',(0.,0.,-1.));
#915=DIRECTION('ref_axis',(1.,0.,0.));
#916=DIRECTION('center_axis',(0.,0.,-1.));
#917=DIRECTION('ref_axis',(1.,0.,0.));
#918=DIRECTION('center_axis',(0.,0.,-1.));
#919=DIRECTION('ref_axis',(1.,0.,0.));
#920=DIRECTION('',(-4.98372498488132E-16,-1.,0.));
#921=DIRECTION('center_axis',(0.,0.,-1.));
#922=DIRECTION('ref_axis',(1.18423789293348E-14,-1.,0.));
#923=DIRECTION('',(-1.,0.,0.));
#924=DIRECTION('center_axis',(0.,0.,-1.));
#925=DIRECTION('ref_axis',(-1.,0.,0.));
#926=DIRECTION('',(0.,1.,0.));
#927=DIRECTION('center_axis',(0.,0.,-1.));
#928=DIRECTION('ref_axis',(0.,1.,0.));
#929=DIRECTION('',(1.,0.,0.));
#930=DIRECTION('center_axis',(0.,0.,-1.));
#931=DIRECTION('ref_axis',(1.,1.18423789293348E-14,0.));
#932=DIRECTION('center_axis',(0.,0.,-1.));
#933=DIRECTION('ref_axis',(1.,0.,0.));
#934=DIRECTION('center_axis',(0.,0.,1.));
#935=DIRECTION('ref_axis',(1.,0.,0.));
#936=DIRECTION('center_axis',(0.,0.,1.));
#937=DIRECTION('ref_axis',(1.,0.,0.));
#938=DIRECTION('',(0.,0.,1.));
#939=DIRECTION('center_axis',(0.,0.,1.));
#940=DIRECTION('ref_axis',(1.,0.,0.));
#941=DIRECTION('center_axis',(0.,0.,-1.));
#942=DIRECTION('ref_axis',(1.,0.,0.));
#943=DIRECTION('center_axis',(0.,0.,-1.));
#944=DIRECTION('ref_axis',(1.,0.,0.));
#945=DIRECTION('center_axis',(0.,0.,1.));
#946=DIRECTION('ref_axis',(1.,0.,0.));
#947=DIRECTION('center_axis',(0.,0.,1.));
#948=DIRECTION('ref_axis',(1.,0.,0.));
#949=DIRECTION('',(0.,0.,1.));
#950=DIRECTION('center_axis',(0.,0.,1.));
#951=DIRECTION('ref_axis',(1.,0.,0.));
#952=DIRECTION('center_axis',(0.,0.,-1.));
#953=DIRECTION('ref_axis',(1.,0.,0.));
#954=DIRECTION('center_axis',(0.,0.,-1.));
#955=DIRECTION('ref_axis',(1.,0.,0.));
#956=DIRECTION('center_axis',(0.,0.,1.));
#957=DIRECTION('ref_axis',(1.,0.,0.));
#958=DIRECTION('center_axis',(0.,0.,1.));
#959=DIRECTION('ref_axis',(1.,0.,0.));
#960=DIRECTION('',(0.,0.,1.));
#961=DIRECTION('center_axis',(0.,0.,1.));
#962=DIRECTION('ref_axis',(1.,0.,0.));
#963=DIRECTION('center_axis',(0.,0.,-1.));
#964=DIRECTION('ref_axis',(1.,0.,0.));
#965=DIRECTION('center_axis',(0.,0.,-1.));
#966=DIRECTION('ref_axis',(1.,0.,0.));
#967=DIRECTION('center_axis',(0.,0.,1.));
#968=DIRECTION('ref_axis',(1.,0.,0.));
#969=DIRECTION('center_axis',(0.,0.,1.));
#970=DIRECTION('ref_axis',(1.,0.,0.));
#971=DIRECTION('',(0.,0.,1.));
#972=DIRECTION('center_axis',(0.,0.,1.));
#973=DIRECTION('ref_axis',(1.,0.,0.));
#974=DIRECTION('center_axis',(0.,0.,-1.));
#975=DIRECTION('ref_axis',(1.,0.,0.));
#976=DIRECTION('center_axis',(0.,0.,-1.));
#977=DIRECTION('ref_axis',(1.,0.,0.));
#978=DIRECTION('center_axis',(0.,0.,1.));
#979=DIRECTION('ref_axis',(1.,0.,0.));
#980=DIRECTION('center_axis',(1.,0.,0.));
#981=DIRECTION('ref_axis',(0.,1.,0.));
#982=DIRECTION('',(0.,0.,1.));
#983=DIRECTION('',(0.,0.,1.));
#984=DIRECTION('center_axis',(0.,0.,1.));
#985=DIRECTION('ref_axis',(0.,1.,0.));
#986=DIRECTION('',(0.,0.,1.));
#987=DIRECTION('center_axis',(0.,-1.,0.));
#988=DIRECTION('ref_axis',(1.,0.,0.));
#989=DIRECTION('',(0.,0.,1.));
#990=DIRECTION('center_axis',(0.,0.,1.));
#991=DIRECTION('ref_axis',(1.,1.18423789293348E-14,0.));
#992=DIRECTION('',(0.,0.,1.));
#993=DIRECTION('center_axis',(0.,0.,1.));
#994=DIRECTION('ref_axis',(1.,0.,0.));
#995=DIRECTION('',(0.,0.,-1.));
#996=DIRECTION('center_axis',(0.,0.,1.));
#997=DIRECTION('ref_axis',(-1.,0.,0.));
#998=DIRECTION('',(0.,0.,1.));
#999=DIRECTION('center_axis',(0.,1.,0.));
#1000=DIRECTION('ref_axis',(-1.,0.,0.));
#1001=DIRECTION('',(0.,0.,1.));
#1002=DIRECTION('center_axis',(0.,0.,1.));
#1003=DIRECTION('ref_axis',(1.18423789293348E-14,-1.,0.));
#1004=DIRECTION('',(0.,0.,1.));
#1005=DIRECTION('center_axis',(-1.,4.98372498488132E-16,0.));
#1006=DIRECTION('ref_axis',(-4.98372498488132E-16,-1.,0.));
#1007=DIRECTION('center_axis',(0.,0.,1.));
#1008=DIRECTION('ref_axis',(1.,0.,0.));
#1009=DIRECTION('',(0.,0.,-1.));
#1010=DIRECTION('center_axis',(0.,0.,1.));
#1011=DIRECTION('ref_axis',(1.,0.,0.));
#1012=DIRECTION('',(0.,0.,-1.));
#1013=DIRECTION('center_axis',(0.,0.,1.));
#1014=DIRECTION('ref_axis',(1.,0.,0.));
#1015=DIRECTION('',(0.,0.,-1.));
#1016=DIRECTION('center_axis',(0.,0.,1.));
#1017=DIRECTION('ref_axis',(-6.34413156928661E-16,1.,0.));
#1018=DIRECTION('center_axis',(0.,0.,1.));
#1019=DIRECTION('ref_axis',(-6.34413156928661E-16,1.,0.));
#1020=DIRECTION('',(0.,0.,1.));
#1021=DIRECTION('',(0.,0.,1.));
#1022=DIRECTION('center_axis',(0.,1.,0.));
#1023=DIRECTION('ref_axis',(-1.,0.,0.));
#1024=DIRECTION('',(-1.,0.,0.));
#1025=DIRECTION('',(0.,0.,1.));
#1026=DIRECTION('center_axis',(0.,0.,1.));
#1027=DIRECTION('ref_axis',(1.,-6.34413156928666E-15,0.));
#1028=DIRECTION('center_axis',(0.,0.,1.));
#1029=DIRECTION('ref_axis',(1.,-6.34413156928666E-15,0.));
#1030=DIRECTION('',(0.,0.,1.));
#1031=DIRECTION('center_axis',(1.,-1.3356066461656E-16,0.));
#1032=DIRECTION('ref_axis',(1.3356066461656E-16,1.,0.));
#1033=DIRECTION('',(1.3356066461656E-16,1.,0.));
#1034=DIRECTION('',(0.,0.,1.));
#1035=DIRECTION('center_axis',(0.,0.,1.));
#1036=DIRECTION('ref_axis',(-1.26882631385732E-15,-1.,0.));
#1037=DIRECTION('center_axis',(0.,0.,1.));
#1038=DIRECTION('ref_axis',(-1.26882631385732E-15,-1.,0.));
#1039=DIRECTION('',(0.,0.,1.));
#1040=DIRECTION('center_axis',(0.,-1.,0.));
#1041=DIRECTION('ref_axis',(1.,0.,0.));
#1042=DIRECTION('',(1.,0.,0.));
#1043=DIRECTION('',(0.,0.,1.));
#1044=DIRECTION('center_axis',(0.,0.,1.));
#1045=DIRECTION('ref_axis',(-1.,-3.80647894157197E-15,0.));
#1046=DIRECTION('center_axis',(0.,0.,1.));
#1047=DIRECTION('ref_axis',(-1.,-3.80647894157197E-15,0.));
#1048=DIRECTION('',(0.,0.,1.));
#1049=DIRECTION('center_axis',(-1.,3.339016615414E-17,0.));
#1050=DIRECTION('ref_axis',(-3.339016615414E-17,-1.,0.));
#1051=DIRECTION('',(-3.339016615414E-17,-1.,0.));
#1052=DIRECTION('center_axis',(0.,0.,1.));
#1053=DIRECTION('ref_axis',(1.,0.,0.));
#1054=CARTESIAN_POINT('',(0.,0.,0.));
#1055=CARTESIAN_POINT('Origin',(55.5856577009346,35.,0.));
#1056=CARTESIAN_POINT('',(55.5856577009346,-35.6300686789193,2.));
#1057=CARTESIAN_POINT('',(55.5856577009346,35.,2.));
#1058=CARTESIAN_POINT('',(55.5856577009346,22.8238872390237,2.));
#1059=CARTESIAN_POINT('',(55.5856577009346,-35.6300686789193,0.));
#1060=CARTESIAN_POINT('',(55.5856577009346,-35.6300686789193,0.));
#1061=CARTESIAN_POINT('',(55.5856577009346,35.,0.));
#1062=CARTESIAN_POINT('',(55.5856577009346,22.8238872390237,0.));
#1063=CARTESIAN_POINT('',(55.5856577009346,35.,0.));
#1064=CARTESIAN_POINT('Origin',(65.,35.,0.));
#1065=CARTESIAN_POINT('',(74.4143422990654,35.,2.));
#1066=CARTESIAN_POINT('Origin',(65.,35.,2.));
#1067=CARTESIAN_POINT('',(74.4143422990654,35.,0.));
#1068=CARTESIAN_POINT('Origin',(65.,35.,0.));
#1069=CARTESIAN_POINT('',(74.4143422990654,35.,0.));
#1070=CARTESIAN_POINT('Origin',(74.4143422990654,-35.6300686789193,0.));
#1071=CARTESIAN_POINT('',(74.4143422990654,-35.6300686789193,2.));
#1072=CARTESIAN_POINT('',(74.4143422990654,-12.491147100436,2.));
#1073=CARTESIAN_POINT('',(74.4143422990654,-35.6300686789193,0.));
#1074=CARTESIAN_POINT('',(74.4143422990654,-12.491147100436,0.));
#1075=CARTESIAN_POINT('',(74.4143422990654,-35.6300686789193,0.));
#1076=CARTESIAN_POINT('Origin',(65.,-35.6300686789193,0.));
#1077=CARTESIAN_POINT('Origin',(65.,-35.6300686789193,2.));
#1078=CARTESIAN_POINT('Origin',(65.,-35.6300686789193,0.));
#1079=CARTESIAN_POINT('Origin',(-26.0717156259661,70.1477744780473,6.5));
#1080=CARTESIAN_POINT('',(-22.6217156259661,70.1477744780473,6.5));
#1081=CARTESIAN_POINT('Origin',(-26.0717156259661,70.1477744780473,6.5));
#1082=CARTESIAN_POINT('',(-23.6217156259661,70.1477744780473,6.5));
#1083=CARTESIAN_POINT('Origin',(-26.0717156259661,70.1477744780473,6.5));
#1084=CARTESIAN_POINT('Origin',(74.9282843740338,-50.8522255219527,6.5));
#1085=CARTESIAN_POINT('',(78.3782843740338,-50.8522255219527,6.5));
#1086=CARTESIAN_POINT('Origin',(74.9282843740338,-50.8522255219527,6.5));
#1087=CARTESIAN_POINT('',(77.3782843740338,-50.8522255219527,6.5));
#1088=CARTESIAN_POINT('Origin',(74.9282843740338,-50.8522255219527,6.5));
#1089=CARTESIAN_POINT('Origin',(74.9282843740338,-50.8522255219527,2.));
#1090=CARTESIAN_POINT('',(77.3782843740338,-50.8522255219527,2.));
#1091=CARTESIAN_POINT('',(77.3782843740338,-50.8522255219527,2.));
#1092=CARTESIAN_POINT('Origin',(74.9282843740338,-50.8522255219527,2.));
#1093=CARTESIAN_POINT('Origin',(74.9282843740338,-50.8522255219527,2.));
#1094=CARTESIAN_POINT('',(78.3782843740338,-50.8522255219527,2.));
#1095=CARTESIAN_POINT('',(78.3782843740338,-50.8522255219527,2.));
#1096=CARTESIAN_POINT('Origin',(74.9282843740338,-50.8522255219527,2.));
#1097=CARTESIAN_POINT('Origin',(24.9282843740338,10.6477744780473,2.));
#1098=CARTESIAN_POINT('',(79.9282843740338,75.6477744780473,2.));
#1099=CARTESIAN_POINT('',(79.9282843740338,-54.3522255219527,2.));
#1100=CARTESIAN_POINT('',(79.9282843740338,43.1477744780473,2.));
#1101=CARTESIAN_POINT('',(78.4282843740338,77.1477744780473,2.));
#1102=CARTESIAN_POINT('Origin',(78.4282843740338,75.6477744780473,2.));
#1103=CARTESIAN_POINT('',(-28.5717156259661,77.1477744780473,2.));
#1104=CARTESIAN_POINT('',(-1.82171562596615,77.1477744780473,2.));
#1105=CARTESIAN_POINT('',(-30.0717156259661,75.6477744780473,2.));
#1106=CARTESIAN_POINT('Origin',(-28.5717156259661,75.6477744780473,2.));
#1107=CARTESIAN_POINT('',(-30.0717156259661,-54.3522255219527,2.));
#1108=CARTESIAN_POINT('',(-30.0717156259661,-21.8522255219527,2.));
#1109=CARTESIAN_POINT('',(-28.5717156259661,-55.8522255219527,2.));
#1110=CARTESIAN_POINT('Origin',(-28.5717156259661,-54.3522255219527,2.));
#1111=CARTESIAN_POINT('',(78.4282843740338,-55.8522255219527,2.));
#1112=CARTESIAN_POINT('',(51.6782843740338,-55.8522255219527,2.));
#1113=CARTESIAN_POINT('Origin',(78.4282843740338,-54.3522255219527,2.));
#1114=CARTESIAN_POINT('',(-22.6217156259661,70.1477744780473,2.));
#1115=CARTESIAN_POINT('Origin',(-26.0717156259661,70.1477744780473,2.));
#1116=CARTESIAN_POINT('Origin',(-26.0717156259661,70.1477744780473,2.));
#1117=CARTESIAN_POINT('',(-23.6217156259661,70.1477744780473,2.));
#1118=CARTESIAN_POINT('',(-23.6217156259661,70.1477744780473,2.));
#1119=CARTESIAN_POINT('Origin',(-26.0717156259661,70.1477744780473,2.));
#1120=CARTESIAN_POINT('Origin',(-26.0717156259661,70.1477744780473,2.));
#1121=CARTESIAN_POINT('',(-22.6217156259661,70.1477744780473,2.));
#1122=CARTESIAN_POINT('Origin',(24.9282843740338,10.6477744780473,2.));
#1123=CARTESIAN_POINT('Origin',(24.9282843740338,10.6477744780473,10.5));
#1124=CARTESIAN_POINT('',(-37.0717156259661,77.1477744780474,10.5));
#1125=CARTESIAN_POINT('',(-37.0717156259661,-55.8522255219527,10.5));
#1126=CARTESIAN_POINT('',(-37.0717156259661,77.1477744780474,10.5));
#1127=CARTESIAN_POINT('',(-30.0717156259662,-62.8522255219526,10.5));
#1128=CARTESIAN_POINT('Origin',(-30.0717156259662,-55.8522255219527,10.5));
#1129=CARTESIAN_POINT('',(79.9282843740338,-62.8522255219527,10.5));
#1130=CARTESIAN_POINT('',(-30.0717156259662,-62.8522255219527,10.5));
#1131=CARTESIAN_POINT('',(86.9282843740338,-55.8522255219527,10.5));
#1132=CARTESIAN_POINT('Origin',(79.9282843740338,-55.8522255219527,10.5));
#1133=CARTESIAN_POINT('',(86.9282843740338,77.1477744780474,10.5));
#1134=CARTESIAN_POINT('',(86.9282843740338,-55.8522255219527,10.5));
#1135=CARTESIAN_POINT('',(79.9282843740339,84.1477744780474,10.5));
#1136=CARTESIAN_POINT('Origin',(79.9282843740339,77.1477744780474,10.5));
#1137=CARTESIAN_POINT('',(-30.0717156259662,84.1477744780474,10.5));
#1138=CARTESIAN_POINT('',(79.9282843740339,84.1477744780474,10.5));
#1139=CARTESIAN_POINT('Origin',(-30.0717156259661,77.1477744780473,10.5));
#1140=CARTESIAN_POINT('',(80.5884231130768,-58.0157948393058,10.5));
#1141=CARTESIAN_POINT('Origin',(82.1884231130768,-58.0157948393058,10.5));
#1142=CARTESIAN_POINT('',(-33.9322078239279,79.3113437954005,10.5));
#1143=CARTESIAN_POINT('Origin',(-32.3322078239279,79.3113437954005,10.5));
#1144=CARTESIAN_POINT('',(80.5884231130768,79.3113437954005,10.5));
#1145=CARTESIAN_POINT('Origin',(82.1884231130768,79.3113437954005,10.5));
#1146=CARTESIAN_POINT('',(79.9282843740338,75.6477744780473,10.5));
#1147=CARTESIAN_POINT('',(79.9282843740338,-54.3522255219527,10.5));
#1148=CARTESIAN_POINT('',(79.9282843740338,75.6477744780473,10.5));
#1149=CARTESIAN_POINT('',(78.4282843740338,-55.8522255219527,10.5));
#1150=CARTESIAN_POINT('Origin',(78.4282843740338,-54.3522255219527,10.5));
#1151=CARTESIAN_POINT('',(-28.5717156259661,-55.8522255219527,10.5));
#1152=CARTESIAN_POINT('',(78.4282843740338,-55.8522255219527,10.5));
#1153=CARTESIAN_POINT('',(-30.0717156259661,-54.3522255219527,10.5));
#1154=CARTESIAN_POINT('Origin',(-28.5717156259661,-54.3522255219527,10.5));
#1155=CARTESIAN_POINT('',(-30.0717156259661,75.6477744780473,10.5));
#1156=CARTESIAN_POINT('',(-30.0717156259661,-54.3522255219527,10.5));
#1157=CARTESIAN_POINT('',(-28.5717156259661,77.1477744780474,10.5));
#1158=CARTESIAN_POINT('Origin',(-28.5717156259661,75.6477744780473,10.5));
#1159=CARTESIAN_POINT('',(78.4282843740338,77.1477744780474,10.5));
#1160=CARTESIAN_POINT('',(55.1916098350584,77.1477744780473,10.5));
#1161=CARTESIAN_POINT('Origin',(78.4282843740338,75.6477744780473,10.5));
#1162=CARTESIAN_POINT('',(-33.9322078239279,-58.0157948393058,10.5));
#1163=CARTESIAN_POINT('Origin',(-32.3322078239279,-58.0157948393058,10.5));
#1164=CARTESIAN_POINT('Origin',(82.1884231130768,79.3113437954005,0.));
#1165=CARTESIAN_POINT('',(79.4384231130768,79.3113437954005,0.));
#1166=CARTESIAN_POINT('Origin',(82.1884231130768,79.3113437954005,0.));
#1167=CARTESIAN_POINT('',(79.4384231130768,79.3113437954005,3.));
#1168=CARTESIAN_POINT('',(79.4384231130768,79.3113437954005,0.));
#1169=CARTESIAN_POINT('Origin',(82.1884231130768,79.3113437954005,3.));
#1170=CARTESIAN_POINT('Origin',(82.1884231130768,79.3113437954005,3.));
#1171=CARTESIAN_POINT('',(80.5884231130768,79.3113437954005,3.));
#1172=CARTESIAN_POINT('Origin',(82.1884231130768,79.3113437954005,3.));
#1173=CARTESIAN_POINT('Origin',(82.1884231130768,-58.0157948393058,0.));
#1174=CARTESIAN_POINT('',(79.4384231130768,-58.0157948393058,0.));
#1175=CARTESIAN_POINT('Origin',(82.1884231130768,-58.0157948393058,0.));
#1176=CARTESIAN_POINT('',(79.4384231130768,-58.0157948393058,3.));
#1177=CARTESIAN_POINT('',(79.4384231130768,-58.0157948393058,0.));
#1178=CARTESIAN_POINT('Origin',(82.1884231130768,-58.0157948393058,3.));
#1179=CARTESIAN_POINT('Origin',(82.1884231130768,-58.0157948393058,3.));
#1180=CARTESIAN_POINT('',(80.5884231130768,-58.0157948393058,3.));
#1181=CARTESIAN_POINT('Origin',(82.1884231130768,-58.0157948393058,3.));
#1182=CARTESIAN_POINT('Origin',(-32.3322078239279,79.3113437954005,0.));
#1183=CARTESIAN_POINT('',(-35.0822078239279,79.3113437954005,0.));
#1184=CARTESIAN_POINT('Origin',(-32.3322078239279,79.3113437954005,0.));
#1185=CARTESIAN_POINT('',(-35.0822078239279,79.3113437954005,3.));
#1186=CARTESIAN_POINT('',(-35.0822078239279,79.3113437954005,0.));
#1187=CARTESIAN_POINT('Origin',(-32.3322078239279,79.3113437954005,3.));
#1188=CARTESIAN_POINT('Origin',(-32.3322078239279,79.3113437954005,3.));
#1189=CARTESIAN_POINT('',(-33.9322078239279,79.3113437954005,3.));
#1190=CARTESIAN_POINT('Origin',(-32.3322078239279,79.3113437954005,3.));
#1191=CARTESIAN_POINT('Origin',(-32.3322078239279,-58.0157948393058,0.));
#1192=CARTESIAN_POINT('',(-35.0822078239279,-58.0157948393058,0.));
#1193=CARTESIAN_POINT('Origin',(-32.3322078239279,-58.0157948393058,0.));
#1194=CARTESIAN_POINT('',(-35.0822078239279,-58.0157948393058,3.));
#1195=CARTESIAN_POINT('',(-35.0822078239279,-58.0157948393058,0.));
#1196=CARTESIAN_POINT('Origin',(-32.3322078239279,-58.0157948393058,3.));
#1197=CARTESIAN_POINT('Origin',(-32.3322078239279,-58.0157948393058,3.));
#1198=CARTESIAN_POINT('',(-33.9322078239279,-58.0157948393058,3.));
#1199=CARTESIAN_POINT('Origin',(-32.3322078239279,-58.0157948393058,3.));
#1200=CARTESIAN_POINT('Origin',(24.9282843740338,10.6477744780473,2.));
#1201=CARTESIAN_POINT('Origin',(-30.0717156259661,-54.3522255219527,0.));
#1202=CARTESIAN_POINT('',(-30.0717156259661,75.6477744780473,0.));
#1203=CARTESIAN_POINT('',(-30.0717156259661,-54.3522255219527,0.));
#1204=CARTESIAN_POINT('Origin',(-28.5717156259661,75.6477744780473,0.));
#1205=CARTESIAN_POINT('',(-28.5717156259661,77.1477744780473,0.));
#1206=CARTESIAN_POINT('Origin',(-28.5717156259661,77.1477744780473,0.));
#1207=CARTESIAN_POINT('',(78.4282843740338,77.1477744780473,0.));
#1208=CARTESIAN_POINT('Origin',(78.4282843740338,75.6477744780473,0.));
#1209=CARTESIAN_POINT('',(79.9282843740338,75.6477744780473,0.));
#1210=CARTESIAN_POINT('Origin',(-32.3322078239279,-58.0157948393058,0.));
#1211=CARTESIAN_POINT('',(-33.9322078239279,-58.0157948393058,0.));
#1212=CARTESIAN_POINT('Origin',(-28.5717156259661,-54.3522255219527,0.));
#1213=CARTESIAN_POINT('',(-28.5717156259661,-55.8522255219527,0.));
#1214=CARTESIAN_POINT('Origin',(78.4282843740338,-55.8522255219527,0.));
#1215=CARTESIAN_POINT('',(78.4282843740338,-55.8522255219527,0.));
#1216=CARTESIAN_POINT('Origin',(78.4282843740338,-54.3522255219527,0.));
#1217=CARTESIAN_POINT('',(79.9282843740338,-54.3522255219527,0.));
#1218=CARTESIAN_POINT('Origin',(79.9282843740338,75.6477744780473,0.));
#1219=CARTESIAN_POINT('Origin',(82.1884231130768,79.3113437954005,0.));
#1220=CARTESIAN_POINT('',(80.5884231130768,79.3113437954005,0.));
#1221=CARTESIAN_POINT('Origin',(-32.3322078239279,79.3113437954005,0.));
#1222=CARTESIAN_POINT('',(-33.9322078239279,79.3113437954005,0.));
#1223=CARTESIAN_POINT('Origin',(82.1884231130768,-58.0157948393058,0.));
#1224=CARTESIAN_POINT('',(80.5884231130768,-58.0157948393058,0.));
#1225=CARTESIAN_POINT('Origin',(-30.0717156259661,77.1477744780473,0.));
#1226=CARTESIAN_POINT('',(-30.0717156259661,84.1477744780474,0.));
#1227=CARTESIAN_POINT('',(-37.0717156259661,77.1477744780474,0.));
#1228=CARTESIAN_POINT('Origin',(-30.0717156259661,77.1477744780473,0.));
#1229=CARTESIAN_POINT('',(-37.0717156259661,77.1477744780474,0.));
#1230=CARTESIAN_POINT('',(-30.0717156259661,84.1477744780474,0.));
#1231=CARTESIAN_POINT('Origin',(79.9282843740339,84.1477744780474,0.));
#1232=CARTESIAN_POINT('',(79.9282843740339,84.1477744780474,0.));
#1233=CARTESIAN_POINT('',(79.9282843740339,84.1477744780474,0.));
#1234=CARTESIAN_POINT('',(79.9282843740339,84.1477744780474,0.));
#1235=CARTESIAN_POINT('Origin',(79.9282843740339,77.1477744780474,0.));
#1236=CARTESIAN_POINT('',(86.9282843740338,77.1477744780474,0.));
#1237=CARTESIAN_POINT('Origin',(79.9282843740339,77.1477744780474,0.));
#1238=CARTESIAN_POINT('',(86.9282843740338,77.1477744780474,0.));
#1239=CARTESIAN_POINT('Origin',(86.9282843740338,-55.8522255219527,0.));
#1240=CARTESIAN_POINT('',(86.9282843740338,-55.8522255219527,0.));
#1241=CARTESIAN_POINT('',(86.9282843740338,-55.8522255219527,0.));
#1242=CARTESIAN_POINT('',(86.9282843740338,-55.8522255219527,0.));
#1243=CARTESIAN_POINT('Origin',(79.9282843740338,-55.8522255219527,0.));
#1244=CARTESIAN_POINT('',(79.9282843740338,-62.8522255219527,0.));
#1245=CARTESIAN_POINT('Origin',(79.9282843740338,-55.8522255219527,0.));
#1246=CARTESIAN_POINT('',(79.9282843740338,-62.8522255219527,0.));
#1247=CARTESIAN_POINT('Origin',(-30.0717156259662,-62.8522255219527,0.));
#1248=CARTESIAN_POINT('',(-30.0717156259662,-62.8522255219526,0.));
#1249=CARTESIAN_POINT('',(-30.0717156259662,-62.8522255219527,0.));
#1250=CARTESIAN_POINT('',(-30.0717156259662,-62.8522255219526,0.));
#1251=CARTESIAN_POINT('Origin',(-30.0717156259662,-55.8522255219527,0.));
#1252=CARTESIAN_POINT('',(-37.0717156259661,-55.8522255219527,0.));
#1253=CARTESIAN_POINT('Origin',(-30.0717156259662,-55.8522255219527,0.));
#1254=CARTESIAN_POINT('',(-37.0717156259661,-55.8522255219527,0.));
#1255=CARTESIAN_POINT('Origin',(-37.0717156259661,77.1477744780474,0.));
#1256=CARTESIAN_POINT('',(-37.0717156259661,77.1477744780474,0.));
#1257=CARTESIAN_POINT('Origin',(24.9282843740338,10.6477744780473,0.));
#1258=UNCERTAINTY_MEASURE_WITH_UNIT(LENGTH_MEASURE(0.01),#1262,
'DISTANCE_ACCURACY_VALUE',
'Maximum model space distance between geometric entities at asserted c
onnectivities');
#1259=UNCERTAINTY_MEASURE_WITH_UNIT(LENGTH_MEASURE(0.01),#1262,
'DISTANCE_ACCURACY_VALUE',
'Maximum model space distance between geometric entities at asserted c
onnectivities');
#1260=(
GEOMETRIC_REPRESENTATION_CONTEXT(3)
GLOBAL_UNCERTAINTY_ASSIGNED_CONTEXT((#1258))
GLOBAL_UNIT_ASSIGNED_CONTEXT((#1262,#1264,#1265))
REPRESENTATION_CONTEXT('','3D')
);
#1261=(
GEOMETRIC_REPRESENTATION_CONTEXT(3)
GLOBAL_UNCERTAINTY_ASSIGNED_CONTEXT((#1259))
GLOBAL_UNIT_ASSIGNED_CONTEXT((#1262,#1264,#1265))
REPRESENTATION_CONTEXT('','3D')
);
#1262=(
LENGTH_UNIT()
NAMED_UNIT(*)
SI_UNIT(.MILLI.,.METRE.)
);
#1263=(
LENGTH_UNIT()
NAMED_UNIT(*)
SI_UNIT($,.METRE.)
);
#1264=(
NAMED_UNIT(*)
PLANE_ANGLE_UNIT()
SI_UNIT($,.RADIAN.)
);
#1265=(
NAMED_UNIT(*)
SI_UNIT($,.STERADIAN.)
SOLID_ANGLE_UNIT()
);
#1266=SHAPE_DEFINITION_REPRESENTATION(#1267,#1268);
#1267=PRODUCT_DEFINITION_SHAPE('',$,#1270);
#1268=SHAPE_REPRESENTATION('',(#738),#1260);
#1269=PRODUCT_DEFINITION_CONTEXT('part definition',#1274,'design');
#1270=PRODUCT_DEFINITION('2026-07-29-08-35-26-232','Enclosure_pad',#1271,
#1269);
#1271=PRODUCT_DEFINITION_FORMATION('',$,#1276);
#1272=PRODUCT_RELATED_PRODUCT_CATEGORY('Enclosure_pad','Enclosure_pad',
(#1276));
#1273=APPLICATION_PROTOCOL_DEFINITION('international standard',
'automotive_design',2009,#1274);
#1274=APPLICATION_CONTEXT(
'Core Data for Automotive Mechanical Design Process');
#1275=PRODUCT_CONTEXT('part definition',#1274,'mechanical');
#1276=PRODUCT('2026-07-29-08-35-26-232','Enclosure_pad',$,(#1275));
#1277=PRESENTATION_STYLE_ASSIGNMENT((#1278));
#1278=SURFACE_STYLE_USAGE(.BOTH.,#1279);
#1279=SURFACE_SIDE_STYLE('',(#1280));
#1280=SURFACE_STYLE_FILL_AREA(#1281);
#1281=FILL_AREA_STYLE('Steel - Satin',(#1282));
#1282=FILL_AREA_STYLE_COLOUR('Steel - Satin',#1283);
#1283=COLOUR_RGB('Steel - Satin',0.627450980392157,0.627450980392157,0.627450980392157);
ENDSEC;
END-ISO-10303-21;
