ISO-10303-21;
HEADER;
/* Generated by software containing ST-Developer
 * from STEP Tools, Inc. (www.steptools.com) 
 */

FILE_DESCRIPTION(
/* description */ (''),
/* implementation_level */ '2;1');

FILE_NAME(
/* name */ 'M3x12 SHCS.step',
/* time_stamp */ '2026-07-18T19:38:15+03:00',
/* author */ (''),
/* organization */ (''),
/* preprocessor_version */ 'ST-DEVELOPER v20.1',
/* originating_system */ 'Autodesk Translation Framework v15.8.0.0',
/* authorisation */ '');

FILE_SCHEMA (('AUTOMOTIVE_DESIGN { 1 0 10303 214 3 1 1 }'));
ENDSEC;

DATA;
#10=MECHANICAL_DESIGN_GEOMETRIC_PRESENTATION_REPRESENTATION('',(#13),#533);
#11=SHAPE_REPRESENTATION_RELATIONSHIP('SRR','None',#540,#12);
#12=ADVANCED_BREP_SHAPE_REPRESENTATION('',(#14),#532);
#13=STYLED_ITEM('',(#550),#14);
#14=MANIFOLD_SOLID_BREP('Body1',#308);
#15=FACE_BOUND('',#113,.T.);
#16=FACE_BOUND('',#115,.T.);
#17=CYLINDRICAL_SURFACE('',#347,2.75);
#18=CYLINDRICAL_SURFACE('',#352,1.49999999999999);
#19=LINE('',#452,#47);
#20=LINE('',#466,#48);
#21=LINE('',#467,#49);
#22=LINE('',#470,#50);
#23=LINE('',#471,#51);
#24=LINE('',#474,#52);
#25=LINE('',#475,#53);
#26=LINE('',#478,#54);
#27=LINE('',#479,#55);
#28=LINE('',#482,#56);
#29=LINE('',#483,#57);
#30=LINE('',#486,#58);
#31=LINE('',#487,#59);
#32=LINE('',#491,#60);
#33=LINE('',#492,#61);
#34=LINE('',#493,#62);
#35=LINE('',#496,#63);
#36=LINE('',#497,#64);
#37=LINE('',#500,#65);
#38=LINE('',#501,#66);
#39=LINE('',#504,#67);
#40=LINE('',#505,#68);
#41=LINE('',#508,#69);
#42=LINE('',#509,#70);
#43=LINE('',#511,#71);
#44=LINE('',#517,#72);
#45=LINE('',#522,#73);
#46=LINE('',#529,#74);
#47=VECTOR('',#361,1.28);
#48=VECTOR('',#376,0.739008344562722);
#49=VECTOR('',#377,0.739008344562719);
#50=VECTOR('',#380,0.739008344562725);
#51=VECTOR('',#381,0.739008344562717);
#52=VECTOR('',#384,0.739008344562717);
#53=VECTOR('',#385,0.739008344562722);
#54=VECTOR('',#388,0.739008344562719);
#55=VECTOR('',#389,0.739008344562725);
#56=VECTOR('',#392,0.739008344562721);
#57=VECTOR('',#393,0.739008344562723);
#58=VECTOR('',#396,0.739008344562723);
#59=VECTOR('',#397,0.739008344562721);
#60=VECTOR('',#400,1.47801668912544);
#61=VECTOR('',#401,1.3);
#62=VECTOR('',#402,1.3);
#63=VECTOR('',#405,1.47801668912544);
#64=VECTOR('',#406,1.3);
#65=VECTOR('',#409,1.47801668912544);
#66=VECTOR('',#410,1.3);
#67=VECTOR('',#413,1.47801668912544);
#68=VECTOR('',#414,1.3);
#69=VECTOR('',#417,1.47801668912544);
#70=VECTOR('',#418,1.3);
#71=VECTOR('',#421,1.47801668912545);
#72=VECTOR('',#426,2.45);
#73=VECTOR('',#433,2.75);
#74=VECTOR('',#444,1.49999999999999);
#75=CONICAL_SURFACE('',#324,1.28,1.0471975511966);
#76=CONICAL_SURFACE('',#343,2.45,0.785398163397442);
#77=FACE_OUTER_BOUND('',#96,.T.);
#78=FACE_OUTER_BOUND('',#97,.T.);
#79=FACE_OUTER_BOUND('',#98,.T.);
#80=FACE_OUTER_BOUND('',#99,.T.);
#81=FACE_OUTER_BOUND('',#100,.T.);
#82=FACE_OUTER_BOUND('',#101,.T.);
#83=FACE_OUTER_BOUND('',#102,.T.);
#84=FACE_OUTER_BOUND('',#103,.T.);
#85=FACE_OUTER_BOUND('',#104,.T.);
#86=FACE_OUTER_BOUND('',#105,.T.);
#87=FACE_OUTER_BOUND('',#106,.T.);
#88=FACE_OUTER_BOUND('',#107,.T.);
#89=FACE_OUTER_BOUND('',#108,.T.);
#90=FACE_OUTER_BOUND('',#109,.T.);
#91=FACE_OUTER_BOUND('',#110,.T.);
#92=FACE_OUTER_BOUND('',#111,.T.);
#93=FACE_OUTER_BOUND('',#112,.T.);
#94=FACE_OUTER_BOUND('',#114,.T.);
#95=FACE_OUTER_BOUND('',#116,.T.);
#96=EDGE_LOOP('',(#194));
#97=EDGE_LOOP('',(#195,#196,#197,#198,#199,#200,#201,#202));
#98=EDGE_LOOP('',(#203,#204,#205));
#99=EDGE_LOOP('',(#206,#207,#208));
#100=EDGE_LOOP('',(#209,#210,#211));
#101=EDGE_LOOP('',(#212,#213,#214));
#102=EDGE_LOOP('',(#215,#216,#217));
#103=EDGE_LOOP('',(#218,#219,#220));
#104=EDGE_LOOP('',(#221,#222,#223,#224,#225));
#105=EDGE_LOOP('',(#226,#227,#228,#229,#230));
#106=EDGE_LOOP('',(#231,#232,#233,#234,#235));
#107=EDGE_LOOP('',(#236,#237,#238,#239,#240));
#108=EDGE_LOOP('',(#241,#242,#243,#244,#245));
#109=EDGE_LOOP('',(#246,#247,#248,#249,#250));
#110=EDGE_LOOP('',(#251,#252,#253,#254,#255));
#111=EDGE_LOOP('',(#256,#257,#258,#259,#260));
#112=EDGE_LOOP('',(#261));
#113=EDGE_LOOP('',(#262,#263,#264,#265,#266,#267));
#114=EDGE_LOOP('',(#268));
#115=EDGE_LOOP('',(#269));
#116=EDGE_LOOP('',(#270,#271,#272,#273));
#117=CIRCLE('',#323,1.49999999999999);
#118=CIRCLE('',#325,1.28);
#119=CIRCLE('',#326,1.28);
#120=CIRCLE('',#327,1.28);
#121=CIRCLE('',#328,1.28);
#122=CIRCLE('',#329,1.28);
#123=CIRCLE('',#330,1.28);
#124=CIRCLE('',#344,2.75);
#125=CIRCLE('',#345,2.45);
#126=CIRCLE('',#346,2.75);
#127=CIRCLE('',#348,2.75);
#128=CIRCLE('',#351,1.49999999999999);
#129=VERTEX_POINT('',#447);
#130=VERTEX_POINT('',#450);
#131=VERTEX_POINT('',#451);
#132=VERTEX_POINT('',#453);
#133=VERTEX_POINT('',#455);
#134=VERTEX_POINT('',#457);
#135=VERTEX_POINT('',#459);
#136=VERTEX_POINT('',#461);
#137=VERTEX_POINT('',#465);
#138=VERTEX_POINT('',#469);
#139=VERTEX_POINT('',#473);
#140=VERTEX_POINT('',#477);
#141=VERTEX_POINT('',#481);
#142=VERTEX_POINT('',#485);
#143=VERTEX_POINT('',#489);
#144=VERTEX_POINT('',#490);
#145=VERTEX_POINT('',#495);
#146=VERTEX_POINT('',#499);
#147=VERTEX_POINT('',#503);
#148=VERTEX_POINT('',#507);
#149=VERTEX_POINT('',#513);
#150=VERTEX_POINT('',#514);
#151=VERTEX_POINT('',#516);
#152=VERTEX_POINT('',#521);
#153=VERTEX_POINT('',#526);
#154=EDGE_CURVE('',#129,#129,#117,.T.);
#155=EDGE_CURVE('',#130,#131,#19,.T.);
#156=EDGE_CURVE('',#131,#132,#118,.T.);
#157=EDGE_CURVE('',#132,#133,#119,.T.);
#158=EDGE_CURVE('',#133,#134,#120,.T.);
#159=EDGE_CURVE('',#134,#135,#121,.T.);
#160=EDGE_CURVE('',#135,#136,#122,.T.);
#161=EDGE_CURVE('',#136,#131,#123,.T.);
#162=EDGE_CURVE('',#136,#137,#20,.T.);
#163=EDGE_CURVE('',#137,#131,#21,.T.);
#164=EDGE_CURVE('',#138,#135,#22,.T.);
#165=EDGE_CURVE('',#138,#136,#23,.T.);
#166=EDGE_CURVE('',#134,#139,#24,.T.);
#167=EDGE_CURVE('',#135,#139,#25,.T.);
#168=EDGE_CURVE('',#140,#133,#26,.T.);
#169=EDGE_CURVE('',#140,#134,#27,.T.);
#170=EDGE_CURVE('',#141,#132,#28,.T.);
#171=EDGE_CURVE('',#133,#141,#29,.T.);
#172=EDGE_CURVE('',#131,#142,#30,.T.);
#173=EDGE_CURVE('',#132,#142,#31,.T.);
#174=EDGE_CURVE('',#143,#144,#32,.T.);
#175=EDGE_CURVE('',#137,#144,#33,.T.);
#176=EDGE_CURVE('',#138,#143,#34,.T.);
#177=EDGE_CURVE('',#144,#145,#35,.T.);
#178=EDGE_CURVE('',#142,#145,#36,.T.);
#179=EDGE_CURVE('',#146,#145,#37,.T.);
#180=EDGE_CURVE('',#141,#146,#38,.T.);
#181=EDGE_CURVE('',#147,#146,#39,.T.);
#182=EDGE_CURVE('',#140,#147,#40,.T.);
#183=EDGE_CURVE('',#147,#148,#41,.T.);
#184=EDGE_CURVE('',#139,#148,#42,.T.);
#185=EDGE_CURVE('',#143,#148,#43,.T.);
#186=EDGE_CURVE('',#149,#150,#124,.T.);
#187=EDGE_CURVE('',#150,#151,#44,.T.);
#188=EDGE_CURVE('',#151,#151,#125,.T.);
#189=EDGE_CURVE('',#150,#149,#126,.T.);
#190=EDGE_CURVE('',#149,#152,#45,.T.);
#191=EDGE_CURVE('',#152,#152,#127,.T.);
#192=EDGE_CURVE('',#153,#153,#128,.T.);
#193=EDGE_CURVE('',#153,#129,#46,.T.);
#194=ORIENTED_EDGE('',*,*,#154,.F.);
#195=ORIENTED_EDGE('',*,*,#155,.T.);
#196=ORIENTED_EDGE('',*,*,#156,.T.);
#197=ORIENTED_EDGE('',*,*,#157,.T.);
#198=ORIENTED_EDGE('',*,*,#158,.T.);
#199=ORIENTED_EDGE('',*,*,#159,.T.);
#200=ORIENTED_EDGE('',*,*,#160,.T.);
#201=ORIENTED_EDGE('',*,*,#161,.T.);
#202=ORIENTED_EDGE('',*,*,#155,.F.);
#203=ORIENTED_EDGE('',*,*,#162,.T.);
#204=ORIENTED_EDGE('',*,*,#163,.T.);
#205=ORIENTED_EDGE('',*,*,#161,.F.);
#206=ORIENTED_EDGE('',*,*,#164,.F.);
#207=ORIENTED_EDGE('',*,*,#165,.T.);
#208=ORIENTED_EDGE('',*,*,#160,.F.);
#209=ORIENTED_EDGE('',*,*,#166,.T.);
#210=ORIENTED_EDGE('',*,*,#167,.F.);
#211=ORIENTED_EDGE('',*,*,#159,.F.);
#212=ORIENTED_EDGE('',*,*,#168,.F.);
#213=ORIENTED_EDGE('',*,*,#169,.T.);
#214=ORIENTED_EDGE('',*,*,#158,.F.);
#215=ORIENTED_EDGE('',*,*,#170,.F.);
#216=ORIENTED_EDGE('',*,*,#171,.F.);
#217=ORIENTED_EDGE('',*,*,#157,.F.);
#218=ORIENTED_EDGE('',*,*,#172,.T.);
#219=ORIENTED_EDGE('',*,*,#173,.F.);
#220=ORIENTED_EDGE('',*,*,#156,.F.);
#221=ORIENTED_EDGE('',*,*,#174,.T.);
#222=ORIENTED_EDGE('',*,*,#175,.F.);
#223=ORIENTED_EDGE('',*,*,#162,.F.);
#224=ORIENTED_EDGE('',*,*,#165,.F.);
#225=ORIENTED_EDGE('',*,*,#176,.T.);
#226=ORIENTED_EDGE('',*,*,#177,.T.);
#227=ORIENTED_EDGE('',*,*,#178,.F.);
#228=ORIENTED_EDGE('',*,*,#172,.F.);
#229=ORIENTED_EDGE('',*,*,#163,.F.);
#230=ORIENTED_EDGE('',*,*,#175,.T.);
#231=ORIENTED_EDGE('',*,*,#179,.F.);
#232=ORIENTED_EDGE('',*,*,#180,.F.);
#233=ORIENTED_EDGE('',*,*,#170,.T.);
#234=ORIENTED_EDGE('',*,*,#173,.T.);
#235=ORIENTED_EDGE('',*,*,#178,.T.);
#236=ORIENTED_EDGE('',*,*,#181,.F.);
#237=ORIENTED_EDGE('',*,*,#182,.F.);
#238=ORIENTED_EDGE('',*,*,#168,.T.);
#239=ORIENTED_EDGE('',*,*,#171,.T.);
#240=ORIENTED_EDGE('',*,*,#180,.T.);
#241=ORIENTED_EDGE('',*,*,#183,.T.);
#242=ORIENTED_EDGE('',*,*,#184,.F.);
#243=ORIENTED_EDGE('',*,*,#166,.F.);
#244=ORIENTED_EDGE('',*,*,#169,.F.);
#245=ORIENTED_EDGE('',*,*,#182,.T.);
#246=ORIENTED_EDGE('',*,*,#185,.F.);
#247=ORIENTED_EDGE('',*,*,#176,.F.);
#248=ORIENTED_EDGE('',*,*,#164,.T.);
#249=ORIENTED_EDGE('',*,*,#167,.T.);
#250=ORIENTED_EDGE('',*,*,#184,.T.);
#251=ORIENTED_EDGE('',*,*,#186,.T.);
#252=ORIENTED_EDGE('',*,*,#187,.T.);
#253=ORIENTED_EDGE('',*,*,#188,.F.);
#254=ORIENTED_EDGE('',*,*,#187,.F.);
#255=ORIENTED_EDGE('',*,*,#189,.T.);
#256=ORIENTED_EDGE('',*,*,#186,.F.);
#257=ORIENTED_EDGE('',*,*,#190,.T.);
#258=ORIENTED_EDGE('',*,*,#191,.T.);
#259=ORIENTED_EDGE('',*,*,#190,.F.);
#260=ORIENTED_EDGE('',*,*,#189,.F.);
#261=ORIENTED_EDGE('',*,*,#188,.T.);
#262=ORIENTED_EDGE('',*,*,#185,.T.);
#263=ORIENTED_EDGE('',*,*,#183,.F.);
#264=ORIENTED_EDGE('',*,*,#181,.T.);
#265=ORIENTED_EDGE('',*,*,#179,.T.);
#266=ORIENTED_EDGE('',*,*,#177,.F.);
#267=ORIENTED_EDGE('',*,*,#174,.F.);
#268=ORIENTED_EDGE('',*,*,#191,.F.);
#269=ORIENTED_EDGE('',*,*,#192,.F.);
#270=ORIENTED_EDGE('',*,*,#192,.T.);
#271=ORIENTED_EDGE('',*,*,#193,.T.);
#272=ORIENTED_EDGE('',*,*,#154,.T.);
#273=ORIENTED_EDGE('',*,*,#193,.F.);
#274=PLANE('',#322);
#275=PLANE('',#331);
#276=PLANE('',#332);
#277=PLANE('',#333);
#278=PLANE('',#334);
#279=PLANE('',#335);
#280=PLANE('',#336);
#281=PLANE('',#337);
#282=PLANE('',#338);
#283=PLANE('',#339);
#284=PLANE('',#340);
#285=PLANE('',#341);
#286=PLANE('',#342);
#287=PLANE('',#349);
#288=PLANE('',#350);
#289=ADVANCED_FACE('',(#77),#274,.T.);
#290=ADVANCED_FACE('',(#78),#75,.F.);
#291=ADVANCED_FACE('',(#79),#275,.F.);
#292=ADVANCED_FACE('',(#80),#276,.F.);
#293=ADVANCED_FACE('',(#81),#277,.F.);
#294=ADVANCED_FACE('',(#82),#278,.F.);
#295=ADVANCED_FACE('',(#83),#279,.F.);
#296=ADVANCED_FACE('',(#84),#280,.F.);
#297=ADVANCED_FACE('',(#85),#281,.F.);
#298=ADVANCED_FACE('',(#86),#282,.F.);
#299=ADVANCED_FACE('',(#87),#283,.T.);
#300=ADVANCED_FACE('',(#88),#284,.T.);
#301=ADVANCED_FACE('',(#89),#285,.F.);
#302=ADVANCED_FACE('',(#90),#286,.T.);
#303=ADVANCED_FACE('',(#91),#76,.T.);
#304=ADVANCED_FACE('',(#92),#17,.T.);
#305=ADVANCED_FACE('',(#93,#15),#287,.T.);
#306=ADVANCED_FACE('',(#94,#16),#288,.T.);
#307=ADVANCED_FACE('',(#95),#18,.T.);
#308=CLOSED_SHELL('',(#289,#290,#291,#292,#293,#294,#295,#296,#297,#298,
#299,#300,#301,#302,#303,#304,#305,#306,#307));
#309=DERIVED_UNIT_ELEMENT(#311,1.);
#310=DERIVED_UNIT_ELEMENT(#535,-3.);
#311=(
MASS_UNIT()
NAMED_UNIT(*)
SI_UNIT(.KILO.,.GRAM.)
);
#312=DERIVED_UNIT((#309,#310));
#313=MEASURE_REPRESENTATION_ITEM('density measure',
POSITIVE_RATIO_MEASURE(7850.),#312);
#314=PROPERTY_DEFINITION_REPRESENTATION(#319,#316);
#315=PROPERTY_DEFINITION_REPRESENTATION(#320,#317);
#316=REPRESENTATION('material name',(#318),#532);
#317=REPRESENTATION('density',(#313),#532);
#318=DESCRIPTIVE_REPRESENTATION_ITEM('Steel','Steel');
#319=PROPERTY_DEFINITION('material property','material name',#542);
#320=PROPERTY_DEFINITION('material property','density of part',#542);
#321=AXIS2_PLACEMENT_3D('',#445,#353,#354);
#322=AXIS2_PLACEMENT_3D('',#446,#355,#356);
#323=AXIS2_PLACEMENT_3D('',#448,#357,#358);
#324=AXIS2_PLACEMENT_3D('',#449,#359,#360);
#325=AXIS2_PLACEMENT_3D('',#454,#362,#363);
#326=AXIS2_PLACEMENT_3D('',#456,#364,#365);
#327=AXIS2_PLACEMENT_3D('',#458,#366,#367);
#328=AXIS2_PLACEMENT_3D('',#460,#368,#369);
#329=AXIS2_PLACEMENT_3D('',#462,#370,#371);
#330=AXIS2_PLACEMENT_3D('',#463,#372,#373);
#331=AXIS2_PLACEMENT_3D('',#464,#374,#375);
#332=AXIS2_PLACEMENT_3D('',#468,#378,#379);
#333=AXIS2_PLACEMENT_3D('',#472,#382,#383);
#334=AXIS2_PLACEMENT_3D('',#476,#386,#387);
#335=AXIS2_PLACEMENT_3D('',#480,#390,#391);
#336=AXIS2_PLACEMENT_3D('',#484,#394,#395);
#337=AXIS2_PLACEMENT_3D('',#488,#398,#399);
#338=AXIS2_PLACEMENT_3D('',#494,#403,#404);
#339=AXIS2_PLACEMENT_3D('',#498,#407,#408);
#340=AXIS2_PLACEMENT_3D('',#502,#411,#412);
#341=AXIS2_PLACEMENT_3D('',#506,#415,#416);
#342=AXIS2_PLACEMENT_3D('',#510,#419,#420);
#343=AXIS2_PLACEMENT_3D('',#512,#422,#423);
#344=AXIS2_PLACEMENT_3D('',#515,#424,#425);
#345=AXIS2_PLACEMENT_3D('',#518,#427,#428);
#346=AXIS2_PLACEMENT_3D('',#519,#429,#430);
#347=AXIS2_PLACEMENT_3D('',#520,#431,#432);
#348=AXIS2_PLACEMENT_3D('',#523,#434,#435);
#349=AXIS2_PLACEMENT_3D('',#524,#436,#437);
#350=AXIS2_PLACEMENT_3D('',#525,#438,#439);
#351=AXIS2_PLACEMENT_3D('',#527,#440,#441);
#352=AXIS2_PLACEMENT_3D('',#528,#442,#443);
#353=DIRECTION('axis',(0.,0.,1.));
#354=DIRECTION('refdir',(1.,0.,0.));
#355=DIRECTION('center_axis',(-2.22044604925031E-16,0.,-1.));
#356=DIRECTION('ref_axis',(-1.,0.,2.22044604925031E-16));
#357=DIRECTION('center_axis',(2.22044604925031E-16,0.,1.));
#358=DIRECTION('ref_axis',(1.,0.,-2.22044604925031E-16));
#359=DIRECTION('center_axis',(2.22044604925031E-16,0.,1.));
#360=DIRECTION('ref_axis',(1.,0.,-2.22044604925031E-16));
#361=DIRECTION('',(-0.86602540378444,-1.06057523872491E-16,0.499999999999998));
#362=DIRECTION('center_axis',(2.22044604925031E-16,0.,1.));
#363=DIRECTION('ref_axis',(1.,0.,-2.22044604925031E-16));
#364=DIRECTION('center_axis',(2.22044604925031E-16,0.,1.));
#365=DIRECTION('ref_axis',(1.,0.,-2.22044604925031E-16));
#366=DIRECTION('center_axis',(2.22044604925031E-16,0.,1.));
#367=DIRECTION('ref_axis',(1.,0.,-2.22044604925031E-16));
#368=DIRECTION('center_axis',(2.22044604925031E-16,0.,1.));
#369=DIRECTION('ref_axis',(1.,0.,-2.22044604925031E-16));
#370=DIRECTION('center_axis',(2.22044604925031E-16,0.,1.));
#371=DIRECTION('ref_axis',(1.,0.,-2.22044604925031E-16));
#372=DIRECTION('center_axis',(2.22044604925031E-16,0.,1.));
#373=DIRECTION('ref_axis',(1.,0.,-2.22044604925031E-16));
#374=DIRECTION('center_axis',(-2.22044604925031E-16,0.,-1.));
#375=DIRECTION('ref_axis',(-1.,0.,2.22044604925031E-16));
#376=DIRECTION('',(-0.866025403784439,-0.5,1.92296268638356E-16));
#377=DIRECTION('',(1.12673594905287E-15,-1.,-2.50185638662275E-31));
#378=DIRECTION('center_axis',(-2.22044604925031E-16,0.,-1.));
#379=DIRECTION('ref_axis',(-1.,0.,2.22044604925031E-16));
#380=DIRECTION('',(0.866025403784438,-0.5,-1.92296268638356E-16));
#381=DIRECTION('',(-0.866025403784438,-0.5,1.92296268638356E-16));
#382=DIRECTION('center_axis',(-2.22044604925031E-16,0.,-1.));
#383=DIRECTION('ref_axis',(-1.,0.,2.22044604925031E-16));
#384=DIRECTION('',(-1.12673594905288E-15,1.,2.50185638662277E-31));
#385=DIRECTION('',(0.866025403784439,-0.5,-1.92296268638356E-16));
#386=DIRECTION('center_axis',(-2.22044604925031E-16,0.,-1.));
#387=DIRECTION('ref_axis',(-1.,0.,2.22044604925031E-16));
#388=DIRECTION('',(-0.866025403784438,-0.5,1.92296268638356E-16));
#389=DIRECTION('',(-1.12673594905286E-15,1.,2.50185638662272E-31));
#390=DIRECTION('center_axis',(-2.22044604925031E-16,0.,-1.));
#391=DIRECTION('ref_axis',(-1.,0.,2.22044604925031E-16));
#392=DIRECTION('',(-0.866025403784439,0.5,1.92296268638356E-16));
#393=DIRECTION('',(-0.866025403784439,-0.5,1.92296268638356E-16));
#394=DIRECTION('center_axis',(-2.22044604925031E-16,0.,-1.));
#395=DIRECTION('ref_axis',(-1.,0.,2.22044604925031E-16));
#396=DIRECTION('',(1.50231459873715E-15,-1.,-3.33580851549697E-31));
#397=DIRECTION('',(-0.866025403784439,0.5,1.92296268638356E-16));
#398=DIRECTION('center_axis',(-0.5,0.866025403784438,1.11022302462516E-16));
#399=DIRECTION('ref_axis',(2.22044604925031E-16,-5.54667823983524E-31,1.));
#400=DIRECTION('',(-0.866025403784438,-0.5,1.92296268638356E-16));
#401=DIRECTION('',(2.22044604925031E-16,0.,1.));
#402=DIRECTION('',(2.22044604925031E-16,0.,1.));
#403=DIRECTION('center_axis',(-1.,-1.32039369029633E-15,2.22044604925031E-16));
#404=DIRECTION('ref_axis',(2.22044604925031E-16,0.,1.));
#405=DIRECTION('',(1.31452527389501E-15,-1.,-2.91883245105986E-31));
#406=DIRECTION('',(2.22044604925031E-16,0.,1.));
#407=DIRECTION('center_axis',(0.5,0.866025403784439,-1.11022302462516E-16));
#408=DIRECTION('ref_axis',(0.866025403784439,-0.5,-1.92296268638356E-16));
#409=DIRECTION('',(-0.866025403784439,0.5,1.92296268638356E-16));
#410=DIRECTION('',(2.22044604925031E-16,0.,1.));
#411=DIRECTION('center_axis',(-0.5,0.866025403784438,1.11022302462516E-16));
#412=DIRECTION('ref_axis',(2.22044604925031E-16,-5.54667823983524E-31,1.));
#413=DIRECTION('',(-0.866025403784438,-0.5,1.92296268638356E-16));
#414=DIRECTION('',(2.22044604925031E-16,0.,1.));
#415=DIRECTION('center_axis',(1.,1.1736832802634E-15,-2.22044604925031E-16));
#416=DIRECTION('ref_axis',(-2.22044604925031E-16,0.,-1.));
#417=DIRECTION('',(-1.12673594905287E-15,1.,2.50185638662275E-31));
#418=DIRECTION('',(2.22044604925031E-16,0.,1.));
#419=DIRECTION('center_axis',(-0.5,-0.866025403784439,1.11022302462516E-16));
#420=DIRECTION('ref_axis',(-0.866025403784439,0.5,1.92296268638356E-16));
#421=DIRECTION('',(0.866025403784439,-0.5,-1.92296268638356E-16));
#422=DIRECTION('center_axis',(-2.22044604925031E-16,0.,-1.));
#423=DIRECTION('ref_axis',(-1.,0.,2.22044604925031E-16));
#424=DIRECTION('center_axis',(2.22044604925031E-16,0.,1.));
#425=DIRECTION('ref_axis',(1.,0.,-2.22044604925031E-16));
#426=DIRECTION('',(-0.707106781186543,8.65956056235488E-17,0.707106781186552));
#427=DIRECTION('center_axis',(2.22044604925031E-16,0.,1.));
#428=DIRECTION('ref_axis',(1.,0.,-2.22044604925031E-16));
#429=DIRECTION('center_axis',(2.22044604925031E-16,0.,1.));
#430=DIRECTION('ref_axis',(1.,0.,-2.22044604925031E-16));
#431=DIRECTION('center_axis',(2.22044604925031E-16,0.,1.));
#432=DIRECTION('ref_axis',(1.,0.,-2.22044604925031E-16));
#433=DIRECTION('',(-2.22044604925031E-16,0.,-1.));
#434=DIRECTION('center_axis',(2.22044604925031E-16,0.,1.));
#435=DIRECTION('ref_axis',(1.,0.,-2.22044604925031E-16));
#436=DIRECTION('center_axis',(2.22044604925031E-16,0.,1.));
#437=DIRECTION('ref_axis',(1.,0.,-2.22044604925031E-16));
#438=DIRECTION('center_axis',(-2.22044604925031E-16,0.,-1.));
#439=DIRECTION('ref_axis',(-1.,0.,2.22044604925031E-16));
#440=DIRECTION('center_axis',(-2.22044604925031E-16,0.,-1.));
#441=DIRECTION('ref_axis',(1.,0.,-2.22044604925031E-16));
#442=DIRECTION('center_axis',(2.22044604925031E-16,0.,1.));
#443=DIRECTION('ref_axis',(1.,0.,-2.22044604925031E-16));
#444=DIRECTION('',(-2.22044604925031E-16,0.,-1.));
#445=CARTESIAN_POINT('',(0.,0.,0.));
#446=CARTESIAN_POINT('Origin',(1.5,1.5,9.99200722162641E-15));
#447=CARTESIAN_POINT('',(1.08801856413265E-14,1.5,9.99200722162641E-15));
#448=CARTESIAN_POINT('Origin',(1.5,1.5,8.88178419700125E-15));
#449=CARTESIAN_POINT('Origin',(1.5,1.5,13.7));
#450=CARTESIAN_POINT('',(1.5,1.5,12.9609916554373));
#451=CARTESIAN_POINT('',(0.220000000000004,1.5,13.7));
#452=CARTESIAN_POINT('',(0.22,1.5,13.7));
#453=CARTESIAN_POINT('',(0.860000000000004,0.39148748315592,13.7));
#454=CARTESIAN_POINT('Origin',(1.5,1.5,13.7));
#455=CARTESIAN_POINT('',(2.14,0.39148748315592,13.7));
#456=CARTESIAN_POINT('Origin',(1.5,1.5,13.7));
#457=CARTESIAN_POINT('',(2.78,1.5,13.7));
#458=CARTESIAN_POINT('Origin',(1.5,1.5,13.7));
#459=CARTESIAN_POINT('',(2.14,2.60851251684408,13.7));
#460=CARTESIAN_POINT('Origin',(1.5,1.5,13.7));
#461=CARTESIAN_POINT('',(0.860000000000004,2.60851251684408,13.7));
#462=CARTESIAN_POINT('Origin',(1.5,1.5,13.7));
#463=CARTESIAN_POINT('Origin',(1.5,1.5,13.7));
#464=CARTESIAN_POINT('Origin',(1.5,2.97801668912544,13.7));
#465=CARTESIAN_POINT('',(0.220000000000004,2.23900834456272,13.7));
#466=CARTESIAN_POINT('',(0.860000000000004,2.60851251684408,13.7));
#467=CARTESIAN_POINT('',(0.220000000000004,2.23900834456272,13.7));
#468=CARTESIAN_POINT('Origin',(1.5,2.97801668912544,13.7));
#469=CARTESIAN_POINT('',(1.5,2.97801668912544,13.7));
#470=CARTESIAN_POINT('',(1.5,2.97801668912544,13.7));
#471=CARTESIAN_POINT('',(1.5,2.97801668912544,13.7));
#472=CARTESIAN_POINT('Origin',(1.5,2.97801668912544,13.7));
#473=CARTESIAN_POINT('',(2.78,2.23900834456272,13.7));
#474=CARTESIAN_POINT('',(2.78,1.5,13.7));
#475=CARTESIAN_POINT('',(2.14,2.60851251684408,13.7));
#476=CARTESIAN_POINT('Origin',(1.5,2.97801668912544,13.7));
#477=CARTESIAN_POINT('',(2.78,0.760991655437277,13.7));
#478=CARTESIAN_POINT('',(2.78,0.760991655437277,13.7));
#479=CARTESIAN_POINT('',(2.78,0.760991655437277,13.7));
#480=CARTESIAN_POINT('Origin',(1.5,2.97801668912544,13.7));
#481=CARTESIAN_POINT('',(1.5,0.0219833108745501,13.7));
#482=CARTESIAN_POINT('',(1.5,0.0219833108745501,13.7));
#483=CARTESIAN_POINT('',(2.14000000000001,0.39148748315592,13.7));
#484=CARTESIAN_POINT('Origin',(1.5,2.97801668912544,13.7));
#485=CARTESIAN_POINT('',(0.220000000000004,0.760991655437275,13.7));
#486=CARTESIAN_POINT('',(0.220000000000004,1.5,13.7));
#487=CARTESIAN_POINT('',(0.860000000000003,0.39148748315591,13.7));
#488=CARTESIAN_POINT('Origin',(1.5,2.97801668912544,13.7));
#489=CARTESIAN_POINT('',(1.5,2.97801668912544,15.));
#490=CARTESIAN_POINT('',(0.220000000000004,2.23900834456272,15.));
#491=CARTESIAN_POINT('',(1.5,2.97801668912544,15.));
#492=CARTESIAN_POINT('',(0.220000000000004,2.23900834456272,13.7));
#493=CARTESIAN_POINT('',(1.5,2.97801668912544,13.7));
#494=CARTESIAN_POINT('Origin',(0.220000000000004,2.23900834456272,13.7));
#495=CARTESIAN_POINT('',(0.220000000000004,0.760991655437275,15.));
#496=CARTESIAN_POINT('',(0.220000000000004,2.23900834456272,15.));
#497=CARTESIAN_POINT('',(0.220000000000004,0.760991655437275,13.7));
#498=CARTESIAN_POINT('Origin',(1.5,0.0219833108745501,13.7));
#499=CARTESIAN_POINT('',(1.5,0.0219833108745501,15.));
#500=CARTESIAN_POINT('',(1.5,0.0219833108745501,15.));
#501=CARTESIAN_POINT('',(1.5,0.0219833108745501,13.7));
#502=CARTESIAN_POINT('Origin',(2.78,0.760991655437277,13.7));
#503=CARTESIAN_POINT('',(2.78,0.760991655437277,15.));
#504=CARTESIAN_POINT('',(2.78,0.760991655437277,15.));
#505=CARTESIAN_POINT('',(2.78,0.760991655437277,13.7));
#506=CARTESIAN_POINT('Origin',(2.78,0.760991655437277,13.7));
#507=CARTESIAN_POINT('',(2.78,2.23900834456272,15.));
#508=CARTESIAN_POINT('',(2.78,0.760991655437277,15.));
#509=CARTESIAN_POINT('',(2.78,2.23900834456272,13.7));
#510=CARTESIAN_POINT('Origin',(1.5,2.97801668912544,13.7));
#511=CARTESIAN_POINT('',(1.5,2.97801668912544,15.));
#512=CARTESIAN_POINT('Origin',(1.5,1.5,15.));
#513=CARTESIAN_POINT('',(-1.25,1.5,14.7));
#514=CARTESIAN_POINT('',(4.25,1.5,14.7));
#515=CARTESIAN_POINT('Origin',(1.5,1.5,14.7));
#516=CARTESIAN_POINT('',(3.95,1.5,15.));
#517=CARTESIAN_POINT('',(3.95,1.5,15.));
#518=CARTESIAN_POINT('Origin',(1.5,1.5,15.));
#519=CARTESIAN_POINT('Origin',(1.5,1.5,14.7));
#520=CARTESIAN_POINT('Origin',(1.50000000000001,1.5,46.75));
#521=CARTESIAN_POINT('',(-1.25,1.5,12.));
#522=CARTESIAN_POINT('',(-1.24999999999999,1.5,46.75));
#523=CARTESIAN_POINT('Origin',(1.5,1.5,12.));
#524=CARTESIAN_POINT('Origin',(1.5,1.5,15.));
#525=CARTESIAN_POINT('Origin',(1.5,4.25,12.));
#526=CARTESIAN_POINT('',(1.37390099297363E-14,1.5,12.));
#527=CARTESIAN_POINT('Origin',(1.5,1.5,12.));
#528=CARTESIAN_POINT('Origin',(1.50000000000001,1.5,46.75));
#529=CARTESIAN_POINT('',(2.02615701994091E-14,1.5,46.75));
#530=UNCERTAINTY_MEASURE_WITH_UNIT(LENGTH_MEASURE(0.01),#534,
'DISTANCE_ACCURACY_VALUE',
'Maximum model space distance between geometric entities at asserted c
onnectivities');
#531=UNCERTAINTY_MEASURE_WITH_UNIT(LENGTH_MEASURE(0.01),#534,
'DISTANCE_ACCURACY_VALUE',
'Maximum model space distance between geometric entities at asserted c
onnectivities');
#532=(
GEOMETRIC_REPRESENTATION_CONTEXT(3)
GLOBAL_UNCERTAINTY_ASSIGNED_CONTEXT((#530))
GLOBAL_UNIT_ASSIGNED_CONTEXT((#534,#536,#537))
REPRESENTATION_CONTEXT('','3D')
);
#533=(
GEOMETRIC_REPRESENTATION_CONTEXT(3)
GLOBAL_UNCERTAINTY_ASSIGNED_CONTEXT((#531))
GLOBAL_UNIT_ASSIGNED_CONTEXT((#534,#536,#537))
REPRESENTATION_CONTEXT('','3D')
);
#534=(
LENGTH_UNIT()
NAMED_UNIT(*)
SI_UNIT(.MILLI.,.METRE.)
);
#535=(
LENGTH_UNIT()
NAMED_UNIT(*)
SI_UNIT($,.METRE.)
);
#536=(
NAMED_UNIT(*)
PLANE_ANGLE_UNIT()
SI_UNIT($,.RADIAN.)
);
#537=(
NAMED_UNIT(*)
SI_UNIT($,.STERADIAN.)
SOLID_ANGLE_UNIT()
);
#538=SHAPE_DEFINITION_REPRESENTATION(#539,#540);
#539=PRODUCT_DEFINITION_SHAPE('',$,#542);
#540=SHAPE_REPRESENTATION('',(#321),#532);
#541=PRODUCT_DEFINITION_CONTEXT('part definition',#546,'design');
#542=PRODUCT_DEFINITION('2026-07-16-20-03-03-482','M3x12 SHCS',#543,#541);
#543=PRODUCT_DEFINITION_FORMATION('',$,#548);
#544=PRODUCT_RELATED_PRODUCT_CATEGORY('M3x12 SHCS','M3x12 SHCS',(#548));
#545=APPLICATION_PROTOCOL_DEFINITION('international standard',
'automotive_design',2009,#546);
#546=APPLICATION_CONTEXT(
'Core Data for Automotive Mechanical Design Process');
#547=PRODUCT_CONTEXT('part definition',#546,'mechanical');
#548=PRODUCT('2026-07-16-20-03-03-482','M3x12 SHCS',$,(#547));
#549=PRESENTATION_STYLE_ASSIGNMENT((#551));
#550=PRESENTATION_STYLE_ASSIGNMENT((#552));
#551=SURFACE_STYLE_USAGE(.BOTH.,#553);
#552=SURFACE_STYLE_USAGE(.BOTH.,#554);
#553=SURFACE_SIDE_STYLE('',(#555));
#554=SURFACE_SIDE_STYLE('',(#556));
#555=SURFACE_STYLE_FILL_AREA(#557);
#556=SURFACE_STYLE_FILL_AREA(#558);
#557=FILL_AREA_STYLE('Plate',(#559));
#558=FILL_AREA_STYLE('Opaque(160,160,160)',(#560));
#559=FILL_AREA_STYLE_COLOUR('Plate',#561);
#560=FILL_AREA_STYLE_COLOUR('Opaque(160,160,160)',#562);
#561=COLOUR_RGB('Plate',0.6,0.6,0.6);
#562=COLOUR_RGB('Opaque(160,160,160)',0.627450980392157,0.627450980392157,
0.627450980392157);
ENDSEC;
END-ISO-10303-21;
