%TF.GenerationSoftware,KiCad,Pcbnew,9.0.7*%
%TF.CreationDate,2026-07-16T11:47:01+03:00*%
%TF.ProjectId,splitly,73706c69-746c-4792-9e6b-696361645f70,rev?*%
%TF.SameCoordinates,Original*%
%TF.FileFunction,Soldermask,Bot*%
%TF.FilePolarity,Negative*%
%FSLAX46Y46*%
G04 Gerber Fmt 4.6, Leading zero omitted, Abs format (unit mm)*
G04 Created by KiCad (PCBNEW 9.0.7) date 2026-07-16 11:47:01*
%MOMM*%
%LPD*%
G01*
G04 APERTURE LIST*
G04 Aperture macros list*
%AMHorizOval*
0 Thick line with rounded ends*
0 $1 width*
0 $2 $3 position (X,Y) of the first rounded end (center of the circle)*
0 $4 $5 position (X,Y) of the second rounded end (center of the circle)*
0 Add line between two ends*
20,1,$1,$2,$3,$4,$5,0*
0 Add two circle primitives to create the rounded ends*
1,1,$1,$2,$3*
1,1,$1,$4,$5*%
%AMRotRect*
0 Rectangle, with rotation*
0 The origin of the aperture is its center*
0 $1 length*
0 $2 width*
0 $3 Rotation angle, in degrees counterclockwise*
0 Add horizontal line*
21,1,$1,$2,0,0,$3*%
G04 Aperture macros list end*
%ADD10C,3.200000*%
%ADD11C,1.750000*%
%ADD12C,4.000000*%
%ADD13C,2.500000*%
%ADD14R,1.700000X1.700000*%
%ADD15O,1.700000X1.700000*%
%ADD16R,1.600000X1.600000*%
%ADD17O,1.600000X1.600000*%
%ADD18RotRect,1.600000X1.600000X150.000000*%
%ADD19HorizOval,1.600000X0.000000X0.000000X0.000000X0.000000X0*%
%ADD20RotRect,1.600000X1.600000X75.000000*%
%ADD21HorizOval,1.600000X0.000000X0.000000X0.000000X0.000000X0*%
%ADD22C,1.752600*%
G04 APERTURE END LIST*
D10*
%TO.C,H2*%
X157162500Y-80962500D03*
%TD*%
%TO.C,H1*%
X33337500Y-28575000D03*
%TD*%
D11*
%TO.C,SW14*%
X71120000Y-78105000D03*
D12*
X76200000Y-78105000D03*
D11*
X81280000Y-78105000D03*
D13*
X72390000Y-75565000D03*
X78740000Y-73025000D03*
%TD*%
D11*
%TO.C,SW18*%
X52070000Y-81915000D03*
D12*
X57150000Y-81915000D03*
D11*
X62230000Y-81915000D03*
D13*
X53340000Y-79375000D03*
X59690000Y-76835000D03*
%TD*%
D11*
%TO.C,SW19*%
X99695000Y-97155000D03*
D12*
X104775000Y-97155000D03*
D11*
X109855000Y-97155000D03*
D13*
X100965000Y-94615000D03*
X107315000Y-92075000D03*
%TD*%
D11*
%TO.C,SW6*%
X52070000Y-43815000D03*
D12*
X57150000Y-43815000D03*
D11*
X62230000Y-43815000D03*
D13*
X53340000Y-41275000D03*
X59690000Y-38735000D03*
%TD*%
D11*
%TO.C,SW3*%
X109220000Y-40005000D03*
D12*
X114300000Y-40005000D03*
D11*
X119380000Y-40005000D03*
D13*
X110490000Y-37465000D03*
X116840000Y-34925000D03*
%TD*%
D11*
%TO.C,SW12*%
X52070000Y-62865000D03*
D12*
X57150000Y-62865000D03*
D11*
X62230000Y-62865000D03*
D13*
X53340000Y-60325000D03*
X59690000Y-57785000D03*
%TD*%
D11*
%TO.C,SW7*%
X90170000Y-57150000D03*
D12*
X95250000Y-57150000D03*
D11*
X100330000Y-57150000D03*
D13*
X91440000Y-54610000D03*
X97790000Y-52070000D03*
%TD*%
D11*
%TO.C,SW9*%
X109220000Y-59055000D03*
D12*
X114300000Y-59055000D03*
D11*
X119380000Y-59055000D03*
D13*
X110490000Y-56515000D03*
X116840000Y-53975000D03*
%TD*%
D11*
%TO.C,SW2*%
X71120000Y-40005000D03*
D12*
X76200000Y-40005000D03*
D11*
X81280000Y-40005000D03*
D13*
X72390000Y-37465000D03*
X78740000Y-34925000D03*
%TD*%
D11*
%TO.C,SW11*%
X33020000Y-62865000D03*
D12*
X38100000Y-62865000D03*
D11*
X43180000Y-62865000D03*
D13*
X34290000Y-60325000D03*
X40640000Y-57785000D03*
%TD*%
D11*
%TO.C,SW4*%
X128270000Y-41910000D03*
D12*
X133350000Y-41910000D03*
D11*
X138430000Y-41910000D03*
D13*
X129540000Y-39370000D03*
X135890000Y-36830000D03*
%TD*%
D11*
%TO.C,SW8*%
X71120000Y-59055000D03*
D12*
X76200000Y-59055000D03*
D11*
X81280000Y-59055000D03*
D13*
X72390000Y-56515000D03*
X78740000Y-53975000D03*
%TD*%
D11*
%TO.C,SW10*%
X128270000Y-60960000D03*
D12*
X133350000Y-60960000D03*
D11*
X138430000Y-60960000D03*
D13*
X129540000Y-58420000D03*
X135890000Y-55880000D03*
%TD*%
D11*
%TO.C,SW16*%
X128270000Y-80010000D03*
D12*
X133350000Y-80010000D03*
D11*
X138430000Y-80010000D03*
D13*
X129540000Y-77470000D03*
X135890000Y-74930000D03*
%TD*%
D11*
%TO.C,SW1*%
X90170000Y-38100000D03*
D12*
X95250000Y-38100000D03*
D11*
X100330000Y-38100000D03*
D13*
X91440000Y-35560000D03*
X97790000Y-33020000D03*
%TD*%
D11*
%TO.C,SW15*%
X109220000Y-78105000D03*
D12*
X114300000Y-78105000D03*
D11*
X119380000Y-78105000D03*
D13*
X110490000Y-75565000D03*
X116840000Y-73025000D03*
%TD*%
D11*
%TO.C,SW13*%
X90170000Y-76200000D03*
D12*
X95250000Y-76200000D03*
D11*
X100330000Y-76200000D03*
D13*
X91440000Y-73660000D03*
X97790000Y-71120000D03*
%TD*%
D11*
%TO.C,SW5*%
X33020000Y-43815000D03*
D12*
X38100000Y-43815000D03*
D11*
X43180000Y-43815000D03*
D13*
X34290000Y-41275000D03*
X40640000Y-38735000D03*
%TD*%
D11*
%TO.C,SW17*%
X33020000Y-81915000D03*
D12*
X38100000Y-81915000D03*
D11*
X43180000Y-81915000D03*
D13*
X34290000Y-79375000D03*
X40640000Y-76835000D03*
%TD*%
D11*
%TO.C,SW21*%
X145745200Y-108387009D03*
D12*
X148285200Y-103987600D03*
D11*
X150825200Y-99588191D03*
D13*
X144180495Y-106017157D03*
X145155791Y-99247895D03*
%TD*%
D14*
%TO.C,J1*%
X160000000Y-73000000D03*
D15*
X157460000Y-73000000D03*
X154920000Y-73000000D03*
X152380000Y-73000000D03*
%TD*%
D11*
%TO.C,SW20*%
X121058792Y-98630007D03*
D12*
X125965695Y-99944808D03*
D11*
X130872598Y-101259609D03*
D13*
X122942918Y-96505256D03*
X129733947Y-95695305D03*
%TD*%
D16*
%TO.C,D5*%
X123850400Y-48158400D03*
D17*
X123850400Y-40538400D03*
%TD*%
D16*
%TO.C,D12*%
X142443200Y-66548000D03*
D17*
X142443200Y-58928000D03*
%TD*%
D16*
%TO.C,D16*%
X105105200Y-84683600D03*
D17*
X105105200Y-77063600D03*
%TD*%
D16*
%TO.C,D9*%
X85699600Y-65481200D03*
D17*
X85699600Y-57861200D03*
%TD*%
D18*
%TO.C,D21*%
X154289301Y-101588191D03*
D19*
X147690187Y-97778191D03*
%TD*%
D16*
%TO.C,D6*%
X142494000Y-46736000D03*
D17*
X142494000Y-39116000D03*
%TD*%
D16*
%TO.C,D7*%
X47345600Y-67818000D03*
D17*
X47345600Y-60198000D03*
%TD*%
D16*
%TO.C,D11*%
X123850400Y-66294000D03*
D17*
X123850400Y-58674000D03*
%TD*%
D16*
%TO.C,D3*%
X85293200Y-47650400D03*
D17*
X85293200Y-40030400D03*
%TD*%
D16*
%TO.C,D4*%
X104749600Y-46329600D03*
D17*
X104749600Y-38709600D03*
%TD*%
D16*
%TO.C,D15*%
X85699600Y-84429600D03*
D17*
X85699600Y-76809600D03*
%TD*%
D20*
%TO.C,D20*%
X129837322Y-105123312D03*
D21*
X131809523Y-97762957D03*
%TD*%
D16*
%TO.C,D10*%
X104749600Y-64668400D03*
D17*
X104749600Y-57048400D03*
%TD*%
D16*
%TO.C,D14*%
X66598800Y-85699600D03*
D17*
X66598800Y-78079600D03*
%TD*%
D16*
%TO.C,D17*%
X123698000Y-82499200D03*
D17*
X123698000Y-74879200D03*
%TD*%
D16*
%TO.C,D2*%
X66548000Y-48463200D03*
D17*
X66548000Y-40843200D03*
%TD*%
D16*
%TO.C,D1*%
X47345600Y-48006000D03*
D17*
X47345600Y-40386000D03*
%TD*%
D16*
%TO.C,D19*%
X109855000Y-101155000D03*
D17*
X109855000Y-93535000D03*
%TD*%
D16*
%TO.C,D8*%
X66040000Y-67868800D03*
D17*
X66040000Y-60248800D03*
%TD*%
D16*
%TO.C,D18*%
X141782800Y-82854800D03*
D17*
X141782800Y-75234800D03*
%TD*%
D16*
%TO.C,D13*%
X47498000Y-85344000D03*
D17*
X47498000Y-77724000D03*
%TD*%
D22*
%TO.C,U1*%
X148360000Y-28000000D03*
X148360000Y-30540000D03*
X148360000Y-33080000D03*
X148360000Y-35620000D03*
X148360000Y-38160000D03*
X148360000Y-40700000D03*
X148360000Y-43240000D03*
X148360000Y-45780000D03*
X148360000Y-48320000D03*
X148360000Y-50860000D03*
X148360000Y-53400000D03*
X148360000Y-55940000D03*
X163600000Y-55940000D03*
X163600000Y-53400000D03*
X163600000Y-50860000D03*
X163600000Y-48320000D03*
X163600000Y-45780000D03*
X163600000Y-43240000D03*
X163600000Y-40700000D03*
X163600000Y-38160000D03*
X163600000Y-35620000D03*
X163600000Y-33080000D03*
X163600000Y-30540000D03*
X163600000Y-28000000D03*
X150900000Y-50860000D03*
X153440000Y-50860000D03*
X155980000Y-50860000D03*
%TD*%
M02*
