%TF.GenerationSoftware,KiCad,Pcbnew,9.0.7*%
%TF.CreationDate,2026-07-16T11:47:01+03:00*%
%TF.ProjectId,splitly,73706c69-746c-4792-9e6b-696361645f70,rev?*%
%TF.SameCoordinates,Original*%
%TF.FileFunction,Profile,NP*%
%FSLAX46Y46*%
G04 Gerber Fmt 4.6, Leading zero omitted, Abs format (unit mm)*
G04 Created by KiCad (PCBNEW 9.0.7) date 2026-07-16 11:47:01*
%MOMM*%
%LPD*%
G01*
G04 APERTURE LIST*
%TA.AperFunction,Profile*%
%ADD10C,0.050000*%
%TD*%
G04 APERTURE END LIST*
D10*
X164298551Y-23901451D02*
G75*
G02*
X165300050Y-24901450I1449J-1000049D01*
G01*
X150398261Y-121755545D02*
G75*
G02*
X149045886Y-122118485I-861261J508145D01*
G01*
X94980000Y-107746800D02*
G75*
G02*
X93980000Y-106746800I0J1000000D01*
G01*
X92981912Y-88440892D02*
G75*
G02*
X93980010Y-89440890I-1912J-1000008D01*
G01*
X67411600Y-89393914D02*
G75*
G02*
X68413512Y-88393902I1000000J14D01*
G01*
X67411600Y-91456000D02*
G75*
G02*
X66411600Y-92456000I-1000000J0D01*
G01*
X28379491Y-92456000D02*
G75*
G02*
X27379501Y-91457711I9J1000000D01*
G01*
X27228800Y-25098553D02*
G75*
G02*
X28227351Y-24098551I1000000J3D01*
G01*
X27228800Y-26568400D02*
X27228800Y-25098553D01*
X164298551Y-23901451D02*
X28227351Y-24098554D01*
X165300000Y-96500000D02*
X165300000Y-24901450D01*
X150398261Y-121755545D02*
X165300000Y-96500000D01*
X132384800Y-112725200D02*
X149045895Y-122118469D01*
X114300000Y-107746800D02*
X132384800Y-112725200D01*
X27228800Y-26568400D02*
X27279600Y-33070800D01*
X94980000Y-107746800D02*
X114300000Y-107746800D01*
X68413512Y-88393916D02*
X92981912Y-88440892D01*
X93980000Y-89440890D02*
X93980000Y-106746800D01*
X67411600Y-91456000D02*
X67411600Y-89393914D01*
X27279600Y-33070800D02*
X27379492Y-91457711D01*
X28379491Y-92456000D02*
X66411600Y-92456000D01*
M02*
