%TF.GenerationSoftware,KiCad,Pcbnew,9.0.7*%
%TF.CreationDate,2026-07-16T11:47:05+03:00*%
%TF.ProjectId,splitly,73706c69-746c-4792-9e6b-696361645f70,rev?*%
%TF.SameCoordinates,Original*%
%TF.FileFunction,NonPlated,1,2,NPTH,Drill*%
%TF.FilePolarity,Positive*%
%FSLAX46Y46*%
G04 Gerber Fmt 4.6, Leading zero omitted, Abs format (unit mm)*
G04 Created by KiCad (PCBNEW 9.0.7) date 2026-07-16 11:47:05*
%MOMM*%
%LPD*%
G01*
G04 APERTURE LIST*
%TA.AperFunction,ComponentDrill*%
%ADD10C,1.750000*%
%TD*%
%TA.AperFunction,ComponentDrill*%
%ADD11C,3.200000*%
%TD*%
%TA.AperFunction,ComponentDrill*%
%ADD12C,4.000000*%
%TD*%
G04 APERTURE END LIST*
D10*
%TO.C,SW5*%
X33020000Y-43815000D03*
%TO.C,SW11*%
X33020000Y-62865000D03*
%TO.C,SW17*%
X33020000Y-81915000D03*
%TO.C,SW5*%
X43180000Y-43815000D03*
%TO.C,SW11*%
X43180000Y-62865000D03*
%TO.C,SW17*%
X43180000Y-81915000D03*
%TO.C,SW6*%
X52070000Y-43815000D03*
%TO.C,SW12*%
X52070000Y-62865000D03*
%TO.C,SW18*%
X52070000Y-81915000D03*
%TO.C,SW6*%
X62230000Y-43815000D03*
%TO.C,SW12*%
X62230000Y-62865000D03*
%TO.C,SW18*%
X62230000Y-81915000D03*
%TO.C,SW2*%
X71120000Y-40005000D03*
%TO.C,SW8*%
X71120000Y-59055000D03*
%TO.C,SW14*%
X71120000Y-78105000D03*
%TO.C,SW2*%
X81280000Y-40005000D03*
%TO.C,SW8*%
X81280000Y-59055000D03*
%TO.C,SW14*%
X81280000Y-78105000D03*
%TO.C,SW1*%
X90170000Y-38100000D03*
%TO.C,SW7*%
X90170000Y-57150000D03*
%TO.C,SW13*%
X90170000Y-76200000D03*
%TO.C,SW19*%
X99695000Y-97155000D03*
%TO.C,SW1*%
X100330000Y-38100000D03*
%TO.C,SW7*%
X100330000Y-57150000D03*
%TO.C,SW13*%
X100330000Y-76200000D03*
%TO.C,SW3*%
X109220000Y-40005000D03*
%TO.C,SW9*%
X109220000Y-59055000D03*
%TO.C,SW15*%
X109220000Y-78105000D03*
%TO.C,SW19*%
X109855000Y-97155000D03*
%TO.C,SW3*%
X119380000Y-40005000D03*
%TO.C,SW9*%
X119380000Y-59055000D03*
%TO.C,SW15*%
X119380000Y-78105000D03*
%TO.C,SW20*%
X121058792Y-98630007D03*
%TO.C,SW4*%
X128270000Y-41910000D03*
%TO.C,SW10*%
X128270000Y-60960000D03*
%TO.C,SW16*%
X128270000Y-80010000D03*
%TO.C,SW20*%
X130872598Y-101259609D03*
%TO.C,SW4*%
X138430000Y-41910000D03*
%TO.C,SW10*%
X138430000Y-60960000D03*
%TO.C,SW16*%
X138430000Y-80010000D03*
%TO.C,SW21*%
X145745200Y-108387009D03*
X150825200Y-99588191D03*
D11*
%TO.C,H1*%
X33337500Y-28575000D03*
%TO.C,H2*%
X157162500Y-80962500D03*
D12*
%TO.C,SW5*%
X38100000Y-43815000D03*
%TO.C,SW11*%
X38100000Y-62865000D03*
%TO.C,SW17*%
X38100000Y-81915000D03*
%TO.C,SW6*%
X57150000Y-43815000D03*
%TO.C,SW12*%
X57150000Y-62865000D03*
%TO.C,SW18*%
X57150000Y-81915000D03*
%TO.C,SW2*%
X76200000Y-40005000D03*
%TO.C,SW8*%
X76200000Y-59055000D03*
%TO.C,SW14*%
X76200000Y-78105000D03*
%TO.C,SW1*%
X95250000Y-38100000D03*
%TO.C,SW7*%
X95250000Y-57150000D03*
%TO.C,SW13*%
X95250000Y-76200000D03*
%TO.C,SW19*%
X104775000Y-97155000D03*
%TO.C,SW3*%
X114300000Y-40005000D03*
%TO.C,SW9*%
X114300000Y-59055000D03*
%TO.C,SW15*%
X114300000Y-78105000D03*
%TO.C,SW20*%
X125965695Y-99944808D03*
%TO.C,SW4*%
X133350000Y-41910000D03*
%TO.C,SW10*%
X133350000Y-60960000D03*
%TO.C,SW16*%
X133350000Y-80010000D03*
%TO.C,SW21*%
X148285200Y-103987600D03*
M02*
