%TF.GenerationSoftware,KiCad,Pcbnew,9.0.7*%
%TF.CreationDate,2026-07-29T06:50:11+03:00*%
%TF.ProjectId,pad,7061642e-6b69-4636-9164-5f7063625858,rev?*%
%TF.SameCoordinates,Original*%
%TF.FileFunction,Legend,Bot*%
%TF.FilePolarity,Positive*%
%FSLAX46Y46*%
G04 Gerber Fmt 4.6, Leading zero omitted, Abs format (unit mm)*
G04 Created by KiCad (PCBNEW 9.0.7) date 2026-07-29 06:50:11*
%MOMM*%
%LPD*%
G01*
G04 APERTURE LIST*
%ADD10C,0.150000*%
%ADD11C,0.200000*%
%ADD12C,0.100000*%
%ADD13C,0.120000*%
G04 APERTURE END LIST*
D10*
X248641428Y-97600390D02*
X248717618Y-97562295D01*
X248717618Y-97562295D02*
X248831904Y-97562295D01*
X248831904Y-97562295D02*
X248946190Y-97600390D01*
X248946190Y-97600390D02*
X249022380Y-97676580D01*
X249022380Y-97676580D02*
X249060475Y-97752771D01*
X249060475Y-97752771D02*
X249098571Y-97905152D01*
X249098571Y-97905152D02*
X249098571Y-98019438D01*
X249098571Y-98019438D02*
X249060475Y-98171819D01*
X249060475Y-98171819D02*
X249022380Y-98248009D01*
X249022380Y-98248009D02*
X248946190Y-98324200D01*
X248946190Y-98324200D02*
X248831904Y-98362295D01*
X248831904Y-98362295D02*
X248755713Y-98362295D01*
X248755713Y-98362295D02*
X248641428Y-98324200D01*
X248641428Y-98324200D02*
X248603332Y-98286104D01*
X248603332Y-98286104D02*
X248603332Y-98019438D01*
X248603332Y-98019438D02*
X248755713Y-98019438D01*
X248260475Y-98362295D02*
X248260475Y-97562295D01*
X248260475Y-97562295D02*
X247955713Y-97562295D01*
X247955713Y-97562295D02*
X247879523Y-97600390D01*
X247879523Y-97600390D02*
X247841428Y-97638485D01*
X247841428Y-97638485D02*
X247803332Y-97714676D01*
X247803332Y-97714676D02*
X247803332Y-97828961D01*
X247803332Y-97828961D02*
X247841428Y-97905152D01*
X247841428Y-97905152D02*
X247879523Y-97943247D01*
X247879523Y-97943247D02*
X247955713Y-97981342D01*
X247955713Y-97981342D02*
X248260475Y-97981342D01*
X247536666Y-97562295D02*
X247041428Y-97562295D01*
X247041428Y-97562295D02*
X247308094Y-97867057D01*
X247308094Y-97867057D02*
X247193809Y-97867057D01*
X247193809Y-97867057D02*
X247117618Y-97905152D01*
X247117618Y-97905152D02*
X247079523Y-97943247D01*
X247079523Y-97943247D02*
X247041428Y-98019438D01*
X247041428Y-98019438D02*
X247041428Y-98209914D01*
X247041428Y-98209914D02*
X247079523Y-98286104D01*
X247079523Y-98286104D02*
X247117618Y-98324200D01*
X247117618Y-98324200D02*
X247193809Y-98362295D01*
X247193809Y-98362295D02*
X247422380Y-98362295D01*
X247422380Y-98362295D02*
X247498571Y-98324200D01*
X247498571Y-98324200D02*
X247536666Y-98286104D01*
X252817381Y-104000390D02*
X252893571Y-103962295D01*
X252893571Y-103962295D02*
X253007857Y-103962295D01*
X253007857Y-103962295D02*
X253122143Y-104000390D01*
X253122143Y-104000390D02*
X253198333Y-104076580D01*
X253198333Y-104076580D02*
X253236428Y-104152771D01*
X253236428Y-104152771D02*
X253274524Y-104305152D01*
X253274524Y-104305152D02*
X253274524Y-104419438D01*
X253274524Y-104419438D02*
X253236428Y-104571819D01*
X253236428Y-104571819D02*
X253198333Y-104648009D01*
X253198333Y-104648009D02*
X253122143Y-104724200D01*
X253122143Y-104724200D02*
X253007857Y-104762295D01*
X253007857Y-104762295D02*
X252931666Y-104762295D01*
X252931666Y-104762295D02*
X252817381Y-104724200D01*
X252817381Y-104724200D02*
X252779285Y-104686104D01*
X252779285Y-104686104D02*
X252779285Y-104419438D01*
X252779285Y-104419438D02*
X252931666Y-104419438D01*
X252436428Y-104762295D02*
X252436428Y-103962295D01*
X252436428Y-103962295D02*
X252131666Y-103962295D01*
X252131666Y-103962295D02*
X252055476Y-104000390D01*
X252055476Y-104000390D02*
X252017381Y-104038485D01*
X252017381Y-104038485D02*
X251979285Y-104114676D01*
X251979285Y-104114676D02*
X251979285Y-104228961D01*
X251979285Y-104228961D02*
X252017381Y-104305152D01*
X252017381Y-104305152D02*
X252055476Y-104343247D01*
X252055476Y-104343247D02*
X252131666Y-104381342D01*
X252131666Y-104381342D02*
X252436428Y-104381342D01*
X251217381Y-104762295D02*
X251674524Y-104762295D01*
X251445952Y-104762295D02*
X251445952Y-103962295D01*
X251445952Y-103962295D02*
X251522143Y-104076580D01*
X251522143Y-104076580D02*
X251598333Y-104152771D01*
X251598333Y-104152771D02*
X251674524Y-104190866D01*
X250455476Y-104762295D02*
X250912619Y-104762295D01*
X250684047Y-104762295D02*
X250684047Y-103962295D01*
X250684047Y-103962295D02*
X250760238Y-104076580D01*
X250760238Y-104076580D02*
X250836428Y-104152771D01*
X250836428Y-104152771D02*
X250912619Y-104190866D01*
X249372381Y-120460390D02*
X249448571Y-120422295D01*
X249448571Y-120422295D02*
X249562857Y-120422295D01*
X249562857Y-120422295D02*
X249677143Y-120460390D01*
X249677143Y-120460390D02*
X249753333Y-120536580D01*
X249753333Y-120536580D02*
X249791428Y-120612771D01*
X249791428Y-120612771D02*
X249829524Y-120765152D01*
X249829524Y-120765152D02*
X249829524Y-120879438D01*
X249829524Y-120879438D02*
X249791428Y-121031819D01*
X249791428Y-121031819D02*
X249753333Y-121108009D01*
X249753333Y-121108009D02*
X249677143Y-121184200D01*
X249677143Y-121184200D02*
X249562857Y-121222295D01*
X249562857Y-121222295D02*
X249486666Y-121222295D01*
X249486666Y-121222295D02*
X249372381Y-121184200D01*
X249372381Y-121184200D02*
X249334285Y-121146104D01*
X249334285Y-121146104D02*
X249334285Y-120879438D01*
X249334285Y-120879438D02*
X249486666Y-120879438D01*
X248991428Y-121222295D02*
X248991428Y-120422295D01*
X248991428Y-120422295D02*
X248686666Y-120422295D01*
X248686666Y-120422295D02*
X248610476Y-120460390D01*
X248610476Y-120460390D02*
X248572381Y-120498485D01*
X248572381Y-120498485D02*
X248534285Y-120574676D01*
X248534285Y-120574676D02*
X248534285Y-120688961D01*
X248534285Y-120688961D02*
X248572381Y-120765152D01*
X248572381Y-120765152D02*
X248610476Y-120803247D01*
X248610476Y-120803247D02*
X248686666Y-120841342D01*
X248686666Y-120841342D02*
X248991428Y-120841342D01*
X247772381Y-121222295D02*
X248229524Y-121222295D01*
X248000952Y-121222295D02*
X248000952Y-120422295D01*
X248000952Y-120422295D02*
X248077143Y-120536580D01*
X248077143Y-120536580D02*
X248153333Y-120612771D01*
X248153333Y-120612771D02*
X248229524Y-120650866D01*
X247277142Y-120422295D02*
X247200952Y-120422295D01*
X247200952Y-120422295D02*
X247124761Y-120460390D01*
X247124761Y-120460390D02*
X247086666Y-120498485D01*
X247086666Y-120498485D02*
X247048571Y-120574676D01*
X247048571Y-120574676D02*
X247010476Y-120727057D01*
X247010476Y-120727057D02*
X247010476Y-120917533D01*
X247010476Y-120917533D02*
X247048571Y-121069914D01*
X247048571Y-121069914D02*
X247086666Y-121146104D01*
X247086666Y-121146104D02*
X247124761Y-121184200D01*
X247124761Y-121184200D02*
X247200952Y-121222295D01*
X247200952Y-121222295D02*
X247277142Y-121222295D01*
X247277142Y-121222295D02*
X247353333Y-121184200D01*
X247353333Y-121184200D02*
X247391428Y-121146104D01*
X247391428Y-121146104D02*
X247429523Y-121069914D01*
X247429523Y-121069914D02*
X247467619Y-120917533D01*
X247467619Y-120917533D02*
X247467619Y-120727057D01*
X247467619Y-120727057D02*
X247429523Y-120574676D01*
X247429523Y-120574676D02*
X247391428Y-120498485D01*
X247391428Y-120498485D02*
X247353333Y-120460390D01*
X247353333Y-120460390D02*
X247277142Y-120422295D01*
X261140476Y-97562295D02*
X260645238Y-97562295D01*
X260645238Y-97562295D02*
X260911904Y-97867057D01*
X260911904Y-97867057D02*
X260797619Y-97867057D01*
X260797619Y-97867057D02*
X260721428Y-97905152D01*
X260721428Y-97905152D02*
X260683333Y-97943247D01*
X260683333Y-97943247D02*
X260645238Y-98019438D01*
X260645238Y-98019438D02*
X260645238Y-98209914D01*
X260645238Y-98209914D02*
X260683333Y-98286104D01*
X260683333Y-98286104D02*
X260721428Y-98324200D01*
X260721428Y-98324200D02*
X260797619Y-98362295D01*
X260797619Y-98362295D02*
X261026190Y-98362295D01*
X261026190Y-98362295D02*
X261102381Y-98324200D01*
X261102381Y-98324200D02*
X261140476Y-98286104D01*
X260416666Y-97562295D02*
X260149999Y-98362295D01*
X260149999Y-98362295D02*
X259883333Y-97562295D01*
X259692857Y-97562295D02*
X259197619Y-97562295D01*
X259197619Y-97562295D02*
X259464285Y-97867057D01*
X259464285Y-97867057D02*
X259350000Y-97867057D01*
X259350000Y-97867057D02*
X259273809Y-97905152D01*
X259273809Y-97905152D02*
X259235714Y-97943247D01*
X259235714Y-97943247D02*
X259197619Y-98019438D01*
X259197619Y-98019438D02*
X259197619Y-98209914D01*
X259197619Y-98209914D02*
X259235714Y-98286104D01*
X259235714Y-98286104D02*
X259273809Y-98324200D01*
X259273809Y-98324200D02*
X259350000Y-98362295D01*
X259350000Y-98362295D02*
X259578571Y-98362295D01*
X259578571Y-98362295D02*
X259654762Y-98324200D01*
X259654762Y-98324200D02*
X259692857Y-98286104D01*
X261142857Y-100673723D02*
X260761904Y-100673723D01*
X261219047Y-100902295D02*
X260952380Y-100102295D01*
X260952380Y-100102295D02*
X260685714Y-100902295D01*
X260419047Y-100902295D02*
X260419047Y-100102295D01*
X260419047Y-100102295D02*
X260228571Y-100102295D01*
X260228571Y-100102295D02*
X260114285Y-100140390D01*
X260114285Y-100140390D02*
X260038095Y-100216580D01*
X260038095Y-100216580D02*
X260000000Y-100292771D01*
X260000000Y-100292771D02*
X259961904Y-100445152D01*
X259961904Y-100445152D02*
X259961904Y-100559438D01*
X259961904Y-100559438D02*
X260000000Y-100711819D01*
X260000000Y-100711819D02*
X260038095Y-100788009D01*
X260038095Y-100788009D02*
X260114285Y-100864200D01*
X260114285Y-100864200D02*
X260228571Y-100902295D01*
X260228571Y-100902295D02*
X260419047Y-100902295D01*
X259161904Y-100826104D02*
X259200000Y-100864200D01*
X259200000Y-100864200D02*
X259314285Y-100902295D01*
X259314285Y-100902295D02*
X259390476Y-100902295D01*
X259390476Y-100902295D02*
X259504762Y-100864200D01*
X259504762Y-100864200D02*
X259580952Y-100788009D01*
X259580952Y-100788009D02*
X259619047Y-100711819D01*
X259619047Y-100711819D02*
X259657143Y-100559438D01*
X259657143Y-100559438D02*
X259657143Y-100445152D01*
X259657143Y-100445152D02*
X259619047Y-100292771D01*
X259619047Y-100292771D02*
X259580952Y-100216580D01*
X259580952Y-100216580D02*
X259504762Y-100140390D01*
X259504762Y-100140390D02*
X259390476Y-100102295D01*
X259390476Y-100102295D02*
X259314285Y-100102295D01*
X259314285Y-100102295D02*
X259200000Y-100140390D01*
X259200000Y-100140390D02*
X259161904Y-100178485D01*
X259009524Y-100978485D02*
X258400000Y-100978485D01*
X258323809Y-100102295D02*
X258057142Y-100902295D01*
X258057142Y-100902295D02*
X257790476Y-100102295D01*
X257066666Y-100902295D02*
X257333333Y-100521342D01*
X257523809Y-100902295D02*
X257523809Y-100102295D01*
X257523809Y-100102295D02*
X257219047Y-100102295D01*
X257219047Y-100102295D02*
X257142857Y-100140390D01*
X257142857Y-100140390D02*
X257104762Y-100178485D01*
X257104762Y-100178485D02*
X257066666Y-100254676D01*
X257066666Y-100254676D02*
X257066666Y-100368961D01*
X257066666Y-100368961D02*
X257104762Y-100445152D01*
X257104762Y-100445152D02*
X257142857Y-100483247D01*
X257142857Y-100483247D02*
X257219047Y-100521342D01*
X257219047Y-100521342D02*
X257523809Y-100521342D01*
X256723809Y-100483247D02*
X256457143Y-100483247D01*
X256342857Y-100902295D02*
X256723809Y-100902295D01*
X256723809Y-100902295D02*
X256723809Y-100102295D01*
X256723809Y-100102295D02*
X256342857Y-100102295D01*
X255733333Y-100483247D02*
X255999999Y-100483247D01*
X255999999Y-100902295D02*
X255999999Y-100102295D01*
X255999999Y-100102295D02*
X255619047Y-100102295D01*
X257155390Y-113360476D02*
X257117295Y-113284286D01*
X257117295Y-113284286D02*
X257117295Y-113170000D01*
X257117295Y-113170000D02*
X257155390Y-113055714D01*
X257155390Y-113055714D02*
X257231580Y-112979524D01*
X257231580Y-112979524D02*
X257307771Y-112941429D01*
X257307771Y-112941429D02*
X257460152Y-112903333D01*
X257460152Y-112903333D02*
X257574438Y-112903333D01*
X257574438Y-112903333D02*
X257726819Y-112941429D01*
X257726819Y-112941429D02*
X257803009Y-112979524D01*
X257803009Y-112979524D02*
X257879200Y-113055714D01*
X257879200Y-113055714D02*
X257917295Y-113170000D01*
X257917295Y-113170000D02*
X257917295Y-113246191D01*
X257917295Y-113246191D02*
X257879200Y-113360476D01*
X257879200Y-113360476D02*
X257841104Y-113398572D01*
X257841104Y-113398572D02*
X257574438Y-113398572D01*
X257574438Y-113398572D02*
X257574438Y-113246191D01*
X257917295Y-113741429D02*
X257117295Y-113741429D01*
X257117295Y-113741429D02*
X257917295Y-114198572D01*
X257917295Y-114198572D02*
X257117295Y-114198572D01*
X257917295Y-114579524D02*
X257117295Y-114579524D01*
X257117295Y-114579524D02*
X257117295Y-114770000D01*
X257117295Y-114770000D02*
X257155390Y-114884286D01*
X257155390Y-114884286D02*
X257231580Y-114960476D01*
X257231580Y-114960476D02*
X257307771Y-114998571D01*
X257307771Y-114998571D02*
X257460152Y-115036667D01*
X257460152Y-115036667D02*
X257574438Y-115036667D01*
X257574438Y-115036667D02*
X257726819Y-114998571D01*
X257726819Y-114998571D02*
X257803009Y-114960476D01*
X257803009Y-114960476D02*
X257879200Y-114884286D01*
X257879200Y-114884286D02*
X257917295Y-114770000D01*
X257917295Y-114770000D02*
X257917295Y-114579524D01*
X248641428Y-112840390D02*
X248717618Y-112802295D01*
X248717618Y-112802295D02*
X248831904Y-112802295D01*
X248831904Y-112802295D02*
X248946190Y-112840390D01*
X248946190Y-112840390D02*
X249022380Y-112916580D01*
X249022380Y-112916580D02*
X249060475Y-112992771D01*
X249060475Y-112992771D02*
X249098571Y-113145152D01*
X249098571Y-113145152D02*
X249098571Y-113259438D01*
X249098571Y-113259438D02*
X249060475Y-113411819D01*
X249060475Y-113411819D02*
X249022380Y-113488009D01*
X249022380Y-113488009D02*
X248946190Y-113564200D01*
X248946190Y-113564200D02*
X248831904Y-113602295D01*
X248831904Y-113602295D02*
X248755713Y-113602295D01*
X248755713Y-113602295D02*
X248641428Y-113564200D01*
X248641428Y-113564200D02*
X248603332Y-113526104D01*
X248603332Y-113526104D02*
X248603332Y-113259438D01*
X248603332Y-113259438D02*
X248755713Y-113259438D01*
X248260475Y-113602295D02*
X248260475Y-112802295D01*
X248260475Y-112802295D02*
X247955713Y-112802295D01*
X247955713Y-112802295D02*
X247879523Y-112840390D01*
X247879523Y-112840390D02*
X247841428Y-112878485D01*
X247841428Y-112878485D02*
X247803332Y-112954676D01*
X247803332Y-112954676D02*
X247803332Y-113068961D01*
X247803332Y-113068961D02*
X247841428Y-113145152D01*
X247841428Y-113145152D02*
X247879523Y-113183247D01*
X247879523Y-113183247D02*
X247955713Y-113221342D01*
X247955713Y-113221342D02*
X248260475Y-113221342D01*
X247346190Y-113145152D02*
X247422380Y-113107057D01*
X247422380Y-113107057D02*
X247460475Y-113068961D01*
X247460475Y-113068961D02*
X247498571Y-112992771D01*
X247498571Y-112992771D02*
X247498571Y-112954676D01*
X247498571Y-112954676D02*
X247460475Y-112878485D01*
X247460475Y-112878485D02*
X247422380Y-112840390D01*
X247422380Y-112840390D02*
X247346190Y-112802295D01*
X247346190Y-112802295D02*
X247193809Y-112802295D01*
X247193809Y-112802295D02*
X247117618Y-112840390D01*
X247117618Y-112840390D02*
X247079523Y-112878485D01*
X247079523Y-112878485D02*
X247041428Y-112954676D01*
X247041428Y-112954676D02*
X247041428Y-112992771D01*
X247041428Y-112992771D02*
X247079523Y-113068961D01*
X247079523Y-113068961D02*
X247117618Y-113107057D01*
X247117618Y-113107057D02*
X247193809Y-113145152D01*
X247193809Y-113145152D02*
X247346190Y-113145152D01*
X247346190Y-113145152D02*
X247422380Y-113183247D01*
X247422380Y-113183247D02*
X247460475Y-113221342D01*
X247460475Y-113221342D02*
X247498571Y-113297533D01*
X247498571Y-113297533D02*
X247498571Y-113449914D01*
X247498571Y-113449914D02*
X247460475Y-113526104D01*
X247460475Y-113526104D02*
X247422380Y-113564200D01*
X247422380Y-113564200D02*
X247346190Y-113602295D01*
X247346190Y-113602295D02*
X247193809Y-113602295D01*
X247193809Y-113602295D02*
X247117618Y-113564200D01*
X247117618Y-113564200D02*
X247079523Y-113526104D01*
X247079523Y-113526104D02*
X247041428Y-113449914D01*
X247041428Y-113449914D02*
X247041428Y-113297533D01*
X247041428Y-113297533D02*
X247079523Y-113221342D01*
X247079523Y-113221342D02*
X247117618Y-113183247D01*
X247117618Y-113183247D02*
X247193809Y-113145152D01*
X261271428Y-89942295D02*
X261004761Y-90742295D01*
X261004761Y-90742295D02*
X260738095Y-89942295D01*
X260509524Y-90704200D02*
X260395238Y-90742295D01*
X260395238Y-90742295D02*
X260204762Y-90742295D01*
X260204762Y-90742295D02*
X260128571Y-90704200D01*
X260128571Y-90704200D02*
X260090476Y-90666104D01*
X260090476Y-90666104D02*
X260052381Y-90589914D01*
X260052381Y-90589914D02*
X260052381Y-90513723D01*
X260052381Y-90513723D02*
X260090476Y-90437533D01*
X260090476Y-90437533D02*
X260128571Y-90399438D01*
X260128571Y-90399438D02*
X260204762Y-90361342D01*
X260204762Y-90361342D02*
X260357143Y-90323247D01*
X260357143Y-90323247D02*
X260433333Y-90285152D01*
X260433333Y-90285152D02*
X260471428Y-90247057D01*
X260471428Y-90247057D02*
X260509524Y-90170866D01*
X260509524Y-90170866D02*
X260509524Y-90094676D01*
X260509524Y-90094676D02*
X260471428Y-90018485D01*
X260471428Y-90018485D02*
X260433333Y-89980390D01*
X260433333Y-89980390D02*
X260357143Y-89942295D01*
X260357143Y-89942295D02*
X260166666Y-89942295D01*
X260166666Y-89942295D02*
X260052381Y-89980390D01*
X259557142Y-90361342D02*
X259557142Y-90742295D01*
X259823809Y-89942295D02*
X259557142Y-90361342D01*
X259557142Y-90361342D02*
X259290476Y-89942295D01*
X259061905Y-90704200D02*
X258947619Y-90742295D01*
X258947619Y-90742295D02*
X258757143Y-90742295D01*
X258757143Y-90742295D02*
X258680952Y-90704200D01*
X258680952Y-90704200D02*
X258642857Y-90666104D01*
X258642857Y-90666104D02*
X258604762Y-90589914D01*
X258604762Y-90589914D02*
X258604762Y-90513723D01*
X258604762Y-90513723D02*
X258642857Y-90437533D01*
X258642857Y-90437533D02*
X258680952Y-90399438D01*
X258680952Y-90399438D02*
X258757143Y-90361342D01*
X258757143Y-90361342D02*
X258909524Y-90323247D01*
X258909524Y-90323247D02*
X258985714Y-90285152D01*
X258985714Y-90285152D02*
X259023809Y-90247057D01*
X259023809Y-90247057D02*
X259061905Y-90170866D01*
X259061905Y-90170866D02*
X259061905Y-90094676D01*
X259061905Y-90094676D02*
X259023809Y-90018485D01*
X259023809Y-90018485D02*
X258985714Y-89980390D01*
X258985714Y-89980390D02*
X258909524Y-89942295D01*
X258909524Y-89942295D02*
X258719047Y-89942295D01*
X258719047Y-89942295D02*
X258604762Y-89980390D01*
X260609523Y-117920390D02*
X260685713Y-117882295D01*
X260685713Y-117882295D02*
X260799999Y-117882295D01*
X260799999Y-117882295D02*
X260914285Y-117920390D01*
X260914285Y-117920390D02*
X260990475Y-117996580D01*
X260990475Y-117996580D02*
X261028570Y-118072771D01*
X261028570Y-118072771D02*
X261066666Y-118225152D01*
X261066666Y-118225152D02*
X261066666Y-118339438D01*
X261066666Y-118339438D02*
X261028570Y-118491819D01*
X261028570Y-118491819D02*
X260990475Y-118568009D01*
X260990475Y-118568009D02*
X260914285Y-118644200D01*
X260914285Y-118644200D02*
X260799999Y-118682295D01*
X260799999Y-118682295D02*
X260723808Y-118682295D01*
X260723808Y-118682295D02*
X260609523Y-118644200D01*
X260609523Y-118644200D02*
X260571427Y-118606104D01*
X260571427Y-118606104D02*
X260571427Y-118339438D01*
X260571427Y-118339438D02*
X260723808Y-118339438D01*
X260228570Y-118682295D02*
X260228570Y-117882295D01*
X260228570Y-117882295D02*
X259771427Y-118682295D01*
X259771427Y-118682295D02*
X259771427Y-117882295D01*
X259390475Y-118682295D02*
X259390475Y-117882295D01*
X259390475Y-117882295D02*
X259199999Y-117882295D01*
X259199999Y-117882295D02*
X259085713Y-117920390D01*
X259085713Y-117920390D02*
X259009523Y-117996580D01*
X259009523Y-117996580D02*
X258971428Y-118072771D01*
X258971428Y-118072771D02*
X258933332Y-118225152D01*
X258933332Y-118225152D02*
X258933332Y-118339438D01*
X258933332Y-118339438D02*
X258971428Y-118491819D01*
X258971428Y-118491819D02*
X259009523Y-118568009D01*
X259009523Y-118568009D02*
X259085713Y-118644200D01*
X259085713Y-118644200D02*
X259199999Y-118682295D01*
X259199999Y-118682295D02*
X259390475Y-118682295D01*
X248679523Y-105220390D02*
X248755713Y-105182295D01*
X248755713Y-105182295D02*
X248869999Y-105182295D01*
X248869999Y-105182295D02*
X248984285Y-105220390D01*
X248984285Y-105220390D02*
X249060475Y-105296580D01*
X249060475Y-105296580D02*
X249098570Y-105372771D01*
X249098570Y-105372771D02*
X249136666Y-105525152D01*
X249136666Y-105525152D02*
X249136666Y-105639438D01*
X249136666Y-105639438D02*
X249098570Y-105791819D01*
X249098570Y-105791819D02*
X249060475Y-105868009D01*
X249060475Y-105868009D02*
X248984285Y-105944200D01*
X248984285Y-105944200D02*
X248869999Y-105982295D01*
X248869999Y-105982295D02*
X248793808Y-105982295D01*
X248793808Y-105982295D02*
X248679523Y-105944200D01*
X248679523Y-105944200D02*
X248641427Y-105906104D01*
X248641427Y-105906104D02*
X248641427Y-105639438D01*
X248641427Y-105639438D02*
X248793808Y-105639438D01*
X248298570Y-105982295D02*
X248298570Y-105182295D01*
X248298570Y-105182295D02*
X247841427Y-105982295D01*
X247841427Y-105982295D02*
X247841427Y-105182295D01*
X247460475Y-105982295D02*
X247460475Y-105182295D01*
X247460475Y-105182295D02*
X247269999Y-105182295D01*
X247269999Y-105182295D02*
X247155713Y-105220390D01*
X247155713Y-105220390D02*
X247079523Y-105296580D01*
X247079523Y-105296580D02*
X247041428Y-105372771D01*
X247041428Y-105372771D02*
X247003332Y-105525152D01*
X247003332Y-105525152D02*
X247003332Y-105639438D01*
X247003332Y-105639438D02*
X247041428Y-105791819D01*
X247041428Y-105791819D02*
X247079523Y-105868009D01*
X247079523Y-105868009D02*
X247155713Y-105944200D01*
X247155713Y-105944200D02*
X247269999Y-105982295D01*
X247269999Y-105982295D02*
X247460475Y-105982295D01*
X248641428Y-100140390D02*
X248717618Y-100102295D01*
X248717618Y-100102295D02*
X248831904Y-100102295D01*
X248831904Y-100102295D02*
X248946190Y-100140390D01*
X248946190Y-100140390D02*
X249022380Y-100216580D01*
X249022380Y-100216580D02*
X249060475Y-100292771D01*
X249060475Y-100292771D02*
X249098571Y-100445152D01*
X249098571Y-100445152D02*
X249098571Y-100559438D01*
X249098571Y-100559438D02*
X249060475Y-100711819D01*
X249060475Y-100711819D02*
X249022380Y-100788009D01*
X249022380Y-100788009D02*
X248946190Y-100864200D01*
X248946190Y-100864200D02*
X248831904Y-100902295D01*
X248831904Y-100902295D02*
X248755713Y-100902295D01*
X248755713Y-100902295D02*
X248641428Y-100864200D01*
X248641428Y-100864200D02*
X248603332Y-100826104D01*
X248603332Y-100826104D02*
X248603332Y-100559438D01*
X248603332Y-100559438D02*
X248755713Y-100559438D01*
X248260475Y-100902295D02*
X248260475Y-100102295D01*
X248260475Y-100102295D02*
X247955713Y-100102295D01*
X247955713Y-100102295D02*
X247879523Y-100140390D01*
X247879523Y-100140390D02*
X247841428Y-100178485D01*
X247841428Y-100178485D02*
X247803332Y-100254676D01*
X247803332Y-100254676D02*
X247803332Y-100368961D01*
X247803332Y-100368961D02*
X247841428Y-100445152D01*
X247841428Y-100445152D02*
X247879523Y-100483247D01*
X247879523Y-100483247D02*
X247955713Y-100521342D01*
X247955713Y-100521342D02*
X248260475Y-100521342D01*
X247117618Y-100368961D02*
X247117618Y-100902295D01*
X247308094Y-100064200D02*
X247498571Y-100635628D01*
X247498571Y-100635628D02*
X247003332Y-100635628D01*
X248641428Y-102680390D02*
X248717618Y-102642295D01*
X248717618Y-102642295D02*
X248831904Y-102642295D01*
X248831904Y-102642295D02*
X248946190Y-102680390D01*
X248946190Y-102680390D02*
X249022380Y-102756580D01*
X249022380Y-102756580D02*
X249060475Y-102832771D01*
X249060475Y-102832771D02*
X249098571Y-102985152D01*
X249098571Y-102985152D02*
X249098571Y-103099438D01*
X249098571Y-103099438D02*
X249060475Y-103251819D01*
X249060475Y-103251819D02*
X249022380Y-103328009D01*
X249022380Y-103328009D02*
X248946190Y-103404200D01*
X248946190Y-103404200D02*
X248831904Y-103442295D01*
X248831904Y-103442295D02*
X248755713Y-103442295D01*
X248755713Y-103442295D02*
X248641428Y-103404200D01*
X248641428Y-103404200D02*
X248603332Y-103366104D01*
X248603332Y-103366104D02*
X248603332Y-103099438D01*
X248603332Y-103099438D02*
X248755713Y-103099438D01*
X248260475Y-103442295D02*
X248260475Y-102642295D01*
X248260475Y-102642295D02*
X247955713Y-102642295D01*
X247955713Y-102642295D02*
X247879523Y-102680390D01*
X247879523Y-102680390D02*
X247841428Y-102718485D01*
X247841428Y-102718485D02*
X247803332Y-102794676D01*
X247803332Y-102794676D02*
X247803332Y-102908961D01*
X247803332Y-102908961D02*
X247841428Y-102985152D01*
X247841428Y-102985152D02*
X247879523Y-103023247D01*
X247879523Y-103023247D02*
X247955713Y-103061342D01*
X247955713Y-103061342D02*
X248260475Y-103061342D01*
X247079523Y-102642295D02*
X247460475Y-102642295D01*
X247460475Y-102642295D02*
X247498571Y-103023247D01*
X247498571Y-103023247D02*
X247460475Y-102985152D01*
X247460475Y-102985152D02*
X247384285Y-102947057D01*
X247384285Y-102947057D02*
X247193809Y-102947057D01*
X247193809Y-102947057D02*
X247117618Y-102985152D01*
X247117618Y-102985152D02*
X247079523Y-103023247D01*
X247079523Y-103023247D02*
X247041428Y-103099438D01*
X247041428Y-103099438D02*
X247041428Y-103289914D01*
X247041428Y-103289914D02*
X247079523Y-103366104D01*
X247079523Y-103366104D02*
X247117618Y-103404200D01*
X247117618Y-103404200D02*
X247193809Y-103442295D01*
X247193809Y-103442295D02*
X247384285Y-103442295D01*
X247384285Y-103442295D02*
X247460475Y-103404200D01*
X247460475Y-103404200D02*
X247498571Y-103366104D01*
X260602381Y-107770390D02*
X260678571Y-107732295D01*
X260678571Y-107732295D02*
X260792857Y-107732295D01*
X260792857Y-107732295D02*
X260907143Y-107770390D01*
X260907143Y-107770390D02*
X260983333Y-107846580D01*
X260983333Y-107846580D02*
X261021428Y-107922771D01*
X261021428Y-107922771D02*
X261059524Y-108075152D01*
X261059524Y-108075152D02*
X261059524Y-108189438D01*
X261059524Y-108189438D02*
X261021428Y-108341819D01*
X261021428Y-108341819D02*
X260983333Y-108418009D01*
X260983333Y-108418009D02*
X260907143Y-108494200D01*
X260907143Y-108494200D02*
X260792857Y-108532295D01*
X260792857Y-108532295D02*
X260716666Y-108532295D01*
X260716666Y-108532295D02*
X260602381Y-108494200D01*
X260602381Y-108494200D02*
X260564285Y-108456104D01*
X260564285Y-108456104D02*
X260564285Y-108189438D01*
X260564285Y-108189438D02*
X260716666Y-108189438D01*
X260221428Y-108532295D02*
X260221428Y-107732295D01*
X260221428Y-107732295D02*
X259916666Y-107732295D01*
X259916666Y-107732295D02*
X259840476Y-107770390D01*
X259840476Y-107770390D02*
X259802381Y-107808485D01*
X259802381Y-107808485D02*
X259764285Y-107884676D01*
X259764285Y-107884676D02*
X259764285Y-107998961D01*
X259764285Y-107998961D02*
X259802381Y-108075152D01*
X259802381Y-108075152D02*
X259840476Y-108113247D01*
X259840476Y-108113247D02*
X259916666Y-108151342D01*
X259916666Y-108151342D02*
X260221428Y-108151342D01*
X259459524Y-107808485D02*
X259421428Y-107770390D01*
X259421428Y-107770390D02*
X259345238Y-107732295D01*
X259345238Y-107732295D02*
X259154762Y-107732295D01*
X259154762Y-107732295D02*
X259078571Y-107770390D01*
X259078571Y-107770390D02*
X259040476Y-107808485D01*
X259040476Y-107808485D02*
X259002381Y-107884676D01*
X259002381Y-107884676D02*
X259002381Y-107960866D01*
X259002381Y-107960866D02*
X259040476Y-108075152D01*
X259040476Y-108075152D02*
X259497619Y-108532295D01*
X259497619Y-108532295D02*
X259002381Y-108532295D01*
X258735714Y-107732295D02*
X258202380Y-107732295D01*
X258202380Y-107732295D02*
X258545238Y-108532295D01*
X261059523Y-105753723D02*
X260678570Y-105753723D01*
X261135713Y-105982295D02*
X260869046Y-105182295D01*
X260869046Y-105182295D02*
X260602380Y-105982295D01*
X259916666Y-105220390D02*
X259992856Y-105182295D01*
X259992856Y-105182295D02*
X260107142Y-105182295D01*
X260107142Y-105182295D02*
X260221428Y-105220390D01*
X260221428Y-105220390D02*
X260297618Y-105296580D01*
X260297618Y-105296580D02*
X260335713Y-105372771D01*
X260335713Y-105372771D02*
X260373809Y-105525152D01*
X260373809Y-105525152D02*
X260373809Y-105639438D01*
X260373809Y-105639438D02*
X260335713Y-105791819D01*
X260335713Y-105791819D02*
X260297618Y-105868009D01*
X260297618Y-105868009D02*
X260221428Y-105944200D01*
X260221428Y-105944200D02*
X260107142Y-105982295D01*
X260107142Y-105982295D02*
X260030951Y-105982295D01*
X260030951Y-105982295D02*
X259916666Y-105944200D01*
X259916666Y-105944200D02*
X259878570Y-105906104D01*
X259878570Y-105906104D02*
X259878570Y-105639438D01*
X259878570Y-105639438D02*
X260030951Y-105639438D01*
X259535713Y-105982295D02*
X259535713Y-105182295D01*
X259535713Y-105182295D02*
X259078570Y-105982295D01*
X259078570Y-105982295D02*
X259078570Y-105182295D01*
X258697618Y-105982295D02*
X258697618Y-105182295D01*
X258697618Y-105182295D02*
X258507142Y-105182295D01*
X258507142Y-105182295D02*
X258392856Y-105220390D01*
X258392856Y-105220390D02*
X258316666Y-105296580D01*
X258316666Y-105296580D02*
X258278571Y-105372771D01*
X258278571Y-105372771D02*
X258240475Y-105525152D01*
X258240475Y-105525152D02*
X258240475Y-105639438D01*
X258240475Y-105639438D02*
X258278571Y-105791819D01*
X258278571Y-105791819D02*
X258316666Y-105868009D01*
X258316666Y-105868009D02*
X258392856Y-105944200D01*
X258392856Y-105944200D02*
X258507142Y-105982295D01*
X258507142Y-105982295D02*
X258697618Y-105982295D01*
X248641428Y-115380390D02*
X248717618Y-115342295D01*
X248717618Y-115342295D02*
X248831904Y-115342295D01*
X248831904Y-115342295D02*
X248946190Y-115380390D01*
X248946190Y-115380390D02*
X249022380Y-115456580D01*
X249022380Y-115456580D02*
X249060475Y-115532771D01*
X249060475Y-115532771D02*
X249098571Y-115685152D01*
X249098571Y-115685152D02*
X249098571Y-115799438D01*
X249098571Y-115799438D02*
X249060475Y-115951819D01*
X249060475Y-115951819D02*
X249022380Y-116028009D01*
X249022380Y-116028009D02*
X248946190Y-116104200D01*
X248946190Y-116104200D02*
X248831904Y-116142295D01*
X248831904Y-116142295D02*
X248755713Y-116142295D01*
X248755713Y-116142295D02*
X248641428Y-116104200D01*
X248641428Y-116104200D02*
X248603332Y-116066104D01*
X248603332Y-116066104D02*
X248603332Y-115799438D01*
X248603332Y-115799438D02*
X248755713Y-115799438D01*
X248260475Y-116142295D02*
X248260475Y-115342295D01*
X248260475Y-115342295D02*
X247955713Y-115342295D01*
X247955713Y-115342295D02*
X247879523Y-115380390D01*
X247879523Y-115380390D02*
X247841428Y-115418485D01*
X247841428Y-115418485D02*
X247803332Y-115494676D01*
X247803332Y-115494676D02*
X247803332Y-115608961D01*
X247803332Y-115608961D02*
X247841428Y-115685152D01*
X247841428Y-115685152D02*
X247879523Y-115723247D01*
X247879523Y-115723247D02*
X247955713Y-115761342D01*
X247955713Y-115761342D02*
X248260475Y-115761342D01*
X247422380Y-116142295D02*
X247269999Y-116142295D01*
X247269999Y-116142295D02*
X247193809Y-116104200D01*
X247193809Y-116104200D02*
X247155713Y-116066104D01*
X247155713Y-116066104D02*
X247079523Y-115951819D01*
X247079523Y-115951819D02*
X247041428Y-115799438D01*
X247041428Y-115799438D02*
X247041428Y-115494676D01*
X247041428Y-115494676D02*
X247079523Y-115418485D01*
X247079523Y-115418485D02*
X247117618Y-115380390D01*
X247117618Y-115380390D02*
X247193809Y-115342295D01*
X247193809Y-115342295D02*
X247346190Y-115342295D01*
X247346190Y-115342295D02*
X247422380Y-115380390D01*
X247422380Y-115380390D02*
X247460475Y-115418485D01*
X247460475Y-115418485D02*
X247498571Y-115494676D01*
X247498571Y-115494676D02*
X247498571Y-115685152D01*
X247498571Y-115685152D02*
X247460475Y-115761342D01*
X247460475Y-115761342D02*
X247422380Y-115799438D01*
X247422380Y-115799438D02*
X247346190Y-115837533D01*
X247346190Y-115837533D02*
X247193809Y-115837533D01*
X247193809Y-115837533D02*
X247117618Y-115799438D01*
X247117618Y-115799438D02*
X247079523Y-115761342D01*
X247079523Y-115761342D02*
X247041428Y-115685152D01*
X260602381Y-102680390D02*
X260678571Y-102642295D01*
X260678571Y-102642295D02*
X260792857Y-102642295D01*
X260792857Y-102642295D02*
X260907143Y-102680390D01*
X260907143Y-102680390D02*
X260983333Y-102756580D01*
X260983333Y-102756580D02*
X261021428Y-102832771D01*
X261021428Y-102832771D02*
X261059524Y-102985152D01*
X261059524Y-102985152D02*
X261059524Y-103099438D01*
X261059524Y-103099438D02*
X261021428Y-103251819D01*
X261021428Y-103251819D02*
X260983333Y-103328009D01*
X260983333Y-103328009D02*
X260907143Y-103404200D01*
X260907143Y-103404200D02*
X260792857Y-103442295D01*
X260792857Y-103442295D02*
X260716666Y-103442295D01*
X260716666Y-103442295D02*
X260602381Y-103404200D01*
X260602381Y-103404200D02*
X260564285Y-103366104D01*
X260564285Y-103366104D02*
X260564285Y-103099438D01*
X260564285Y-103099438D02*
X260716666Y-103099438D01*
X260221428Y-103442295D02*
X260221428Y-102642295D01*
X260221428Y-102642295D02*
X259916666Y-102642295D01*
X259916666Y-102642295D02*
X259840476Y-102680390D01*
X259840476Y-102680390D02*
X259802381Y-102718485D01*
X259802381Y-102718485D02*
X259764285Y-102794676D01*
X259764285Y-102794676D02*
X259764285Y-102908961D01*
X259764285Y-102908961D02*
X259802381Y-102985152D01*
X259802381Y-102985152D02*
X259840476Y-103023247D01*
X259840476Y-103023247D02*
X259916666Y-103061342D01*
X259916666Y-103061342D02*
X260221428Y-103061342D01*
X259459524Y-102718485D02*
X259421428Y-102680390D01*
X259421428Y-102680390D02*
X259345238Y-102642295D01*
X259345238Y-102642295D02*
X259154762Y-102642295D01*
X259154762Y-102642295D02*
X259078571Y-102680390D01*
X259078571Y-102680390D02*
X259040476Y-102718485D01*
X259040476Y-102718485D02*
X259002381Y-102794676D01*
X259002381Y-102794676D02*
X259002381Y-102870866D01*
X259002381Y-102870866D02*
X259040476Y-102985152D01*
X259040476Y-102985152D02*
X259497619Y-103442295D01*
X259497619Y-103442295D02*
X259002381Y-103442295D01*
X258545238Y-102985152D02*
X258621428Y-102947057D01*
X258621428Y-102947057D02*
X258659523Y-102908961D01*
X258659523Y-102908961D02*
X258697619Y-102832771D01*
X258697619Y-102832771D02*
X258697619Y-102794676D01*
X258697619Y-102794676D02*
X258659523Y-102718485D01*
X258659523Y-102718485D02*
X258621428Y-102680390D01*
X258621428Y-102680390D02*
X258545238Y-102642295D01*
X258545238Y-102642295D02*
X258392857Y-102642295D01*
X258392857Y-102642295D02*
X258316666Y-102680390D01*
X258316666Y-102680390D02*
X258278571Y-102718485D01*
X258278571Y-102718485D02*
X258240476Y-102794676D01*
X258240476Y-102794676D02*
X258240476Y-102832771D01*
X258240476Y-102832771D02*
X258278571Y-102908961D01*
X258278571Y-102908961D02*
X258316666Y-102947057D01*
X258316666Y-102947057D02*
X258392857Y-102985152D01*
X258392857Y-102985152D02*
X258545238Y-102985152D01*
X258545238Y-102985152D02*
X258621428Y-103023247D01*
X258621428Y-103023247D02*
X258659523Y-103061342D01*
X258659523Y-103061342D02*
X258697619Y-103137533D01*
X258697619Y-103137533D02*
X258697619Y-103289914D01*
X258697619Y-103289914D02*
X258659523Y-103366104D01*
X258659523Y-103366104D02*
X258621428Y-103404200D01*
X258621428Y-103404200D02*
X258545238Y-103442295D01*
X258545238Y-103442295D02*
X258392857Y-103442295D01*
X258392857Y-103442295D02*
X258316666Y-103404200D01*
X258316666Y-103404200D02*
X258278571Y-103366104D01*
X258278571Y-103366104D02*
X258240476Y-103289914D01*
X258240476Y-103289914D02*
X258240476Y-103137533D01*
X258240476Y-103137533D02*
X258278571Y-103061342D01*
X258278571Y-103061342D02*
X258316666Y-103023247D01*
X258316666Y-103023247D02*
X258392857Y-102985152D01*
X248641428Y-87440390D02*
X248717618Y-87402295D01*
X248717618Y-87402295D02*
X248831904Y-87402295D01*
X248831904Y-87402295D02*
X248946190Y-87440390D01*
X248946190Y-87440390D02*
X249022380Y-87516580D01*
X249022380Y-87516580D02*
X249060475Y-87592771D01*
X249060475Y-87592771D02*
X249098571Y-87745152D01*
X249098571Y-87745152D02*
X249098571Y-87859438D01*
X249098571Y-87859438D02*
X249060475Y-88011819D01*
X249060475Y-88011819D02*
X249022380Y-88088009D01*
X249022380Y-88088009D02*
X248946190Y-88164200D01*
X248946190Y-88164200D02*
X248831904Y-88202295D01*
X248831904Y-88202295D02*
X248755713Y-88202295D01*
X248755713Y-88202295D02*
X248641428Y-88164200D01*
X248641428Y-88164200D02*
X248603332Y-88126104D01*
X248603332Y-88126104D02*
X248603332Y-87859438D01*
X248603332Y-87859438D02*
X248755713Y-87859438D01*
X248260475Y-88202295D02*
X248260475Y-87402295D01*
X248260475Y-87402295D02*
X247955713Y-87402295D01*
X247955713Y-87402295D02*
X247879523Y-87440390D01*
X247879523Y-87440390D02*
X247841428Y-87478485D01*
X247841428Y-87478485D02*
X247803332Y-87554676D01*
X247803332Y-87554676D02*
X247803332Y-87668961D01*
X247803332Y-87668961D02*
X247841428Y-87745152D01*
X247841428Y-87745152D02*
X247879523Y-87783247D01*
X247879523Y-87783247D02*
X247955713Y-87821342D01*
X247955713Y-87821342D02*
X248260475Y-87821342D01*
X247308094Y-87402295D02*
X247231904Y-87402295D01*
X247231904Y-87402295D02*
X247155713Y-87440390D01*
X247155713Y-87440390D02*
X247117618Y-87478485D01*
X247117618Y-87478485D02*
X247079523Y-87554676D01*
X247079523Y-87554676D02*
X247041428Y-87707057D01*
X247041428Y-87707057D02*
X247041428Y-87897533D01*
X247041428Y-87897533D02*
X247079523Y-88049914D01*
X247079523Y-88049914D02*
X247117618Y-88126104D01*
X247117618Y-88126104D02*
X247155713Y-88164200D01*
X247155713Y-88164200D02*
X247231904Y-88202295D01*
X247231904Y-88202295D02*
X247308094Y-88202295D01*
X247308094Y-88202295D02*
X247384285Y-88164200D01*
X247384285Y-88164200D02*
X247422380Y-88126104D01*
X247422380Y-88126104D02*
X247460475Y-88049914D01*
X247460475Y-88049914D02*
X247498571Y-87897533D01*
X247498571Y-87897533D02*
X247498571Y-87707057D01*
X247498571Y-87707057D02*
X247460475Y-87554676D01*
X247460475Y-87554676D02*
X247422380Y-87478485D01*
X247422380Y-87478485D02*
X247384285Y-87440390D01*
X247384285Y-87440390D02*
X247308094Y-87402295D01*
X255339200Y-111410475D02*
X255377295Y-111524761D01*
X255377295Y-111524761D02*
X255377295Y-111715237D01*
X255377295Y-111715237D02*
X255339200Y-111791428D01*
X255339200Y-111791428D02*
X255301104Y-111829523D01*
X255301104Y-111829523D02*
X255224914Y-111867618D01*
X255224914Y-111867618D02*
X255148723Y-111867618D01*
X255148723Y-111867618D02*
X255072533Y-111829523D01*
X255072533Y-111829523D02*
X255034438Y-111791428D01*
X255034438Y-111791428D02*
X254996342Y-111715237D01*
X254996342Y-111715237D02*
X254958247Y-111562856D01*
X254958247Y-111562856D02*
X254920152Y-111486666D01*
X254920152Y-111486666D02*
X254882057Y-111448571D01*
X254882057Y-111448571D02*
X254805866Y-111410475D01*
X254805866Y-111410475D02*
X254729676Y-111410475D01*
X254729676Y-111410475D02*
X254653485Y-111448571D01*
X254653485Y-111448571D02*
X254615390Y-111486666D01*
X254615390Y-111486666D02*
X254577295Y-111562856D01*
X254577295Y-111562856D02*
X254577295Y-111753333D01*
X254577295Y-111753333D02*
X254615390Y-111867618D01*
X254577295Y-112134285D02*
X255377295Y-112324761D01*
X255377295Y-112324761D02*
X254805866Y-112477142D01*
X254805866Y-112477142D02*
X255377295Y-112629523D01*
X255377295Y-112629523D02*
X254577295Y-112820000D01*
X255301104Y-113581905D02*
X255339200Y-113543809D01*
X255339200Y-113543809D02*
X255377295Y-113429524D01*
X255377295Y-113429524D02*
X255377295Y-113353333D01*
X255377295Y-113353333D02*
X255339200Y-113239047D01*
X255339200Y-113239047D02*
X255263009Y-113162857D01*
X255263009Y-113162857D02*
X255186819Y-113124762D01*
X255186819Y-113124762D02*
X255034438Y-113086666D01*
X255034438Y-113086666D02*
X254920152Y-113086666D01*
X254920152Y-113086666D02*
X254767771Y-113124762D01*
X254767771Y-113124762D02*
X254691580Y-113162857D01*
X254691580Y-113162857D02*
X254615390Y-113239047D01*
X254615390Y-113239047D02*
X254577295Y-113353333D01*
X254577295Y-113353333D02*
X254577295Y-113429524D01*
X254577295Y-113429524D02*
X254615390Y-113543809D01*
X254615390Y-113543809D02*
X254653485Y-113581905D01*
X255377295Y-114305714D02*
X255377295Y-113924762D01*
X255377295Y-113924762D02*
X254577295Y-113924762D01*
X255377295Y-114572381D02*
X254577295Y-114572381D01*
X255377295Y-115029524D02*
X254920152Y-114686666D01*
X254577295Y-115029524D02*
X255034438Y-114572381D01*
X264047381Y-106540390D02*
X264123571Y-106502295D01*
X264123571Y-106502295D02*
X264237857Y-106502295D01*
X264237857Y-106502295D02*
X264352143Y-106540390D01*
X264352143Y-106540390D02*
X264428333Y-106616580D01*
X264428333Y-106616580D02*
X264466428Y-106692771D01*
X264466428Y-106692771D02*
X264504524Y-106845152D01*
X264504524Y-106845152D02*
X264504524Y-106959438D01*
X264504524Y-106959438D02*
X264466428Y-107111819D01*
X264466428Y-107111819D02*
X264428333Y-107188009D01*
X264428333Y-107188009D02*
X264352143Y-107264200D01*
X264352143Y-107264200D02*
X264237857Y-107302295D01*
X264237857Y-107302295D02*
X264161666Y-107302295D01*
X264161666Y-107302295D02*
X264047381Y-107264200D01*
X264047381Y-107264200D02*
X264009285Y-107226104D01*
X264009285Y-107226104D02*
X264009285Y-106959438D01*
X264009285Y-106959438D02*
X264161666Y-106959438D01*
X263666428Y-107302295D02*
X263666428Y-106502295D01*
X263666428Y-106502295D02*
X263361666Y-106502295D01*
X263361666Y-106502295D02*
X263285476Y-106540390D01*
X263285476Y-106540390D02*
X263247381Y-106578485D01*
X263247381Y-106578485D02*
X263209285Y-106654676D01*
X263209285Y-106654676D02*
X263209285Y-106768961D01*
X263209285Y-106768961D02*
X263247381Y-106845152D01*
X263247381Y-106845152D02*
X263285476Y-106883247D01*
X263285476Y-106883247D02*
X263361666Y-106921342D01*
X263361666Y-106921342D02*
X263666428Y-106921342D01*
X262447381Y-107302295D02*
X262904524Y-107302295D01*
X262675952Y-107302295D02*
X262675952Y-106502295D01*
X262675952Y-106502295D02*
X262752143Y-106616580D01*
X262752143Y-106616580D02*
X262828333Y-106692771D01*
X262828333Y-106692771D02*
X262904524Y-106730866D01*
X262066428Y-107302295D02*
X261914047Y-107302295D01*
X261914047Y-107302295D02*
X261837857Y-107264200D01*
X261837857Y-107264200D02*
X261799761Y-107226104D01*
X261799761Y-107226104D02*
X261723571Y-107111819D01*
X261723571Y-107111819D02*
X261685476Y-106959438D01*
X261685476Y-106959438D02*
X261685476Y-106654676D01*
X261685476Y-106654676D02*
X261723571Y-106578485D01*
X261723571Y-106578485D02*
X261761666Y-106540390D01*
X261761666Y-106540390D02*
X261837857Y-106502295D01*
X261837857Y-106502295D02*
X261990238Y-106502295D01*
X261990238Y-106502295D02*
X262066428Y-106540390D01*
X262066428Y-106540390D02*
X262104523Y-106578485D01*
X262104523Y-106578485D02*
X262142619Y-106654676D01*
X262142619Y-106654676D02*
X262142619Y-106845152D01*
X262142619Y-106845152D02*
X262104523Y-106921342D01*
X262104523Y-106921342D02*
X262066428Y-106959438D01*
X262066428Y-106959438D02*
X261990238Y-106997533D01*
X261990238Y-106997533D02*
X261837857Y-106997533D01*
X261837857Y-106997533D02*
X261761666Y-106959438D01*
X261761666Y-106959438D02*
X261723571Y-106921342D01*
X261723571Y-106921342D02*
X261685476Y-106845152D01*
X248679523Y-117920390D02*
X248755713Y-117882295D01*
X248755713Y-117882295D02*
X248869999Y-117882295D01*
X248869999Y-117882295D02*
X248984285Y-117920390D01*
X248984285Y-117920390D02*
X249060475Y-117996580D01*
X249060475Y-117996580D02*
X249098570Y-118072771D01*
X249098570Y-118072771D02*
X249136666Y-118225152D01*
X249136666Y-118225152D02*
X249136666Y-118339438D01*
X249136666Y-118339438D02*
X249098570Y-118491819D01*
X249098570Y-118491819D02*
X249060475Y-118568009D01*
X249060475Y-118568009D02*
X248984285Y-118644200D01*
X248984285Y-118644200D02*
X248869999Y-118682295D01*
X248869999Y-118682295D02*
X248793808Y-118682295D01*
X248793808Y-118682295D02*
X248679523Y-118644200D01*
X248679523Y-118644200D02*
X248641427Y-118606104D01*
X248641427Y-118606104D02*
X248641427Y-118339438D01*
X248641427Y-118339438D02*
X248793808Y-118339438D01*
X248298570Y-118682295D02*
X248298570Y-117882295D01*
X248298570Y-117882295D02*
X247841427Y-118682295D01*
X247841427Y-118682295D02*
X247841427Y-117882295D01*
X247460475Y-118682295D02*
X247460475Y-117882295D01*
X247460475Y-117882295D02*
X247269999Y-117882295D01*
X247269999Y-117882295D02*
X247155713Y-117920390D01*
X247155713Y-117920390D02*
X247079523Y-117996580D01*
X247079523Y-117996580D02*
X247041428Y-118072771D01*
X247041428Y-118072771D02*
X247003332Y-118225152D01*
X247003332Y-118225152D02*
X247003332Y-118339438D01*
X247003332Y-118339438D02*
X247041428Y-118491819D01*
X247041428Y-118491819D02*
X247079523Y-118568009D01*
X247079523Y-118568009D02*
X247155713Y-118644200D01*
X247155713Y-118644200D02*
X247269999Y-118682295D01*
X247269999Y-118682295D02*
X247460475Y-118682295D01*
X248641428Y-89970390D02*
X248717618Y-89932295D01*
X248717618Y-89932295D02*
X248831904Y-89932295D01*
X248831904Y-89932295D02*
X248946190Y-89970390D01*
X248946190Y-89970390D02*
X249022380Y-90046580D01*
X249022380Y-90046580D02*
X249060475Y-90122771D01*
X249060475Y-90122771D02*
X249098571Y-90275152D01*
X249098571Y-90275152D02*
X249098571Y-90389438D01*
X249098571Y-90389438D02*
X249060475Y-90541819D01*
X249060475Y-90541819D02*
X249022380Y-90618009D01*
X249022380Y-90618009D02*
X248946190Y-90694200D01*
X248946190Y-90694200D02*
X248831904Y-90732295D01*
X248831904Y-90732295D02*
X248755713Y-90732295D01*
X248755713Y-90732295D02*
X248641428Y-90694200D01*
X248641428Y-90694200D02*
X248603332Y-90656104D01*
X248603332Y-90656104D02*
X248603332Y-90389438D01*
X248603332Y-90389438D02*
X248755713Y-90389438D01*
X248260475Y-90732295D02*
X248260475Y-89932295D01*
X248260475Y-89932295D02*
X247955713Y-89932295D01*
X247955713Y-89932295D02*
X247879523Y-89970390D01*
X247879523Y-89970390D02*
X247841428Y-90008485D01*
X247841428Y-90008485D02*
X247803332Y-90084676D01*
X247803332Y-90084676D02*
X247803332Y-90198961D01*
X247803332Y-90198961D02*
X247841428Y-90275152D01*
X247841428Y-90275152D02*
X247879523Y-90313247D01*
X247879523Y-90313247D02*
X247955713Y-90351342D01*
X247955713Y-90351342D02*
X248260475Y-90351342D01*
X247041428Y-90732295D02*
X247498571Y-90732295D01*
X247269999Y-90732295D02*
X247269999Y-89932295D01*
X247269999Y-89932295D02*
X247346190Y-90046580D01*
X247346190Y-90046580D02*
X247422380Y-90122771D01*
X247422380Y-90122771D02*
X247498571Y-90160866D01*
X260602381Y-120470390D02*
X260678571Y-120432295D01*
X260678571Y-120432295D02*
X260792857Y-120432295D01*
X260792857Y-120432295D02*
X260907143Y-120470390D01*
X260907143Y-120470390D02*
X260983333Y-120546580D01*
X260983333Y-120546580D02*
X261021428Y-120622771D01*
X261021428Y-120622771D02*
X261059524Y-120775152D01*
X261059524Y-120775152D02*
X261059524Y-120889438D01*
X261059524Y-120889438D02*
X261021428Y-121041819D01*
X261021428Y-121041819D02*
X260983333Y-121118009D01*
X260983333Y-121118009D02*
X260907143Y-121194200D01*
X260907143Y-121194200D02*
X260792857Y-121232295D01*
X260792857Y-121232295D02*
X260716666Y-121232295D01*
X260716666Y-121232295D02*
X260602381Y-121194200D01*
X260602381Y-121194200D02*
X260564285Y-121156104D01*
X260564285Y-121156104D02*
X260564285Y-120889438D01*
X260564285Y-120889438D02*
X260716666Y-120889438D01*
X260221428Y-121232295D02*
X260221428Y-120432295D01*
X260221428Y-120432295D02*
X259916666Y-120432295D01*
X259916666Y-120432295D02*
X259840476Y-120470390D01*
X259840476Y-120470390D02*
X259802381Y-120508485D01*
X259802381Y-120508485D02*
X259764285Y-120584676D01*
X259764285Y-120584676D02*
X259764285Y-120698961D01*
X259764285Y-120698961D02*
X259802381Y-120775152D01*
X259802381Y-120775152D02*
X259840476Y-120813247D01*
X259840476Y-120813247D02*
X259916666Y-120851342D01*
X259916666Y-120851342D02*
X260221428Y-120851342D01*
X259459524Y-120508485D02*
X259421428Y-120470390D01*
X259421428Y-120470390D02*
X259345238Y-120432295D01*
X259345238Y-120432295D02*
X259154762Y-120432295D01*
X259154762Y-120432295D02*
X259078571Y-120470390D01*
X259078571Y-120470390D02*
X259040476Y-120508485D01*
X259040476Y-120508485D02*
X259002381Y-120584676D01*
X259002381Y-120584676D02*
X259002381Y-120660866D01*
X259002381Y-120660866D02*
X259040476Y-120775152D01*
X259040476Y-120775152D02*
X259497619Y-121232295D01*
X259497619Y-121232295D02*
X259002381Y-121232295D01*
X258240476Y-121232295D02*
X258697619Y-121232295D01*
X258469047Y-121232295D02*
X258469047Y-120432295D01*
X258469047Y-120432295D02*
X258545238Y-120546580D01*
X258545238Y-120546580D02*
X258621428Y-120622771D01*
X258621428Y-120622771D02*
X258697619Y-120660866D01*
X260602381Y-115380390D02*
X260678571Y-115342295D01*
X260678571Y-115342295D02*
X260792857Y-115342295D01*
X260792857Y-115342295D02*
X260907143Y-115380390D01*
X260907143Y-115380390D02*
X260983333Y-115456580D01*
X260983333Y-115456580D02*
X261021428Y-115532771D01*
X261021428Y-115532771D02*
X261059524Y-115685152D01*
X261059524Y-115685152D02*
X261059524Y-115799438D01*
X261059524Y-115799438D02*
X261021428Y-115951819D01*
X261021428Y-115951819D02*
X260983333Y-116028009D01*
X260983333Y-116028009D02*
X260907143Y-116104200D01*
X260907143Y-116104200D02*
X260792857Y-116142295D01*
X260792857Y-116142295D02*
X260716666Y-116142295D01*
X260716666Y-116142295D02*
X260602381Y-116104200D01*
X260602381Y-116104200D02*
X260564285Y-116066104D01*
X260564285Y-116066104D02*
X260564285Y-115799438D01*
X260564285Y-115799438D02*
X260716666Y-115799438D01*
X260221428Y-116142295D02*
X260221428Y-115342295D01*
X260221428Y-115342295D02*
X259916666Y-115342295D01*
X259916666Y-115342295D02*
X259840476Y-115380390D01*
X259840476Y-115380390D02*
X259802381Y-115418485D01*
X259802381Y-115418485D02*
X259764285Y-115494676D01*
X259764285Y-115494676D02*
X259764285Y-115608961D01*
X259764285Y-115608961D02*
X259802381Y-115685152D01*
X259802381Y-115685152D02*
X259840476Y-115723247D01*
X259840476Y-115723247D02*
X259916666Y-115761342D01*
X259916666Y-115761342D02*
X260221428Y-115761342D01*
X259459524Y-115418485D02*
X259421428Y-115380390D01*
X259421428Y-115380390D02*
X259345238Y-115342295D01*
X259345238Y-115342295D02*
X259154762Y-115342295D01*
X259154762Y-115342295D02*
X259078571Y-115380390D01*
X259078571Y-115380390D02*
X259040476Y-115418485D01*
X259040476Y-115418485D02*
X259002381Y-115494676D01*
X259002381Y-115494676D02*
X259002381Y-115570866D01*
X259002381Y-115570866D02*
X259040476Y-115685152D01*
X259040476Y-115685152D02*
X259497619Y-116142295D01*
X259497619Y-116142295D02*
X259002381Y-116142295D01*
X258697619Y-115418485D02*
X258659523Y-115380390D01*
X258659523Y-115380390D02*
X258583333Y-115342295D01*
X258583333Y-115342295D02*
X258392857Y-115342295D01*
X258392857Y-115342295D02*
X258316666Y-115380390D01*
X258316666Y-115380390D02*
X258278571Y-115418485D01*
X258278571Y-115418485D02*
X258240476Y-115494676D01*
X258240476Y-115494676D02*
X258240476Y-115570866D01*
X258240476Y-115570866D02*
X258278571Y-115685152D01*
X258278571Y-115685152D02*
X258735714Y-116142295D01*
X258735714Y-116142295D02*
X258240476Y-116142295D01*
X260759523Y-92520390D02*
X260835713Y-92482295D01*
X260835713Y-92482295D02*
X260949999Y-92482295D01*
X260949999Y-92482295D02*
X261064285Y-92520390D01*
X261064285Y-92520390D02*
X261140475Y-92596580D01*
X261140475Y-92596580D02*
X261178570Y-92672771D01*
X261178570Y-92672771D02*
X261216666Y-92825152D01*
X261216666Y-92825152D02*
X261216666Y-92939438D01*
X261216666Y-92939438D02*
X261178570Y-93091819D01*
X261178570Y-93091819D02*
X261140475Y-93168009D01*
X261140475Y-93168009D02*
X261064285Y-93244200D01*
X261064285Y-93244200D02*
X260949999Y-93282295D01*
X260949999Y-93282295D02*
X260873808Y-93282295D01*
X260873808Y-93282295D02*
X260759523Y-93244200D01*
X260759523Y-93244200D02*
X260721427Y-93206104D01*
X260721427Y-93206104D02*
X260721427Y-92939438D01*
X260721427Y-92939438D02*
X260873808Y-92939438D01*
X260378570Y-93282295D02*
X260378570Y-92482295D01*
X260378570Y-92482295D02*
X259921427Y-93282295D01*
X259921427Y-93282295D02*
X259921427Y-92482295D01*
X259540475Y-93282295D02*
X259540475Y-92482295D01*
X259540475Y-92482295D02*
X259349999Y-92482295D01*
X259349999Y-92482295D02*
X259235713Y-92520390D01*
X259235713Y-92520390D02*
X259159523Y-92596580D01*
X259159523Y-92596580D02*
X259121428Y-92672771D01*
X259121428Y-92672771D02*
X259083332Y-92825152D01*
X259083332Y-92825152D02*
X259083332Y-92939438D01*
X259083332Y-92939438D02*
X259121428Y-93091819D01*
X259121428Y-93091819D02*
X259159523Y-93168009D01*
X259159523Y-93168009D02*
X259235713Y-93244200D01*
X259235713Y-93244200D02*
X259349999Y-93282295D01*
X259349999Y-93282295D02*
X259540475Y-93282295D01*
X264054523Y-111620390D02*
X264130713Y-111582295D01*
X264130713Y-111582295D02*
X264244999Y-111582295D01*
X264244999Y-111582295D02*
X264359285Y-111620390D01*
X264359285Y-111620390D02*
X264435475Y-111696580D01*
X264435475Y-111696580D02*
X264473570Y-111772771D01*
X264473570Y-111772771D02*
X264511666Y-111925152D01*
X264511666Y-111925152D02*
X264511666Y-112039438D01*
X264511666Y-112039438D02*
X264473570Y-112191819D01*
X264473570Y-112191819D02*
X264435475Y-112268009D01*
X264435475Y-112268009D02*
X264359285Y-112344200D01*
X264359285Y-112344200D02*
X264244999Y-112382295D01*
X264244999Y-112382295D02*
X264168808Y-112382295D01*
X264168808Y-112382295D02*
X264054523Y-112344200D01*
X264054523Y-112344200D02*
X264016427Y-112306104D01*
X264016427Y-112306104D02*
X264016427Y-112039438D01*
X264016427Y-112039438D02*
X264168808Y-112039438D01*
X263673570Y-112382295D02*
X263673570Y-111582295D01*
X263673570Y-111582295D02*
X263216427Y-112382295D01*
X263216427Y-112382295D02*
X263216427Y-111582295D01*
X262835475Y-112382295D02*
X262835475Y-111582295D01*
X262835475Y-111582295D02*
X262644999Y-111582295D01*
X262644999Y-111582295D02*
X262530713Y-111620390D01*
X262530713Y-111620390D02*
X262454523Y-111696580D01*
X262454523Y-111696580D02*
X262416428Y-111772771D01*
X262416428Y-111772771D02*
X262378332Y-111925152D01*
X262378332Y-111925152D02*
X262378332Y-112039438D01*
X262378332Y-112039438D02*
X262416428Y-112191819D01*
X262416428Y-112191819D02*
X262454523Y-112268009D01*
X262454523Y-112268009D02*
X262530713Y-112344200D01*
X262530713Y-112344200D02*
X262644999Y-112382295D01*
X262644999Y-112382295D02*
X262835475Y-112382295D01*
X252817381Y-109080390D02*
X252893571Y-109042295D01*
X252893571Y-109042295D02*
X253007857Y-109042295D01*
X253007857Y-109042295D02*
X253122143Y-109080390D01*
X253122143Y-109080390D02*
X253198333Y-109156580D01*
X253198333Y-109156580D02*
X253236428Y-109232771D01*
X253236428Y-109232771D02*
X253274524Y-109385152D01*
X253274524Y-109385152D02*
X253274524Y-109499438D01*
X253274524Y-109499438D02*
X253236428Y-109651819D01*
X253236428Y-109651819D02*
X253198333Y-109728009D01*
X253198333Y-109728009D02*
X253122143Y-109804200D01*
X253122143Y-109804200D02*
X253007857Y-109842295D01*
X253007857Y-109842295D02*
X252931666Y-109842295D01*
X252931666Y-109842295D02*
X252817381Y-109804200D01*
X252817381Y-109804200D02*
X252779285Y-109766104D01*
X252779285Y-109766104D02*
X252779285Y-109499438D01*
X252779285Y-109499438D02*
X252931666Y-109499438D01*
X252436428Y-109842295D02*
X252436428Y-109042295D01*
X252436428Y-109042295D02*
X252131666Y-109042295D01*
X252131666Y-109042295D02*
X252055476Y-109080390D01*
X252055476Y-109080390D02*
X252017381Y-109118485D01*
X252017381Y-109118485D02*
X251979285Y-109194676D01*
X251979285Y-109194676D02*
X251979285Y-109308961D01*
X251979285Y-109308961D02*
X252017381Y-109385152D01*
X252017381Y-109385152D02*
X252055476Y-109423247D01*
X252055476Y-109423247D02*
X252131666Y-109461342D01*
X252131666Y-109461342D02*
X252436428Y-109461342D01*
X251217381Y-109842295D02*
X251674524Y-109842295D01*
X251445952Y-109842295D02*
X251445952Y-109042295D01*
X251445952Y-109042295D02*
X251522143Y-109156580D01*
X251522143Y-109156580D02*
X251598333Y-109232771D01*
X251598333Y-109232771D02*
X251674524Y-109270866D01*
X250950714Y-109042295D02*
X250455476Y-109042295D01*
X250455476Y-109042295D02*
X250722142Y-109347057D01*
X250722142Y-109347057D02*
X250607857Y-109347057D01*
X250607857Y-109347057D02*
X250531666Y-109385152D01*
X250531666Y-109385152D02*
X250493571Y-109423247D01*
X250493571Y-109423247D02*
X250455476Y-109499438D01*
X250455476Y-109499438D02*
X250455476Y-109689914D01*
X250455476Y-109689914D02*
X250493571Y-109766104D01*
X250493571Y-109766104D02*
X250531666Y-109804200D01*
X250531666Y-109804200D02*
X250607857Y-109842295D01*
X250607857Y-109842295D02*
X250836428Y-109842295D01*
X250836428Y-109842295D02*
X250912619Y-109804200D01*
X250912619Y-109804200D02*
X250950714Y-109766104D01*
X252817381Y-106540390D02*
X252893571Y-106502295D01*
X252893571Y-106502295D02*
X253007857Y-106502295D01*
X253007857Y-106502295D02*
X253122143Y-106540390D01*
X253122143Y-106540390D02*
X253198333Y-106616580D01*
X253198333Y-106616580D02*
X253236428Y-106692771D01*
X253236428Y-106692771D02*
X253274524Y-106845152D01*
X253274524Y-106845152D02*
X253274524Y-106959438D01*
X253274524Y-106959438D02*
X253236428Y-107111819D01*
X253236428Y-107111819D02*
X253198333Y-107188009D01*
X253198333Y-107188009D02*
X253122143Y-107264200D01*
X253122143Y-107264200D02*
X253007857Y-107302295D01*
X253007857Y-107302295D02*
X252931666Y-107302295D01*
X252931666Y-107302295D02*
X252817381Y-107264200D01*
X252817381Y-107264200D02*
X252779285Y-107226104D01*
X252779285Y-107226104D02*
X252779285Y-106959438D01*
X252779285Y-106959438D02*
X252931666Y-106959438D01*
X252436428Y-107302295D02*
X252436428Y-106502295D01*
X252436428Y-106502295D02*
X252131666Y-106502295D01*
X252131666Y-106502295D02*
X252055476Y-106540390D01*
X252055476Y-106540390D02*
X252017381Y-106578485D01*
X252017381Y-106578485D02*
X251979285Y-106654676D01*
X251979285Y-106654676D02*
X251979285Y-106768961D01*
X251979285Y-106768961D02*
X252017381Y-106845152D01*
X252017381Y-106845152D02*
X252055476Y-106883247D01*
X252055476Y-106883247D02*
X252131666Y-106921342D01*
X252131666Y-106921342D02*
X252436428Y-106921342D01*
X251217381Y-107302295D02*
X251674524Y-107302295D01*
X251445952Y-107302295D02*
X251445952Y-106502295D01*
X251445952Y-106502295D02*
X251522143Y-106616580D01*
X251522143Y-106616580D02*
X251598333Y-106692771D01*
X251598333Y-106692771D02*
X251674524Y-106730866D01*
X250912619Y-106578485D02*
X250874523Y-106540390D01*
X250874523Y-106540390D02*
X250798333Y-106502295D01*
X250798333Y-106502295D02*
X250607857Y-106502295D01*
X250607857Y-106502295D02*
X250531666Y-106540390D01*
X250531666Y-106540390D02*
X250493571Y-106578485D01*
X250493571Y-106578485D02*
X250455476Y-106654676D01*
X250455476Y-106654676D02*
X250455476Y-106730866D01*
X250455476Y-106730866D02*
X250493571Y-106845152D01*
X250493571Y-106845152D02*
X250950714Y-107302295D01*
X250950714Y-107302295D02*
X250455476Y-107302295D01*
X248641428Y-95060390D02*
X248717618Y-95022295D01*
X248717618Y-95022295D02*
X248831904Y-95022295D01*
X248831904Y-95022295D02*
X248946190Y-95060390D01*
X248946190Y-95060390D02*
X249022380Y-95136580D01*
X249022380Y-95136580D02*
X249060475Y-95212771D01*
X249060475Y-95212771D02*
X249098571Y-95365152D01*
X249098571Y-95365152D02*
X249098571Y-95479438D01*
X249098571Y-95479438D02*
X249060475Y-95631819D01*
X249060475Y-95631819D02*
X249022380Y-95708009D01*
X249022380Y-95708009D02*
X248946190Y-95784200D01*
X248946190Y-95784200D02*
X248831904Y-95822295D01*
X248831904Y-95822295D02*
X248755713Y-95822295D01*
X248755713Y-95822295D02*
X248641428Y-95784200D01*
X248641428Y-95784200D02*
X248603332Y-95746104D01*
X248603332Y-95746104D02*
X248603332Y-95479438D01*
X248603332Y-95479438D02*
X248755713Y-95479438D01*
X248260475Y-95822295D02*
X248260475Y-95022295D01*
X248260475Y-95022295D02*
X247955713Y-95022295D01*
X247955713Y-95022295D02*
X247879523Y-95060390D01*
X247879523Y-95060390D02*
X247841428Y-95098485D01*
X247841428Y-95098485D02*
X247803332Y-95174676D01*
X247803332Y-95174676D02*
X247803332Y-95288961D01*
X247803332Y-95288961D02*
X247841428Y-95365152D01*
X247841428Y-95365152D02*
X247879523Y-95403247D01*
X247879523Y-95403247D02*
X247955713Y-95441342D01*
X247955713Y-95441342D02*
X248260475Y-95441342D01*
X247498571Y-95098485D02*
X247460475Y-95060390D01*
X247460475Y-95060390D02*
X247384285Y-95022295D01*
X247384285Y-95022295D02*
X247193809Y-95022295D01*
X247193809Y-95022295D02*
X247117618Y-95060390D01*
X247117618Y-95060390D02*
X247079523Y-95098485D01*
X247079523Y-95098485D02*
X247041428Y-95174676D01*
X247041428Y-95174676D02*
X247041428Y-95250866D01*
X247041428Y-95250866D02*
X247079523Y-95365152D01*
X247079523Y-95365152D02*
X247536666Y-95822295D01*
X247536666Y-95822295D02*
X247041428Y-95822295D01*
X260602381Y-110300390D02*
X260678571Y-110262295D01*
X260678571Y-110262295D02*
X260792857Y-110262295D01*
X260792857Y-110262295D02*
X260907143Y-110300390D01*
X260907143Y-110300390D02*
X260983333Y-110376580D01*
X260983333Y-110376580D02*
X261021428Y-110452771D01*
X261021428Y-110452771D02*
X261059524Y-110605152D01*
X261059524Y-110605152D02*
X261059524Y-110719438D01*
X261059524Y-110719438D02*
X261021428Y-110871819D01*
X261021428Y-110871819D02*
X260983333Y-110948009D01*
X260983333Y-110948009D02*
X260907143Y-111024200D01*
X260907143Y-111024200D02*
X260792857Y-111062295D01*
X260792857Y-111062295D02*
X260716666Y-111062295D01*
X260716666Y-111062295D02*
X260602381Y-111024200D01*
X260602381Y-111024200D02*
X260564285Y-110986104D01*
X260564285Y-110986104D02*
X260564285Y-110719438D01*
X260564285Y-110719438D02*
X260716666Y-110719438D01*
X260221428Y-111062295D02*
X260221428Y-110262295D01*
X260221428Y-110262295D02*
X259916666Y-110262295D01*
X259916666Y-110262295D02*
X259840476Y-110300390D01*
X259840476Y-110300390D02*
X259802381Y-110338485D01*
X259802381Y-110338485D02*
X259764285Y-110414676D01*
X259764285Y-110414676D02*
X259764285Y-110528961D01*
X259764285Y-110528961D02*
X259802381Y-110605152D01*
X259802381Y-110605152D02*
X259840476Y-110643247D01*
X259840476Y-110643247D02*
X259916666Y-110681342D01*
X259916666Y-110681342D02*
X260221428Y-110681342D01*
X259459524Y-110338485D02*
X259421428Y-110300390D01*
X259421428Y-110300390D02*
X259345238Y-110262295D01*
X259345238Y-110262295D02*
X259154762Y-110262295D01*
X259154762Y-110262295D02*
X259078571Y-110300390D01*
X259078571Y-110300390D02*
X259040476Y-110338485D01*
X259040476Y-110338485D02*
X259002381Y-110414676D01*
X259002381Y-110414676D02*
X259002381Y-110490866D01*
X259002381Y-110490866D02*
X259040476Y-110605152D01*
X259040476Y-110605152D02*
X259497619Y-111062295D01*
X259497619Y-111062295D02*
X259002381Y-111062295D01*
X258316666Y-110262295D02*
X258469047Y-110262295D01*
X258469047Y-110262295D02*
X258545238Y-110300390D01*
X258545238Y-110300390D02*
X258583333Y-110338485D01*
X258583333Y-110338485D02*
X258659523Y-110452771D01*
X258659523Y-110452771D02*
X258697619Y-110605152D01*
X258697619Y-110605152D02*
X258697619Y-110909914D01*
X258697619Y-110909914D02*
X258659523Y-110986104D01*
X258659523Y-110986104D02*
X258621428Y-111024200D01*
X258621428Y-111024200D02*
X258545238Y-111062295D01*
X258545238Y-111062295D02*
X258392857Y-111062295D01*
X258392857Y-111062295D02*
X258316666Y-111024200D01*
X258316666Y-111024200D02*
X258278571Y-110986104D01*
X258278571Y-110986104D02*
X258240476Y-110909914D01*
X258240476Y-110909914D02*
X258240476Y-110719438D01*
X258240476Y-110719438D02*
X258278571Y-110643247D01*
X258278571Y-110643247D02*
X258316666Y-110605152D01*
X258316666Y-110605152D02*
X258392857Y-110567057D01*
X258392857Y-110567057D02*
X258545238Y-110567057D01*
X258545238Y-110567057D02*
X258621428Y-110605152D01*
X258621428Y-110605152D02*
X258659523Y-110643247D01*
X258659523Y-110643247D02*
X258697619Y-110719438D01*
X261366666Y-87402295D02*
X261099999Y-88202295D01*
X261099999Y-88202295D02*
X260833333Y-87402295D01*
X260300000Y-87783247D02*
X260185714Y-87821342D01*
X260185714Y-87821342D02*
X260147619Y-87859438D01*
X260147619Y-87859438D02*
X260109523Y-87935628D01*
X260109523Y-87935628D02*
X260109523Y-88049914D01*
X260109523Y-88049914D02*
X260147619Y-88126104D01*
X260147619Y-88126104D02*
X260185714Y-88164200D01*
X260185714Y-88164200D02*
X260261904Y-88202295D01*
X260261904Y-88202295D02*
X260566666Y-88202295D01*
X260566666Y-88202295D02*
X260566666Y-87402295D01*
X260566666Y-87402295D02*
X260300000Y-87402295D01*
X260300000Y-87402295D02*
X260223809Y-87440390D01*
X260223809Y-87440390D02*
X260185714Y-87478485D01*
X260185714Y-87478485D02*
X260147619Y-87554676D01*
X260147619Y-87554676D02*
X260147619Y-87630866D01*
X260147619Y-87630866D02*
X260185714Y-87707057D01*
X260185714Y-87707057D02*
X260223809Y-87745152D01*
X260223809Y-87745152D02*
X260300000Y-87783247D01*
X260300000Y-87783247D02*
X260566666Y-87783247D01*
X259766666Y-87402295D02*
X259766666Y-88049914D01*
X259766666Y-88049914D02*
X259728571Y-88126104D01*
X259728571Y-88126104D02*
X259690476Y-88164200D01*
X259690476Y-88164200D02*
X259614285Y-88202295D01*
X259614285Y-88202295D02*
X259461904Y-88202295D01*
X259461904Y-88202295D02*
X259385714Y-88164200D01*
X259385714Y-88164200D02*
X259347619Y-88126104D01*
X259347619Y-88126104D02*
X259309523Y-88049914D01*
X259309523Y-88049914D02*
X259309523Y-87402295D01*
X258966667Y-88164200D02*
X258852381Y-88202295D01*
X258852381Y-88202295D02*
X258661905Y-88202295D01*
X258661905Y-88202295D02*
X258585714Y-88164200D01*
X258585714Y-88164200D02*
X258547619Y-88126104D01*
X258547619Y-88126104D02*
X258509524Y-88049914D01*
X258509524Y-88049914D02*
X258509524Y-87973723D01*
X258509524Y-87973723D02*
X258547619Y-87897533D01*
X258547619Y-87897533D02*
X258585714Y-87859438D01*
X258585714Y-87859438D02*
X258661905Y-87821342D01*
X258661905Y-87821342D02*
X258814286Y-87783247D01*
X258814286Y-87783247D02*
X258890476Y-87745152D01*
X258890476Y-87745152D02*
X258928571Y-87707057D01*
X258928571Y-87707057D02*
X258966667Y-87630866D01*
X258966667Y-87630866D02*
X258966667Y-87554676D01*
X258966667Y-87554676D02*
X258928571Y-87478485D01*
X258928571Y-87478485D02*
X258890476Y-87440390D01*
X258890476Y-87440390D02*
X258814286Y-87402295D01*
X258814286Y-87402295D02*
X258623809Y-87402295D01*
X258623809Y-87402295D02*
X258509524Y-87440390D01*
X252817381Y-114160390D02*
X252893571Y-114122295D01*
X252893571Y-114122295D02*
X253007857Y-114122295D01*
X253007857Y-114122295D02*
X253122143Y-114160390D01*
X253122143Y-114160390D02*
X253198333Y-114236580D01*
X253198333Y-114236580D02*
X253236428Y-114312771D01*
X253236428Y-114312771D02*
X253274524Y-114465152D01*
X253274524Y-114465152D02*
X253274524Y-114579438D01*
X253274524Y-114579438D02*
X253236428Y-114731819D01*
X253236428Y-114731819D02*
X253198333Y-114808009D01*
X253198333Y-114808009D02*
X253122143Y-114884200D01*
X253122143Y-114884200D02*
X253007857Y-114922295D01*
X253007857Y-114922295D02*
X252931666Y-114922295D01*
X252931666Y-114922295D02*
X252817381Y-114884200D01*
X252817381Y-114884200D02*
X252779285Y-114846104D01*
X252779285Y-114846104D02*
X252779285Y-114579438D01*
X252779285Y-114579438D02*
X252931666Y-114579438D01*
X252436428Y-114922295D02*
X252436428Y-114122295D01*
X252436428Y-114122295D02*
X252131666Y-114122295D01*
X252131666Y-114122295D02*
X252055476Y-114160390D01*
X252055476Y-114160390D02*
X252017381Y-114198485D01*
X252017381Y-114198485D02*
X251979285Y-114274676D01*
X251979285Y-114274676D02*
X251979285Y-114388961D01*
X251979285Y-114388961D02*
X252017381Y-114465152D01*
X252017381Y-114465152D02*
X252055476Y-114503247D01*
X252055476Y-114503247D02*
X252131666Y-114541342D01*
X252131666Y-114541342D02*
X252436428Y-114541342D01*
X251217381Y-114922295D02*
X251674524Y-114922295D01*
X251445952Y-114922295D02*
X251445952Y-114122295D01*
X251445952Y-114122295D02*
X251522143Y-114236580D01*
X251522143Y-114236580D02*
X251598333Y-114312771D01*
X251598333Y-114312771D02*
X251674524Y-114350866D01*
X250531666Y-114388961D02*
X250531666Y-114922295D01*
X250722142Y-114084200D02*
X250912619Y-114655628D01*
X250912619Y-114655628D02*
X250417380Y-114655628D01*
X260419200Y-111524761D02*
X260457295Y-111639047D01*
X260457295Y-111639047D02*
X260457295Y-111829523D01*
X260457295Y-111829523D02*
X260419200Y-111905714D01*
X260419200Y-111905714D02*
X260381104Y-111943809D01*
X260381104Y-111943809D02*
X260304914Y-111981904D01*
X260304914Y-111981904D02*
X260228723Y-111981904D01*
X260228723Y-111981904D02*
X260152533Y-111943809D01*
X260152533Y-111943809D02*
X260114438Y-111905714D01*
X260114438Y-111905714D02*
X260076342Y-111829523D01*
X260076342Y-111829523D02*
X260038247Y-111677142D01*
X260038247Y-111677142D02*
X260000152Y-111600952D01*
X260000152Y-111600952D02*
X259962057Y-111562857D01*
X259962057Y-111562857D02*
X259885866Y-111524761D01*
X259885866Y-111524761D02*
X259809676Y-111524761D01*
X259809676Y-111524761D02*
X259733485Y-111562857D01*
X259733485Y-111562857D02*
X259695390Y-111600952D01*
X259695390Y-111600952D02*
X259657295Y-111677142D01*
X259657295Y-111677142D02*
X259657295Y-111867619D01*
X259657295Y-111867619D02*
X259695390Y-111981904D01*
X259657295Y-112248571D02*
X260457295Y-112439047D01*
X260457295Y-112439047D02*
X259885866Y-112591428D01*
X259885866Y-112591428D02*
X260457295Y-112743809D01*
X260457295Y-112743809D02*
X259657295Y-112934286D01*
X260457295Y-113239048D02*
X259657295Y-113239048D01*
X259657295Y-113239048D02*
X259657295Y-113429524D01*
X259657295Y-113429524D02*
X259695390Y-113543810D01*
X259695390Y-113543810D02*
X259771580Y-113620000D01*
X259771580Y-113620000D02*
X259847771Y-113658095D01*
X259847771Y-113658095D02*
X260000152Y-113696191D01*
X260000152Y-113696191D02*
X260114438Y-113696191D01*
X260114438Y-113696191D02*
X260266819Y-113658095D01*
X260266819Y-113658095D02*
X260343009Y-113620000D01*
X260343009Y-113620000D02*
X260419200Y-113543810D01*
X260419200Y-113543810D02*
X260457295Y-113429524D01*
X260457295Y-113429524D02*
X260457295Y-113239048D01*
X260457295Y-114039048D02*
X259657295Y-114039048D01*
X259657295Y-114572381D02*
X259657295Y-114724762D01*
X259657295Y-114724762D02*
X259695390Y-114800952D01*
X259695390Y-114800952D02*
X259771580Y-114877143D01*
X259771580Y-114877143D02*
X259923961Y-114915238D01*
X259923961Y-114915238D02*
X260190628Y-114915238D01*
X260190628Y-114915238D02*
X260343009Y-114877143D01*
X260343009Y-114877143D02*
X260419200Y-114800952D01*
X260419200Y-114800952D02*
X260457295Y-114724762D01*
X260457295Y-114724762D02*
X260457295Y-114572381D01*
X260457295Y-114572381D02*
X260419200Y-114496190D01*
X260419200Y-114496190D02*
X260343009Y-114420000D01*
X260343009Y-114420000D02*
X260190628Y-114381904D01*
X260190628Y-114381904D02*
X259923961Y-114381904D01*
X259923961Y-114381904D02*
X259771580Y-114420000D01*
X259771580Y-114420000D02*
X259695390Y-114496190D01*
X259695390Y-114496190D02*
X259657295Y-114572381D01*
X248679523Y-92520390D02*
X248755713Y-92482295D01*
X248755713Y-92482295D02*
X248869999Y-92482295D01*
X248869999Y-92482295D02*
X248984285Y-92520390D01*
X248984285Y-92520390D02*
X249060475Y-92596580D01*
X249060475Y-92596580D02*
X249098570Y-92672771D01*
X249098570Y-92672771D02*
X249136666Y-92825152D01*
X249136666Y-92825152D02*
X249136666Y-92939438D01*
X249136666Y-92939438D02*
X249098570Y-93091819D01*
X249098570Y-93091819D02*
X249060475Y-93168009D01*
X249060475Y-93168009D02*
X248984285Y-93244200D01*
X248984285Y-93244200D02*
X248869999Y-93282295D01*
X248869999Y-93282295D02*
X248793808Y-93282295D01*
X248793808Y-93282295D02*
X248679523Y-93244200D01*
X248679523Y-93244200D02*
X248641427Y-93206104D01*
X248641427Y-93206104D02*
X248641427Y-92939438D01*
X248641427Y-92939438D02*
X248793808Y-92939438D01*
X248298570Y-93282295D02*
X248298570Y-92482295D01*
X248298570Y-92482295D02*
X247841427Y-93282295D01*
X247841427Y-93282295D02*
X247841427Y-92482295D01*
X247460475Y-93282295D02*
X247460475Y-92482295D01*
X247460475Y-92482295D02*
X247269999Y-92482295D01*
X247269999Y-92482295D02*
X247155713Y-92520390D01*
X247155713Y-92520390D02*
X247079523Y-92596580D01*
X247079523Y-92596580D02*
X247041428Y-92672771D01*
X247041428Y-92672771D02*
X247003332Y-92825152D01*
X247003332Y-92825152D02*
X247003332Y-92939438D01*
X247003332Y-92939438D02*
X247041428Y-93091819D01*
X247041428Y-93091819D02*
X247079523Y-93168009D01*
X247079523Y-93168009D02*
X247155713Y-93244200D01*
X247155713Y-93244200D02*
X247269999Y-93282295D01*
X247269999Y-93282295D02*
X247460475Y-93282295D01*
X248641428Y-107760390D02*
X248717618Y-107722295D01*
X248717618Y-107722295D02*
X248831904Y-107722295D01*
X248831904Y-107722295D02*
X248946190Y-107760390D01*
X248946190Y-107760390D02*
X249022380Y-107836580D01*
X249022380Y-107836580D02*
X249060475Y-107912771D01*
X249060475Y-107912771D02*
X249098571Y-108065152D01*
X249098571Y-108065152D02*
X249098571Y-108179438D01*
X249098571Y-108179438D02*
X249060475Y-108331819D01*
X249060475Y-108331819D02*
X249022380Y-108408009D01*
X249022380Y-108408009D02*
X248946190Y-108484200D01*
X248946190Y-108484200D02*
X248831904Y-108522295D01*
X248831904Y-108522295D02*
X248755713Y-108522295D01*
X248755713Y-108522295D02*
X248641428Y-108484200D01*
X248641428Y-108484200D02*
X248603332Y-108446104D01*
X248603332Y-108446104D02*
X248603332Y-108179438D01*
X248603332Y-108179438D02*
X248755713Y-108179438D01*
X248260475Y-108522295D02*
X248260475Y-107722295D01*
X248260475Y-107722295D02*
X247955713Y-107722295D01*
X247955713Y-107722295D02*
X247879523Y-107760390D01*
X247879523Y-107760390D02*
X247841428Y-107798485D01*
X247841428Y-107798485D02*
X247803332Y-107874676D01*
X247803332Y-107874676D02*
X247803332Y-107988961D01*
X247803332Y-107988961D02*
X247841428Y-108065152D01*
X247841428Y-108065152D02*
X247879523Y-108103247D01*
X247879523Y-108103247D02*
X247955713Y-108141342D01*
X247955713Y-108141342D02*
X248260475Y-108141342D01*
X247117618Y-107722295D02*
X247269999Y-107722295D01*
X247269999Y-107722295D02*
X247346190Y-107760390D01*
X247346190Y-107760390D02*
X247384285Y-107798485D01*
X247384285Y-107798485D02*
X247460475Y-107912771D01*
X247460475Y-107912771D02*
X247498571Y-108065152D01*
X247498571Y-108065152D02*
X247498571Y-108369914D01*
X247498571Y-108369914D02*
X247460475Y-108446104D01*
X247460475Y-108446104D02*
X247422380Y-108484200D01*
X247422380Y-108484200D02*
X247346190Y-108522295D01*
X247346190Y-108522295D02*
X247193809Y-108522295D01*
X247193809Y-108522295D02*
X247117618Y-108484200D01*
X247117618Y-108484200D02*
X247079523Y-108446104D01*
X247079523Y-108446104D02*
X247041428Y-108369914D01*
X247041428Y-108369914D02*
X247041428Y-108179438D01*
X247041428Y-108179438D02*
X247079523Y-108103247D01*
X247079523Y-108103247D02*
X247117618Y-108065152D01*
X247117618Y-108065152D02*
X247193809Y-108027057D01*
X247193809Y-108027057D02*
X247346190Y-108027057D01*
X247346190Y-108027057D02*
X247422380Y-108065152D01*
X247422380Y-108065152D02*
X247460475Y-108103247D01*
X247460475Y-108103247D02*
X247498571Y-108179438D01*
X264047381Y-104000390D02*
X264123571Y-103962295D01*
X264123571Y-103962295D02*
X264237857Y-103962295D01*
X264237857Y-103962295D02*
X264352143Y-104000390D01*
X264352143Y-104000390D02*
X264428333Y-104076580D01*
X264428333Y-104076580D02*
X264466428Y-104152771D01*
X264466428Y-104152771D02*
X264504524Y-104305152D01*
X264504524Y-104305152D02*
X264504524Y-104419438D01*
X264504524Y-104419438D02*
X264466428Y-104571819D01*
X264466428Y-104571819D02*
X264428333Y-104648009D01*
X264428333Y-104648009D02*
X264352143Y-104724200D01*
X264352143Y-104724200D02*
X264237857Y-104762295D01*
X264237857Y-104762295D02*
X264161666Y-104762295D01*
X264161666Y-104762295D02*
X264047381Y-104724200D01*
X264047381Y-104724200D02*
X264009285Y-104686104D01*
X264009285Y-104686104D02*
X264009285Y-104419438D01*
X264009285Y-104419438D02*
X264161666Y-104419438D01*
X263666428Y-104762295D02*
X263666428Y-103962295D01*
X263666428Y-103962295D02*
X263361666Y-103962295D01*
X263361666Y-103962295D02*
X263285476Y-104000390D01*
X263285476Y-104000390D02*
X263247381Y-104038485D01*
X263247381Y-104038485D02*
X263209285Y-104114676D01*
X263209285Y-104114676D02*
X263209285Y-104228961D01*
X263209285Y-104228961D02*
X263247381Y-104305152D01*
X263247381Y-104305152D02*
X263285476Y-104343247D01*
X263285476Y-104343247D02*
X263361666Y-104381342D01*
X263361666Y-104381342D02*
X263666428Y-104381342D01*
X262904524Y-104038485D02*
X262866428Y-104000390D01*
X262866428Y-104000390D02*
X262790238Y-103962295D01*
X262790238Y-103962295D02*
X262599762Y-103962295D01*
X262599762Y-103962295D02*
X262523571Y-104000390D01*
X262523571Y-104000390D02*
X262485476Y-104038485D01*
X262485476Y-104038485D02*
X262447381Y-104114676D01*
X262447381Y-104114676D02*
X262447381Y-104190866D01*
X262447381Y-104190866D02*
X262485476Y-104305152D01*
X262485476Y-104305152D02*
X262942619Y-104762295D01*
X262942619Y-104762295D02*
X262447381Y-104762295D01*
X261952142Y-103962295D02*
X261875952Y-103962295D01*
X261875952Y-103962295D02*
X261799761Y-104000390D01*
X261799761Y-104000390D02*
X261761666Y-104038485D01*
X261761666Y-104038485D02*
X261723571Y-104114676D01*
X261723571Y-104114676D02*
X261685476Y-104267057D01*
X261685476Y-104267057D02*
X261685476Y-104457533D01*
X261685476Y-104457533D02*
X261723571Y-104609914D01*
X261723571Y-104609914D02*
X261761666Y-104686104D01*
X261761666Y-104686104D02*
X261799761Y-104724200D01*
X261799761Y-104724200D02*
X261875952Y-104762295D01*
X261875952Y-104762295D02*
X261952142Y-104762295D01*
X261952142Y-104762295D02*
X262028333Y-104724200D01*
X262028333Y-104724200D02*
X262066428Y-104686104D01*
X262066428Y-104686104D02*
X262104523Y-104609914D01*
X262104523Y-104609914D02*
X262142619Y-104457533D01*
X262142619Y-104457533D02*
X262142619Y-104267057D01*
X262142619Y-104267057D02*
X262104523Y-104114676D01*
X262104523Y-104114676D02*
X262066428Y-104038485D01*
X262066428Y-104038485D02*
X262028333Y-104000390D01*
X262028333Y-104000390D02*
X261952142Y-103962295D01*
X264047381Y-116700390D02*
X264123571Y-116662295D01*
X264123571Y-116662295D02*
X264237857Y-116662295D01*
X264237857Y-116662295D02*
X264352143Y-116700390D01*
X264352143Y-116700390D02*
X264428333Y-116776580D01*
X264428333Y-116776580D02*
X264466428Y-116852771D01*
X264466428Y-116852771D02*
X264504524Y-117005152D01*
X264504524Y-117005152D02*
X264504524Y-117119438D01*
X264504524Y-117119438D02*
X264466428Y-117271819D01*
X264466428Y-117271819D02*
X264428333Y-117348009D01*
X264428333Y-117348009D02*
X264352143Y-117424200D01*
X264352143Y-117424200D02*
X264237857Y-117462295D01*
X264237857Y-117462295D02*
X264161666Y-117462295D01*
X264161666Y-117462295D02*
X264047381Y-117424200D01*
X264047381Y-117424200D02*
X264009285Y-117386104D01*
X264009285Y-117386104D02*
X264009285Y-117119438D01*
X264009285Y-117119438D02*
X264161666Y-117119438D01*
X263666428Y-117462295D02*
X263666428Y-116662295D01*
X263666428Y-116662295D02*
X263361666Y-116662295D01*
X263361666Y-116662295D02*
X263285476Y-116700390D01*
X263285476Y-116700390D02*
X263247381Y-116738485D01*
X263247381Y-116738485D02*
X263209285Y-116814676D01*
X263209285Y-116814676D02*
X263209285Y-116928961D01*
X263209285Y-116928961D02*
X263247381Y-117005152D01*
X263247381Y-117005152D02*
X263285476Y-117043247D01*
X263285476Y-117043247D02*
X263361666Y-117081342D01*
X263361666Y-117081342D02*
X263666428Y-117081342D01*
X262447381Y-117462295D02*
X262904524Y-117462295D01*
X262675952Y-117462295D02*
X262675952Y-116662295D01*
X262675952Y-116662295D02*
X262752143Y-116776580D01*
X262752143Y-116776580D02*
X262828333Y-116852771D01*
X262828333Y-116852771D02*
X262904524Y-116890866D01*
X261761666Y-116662295D02*
X261914047Y-116662295D01*
X261914047Y-116662295D02*
X261990238Y-116700390D01*
X261990238Y-116700390D02*
X262028333Y-116738485D01*
X262028333Y-116738485D02*
X262104523Y-116852771D01*
X262104523Y-116852771D02*
X262142619Y-117005152D01*
X262142619Y-117005152D02*
X262142619Y-117309914D01*
X262142619Y-117309914D02*
X262104523Y-117386104D01*
X262104523Y-117386104D02*
X262066428Y-117424200D01*
X262066428Y-117424200D02*
X261990238Y-117462295D01*
X261990238Y-117462295D02*
X261837857Y-117462295D01*
X261837857Y-117462295D02*
X261761666Y-117424200D01*
X261761666Y-117424200D02*
X261723571Y-117386104D01*
X261723571Y-117386104D02*
X261685476Y-117309914D01*
X261685476Y-117309914D02*
X261685476Y-117119438D01*
X261685476Y-117119438D02*
X261723571Y-117043247D01*
X261723571Y-117043247D02*
X261761666Y-117005152D01*
X261761666Y-117005152D02*
X261837857Y-116967057D01*
X261837857Y-116967057D02*
X261990238Y-116967057D01*
X261990238Y-116967057D02*
X262066428Y-117005152D01*
X262066428Y-117005152D02*
X262104523Y-117043247D01*
X262104523Y-117043247D02*
X262142619Y-117119438D01*
X248641428Y-110270390D02*
X248717618Y-110232295D01*
X248717618Y-110232295D02*
X248831904Y-110232295D01*
X248831904Y-110232295D02*
X248946190Y-110270390D01*
X248946190Y-110270390D02*
X249022380Y-110346580D01*
X249022380Y-110346580D02*
X249060475Y-110422771D01*
X249060475Y-110422771D02*
X249098571Y-110575152D01*
X249098571Y-110575152D02*
X249098571Y-110689438D01*
X249098571Y-110689438D02*
X249060475Y-110841819D01*
X249060475Y-110841819D02*
X249022380Y-110918009D01*
X249022380Y-110918009D02*
X248946190Y-110994200D01*
X248946190Y-110994200D02*
X248831904Y-111032295D01*
X248831904Y-111032295D02*
X248755713Y-111032295D01*
X248755713Y-111032295D02*
X248641428Y-110994200D01*
X248641428Y-110994200D02*
X248603332Y-110956104D01*
X248603332Y-110956104D02*
X248603332Y-110689438D01*
X248603332Y-110689438D02*
X248755713Y-110689438D01*
X248260475Y-111032295D02*
X248260475Y-110232295D01*
X248260475Y-110232295D02*
X247955713Y-110232295D01*
X247955713Y-110232295D02*
X247879523Y-110270390D01*
X247879523Y-110270390D02*
X247841428Y-110308485D01*
X247841428Y-110308485D02*
X247803332Y-110384676D01*
X247803332Y-110384676D02*
X247803332Y-110498961D01*
X247803332Y-110498961D02*
X247841428Y-110575152D01*
X247841428Y-110575152D02*
X247879523Y-110613247D01*
X247879523Y-110613247D02*
X247955713Y-110651342D01*
X247955713Y-110651342D02*
X248260475Y-110651342D01*
X247536666Y-110232295D02*
X247003332Y-110232295D01*
X247003332Y-110232295D02*
X247346190Y-111032295D01*
X264047381Y-109080390D02*
X264123571Y-109042295D01*
X264123571Y-109042295D02*
X264237857Y-109042295D01*
X264237857Y-109042295D02*
X264352143Y-109080390D01*
X264352143Y-109080390D02*
X264428333Y-109156580D01*
X264428333Y-109156580D02*
X264466428Y-109232771D01*
X264466428Y-109232771D02*
X264504524Y-109385152D01*
X264504524Y-109385152D02*
X264504524Y-109499438D01*
X264504524Y-109499438D02*
X264466428Y-109651819D01*
X264466428Y-109651819D02*
X264428333Y-109728009D01*
X264428333Y-109728009D02*
X264352143Y-109804200D01*
X264352143Y-109804200D02*
X264237857Y-109842295D01*
X264237857Y-109842295D02*
X264161666Y-109842295D01*
X264161666Y-109842295D02*
X264047381Y-109804200D01*
X264047381Y-109804200D02*
X264009285Y-109766104D01*
X264009285Y-109766104D02*
X264009285Y-109499438D01*
X264009285Y-109499438D02*
X264161666Y-109499438D01*
X263666428Y-109842295D02*
X263666428Y-109042295D01*
X263666428Y-109042295D02*
X263361666Y-109042295D01*
X263361666Y-109042295D02*
X263285476Y-109080390D01*
X263285476Y-109080390D02*
X263247381Y-109118485D01*
X263247381Y-109118485D02*
X263209285Y-109194676D01*
X263209285Y-109194676D02*
X263209285Y-109308961D01*
X263209285Y-109308961D02*
X263247381Y-109385152D01*
X263247381Y-109385152D02*
X263285476Y-109423247D01*
X263285476Y-109423247D02*
X263361666Y-109461342D01*
X263361666Y-109461342D02*
X263666428Y-109461342D01*
X262447381Y-109842295D02*
X262904524Y-109842295D01*
X262675952Y-109842295D02*
X262675952Y-109042295D01*
X262675952Y-109042295D02*
X262752143Y-109156580D01*
X262752143Y-109156580D02*
X262828333Y-109232771D01*
X262828333Y-109232771D02*
X262904524Y-109270866D01*
X261990238Y-109385152D02*
X262066428Y-109347057D01*
X262066428Y-109347057D02*
X262104523Y-109308961D01*
X262104523Y-109308961D02*
X262142619Y-109232771D01*
X262142619Y-109232771D02*
X262142619Y-109194676D01*
X262142619Y-109194676D02*
X262104523Y-109118485D01*
X262104523Y-109118485D02*
X262066428Y-109080390D01*
X262066428Y-109080390D02*
X261990238Y-109042295D01*
X261990238Y-109042295D02*
X261837857Y-109042295D01*
X261837857Y-109042295D02*
X261761666Y-109080390D01*
X261761666Y-109080390D02*
X261723571Y-109118485D01*
X261723571Y-109118485D02*
X261685476Y-109194676D01*
X261685476Y-109194676D02*
X261685476Y-109232771D01*
X261685476Y-109232771D02*
X261723571Y-109308961D01*
X261723571Y-109308961D02*
X261761666Y-109347057D01*
X261761666Y-109347057D02*
X261837857Y-109385152D01*
X261837857Y-109385152D02*
X261990238Y-109385152D01*
X261990238Y-109385152D02*
X262066428Y-109423247D01*
X262066428Y-109423247D02*
X262104523Y-109461342D01*
X262104523Y-109461342D02*
X262142619Y-109537533D01*
X262142619Y-109537533D02*
X262142619Y-109689914D01*
X262142619Y-109689914D02*
X262104523Y-109766104D01*
X262104523Y-109766104D02*
X262066428Y-109804200D01*
X262066428Y-109804200D02*
X261990238Y-109842295D01*
X261990238Y-109842295D02*
X261837857Y-109842295D01*
X261837857Y-109842295D02*
X261761666Y-109804200D01*
X261761666Y-109804200D02*
X261723571Y-109766104D01*
X261723571Y-109766104D02*
X261685476Y-109689914D01*
X261685476Y-109689914D02*
X261685476Y-109537533D01*
X261685476Y-109537533D02*
X261723571Y-109461342D01*
X261723571Y-109461342D02*
X261761666Y-109423247D01*
X261761666Y-109423247D02*
X261837857Y-109385152D01*
X260590475Y-113602295D02*
X260857142Y-113221342D01*
X261047618Y-113602295D02*
X261047618Y-112802295D01*
X261047618Y-112802295D02*
X260742856Y-112802295D01*
X260742856Y-112802295D02*
X260666666Y-112840390D01*
X260666666Y-112840390D02*
X260628571Y-112878485D01*
X260628571Y-112878485D02*
X260590475Y-112954676D01*
X260590475Y-112954676D02*
X260590475Y-113068961D01*
X260590475Y-113068961D02*
X260628571Y-113145152D01*
X260628571Y-113145152D02*
X260666666Y-113183247D01*
X260666666Y-113183247D02*
X260742856Y-113221342D01*
X260742856Y-113221342D02*
X261047618Y-113221342D01*
X260247618Y-112802295D02*
X260247618Y-113449914D01*
X260247618Y-113449914D02*
X260209523Y-113526104D01*
X260209523Y-113526104D02*
X260171428Y-113564200D01*
X260171428Y-113564200D02*
X260095237Y-113602295D01*
X260095237Y-113602295D02*
X259942856Y-113602295D01*
X259942856Y-113602295D02*
X259866666Y-113564200D01*
X259866666Y-113564200D02*
X259828571Y-113526104D01*
X259828571Y-113526104D02*
X259790475Y-113449914D01*
X259790475Y-113449914D02*
X259790475Y-112802295D01*
X259409523Y-113602295D02*
X259409523Y-112802295D01*
X259409523Y-112802295D02*
X258952380Y-113602295D01*
X258952380Y-113602295D02*
X258952380Y-112802295D01*
X261226190Y-95022295D02*
X260730952Y-95022295D01*
X260730952Y-95022295D02*
X260997618Y-95327057D01*
X260997618Y-95327057D02*
X260883333Y-95327057D01*
X260883333Y-95327057D02*
X260807142Y-95365152D01*
X260807142Y-95365152D02*
X260769047Y-95403247D01*
X260769047Y-95403247D02*
X260730952Y-95479438D01*
X260730952Y-95479438D02*
X260730952Y-95669914D01*
X260730952Y-95669914D02*
X260769047Y-95746104D01*
X260769047Y-95746104D02*
X260807142Y-95784200D01*
X260807142Y-95784200D02*
X260883333Y-95822295D01*
X260883333Y-95822295D02*
X261111904Y-95822295D01*
X261111904Y-95822295D02*
X261188095Y-95784200D01*
X261188095Y-95784200D02*
X261226190Y-95746104D01*
X260502380Y-95022295D02*
X260235713Y-95822295D01*
X260235713Y-95822295D02*
X259969047Y-95022295D01*
X259778571Y-95022295D02*
X259283333Y-95022295D01*
X259283333Y-95022295D02*
X259549999Y-95327057D01*
X259549999Y-95327057D02*
X259435714Y-95327057D01*
X259435714Y-95327057D02*
X259359523Y-95365152D01*
X259359523Y-95365152D02*
X259321428Y-95403247D01*
X259321428Y-95403247D02*
X259283333Y-95479438D01*
X259283333Y-95479438D02*
X259283333Y-95669914D01*
X259283333Y-95669914D02*
X259321428Y-95746104D01*
X259321428Y-95746104D02*
X259359523Y-95784200D01*
X259359523Y-95784200D02*
X259435714Y-95822295D01*
X259435714Y-95822295D02*
X259664285Y-95822295D01*
X259664285Y-95822295D02*
X259740476Y-95784200D01*
X259740476Y-95784200D02*
X259778571Y-95746104D01*
X259130952Y-95898485D02*
X258521428Y-95898485D01*
X258330951Y-95403247D02*
X258064285Y-95403247D01*
X257949999Y-95822295D02*
X258330951Y-95822295D01*
X258330951Y-95822295D02*
X258330951Y-95022295D01*
X258330951Y-95022295D02*
X257949999Y-95022295D01*
X257607141Y-95822295D02*
X257607141Y-95022295D01*
X257607141Y-95022295D02*
X257149998Y-95822295D01*
X257149998Y-95822295D02*
X257149998Y-95022295D01*
X252124523Y-111620390D02*
X252200713Y-111582295D01*
X252200713Y-111582295D02*
X252314999Y-111582295D01*
X252314999Y-111582295D02*
X252429285Y-111620390D01*
X252429285Y-111620390D02*
X252505475Y-111696580D01*
X252505475Y-111696580D02*
X252543570Y-111772771D01*
X252543570Y-111772771D02*
X252581666Y-111925152D01*
X252581666Y-111925152D02*
X252581666Y-112039438D01*
X252581666Y-112039438D02*
X252543570Y-112191819D01*
X252543570Y-112191819D02*
X252505475Y-112268009D01*
X252505475Y-112268009D02*
X252429285Y-112344200D01*
X252429285Y-112344200D02*
X252314999Y-112382295D01*
X252314999Y-112382295D02*
X252238808Y-112382295D01*
X252238808Y-112382295D02*
X252124523Y-112344200D01*
X252124523Y-112344200D02*
X252086427Y-112306104D01*
X252086427Y-112306104D02*
X252086427Y-112039438D01*
X252086427Y-112039438D02*
X252238808Y-112039438D01*
X251743570Y-112382295D02*
X251743570Y-111582295D01*
X251743570Y-111582295D02*
X251286427Y-112382295D01*
X251286427Y-112382295D02*
X251286427Y-111582295D01*
X250905475Y-112382295D02*
X250905475Y-111582295D01*
X250905475Y-111582295D02*
X250714999Y-111582295D01*
X250714999Y-111582295D02*
X250600713Y-111620390D01*
X250600713Y-111620390D02*
X250524523Y-111696580D01*
X250524523Y-111696580D02*
X250486428Y-111772771D01*
X250486428Y-111772771D02*
X250448332Y-111925152D01*
X250448332Y-111925152D02*
X250448332Y-112039438D01*
X250448332Y-112039438D02*
X250486428Y-112191819D01*
X250486428Y-112191819D02*
X250524523Y-112268009D01*
X250524523Y-112268009D02*
X250600713Y-112344200D01*
X250600713Y-112344200D02*
X250714999Y-112382295D01*
X250714999Y-112382295D02*
X250905475Y-112382295D01*
X252817381Y-116700390D02*
X252893571Y-116662295D01*
X252893571Y-116662295D02*
X253007857Y-116662295D01*
X253007857Y-116662295D02*
X253122143Y-116700390D01*
X253122143Y-116700390D02*
X253198333Y-116776580D01*
X253198333Y-116776580D02*
X253236428Y-116852771D01*
X253236428Y-116852771D02*
X253274524Y-117005152D01*
X253274524Y-117005152D02*
X253274524Y-117119438D01*
X253274524Y-117119438D02*
X253236428Y-117271819D01*
X253236428Y-117271819D02*
X253198333Y-117348009D01*
X253198333Y-117348009D02*
X253122143Y-117424200D01*
X253122143Y-117424200D02*
X253007857Y-117462295D01*
X253007857Y-117462295D02*
X252931666Y-117462295D01*
X252931666Y-117462295D02*
X252817381Y-117424200D01*
X252817381Y-117424200D02*
X252779285Y-117386104D01*
X252779285Y-117386104D02*
X252779285Y-117119438D01*
X252779285Y-117119438D02*
X252931666Y-117119438D01*
X252436428Y-117462295D02*
X252436428Y-116662295D01*
X252436428Y-116662295D02*
X252131666Y-116662295D01*
X252131666Y-116662295D02*
X252055476Y-116700390D01*
X252055476Y-116700390D02*
X252017381Y-116738485D01*
X252017381Y-116738485D02*
X251979285Y-116814676D01*
X251979285Y-116814676D02*
X251979285Y-116928961D01*
X251979285Y-116928961D02*
X252017381Y-117005152D01*
X252017381Y-117005152D02*
X252055476Y-117043247D01*
X252055476Y-117043247D02*
X252131666Y-117081342D01*
X252131666Y-117081342D02*
X252436428Y-117081342D01*
X251217381Y-117462295D02*
X251674524Y-117462295D01*
X251445952Y-117462295D02*
X251445952Y-116662295D01*
X251445952Y-116662295D02*
X251522143Y-116776580D01*
X251522143Y-116776580D02*
X251598333Y-116852771D01*
X251598333Y-116852771D02*
X251674524Y-116890866D01*
X250493571Y-116662295D02*
X250874523Y-116662295D01*
X250874523Y-116662295D02*
X250912619Y-117043247D01*
X250912619Y-117043247D02*
X250874523Y-117005152D01*
X250874523Y-117005152D02*
X250798333Y-116967057D01*
X250798333Y-116967057D02*
X250607857Y-116967057D01*
X250607857Y-116967057D02*
X250531666Y-117005152D01*
X250531666Y-117005152D02*
X250493571Y-117043247D01*
X250493571Y-117043247D02*
X250455476Y-117119438D01*
X250455476Y-117119438D02*
X250455476Y-117309914D01*
X250455476Y-117309914D02*
X250493571Y-117386104D01*
X250493571Y-117386104D02*
X250531666Y-117424200D01*
X250531666Y-117424200D02*
X250607857Y-117462295D01*
X250607857Y-117462295D02*
X250798333Y-117462295D01*
X250798333Y-117462295D02*
X250874523Y-117424200D01*
X250874523Y-117424200D02*
X250912619Y-117386104D01*
X264047381Y-114160390D02*
X264123571Y-114122295D01*
X264123571Y-114122295D02*
X264237857Y-114122295D01*
X264237857Y-114122295D02*
X264352143Y-114160390D01*
X264352143Y-114160390D02*
X264428333Y-114236580D01*
X264428333Y-114236580D02*
X264466428Y-114312771D01*
X264466428Y-114312771D02*
X264504524Y-114465152D01*
X264504524Y-114465152D02*
X264504524Y-114579438D01*
X264504524Y-114579438D02*
X264466428Y-114731819D01*
X264466428Y-114731819D02*
X264428333Y-114808009D01*
X264428333Y-114808009D02*
X264352143Y-114884200D01*
X264352143Y-114884200D02*
X264237857Y-114922295D01*
X264237857Y-114922295D02*
X264161666Y-114922295D01*
X264161666Y-114922295D02*
X264047381Y-114884200D01*
X264047381Y-114884200D02*
X264009285Y-114846104D01*
X264009285Y-114846104D02*
X264009285Y-114579438D01*
X264009285Y-114579438D02*
X264161666Y-114579438D01*
X263666428Y-114922295D02*
X263666428Y-114122295D01*
X263666428Y-114122295D02*
X263361666Y-114122295D01*
X263361666Y-114122295D02*
X263285476Y-114160390D01*
X263285476Y-114160390D02*
X263247381Y-114198485D01*
X263247381Y-114198485D02*
X263209285Y-114274676D01*
X263209285Y-114274676D02*
X263209285Y-114388961D01*
X263209285Y-114388961D02*
X263247381Y-114465152D01*
X263247381Y-114465152D02*
X263285476Y-114503247D01*
X263285476Y-114503247D02*
X263361666Y-114541342D01*
X263361666Y-114541342D02*
X263666428Y-114541342D01*
X262447381Y-114922295D02*
X262904524Y-114922295D01*
X262675952Y-114922295D02*
X262675952Y-114122295D01*
X262675952Y-114122295D02*
X262752143Y-114236580D01*
X262752143Y-114236580D02*
X262828333Y-114312771D01*
X262828333Y-114312771D02*
X262904524Y-114350866D01*
X262180714Y-114122295D02*
X261647380Y-114122295D01*
X261647380Y-114122295D02*
X261990238Y-114922295D01*
D11*
X205214286Y-115338838D02*
X205309524Y-115291219D01*
X205309524Y-115291219D02*
X205452381Y-115291219D01*
X205452381Y-115291219D02*
X205595238Y-115338838D01*
X205595238Y-115338838D02*
X205690476Y-115434076D01*
X205690476Y-115434076D02*
X205738095Y-115529314D01*
X205738095Y-115529314D02*
X205785714Y-115719790D01*
X205785714Y-115719790D02*
X205785714Y-115862647D01*
X205785714Y-115862647D02*
X205738095Y-116053123D01*
X205738095Y-116053123D02*
X205690476Y-116148361D01*
X205690476Y-116148361D02*
X205595238Y-116243600D01*
X205595238Y-116243600D02*
X205452381Y-116291219D01*
X205452381Y-116291219D02*
X205357143Y-116291219D01*
X205357143Y-116291219D02*
X205214286Y-116243600D01*
X205214286Y-116243600D02*
X205166667Y-116195980D01*
X205166667Y-116195980D02*
X205166667Y-115862647D01*
X205166667Y-115862647D02*
X205357143Y-115862647D01*
X204738095Y-116291219D02*
X204738095Y-115291219D01*
X204738095Y-115291219D02*
X204166667Y-116291219D01*
X204166667Y-116291219D02*
X204166667Y-115291219D01*
X203690476Y-116291219D02*
X203690476Y-115291219D01*
X203690476Y-115291219D02*
X203452381Y-115291219D01*
X203452381Y-115291219D02*
X203309524Y-115338838D01*
X203309524Y-115338838D02*
X203214286Y-115434076D01*
X203214286Y-115434076D02*
X203166667Y-115529314D01*
X203166667Y-115529314D02*
X203119048Y-115719790D01*
X203119048Y-115719790D02*
X203119048Y-115862647D01*
X203119048Y-115862647D02*
X203166667Y-116053123D01*
X203166667Y-116053123D02*
X203214286Y-116148361D01*
X203214286Y-116148361D02*
X203309524Y-116243600D01*
X203309524Y-116243600D02*
X203452381Y-116291219D01*
X203452381Y-116291219D02*
X203690476Y-116291219D01*
X202071428Y-115291219D02*
X201738095Y-116291219D01*
X201738095Y-116291219D02*
X201404762Y-115291219D01*
X200500000Y-116195980D02*
X200547619Y-116243600D01*
X200547619Y-116243600D02*
X200690476Y-116291219D01*
X200690476Y-116291219D02*
X200785714Y-116291219D01*
X200785714Y-116291219D02*
X200928571Y-116243600D01*
X200928571Y-116243600D02*
X201023809Y-116148361D01*
X201023809Y-116148361D02*
X201071428Y-116053123D01*
X201071428Y-116053123D02*
X201119047Y-115862647D01*
X201119047Y-115862647D02*
X201119047Y-115719790D01*
X201119047Y-115719790D02*
X201071428Y-115529314D01*
X201071428Y-115529314D02*
X201023809Y-115434076D01*
X201023809Y-115434076D02*
X200928571Y-115338838D01*
X200928571Y-115338838D02*
X200785714Y-115291219D01*
X200785714Y-115291219D02*
X200690476Y-115291219D01*
X200690476Y-115291219D02*
X200547619Y-115338838D01*
X200547619Y-115338838D02*
X200500000Y-115386457D01*
X199500000Y-116195980D02*
X199547619Y-116243600D01*
X199547619Y-116243600D02*
X199690476Y-116291219D01*
X199690476Y-116291219D02*
X199785714Y-116291219D01*
X199785714Y-116291219D02*
X199928571Y-116243600D01*
X199928571Y-116243600D02*
X200023809Y-116148361D01*
X200023809Y-116148361D02*
X200071428Y-116053123D01*
X200071428Y-116053123D02*
X200119047Y-115862647D01*
X200119047Y-115862647D02*
X200119047Y-115719790D01*
X200119047Y-115719790D02*
X200071428Y-115529314D01*
X200071428Y-115529314D02*
X200023809Y-115434076D01*
X200023809Y-115434076D02*
X199928571Y-115338838D01*
X199928571Y-115338838D02*
X199785714Y-115291219D01*
X199785714Y-115291219D02*
X199690476Y-115291219D01*
X199690476Y-115291219D02*
X199547619Y-115338838D01*
X199547619Y-115338838D02*
X199500000Y-115386457D01*
X198357142Y-116243600D02*
X198214285Y-116291219D01*
X198214285Y-116291219D02*
X197976190Y-116291219D01*
X197976190Y-116291219D02*
X197880952Y-116243600D01*
X197880952Y-116243600D02*
X197833333Y-116195980D01*
X197833333Y-116195980D02*
X197785714Y-116100742D01*
X197785714Y-116100742D02*
X197785714Y-116005504D01*
X197785714Y-116005504D02*
X197833333Y-115910266D01*
X197833333Y-115910266D02*
X197880952Y-115862647D01*
X197880952Y-115862647D02*
X197976190Y-115815028D01*
X197976190Y-115815028D02*
X198166666Y-115767409D01*
X198166666Y-115767409D02*
X198261904Y-115719790D01*
X198261904Y-115719790D02*
X198309523Y-115672171D01*
X198309523Y-115672171D02*
X198357142Y-115576933D01*
X198357142Y-115576933D02*
X198357142Y-115481695D01*
X198357142Y-115481695D02*
X198309523Y-115386457D01*
X198309523Y-115386457D02*
X198261904Y-115338838D01*
X198261904Y-115338838D02*
X198166666Y-115291219D01*
X198166666Y-115291219D02*
X197928571Y-115291219D01*
X197928571Y-115291219D02*
X197785714Y-115338838D01*
X196785714Y-116195980D02*
X196833333Y-116243600D01*
X196833333Y-116243600D02*
X196976190Y-116291219D01*
X196976190Y-116291219D02*
X197071428Y-116291219D01*
X197071428Y-116291219D02*
X197214285Y-116243600D01*
X197214285Y-116243600D02*
X197309523Y-116148361D01*
X197309523Y-116148361D02*
X197357142Y-116053123D01*
X197357142Y-116053123D02*
X197404761Y-115862647D01*
X197404761Y-115862647D02*
X197404761Y-115719790D01*
X197404761Y-115719790D02*
X197357142Y-115529314D01*
X197357142Y-115529314D02*
X197309523Y-115434076D01*
X197309523Y-115434076D02*
X197214285Y-115338838D01*
X197214285Y-115338838D02*
X197071428Y-115291219D01*
X197071428Y-115291219D02*
X196976190Y-115291219D01*
X196976190Y-115291219D02*
X196833333Y-115338838D01*
X196833333Y-115338838D02*
X196785714Y-115386457D01*
X196357142Y-116291219D02*
X196357142Y-115291219D01*
X195785714Y-116291219D02*
X196214285Y-115719790D01*
X195785714Y-115291219D02*
X196357142Y-115862647D01*
X194642856Y-116243600D02*
X194499999Y-116291219D01*
X194499999Y-116291219D02*
X194261904Y-116291219D01*
X194261904Y-116291219D02*
X194166666Y-116243600D01*
X194166666Y-116243600D02*
X194119047Y-116195980D01*
X194119047Y-116195980D02*
X194071428Y-116100742D01*
X194071428Y-116100742D02*
X194071428Y-116005504D01*
X194071428Y-116005504D02*
X194119047Y-115910266D01*
X194119047Y-115910266D02*
X194166666Y-115862647D01*
X194166666Y-115862647D02*
X194261904Y-115815028D01*
X194261904Y-115815028D02*
X194452380Y-115767409D01*
X194452380Y-115767409D02*
X194547618Y-115719790D01*
X194547618Y-115719790D02*
X194595237Y-115672171D01*
X194595237Y-115672171D02*
X194642856Y-115576933D01*
X194642856Y-115576933D02*
X194642856Y-115481695D01*
X194642856Y-115481695D02*
X194595237Y-115386457D01*
X194595237Y-115386457D02*
X194547618Y-115338838D01*
X194547618Y-115338838D02*
X194452380Y-115291219D01*
X194452380Y-115291219D02*
X194214285Y-115291219D01*
X194214285Y-115291219D02*
X194071428Y-115338838D01*
X193642856Y-116291219D02*
X193642856Y-115291219D01*
X193642856Y-115291219D02*
X193404761Y-115291219D01*
X193404761Y-115291219D02*
X193261904Y-115338838D01*
X193261904Y-115338838D02*
X193166666Y-115434076D01*
X193166666Y-115434076D02*
X193119047Y-115529314D01*
X193119047Y-115529314D02*
X193071428Y-115719790D01*
X193071428Y-115719790D02*
X193071428Y-115862647D01*
X193071428Y-115862647D02*
X193119047Y-116053123D01*
X193119047Y-116053123D02*
X193166666Y-116148361D01*
X193166666Y-116148361D02*
X193261904Y-116243600D01*
X193261904Y-116243600D02*
X193404761Y-116291219D01*
X193404761Y-116291219D02*
X193642856Y-116291219D01*
X192690475Y-116005504D02*
X192214285Y-116005504D01*
X192785713Y-116291219D02*
X192452380Y-115291219D01*
X192452380Y-115291219D02*
X192119047Y-116291219D01*
D10*
X253764285Y-182304819D02*
X253764285Y-181304819D01*
X253764285Y-181304819D02*
X253526190Y-181304819D01*
X253526190Y-181304819D02*
X253383333Y-181352438D01*
X253383333Y-181352438D02*
X253288095Y-181447676D01*
X253288095Y-181447676D02*
X253240476Y-181542914D01*
X253240476Y-181542914D02*
X253192857Y-181733390D01*
X253192857Y-181733390D02*
X253192857Y-181876247D01*
X253192857Y-181876247D02*
X253240476Y-182066723D01*
X253240476Y-182066723D02*
X253288095Y-182161961D01*
X253288095Y-182161961D02*
X253383333Y-182257200D01*
X253383333Y-182257200D02*
X253526190Y-182304819D01*
X253526190Y-182304819D02*
X253764285Y-182304819D01*
X252811904Y-181400057D02*
X252764285Y-181352438D01*
X252764285Y-181352438D02*
X252669047Y-181304819D01*
X252669047Y-181304819D02*
X252430952Y-181304819D01*
X252430952Y-181304819D02*
X252335714Y-181352438D01*
X252335714Y-181352438D02*
X252288095Y-181400057D01*
X252288095Y-181400057D02*
X252240476Y-181495295D01*
X252240476Y-181495295D02*
X252240476Y-181590533D01*
X252240476Y-181590533D02*
X252288095Y-181733390D01*
X252288095Y-181733390D02*
X252859523Y-182304819D01*
X252859523Y-182304819D02*
X252240476Y-182304819D01*
X251288095Y-182304819D02*
X251859523Y-182304819D01*
X251573809Y-182304819D02*
X251573809Y-181304819D01*
X251573809Y-181304819D02*
X251669047Y-181447676D01*
X251669047Y-181447676D02*
X251764285Y-181542914D01*
X251764285Y-181542914D02*
X251859523Y-181590533D01*
X256321428Y-184112295D02*
X256778571Y-184112295D01*
X256549999Y-184112295D02*
X256549999Y-183312295D01*
X256549999Y-183312295D02*
X256626190Y-183426580D01*
X256626190Y-183426580D02*
X256702380Y-183502771D01*
X256702380Y-183502771D02*
X256778571Y-183540866D01*
X254214285Y-159954819D02*
X254214285Y-158954819D01*
X254214285Y-158954819D02*
X253976190Y-158954819D01*
X253976190Y-158954819D02*
X253833333Y-159002438D01*
X253833333Y-159002438D02*
X253738095Y-159097676D01*
X253738095Y-159097676D02*
X253690476Y-159192914D01*
X253690476Y-159192914D02*
X253642857Y-159383390D01*
X253642857Y-159383390D02*
X253642857Y-159526247D01*
X253642857Y-159526247D02*
X253690476Y-159716723D01*
X253690476Y-159716723D02*
X253738095Y-159811961D01*
X253738095Y-159811961D02*
X253833333Y-159907200D01*
X253833333Y-159907200D02*
X253976190Y-159954819D01*
X253976190Y-159954819D02*
X254214285Y-159954819D01*
X253261904Y-159050057D02*
X253214285Y-159002438D01*
X253214285Y-159002438D02*
X253119047Y-158954819D01*
X253119047Y-158954819D02*
X252880952Y-158954819D01*
X252880952Y-158954819D02*
X252785714Y-159002438D01*
X252785714Y-159002438D02*
X252738095Y-159050057D01*
X252738095Y-159050057D02*
X252690476Y-159145295D01*
X252690476Y-159145295D02*
X252690476Y-159240533D01*
X252690476Y-159240533D02*
X252738095Y-159383390D01*
X252738095Y-159383390D02*
X253309523Y-159954819D01*
X253309523Y-159954819D02*
X252690476Y-159954819D01*
X252071428Y-158954819D02*
X251976190Y-158954819D01*
X251976190Y-158954819D02*
X251880952Y-159002438D01*
X251880952Y-159002438D02*
X251833333Y-159050057D01*
X251833333Y-159050057D02*
X251785714Y-159145295D01*
X251785714Y-159145295D02*
X251738095Y-159335771D01*
X251738095Y-159335771D02*
X251738095Y-159573866D01*
X251738095Y-159573866D02*
X251785714Y-159764342D01*
X251785714Y-159764342D02*
X251833333Y-159859580D01*
X251833333Y-159859580D02*
X251880952Y-159907200D01*
X251880952Y-159907200D02*
X251976190Y-159954819D01*
X251976190Y-159954819D02*
X252071428Y-159954819D01*
X252071428Y-159954819D02*
X252166666Y-159907200D01*
X252166666Y-159907200D02*
X252214285Y-159859580D01*
X252214285Y-159859580D02*
X252261904Y-159764342D01*
X252261904Y-159764342D02*
X252309523Y-159573866D01*
X252309523Y-159573866D02*
X252309523Y-159335771D01*
X252309523Y-159335771D02*
X252261904Y-159145295D01*
X252261904Y-159145295D02*
X252214285Y-159050057D01*
X252214285Y-159050057D02*
X252166666Y-159002438D01*
X252166666Y-159002438D02*
X252071428Y-158954819D01*
X256771428Y-161762295D02*
X257228571Y-161762295D01*
X256999999Y-161762295D02*
X256999999Y-160962295D01*
X256999999Y-160962295D02*
X257076190Y-161076580D01*
X257076190Y-161076580D02*
X257152380Y-161152771D01*
X257152380Y-161152771D02*
X257228571Y-161190866D01*
D12*
%TO.C,D16*%
X232175000Y-197515000D02*
X232575000Y-198115000D01*
X232575000Y-197515000D02*
X232575000Y-197015000D01*
X232975000Y-197515000D02*
X232175000Y-197515000D01*
X232575000Y-198115000D02*
X232975000Y-197515000D01*
X233125000Y-198115000D02*
X232025000Y-198115000D01*
X232575000Y-198515000D02*
X232575000Y-198115000D01*
D10*
%TO.C,U1*%
X243610000Y-86470000D02*
X243610000Y-137470000D01*
X243610000Y-137470000D02*
X264610000Y-137470000D01*
X261603000Y-89137000D02*
X261603000Y-86470000D01*
X264610000Y-86470000D02*
X243610000Y-86470000D01*
X264610000Y-86470000D02*
X264610000Y-137470000D01*
X264610000Y-89137000D02*
X261603000Y-89137000D01*
D13*
%TO.C,D21*%
X256050000Y-182600000D02*
X256050000Y-188100000D01*
X256050000Y-182600000D02*
X249050000Y-182600000D01*
X256050000Y-188100000D02*
X249500000Y-188100000D01*
X255250000Y-186250000D02*
X255250000Y-184450000D01*
X249850000Y-186250000D02*
X249850000Y-184450000D01*
X249500000Y-188100000D02*
X249050000Y-187650000D01*
X249050000Y-187650000D02*
X249050000Y-182600000D01*
%TO.C,D20*%
X256500000Y-160250000D02*
X256500000Y-165750000D01*
X256500000Y-160250000D02*
X249500000Y-160250000D01*
X256500000Y-165750000D02*
X249950000Y-165750000D01*
X255700000Y-163900000D02*
X255700000Y-162100000D01*
X250300000Y-163900000D02*
X250300000Y-162100000D01*
X249950000Y-165750000D02*
X249500000Y-165300000D01*
X249500000Y-165300000D02*
X249500000Y-160250000D01*
D12*
%TO.C,D17*%
X213525000Y-188990000D02*
X213525000Y-188590000D01*
X214075000Y-188590000D02*
X212975000Y-188590000D01*
X213525000Y-188590000D02*
X213925000Y-187990000D01*
X213925000Y-187990000D02*
X213125000Y-187990000D01*
X213525000Y-187990000D02*
X213525000Y-187490000D01*
X213125000Y-187990000D02*
X213525000Y-188590000D01*
%TO.C,D15*%
X213525000Y-208040000D02*
X213525000Y-207640000D01*
X214075000Y-207640000D02*
X212975000Y-207640000D01*
X213525000Y-207640000D02*
X213925000Y-207040000D01*
X213925000Y-207040000D02*
X213125000Y-207040000D01*
X213525000Y-207040000D02*
X213525000Y-206540000D01*
X213125000Y-207040000D02*
X213525000Y-207640000D01*
%TO.C,D14*%
X184950000Y-208040000D02*
X184950000Y-207640000D01*
X185500000Y-207640000D02*
X184400000Y-207640000D01*
X184950000Y-207640000D02*
X185350000Y-207040000D01*
X185350000Y-207040000D02*
X184550000Y-207040000D01*
X184950000Y-207040000D02*
X184950000Y-206540000D01*
X184550000Y-207040000D02*
X184950000Y-207640000D01*
%TO.C,D13*%
X194475000Y-188990000D02*
X194475000Y-188590000D01*
X195025000Y-188590000D02*
X193925000Y-188590000D01*
X194475000Y-188590000D02*
X194875000Y-187990000D01*
X194875000Y-187990000D02*
X194075000Y-187990000D01*
X194475000Y-187990000D02*
X194475000Y-187490000D01*
X194075000Y-187990000D02*
X194475000Y-188590000D01*
%TO.C,D12*%
X175425000Y-188990000D02*
X175425000Y-188590000D01*
X175975000Y-188590000D02*
X174875000Y-188590000D01*
X175425000Y-188590000D02*
X175825000Y-187990000D01*
X175825000Y-187990000D02*
X175025000Y-187990000D01*
X175425000Y-187990000D02*
X175425000Y-187490000D01*
X175025000Y-187990000D02*
X175425000Y-188590000D01*
%TO.C,D11*%
X175425000Y-169940000D02*
X175425000Y-169540000D01*
X175975000Y-169540000D02*
X174875000Y-169540000D01*
X175425000Y-169540000D02*
X175825000Y-168940000D01*
X175825000Y-168940000D02*
X175025000Y-168940000D01*
X175425000Y-168940000D02*
X175425000Y-168440000D01*
X175025000Y-168940000D02*
X175425000Y-169540000D01*
%TO.C,D10*%
X194475000Y-169940000D02*
X194475000Y-169540000D01*
X195025000Y-169540000D02*
X193925000Y-169540000D01*
X194475000Y-169540000D02*
X194875000Y-168940000D01*
X194875000Y-168940000D02*
X194075000Y-168940000D01*
X194475000Y-168940000D02*
X194475000Y-168440000D01*
X194075000Y-168940000D02*
X194475000Y-169540000D01*
%TO.C,D9*%
X213525000Y-169940000D02*
X213525000Y-169540000D01*
X214075000Y-169540000D02*
X212975000Y-169540000D01*
X213525000Y-169540000D02*
X213925000Y-168940000D01*
X213925000Y-168940000D02*
X213125000Y-168940000D01*
X213525000Y-168940000D02*
X213525000Y-168440000D01*
X213125000Y-168940000D02*
X213525000Y-169540000D01*
%TO.C,D8*%
X232575000Y-160415000D02*
X232575000Y-160015000D01*
X233125000Y-160015000D02*
X232025000Y-160015000D01*
X232575000Y-160015000D02*
X232975000Y-159415000D01*
X232975000Y-159415000D02*
X232175000Y-159415000D01*
X232575000Y-159415000D02*
X232575000Y-158915000D01*
X232175000Y-159415000D02*
X232575000Y-160015000D01*
%TO.C,D7*%
X213525000Y-150890000D02*
X213525000Y-150490000D01*
X214075000Y-150490000D02*
X212975000Y-150490000D01*
X213525000Y-150490000D02*
X213925000Y-149890000D01*
X213925000Y-149890000D02*
X213125000Y-149890000D01*
X213525000Y-149890000D02*
X213525000Y-149390000D01*
X213125000Y-149890000D02*
X213525000Y-150490000D01*
%TO.C,D6*%
X194475000Y-150890000D02*
X194475000Y-150490000D01*
X195025000Y-150490000D02*
X193925000Y-150490000D01*
X194475000Y-150490000D02*
X194875000Y-149890000D01*
X194875000Y-149890000D02*
X194075000Y-149890000D01*
X194475000Y-149890000D02*
X194475000Y-149390000D01*
X194075000Y-149890000D02*
X194475000Y-150490000D01*
%TO.C,D5*%
X175425000Y-150890000D02*
X175425000Y-150490000D01*
X175975000Y-150490000D02*
X174875000Y-150490000D01*
X175425000Y-150490000D02*
X175825000Y-149890000D01*
X175825000Y-149890000D02*
X175025000Y-149890000D01*
X175425000Y-149890000D02*
X175425000Y-149390000D01*
X175025000Y-149890000D02*
X175425000Y-150490000D01*
%TO.C,D4*%
X232575000Y-131840000D02*
X232575000Y-131440000D01*
X233125000Y-131440000D02*
X232025000Y-131440000D01*
X232575000Y-131440000D02*
X232975000Y-130840000D01*
X232975000Y-130840000D02*
X232175000Y-130840000D01*
X232575000Y-130840000D02*
X232575000Y-130340000D01*
X232175000Y-130840000D02*
X232575000Y-131440000D01*
%TO.C,D3*%
X213525000Y-131840000D02*
X213525000Y-131440000D01*
X214075000Y-131440000D02*
X212975000Y-131440000D01*
X213525000Y-131440000D02*
X213925000Y-130840000D01*
X213925000Y-130840000D02*
X213125000Y-130840000D01*
X213525000Y-130840000D02*
X213525000Y-130340000D01*
X213125000Y-130840000D02*
X213525000Y-131440000D01*
%TO.C,D2*%
X194475000Y-131840000D02*
X194475000Y-131440000D01*
X195025000Y-131440000D02*
X193925000Y-131440000D01*
X194475000Y-131440000D02*
X194875000Y-130840000D01*
X194875000Y-130840000D02*
X194075000Y-130840000D01*
X194475000Y-130840000D02*
X194475000Y-130340000D01*
X194075000Y-130840000D02*
X194475000Y-131440000D01*
%TO.C,D1*%
X175425000Y-131840000D02*
X175425000Y-131440000D01*
X175975000Y-131440000D02*
X174875000Y-131440000D01*
X175425000Y-131440000D02*
X175825000Y-130840000D01*
X175825000Y-130840000D02*
X175025000Y-130840000D01*
X175425000Y-130840000D02*
X175425000Y-130340000D01*
X175025000Y-130840000D02*
X175425000Y-131440000D01*
%TD*%
M02*
