%TF.GenerationSoftware,KiCad,Pcbnew,9.0.7*%
%TF.CreationDate,2026-07-29T06:50:14+03:00*%
%TF.ProjectId,pad,7061642e-6b69-4636-9164-5f7063625858,rev?*%
%TF.SameCoordinates,Original*%
%TF.FileFunction,Plated,1,2,PTH,Mixed*%
%TF.FilePolarity,Positive*%
%FSLAX46Y46*%
G04 Gerber Fmt 4.6, Leading zero omitted, Abs format (unit mm)*
G04 Created by KiCad (PCBNEW 9.0.7) date 2026-07-29 06:50:14*
%MOMM*%
%LPD*%
G01*
G04 APERTURE LIST*
%TA.AperFunction,ViaDrill*%
%ADD10C,0.300000*%
%TD*%
%TA.AperFunction,ComponentDrill*%
%ADD11C,0.800000*%
%TD*%
%TA.AperFunction,ComponentDrill*%
%ADD12C,1.000000*%
%TD*%
%TA.AperFunction,ComponentDrill*%
%ADD13C,1.020000*%
%TD*%
%TA.AperFunction,ComponentDrill*%
%ADD14C,1.500000*%
%TD*%
G04 aperture for slot hole*
%TA.AperFunction,ComponentDrill*%
%ADD15C,1.500000*%
%TD*%
G04 APERTURE END LIST*
D10*
X218000000Y-115000000D03*
X226000000Y-122000000D03*
X230000000Y-133000000D03*
X235000000Y-122000000D03*
X235000000Y-124000000D03*
X247000000Y-125000000D03*
X259000000Y-159000000D03*
D11*
%TO.C,D1*%
X175425000Y-127280000D03*
X175425000Y-134900000D03*
%TO.C,D5*%
X175425000Y-146330000D03*
X175425000Y-153950000D03*
%TO.C,D11*%
X175425000Y-165380000D03*
X175425000Y-173000000D03*
%TO.C,D12*%
X175425000Y-184430000D03*
X175425000Y-192050000D03*
%TO.C,D18*%
X179495000Y-121745000D03*
X179495000Y-129365000D03*
%TO.C,D14*%
X184950000Y-203480000D03*
X184950000Y-211100000D03*
%TO.C,D2*%
X194475000Y-127280000D03*
X194475000Y-134900000D03*
%TO.C,D6*%
X194475000Y-146330000D03*
X194475000Y-153950000D03*
%TO.C,D10*%
X194475000Y-165380000D03*
X194475000Y-173000000D03*
%TO.C,D13*%
X194475000Y-184430000D03*
X194475000Y-192050000D03*
%TO.C,D3*%
X213525000Y-127280000D03*
X213525000Y-134900000D03*
%TO.C,D7*%
X213525000Y-146330000D03*
X213525000Y-153950000D03*
%TO.C,D9*%
X213525000Y-165380000D03*
X213525000Y-173000000D03*
%TO.C,D17*%
X213525000Y-184430000D03*
X213525000Y-192050000D03*
%TO.C,D15*%
X213525000Y-203480000D03*
X213525000Y-211100000D03*
%TO.C,D19*%
X217495000Y-119745000D03*
X217495000Y-127365000D03*
%TO.C,D4*%
X232575000Y-127280000D03*
X232575000Y-134900000D03*
%TO.C,D8*%
X232575000Y-155855000D03*
X232575000Y-163475000D03*
%TO.C,D16*%
X232575000Y-193955000D03*
X232575000Y-201575000D03*
D12*
%TO.C,SW18*%
X161995000Y-110055000D03*
X161995000Y-112555000D03*
X161995000Y-115055000D03*
X176495000Y-110055000D03*
X176495000Y-115055000D03*
%TO.C,J1*%
X195190000Y-114000000D03*
X197730000Y-114000000D03*
X200270000Y-114000000D03*
X202810000Y-114000000D03*
%TO.C,SW19*%
X220995000Y-109555000D03*
X220995000Y-112055000D03*
X220995000Y-114555000D03*
X235495000Y-109555000D03*
X235495000Y-114555000D03*
D13*
%TO.C,U1*%
X245220000Y-87840000D03*
X245220000Y-90380000D03*
X245220000Y-92920000D03*
X245220000Y-95460000D03*
X245220000Y-98000000D03*
X245220000Y-100540000D03*
X245220000Y-103080000D03*
X245220000Y-105620000D03*
X245220000Y-108160000D03*
X245220000Y-110700000D03*
X245220000Y-113240000D03*
X245220000Y-115780000D03*
X245220000Y-118320000D03*
X245220000Y-120860000D03*
X245220000Y-123400000D03*
X245220000Y-125940000D03*
X245220000Y-128480000D03*
X245220000Y-131020000D03*
X245220000Y-133560000D03*
X245220000Y-136100000D03*
X251570000Y-135870000D03*
X254110000Y-135870000D03*
X256650000Y-135870000D03*
X263000000Y-87840000D03*
X263000000Y-90380000D03*
X263000000Y-92920000D03*
X263000000Y-95460000D03*
X263000000Y-98000000D03*
X263000000Y-100540000D03*
X263000000Y-103080000D03*
X263000000Y-105620000D03*
X263000000Y-108160000D03*
X263000000Y-110700000D03*
X263000000Y-113240000D03*
X263000000Y-115780000D03*
X263000000Y-118320000D03*
X263000000Y-120860000D03*
X263000000Y-123400000D03*
X263000000Y-125940000D03*
X263000000Y-128480000D03*
X263000000Y-131020000D03*
X263000000Y-133560000D03*
X263000000Y-136100000D03*
D14*
%TO.C,SW1*%
X166535000Y-128360000D03*
%TO.C,SW5*%
X166535000Y-147410000D03*
%TO.C,SW9*%
X166535000Y-166460000D03*
%TO.C,SW12*%
X166535000Y-185510000D03*
D15*
%TO.C,SW18*%
X170145000Y-106955000D02*
X168845000Y-106955000D01*
X170145000Y-118155000D02*
X168845000Y-118155000D01*
D14*
%TO.C,SW1*%
X172885000Y-125820000D03*
%TO.C,SW5*%
X172885000Y-144870000D03*
%TO.C,SW9*%
X172885000Y-163920000D03*
%TO.C,SW12*%
X172885000Y-182970000D03*
%TO.C,SW16*%
X176060000Y-204560000D03*
X182410000Y-202020000D03*
%TO.C,SW2*%
X185585000Y-128360000D03*
%TO.C,SW6*%
X185585000Y-147410000D03*
%TO.C,SW10*%
X185585000Y-166460000D03*
%TO.C,SW13*%
X185585000Y-185510000D03*
%TO.C,SW2*%
X191935000Y-125820000D03*
%TO.C,SW6*%
X191935000Y-144870000D03*
%TO.C,SW10*%
X191935000Y-163920000D03*
%TO.C,SW13*%
X191935000Y-182970000D03*
%TO.C,SW3*%
X204635000Y-128360000D03*
%TO.C,SW7*%
X204635000Y-147410000D03*
%TO.C,SW11*%
X204635000Y-166460000D03*
%TO.C,SW14*%
X204635000Y-185510000D03*
%TO.C,SW17*%
X204635000Y-204560000D03*
%TO.C,SW3*%
X210985000Y-125820000D03*
%TO.C,SW7*%
X210985000Y-144870000D03*
%TO.C,SW11*%
X210985000Y-163920000D03*
%TO.C,SW14*%
X210985000Y-182970000D03*
%TO.C,SW17*%
X210985000Y-202020000D03*
%TO.C,SW8*%
X222415000Y-156935000D03*
%TO.C,SW15*%
X222415000Y-195035000D03*
%TO.C,SW4*%
X223685000Y-128360000D03*
%TO.C,SW8*%
X224955000Y-163285000D03*
%TO.C,SW15*%
X224955000Y-201385000D03*
D15*
%TO.C,SW19*%
X229145000Y-106455000D02*
X227845000Y-106455000D01*
X229145000Y-117655000D02*
X227845000Y-117655000D01*
D14*
%TO.C,SW4*%
X230035000Y-125820000D03*
M02*
