%TF.GenerationSoftware,KiCad,Pcbnew,9.0.7*%
%TF.CreationDate,2026-07-29T11:41:21+03:00*%
%TF.ProjectId,pad,7061642e-6b69-4636-9164-5f7063625858,rev?*%
%TF.SameCoordinates,Original*%
%TF.FileFunction,Soldermask,Bot*%
%TF.FilePolarity,Negative*%
%FSLAX46Y46*%
G04 Gerber Fmt 4.6, Leading zero omitted, Abs format (unit mm)*
G04 Created by KiCad (PCBNEW 9.0.7) date 2026-07-29 11:41:21*
%MOMM*%
%LPD*%
G01*
G04 APERTURE LIST*
G04 Aperture macros list*
%AMRoundRect*
0 Rectangle with rounded corners*
0 $1 Rounding radius*
0 $2 $3 $4 $5 $6 $7 $8 $9 X,Y pos of 4 corners*
0 Add a 4 corners polygon primitive as box body*
4,1,4,$2,$3,$4,$5,$6,$7,$8,$9,$2,$3,0*
0 Add four circle primitives for the rounded corners*
1,1,$1+$1,$2,$3*
1,1,$1+$1,$4,$5*
1,1,$1+$1,$6,$7*
1,1,$1+$1,$8,$9*
0 Add four rect primitives between the rounded corners*
20,1,$1+$1,$2,$3,$4,$5,0*
20,1,$1+$1,$4,$5,$6,$7,0*
20,1,$1+$1,$6,$7,$8,$9,0*
20,1,$1+$1,$8,$9,$2,$3,0*%
G04 Aperture macros list end*
%ADD10C,3.200000*%
%ADD11C,2.000000*%
%ADD12R,3.200000X2.000000*%
%ADD13R,2.000000X2.000000*%
%ADD14C,2.100000*%
%ADD15O,2.200000X1.600000*%
%ADD16R,1.600000X1.600000*%
%ADD17O,1.600000X1.600000*%
%ADD18C,2.500000*%
%ADD19C,1.750000*%
%ADD20C,4.000000*%
%ADD21O,1.700000X1.700000*%
%ADD22R,1.700000X1.700000*%
%ADD23C,2.404000*%
%ADD24RoundRect,0.102000X0.754000X0.754000X-0.754000X0.754000X-0.754000X-0.754000X0.754000X-0.754000X0*%
%ADD25C,1.712000*%
%ADD26RoundRect,0.090000X0.660000X0.360000X-0.660000X0.360000X-0.660000X-0.360000X0.660000X-0.360000X0*%
G04 APERTURE END LIST*
D10*
%TO.C,H4*%
X3475000Y-3475000D03*
%TD*%
%TO.C,H2*%
X263000000Y-214000000D03*
%TD*%
%TO.C,H1*%
X162000000Y-93000000D03*
%TD*%
D11*
%TO.C,SW18*%
X176495000Y-110055000D03*
X176495000Y-115055000D03*
D12*
X169495000Y-118155000D03*
X169495000Y-106955000D03*
D11*
X161995000Y-112555000D03*
X161995000Y-115055000D03*
D13*
X161995000Y-110055000D03*
D14*
X169495000Y-112555000D03*
D15*
X164995000Y-112555000D03*
%TD*%
%TO.C,SW19*%
X223995000Y-112055000D03*
D14*
X228495000Y-112055000D03*
D13*
X220995000Y-109555000D03*
D11*
X220995000Y-114555000D03*
X220995000Y-112055000D03*
D12*
X228495000Y-106455000D03*
X228495000Y-117655000D03*
D11*
X235495000Y-114555000D03*
X235495000Y-109555000D03*
%TD*%
D16*
%TO.C,D19*%
X217495000Y-127365000D03*
D17*
X217495000Y-119745000D03*
%TD*%
D16*
%TO.C,D18*%
X179495000Y-129365000D03*
D17*
X179495000Y-121745000D03*
%TD*%
%TO.C,D16*%
X232575000Y-193955000D03*
D16*
X232575000Y-201575000D03*
%TD*%
D18*
%TO.C,SW15*%
X222415000Y-195035000D03*
X224955000Y-201385000D03*
D19*
X227495000Y-192495000D03*
D20*
X227495000Y-197575000D03*
D19*
X227495000Y-202655000D03*
%TD*%
%TO.C,SW17*%
X203365000Y-207100000D03*
D20*
X208445000Y-207100000D03*
D19*
X213525000Y-207100000D03*
D18*
X204635000Y-204560000D03*
X210985000Y-202020000D03*
%TD*%
D19*
%TO.C,SW16*%
X174790000Y-207100000D03*
D20*
X179870000Y-207100000D03*
D19*
X184950000Y-207100000D03*
D18*
X176060000Y-204560000D03*
X182410000Y-202020000D03*
%TD*%
D19*
%TO.C,SW14*%
X203365000Y-188050000D03*
D20*
X208445000Y-188050000D03*
D19*
X213525000Y-188050000D03*
D18*
X204635000Y-185510000D03*
X210985000Y-182970000D03*
%TD*%
D19*
%TO.C,SW13*%
X184315000Y-188050000D03*
D20*
X189395000Y-188050000D03*
D19*
X194475000Y-188050000D03*
D18*
X185585000Y-185510000D03*
X191935000Y-182970000D03*
%TD*%
D19*
%TO.C,SW12*%
X165265000Y-188050000D03*
D20*
X170345000Y-188050000D03*
D19*
X175425000Y-188050000D03*
D18*
X166535000Y-185510000D03*
X172885000Y-182970000D03*
%TD*%
D19*
%TO.C,SW11*%
X203365000Y-169000000D03*
D20*
X208445000Y-169000000D03*
D19*
X213525000Y-169000000D03*
D18*
X204635000Y-166460000D03*
X210985000Y-163920000D03*
%TD*%
D19*
%TO.C,SW8*%
X227495000Y-164555000D03*
D20*
X227495000Y-159475000D03*
D19*
X227495000Y-154395000D03*
D18*
X224955000Y-163285000D03*
X222415000Y-156935000D03*
%TD*%
D21*
%TO.C,U1*%
X245220000Y-87840000D03*
X245220000Y-90380000D03*
D22*
X245220000Y-92920000D03*
D21*
X245220000Y-95460000D03*
X245220000Y-98000000D03*
X245220000Y-100540000D03*
X245220000Y-103080000D03*
D22*
X245220000Y-105620000D03*
D21*
X245220000Y-108160000D03*
X245220000Y-110700000D03*
X245220000Y-113240000D03*
X245220000Y-115780000D03*
D22*
X245220000Y-118320000D03*
D21*
X245220000Y-120860000D03*
X245220000Y-123400000D03*
X245220000Y-125940000D03*
X245220000Y-128480000D03*
D22*
X245220000Y-131020000D03*
D21*
X245220000Y-133560000D03*
X245220000Y-136100000D03*
X263000000Y-136100000D03*
X263000000Y-133560000D03*
D22*
X263000000Y-131020000D03*
D21*
X263000000Y-128480000D03*
X263000000Y-125940000D03*
X263000000Y-123400000D03*
X263000000Y-120860000D03*
D22*
X263000000Y-118320000D03*
D21*
X263000000Y-115780000D03*
X263000000Y-113240000D03*
X263000000Y-110700000D03*
X263000000Y-108160000D03*
D22*
X263000000Y-105620000D03*
D21*
X263000000Y-103080000D03*
X263000000Y-100540000D03*
X263000000Y-98000000D03*
X263000000Y-95460000D03*
D22*
X263000000Y-92920000D03*
D21*
X263000000Y-90380000D03*
X263000000Y-87840000D03*
X251570000Y-135870000D03*
D22*
X254110000Y-135870000D03*
D21*
X256650000Y-135870000D03*
%TD*%
D19*
%TO.C,SW10*%
X184315000Y-169000000D03*
D20*
X189395000Y-169000000D03*
D19*
X194475000Y-169000000D03*
D18*
X185585000Y-166460000D03*
X191935000Y-163920000D03*
%TD*%
D19*
%TO.C,SW9*%
X165265000Y-169000000D03*
D20*
X170345000Y-169000000D03*
D19*
X175425000Y-169000000D03*
D18*
X166535000Y-166460000D03*
X172885000Y-163920000D03*
%TD*%
D19*
%TO.C,SW7*%
X203365000Y-149950000D03*
D20*
X208445000Y-149950000D03*
D19*
X213525000Y-149950000D03*
D18*
X204635000Y-147410000D03*
X210985000Y-144870000D03*
%TD*%
D19*
%TO.C,SW6*%
X184315000Y-149950000D03*
D20*
X189395000Y-149950000D03*
D19*
X194475000Y-149950000D03*
D18*
X185585000Y-147410000D03*
X191935000Y-144870000D03*
%TD*%
D19*
%TO.C,SW5*%
X165265000Y-149950000D03*
D20*
X170345000Y-149950000D03*
D19*
X175425000Y-149950000D03*
D18*
X166535000Y-147410000D03*
X172885000Y-144870000D03*
%TD*%
D19*
%TO.C,SW4*%
X222415000Y-130900000D03*
D20*
X227495000Y-130900000D03*
D19*
X232575000Y-130900000D03*
D18*
X223685000Y-128360000D03*
X230035000Y-125820000D03*
%TD*%
D19*
%TO.C,SW3*%
X203365000Y-130900000D03*
D20*
X208445000Y-130900000D03*
D19*
X213525000Y-130900000D03*
D18*
X204635000Y-128360000D03*
X210985000Y-125820000D03*
%TD*%
D19*
%TO.C,SW2*%
X184315000Y-130900000D03*
D20*
X189395000Y-130900000D03*
D19*
X194475000Y-130900000D03*
D18*
X185585000Y-128360000D03*
X191935000Y-125820000D03*
%TD*%
D19*
%TO.C,SW1*%
X165265000Y-130900000D03*
D20*
X170345000Y-130900000D03*
D19*
X175425000Y-130900000D03*
D18*
X166535000Y-128360000D03*
X172885000Y-125820000D03*
%TD*%
D23*
%TO.C,J1*%
X188495550Y-90500000D03*
X188495550Y-113500000D03*
X209500000Y-90500000D03*
X209500000Y-113500000D03*
D24*
X202810000Y-114000000D03*
D25*
X200270000Y-114000000D03*
X197730000Y-114000000D03*
X195190000Y-114000000D03*
%TD*%
D26*
%TO.C,D21*%
X255000000Y-183700000D03*
X255000000Y-187000000D03*
X250100000Y-187000000D03*
X250100000Y-183700000D03*
%TD*%
%TO.C,D20*%
X255450000Y-161350000D03*
X255450000Y-164650000D03*
X250550000Y-164650000D03*
X250550000Y-161350000D03*
%TD*%
D16*
%TO.C,D17*%
X213525000Y-192050000D03*
D17*
X213525000Y-184430000D03*
%TD*%
D16*
%TO.C,D15*%
X213525000Y-211100000D03*
D17*
X213525000Y-203480000D03*
%TD*%
D16*
%TO.C,D14*%
X184950000Y-211100000D03*
D17*
X184950000Y-203480000D03*
%TD*%
D16*
%TO.C,D13*%
X194475000Y-192050000D03*
D17*
X194475000Y-184430000D03*
%TD*%
D16*
%TO.C,D12*%
X175425000Y-192050000D03*
D17*
X175425000Y-184430000D03*
%TD*%
D16*
%TO.C,D11*%
X175425000Y-173000000D03*
D17*
X175425000Y-165380000D03*
%TD*%
D16*
%TO.C,D10*%
X194475000Y-173000000D03*
D17*
X194475000Y-165380000D03*
%TD*%
D16*
%TO.C,D9*%
X213525000Y-173000000D03*
D17*
X213525000Y-165380000D03*
%TD*%
D16*
%TO.C,D8*%
X232575000Y-163475000D03*
D17*
X232575000Y-155855000D03*
%TD*%
D16*
%TO.C,D7*%
X213525000Y-153950000D03*
D17*
X213525000Y-146330000D03*
%TD*%
D16*
%TO.C,D6*%
X194475000Y-153950000D03*
D17*
X194475000Y-146330000D03*
%TD*%
D16*
%TO.C,D5*%
X175425000Y-153950000D03*
D17*
X175425000Y-146330000D03*
%TD*%
D16*
%TO.C,D4*%
X232575000Y-134900000D03*
D17*
X232575000Y-127280000D03*
%TD*%
D16*
%TO.C,D3*%
X213525000Y-134900000D03*
D17*
X213525000Y-127280000D03*
%TD*%
D16*
%TO.C,D2*%
X194475000Y-134900000D03*
D17*
X194475000Y-127280000D03*
%TD*%
D16*
%TO.C,D1*%
X175425000Y-134900000D03*
D17*
X175425000Y-127280000D03*
%TD*%
M02*
